<?xml version="1.0" encoding="UTF-8" standalone="no"?>
<!DOCTYPE svg PUBLIC "-//W3C//DTD SVG 1.1//EN" "http://www.w3.org/Graphics/SVG/1.1/DTD/svg11.dtd">
<svg xmlns="http://www.w3.org/2000/svg" version="1.1" viewBox="0 0 104 96">
<path fill="#eab059" d="M 51.06,0.00 Q 51.69,0.00 52.31,0.00 Q 55.06,1.85 54.86,5.10 Q 54.75,6.85 54.75,6.91 Q 54.75,11.71 54.75,17.83 Q 54.75,18.90 54.24,19.84 Q 52.39,23.26 49.65,20.76 A 3.49,3.49 21.1 0 1 48.50,18.17 Q 48.50,10.50 48.50,3.50 Q 48.50,1.03 51.06,0.00 Z"/>
<path fill="#eab059" d="M 14.37,22.52 Q 18.57,27.05 22.06,32.69 Q 23.18,34.49 22.79,36.54 Q 22.45,38.34 21.22,39.22 Q 20.00,40.10 18.58,39.38 Q 17.77,38.97 16.84,37.69 Q 13.83,33.57 10.84,29.42 Q 8.38,26.00 10.95,22.68 Q 12.57,20.58 14.37,22.52 Z"/>
<path fill="#eab059" d="M 82.20,39.32 Q 78.63,36.19 81.41,32.17 Q 84.44,27.77 87.77,23.58 Q 88.95,22.10 90.01,21.84 Q 91.84,21.41 92.94,23.56 Q 94.19,26.01 93.20,28.22 Q 93.05,28.56 90.73,31.77 Q 88.08,35.44 85.35,39.01 Q 83.95,40.85 82.20,39.32 Z"/>
<path fill="#eab059" d="M 71.73,38.76 Q 72.76,39.71 73.69,40.81 Q 84.81,53.98 86.75,72.50 Q 86.94,74.32 85.48,74.11 Q 84.94,74.03 84.52,74.14 Q 82.58,74.65 80.77,73.90 A 0.84,0.80 -81.5 0 1 80.28,73.20 Q 79.22,59.44 70.90,49.41 Q 65.89,43.36 59.69,40.87 Q 52.23,37.88 44.92,40.29 Q 36.18,43.19 29.96,52.59 Q 24.03,61.57 22.91,73.42 A 0.88,0.85 -87.4 0 1 22.06,74.22 L 17.08,74.20 A 0.66,0.63 -87.9 0 1 16.45,73.49 Q 17.72,54.84 29.37,41.36 Q 34.92,34.94 42.46,32.23 Q 49.96,29.53 57.68,31.26 Q 65.50,33.01 71.73,38.76 Z"/>
<path fill="#eab059" d="M 100.69,96.00 Q 51.69,96.00 2.69,96.00 Q 0.67,95.08 0.00,92.94 Q 0.00,91.81 0.00,90.69 Q 1.06,86.93 4.89,87.16 Q 6.52,87.25 6.63,87.25 Q 52.58,87.25 99.62,87.25 Q 101.27,87.25 102.19,88.63 Q 105.04,92.92 100.69,96.00 Z"/>
</svg>
