<?xml version="1.0" encoding="UTF-8" standalone="no"?>
<!DOCTYPE svg PUBLIC "-//W3C//DTD SVG 1.1//EN" "http://www.w3.org/Graphics/SVG/1.1/DTD/svg11.dtd">
<svg xmlns="http://www.w3.org/2000/svg" version="1.1" viewBox="0 0 80 77">
<path fill="#010101" d="M 21.31,0.00 Q 24.06,0.00 26.81,0.00 Q 39.52,6.51 40.73,20.73 Q 40.85,22.22 42.05,21.32 Q 53.65,12.63 68.62,12.50 A 1.61,1.61 -0.4 0 1 70.25,14.11 Q 70.25,15.95 70.25,17.59 Q 70.25,20.17 70.34,20.37 Q 70.84,21.50 72.88,22.27 A 4.67,4.66 -7.7 0 1 75.00,23.88 Q 75.34,24.35 77.19,24.06 Q 79.28,23.73 80.00,26.31 Q 80.00,51.66 80.00,77.00 Q 40.00,77.00 0.00,77.00 Q 0.00,73.22 0.00,69.44 Q 0.61,68.93 1.25,68.46 Q 2.75,69.51 2.50,71.53 Q 2.25,73.50 2.25,75.12 A 0.88,0.88 0.0 0 0 3.13,76.00 L 35.74,76.00 A 1.94,1.63 -56.3 0 0 36.67,75.73 Q 39.92,73.74 43.08,75.72 A 1.95,1.62 56.8 0 0 43.99,76.00 L 77.05,76.18 A 0.69,0.68 0.4 0 0 77.75,75.50 L 77.69,27.31 A 1.04,0.84 -76.2 0 0 77.31,26.50 Q 76.47,25.94 75.51,26.33 A 0.82,0.73 79.8 0 0 75.06,27.06 L 74.94,72.18 A 1.33,1.32 0.0 0 1 73.61,73.50 L 6.44,73.50 A 1.44,1.44 3.2 0 1 5.00,72.06 L 5.06,27.19 A 0.73,0.68 -81.1 0 0 4.60,26.51 Q 2.03,25.61 2.18,28.34 Q 2.25,29.59 2.25,29.65 Q 2.25,45.07 2.25,60.50 Q 2.25,63.14 1.25,64.29 Q 0.36,63.70 0.00,62.69 Q 0.00,44.44 0.00,26.19 Q 1.01,23.67 3.75,23.93 A 1.45,1.25 27.1 0 0 4.66,23.71 Q 8.16,21.33 12.33,20.41 A 0.64,0.61 -6.5 0 0 12.83,19.81 L 12.99,4.52 A 1.45,1.35 -81.6 0 1 14.74,3.12 L 19.60,4.63 Q 21.36,5.17 20.92,3.43 Q 20.35,1.18 21.31,0.00 ZM 23.67,46.31 Q 33.74,49.33 38.19,58.83 Q 38.68,59.87 38.69,58.72 Q 38.78,45.95 38.76,32.86 Q 38.75,22.87 38.61,21.64 Q 37.95,15.97 35.17,10.79 Q 31.59,4.11 23.96,1.39 A 0.68,0.67 -80.3 0 0 23.06,2.03 L 23.00,45.41 A 0.94,0.94 -81.7 0 0 23.67,46.31 ZM 15.75,5.86 A 0.40,0.38 -81.6 0 0 15.25,6.25 L 15.31,50.19 A 0.65,0.65 -82.5 0 0 15.79,50.82 Q 29.05,54.47 37.26,65.51 Q 38.29,66.89 37.94,65.20 Q 35.32,52.46 21.95,48.25 A 1.72,1.72 -81.2 0 1 20.75,46.61 L 20.75,8.12 A 0.86,0.75 -82.1 0 0 20.23,7.33 L 15.75,5.86 ZM 69.96,33.56 L 70.23,60.41 Q 70.25,62.25 68.36,62.25 Q 60.69,62.24 53.47,65.06 Q 53.00,65.25 53.50,65.21 Q 62.85,64.55 71.95,66.81 A 0.39,0.38 7.5 0 0 72.44,66.44 L 72.44,25.05 A 1.06,0.95 -73.2 0 0 72.06,24.24 Q 70.89,23.32 70.28,24.24 A 1.38,0.83 64.4 0 0 70.19,25.17 Q 70.86,27.93 68.55,27.54 A 0.63,0.62 3.9 0 1 68.02,26.94 L 67.79,15.43 A 0.49,0.48 88.8 0 0 67.30,14.95 Q 53.10,15.22 41.63,24.65 A 1.03,1.03 -19.6 0 0 41.25,25.45 L 41.25,68.62 Q 41.25,69.13 41.67,68.84 Q 53.45,60.54 67.44,59.71 A 0.51,0.51 -2.9 0 0 67.92,59.18 Q 67.45,46.59 67.98,34.00 A 1.15,0.81 79.5 0 1 68.37,33.16 Q 68.84,32.84 69.45,32.93 A 0.66,0.60 -86.4 0 1 69.96,33.56 ZM 25.69,65.31 Q 31.02,66.16 35.90,68.21 Q 36.72,68.55 36.20,67.83 Q 27.72,56.04 14.11,52.82 A 1.49,1.47 -83.5 0 1 12.99,51.39 L 12.83,23.45 A 0.45,0.41 82.5 0 0 12.31,23.01 L 8.18,24.19 A 1.09,0.92 83.5 0 0 7.50,25.21 L 7.56,66.69 A 0.37,0.36 81.3 0 0 8.03,67.04 Q 17.80,64.06 25.69,65.31 ZM 31.82,69.16 Q 19.80,65.38 8.03,69.64 A 0.84,0.55 -16.0 0 0 7.45,70.31 L 7.51,70.81 A 0.75,0.49 -1.9 0 0 8.24,71.25 L 35.66,71.19 Q 36.62,71.18 35.76,70.75 Q 33.85,69.80 31.82,69.16 ZM 71.81,69.44 Q 57.49,64.80 43.88,70.78 Q 42.82,71.25 43.98,71.25 L 71.51,71.25 A 1.23,0.99 17.1 0 0 72.36,70.91 Q 73.25,69.90 71.81,69.44 Z"/>
<path fill="#e4ecf2" d="M 23.67,46.31 A 0.94,0.94 -81.7 0 1 23.00,45.41 L 23.06,2.03 A 0.68,0.67 -80.3 0 1 23.96,1.39 Q 31.59,4.11 35.17,10.79 Q 37.95,15.97 38.61,21.64 Q 38.75,22.87 38.76,32.86 Q 38.78,45.95 38.69,58.72 Q 38.68,59.87 38.19,58.83 Q 33.74,49.33 23.67,46.31 Z"/>
<path fill="#f0f5fa" d="M 15.75,5.86 L 20.23,7.33 A 0.86,0.75 -82.1 0 1 20.75,8.12 L 20.75,46.61 A 1.72,1.72 -81.2 0 0 21.95,48.25 Q 35.32,52.46 37.94,65.20 Q 38.29,66.89 37.26,65.51 Q 29.05,54.47 15.79,50.82 A 0.65,0.65 -82.5 0 1 15.31,50.19 L 15.25,6.25 A 0.40,0.38 -81.6 0 1 15.75,5.86 Z"/>
<path fill="#f0f5fa" d="M 69.45,32.93 Q 68.84,32.84 68.37,33.16 A 1.15,0.81 79.5 0 0 67.98,34.00 Q 67.45,46.59 67.92,59.18 A 0.51,0.51 -2.9 0 1 67.44,59.71 Q 53.45,60.54 41.67,68.84 Q 41.25,69.13 41.25,68.62 L 41.25,25.45 A 1.03,1.03 -19.6 0 1 41.63,24.65 Q 53.10,15.22 67.30,14.95 A 0.49,0.48 88.8 0 1 67.79,15.43 L 68.02,26.94 A 0.63,0.62 3.9 0 0 68.55,27.54 Q 70.86,27.93 70.19,25.17 A 1.38,0.83 64.4 0 1 70.28,24.24 Q 70.89,23.32 72.06,24.24 A 1.06,0.95 -73.2 0 1 72.44,25.05 L 72.44,66.44 A 0.39,0.38 7.5 0 1 71.95,66.81 Q 62.85,64.55 53.50,65.21 Q 53.00,65.25 53.47,65.06 Q 60.69,62.24 68.36,62.25 Q 70.25,62.25 70.23,60.41 L 69.96,33.56 A 0.66,0.60 -86.4 0 0 69.45,32.93 Z"/>
<path fill="#e4ecf2" d="M 25.69,65.31 Q 17.80,64.06 8.03,67.04 A 0.37,0.36 81.3 0 1 7.56,66.69 L 7.50,25.21 A 1.09,0.92 83.5 0 1 8.18,24.19 L 12.31,23.01 A 0.45,0.41 82.5 0 1 12.83,23.45 L 12.99,51.39 A 1.49,1.47 -83.5 0 0 14.11,52.82 Q 27.72,56.04 36.20,67.83 Q 36.72,68.55 35.90,68.21 Q 31.02,66.16 25.69,65.31 Z"/>
<path fill="#6b9cfe" d="M 1.25,68.46 L 1.25,64.29 Q 2.25,63.14 2.25,60.50 Q 2.25,45.07 2.25,29.65 Q 2.25,29.59 2.18,28.34 Q 2.03,25.61 4.60,26.51 A 0.73,0.68 -81.1 0 1 5.06,27.19 L 5.00,72.06 A 1.44,1.44 0.0 0 0 6.44,73.50 L 73.61,73.50 A 1.33,1.32 0.0 0 0 74.94,72.18 L 75.06,27.06 A 0.82,0.73 79.8 0 1 75.51,26.33 Q 76.47,25.94 77.31,26.50 A 1.04,0.84 -76.2 0 1 77.69,27.31 L 77.75,75.50 A 0.69,0.68 0.4 0 1 77.05,76.18 L 43.99,76.00 A 1.95,1.62 56.8 0 1 43.08,75.72 Q 39.92,73.74 36.67,75.73 A 1.94,1.63 -56.3 0 1 35.74,76.00 L 3.13,76.00 A 0.88,0.88 -2.1 0 1 2.25,75.12 Q 2.25,73.50 2.50,71.53 Q 2.75,69.51 1.25,68.46 Z"/>
<path fill="#c4d7e6" d="M 31.82,69.16 Q 33.85,69.80 35.76,70.75 Q 36.62,71.18 35.66,71.19 L 8.24,71.25 A 0.75,0.49 -1.9 0 1 7.51,70.81 L 7.45,70.31 A 0.84,0.55 -16.0 0 1 8.03,69.64 Q 19.80,65.38 31.82,69.16 Z"/>
<path fill="#c4d7e6" d="M 71.81,69.44 Q 73.25,69.90 72.36,70.91 A 1.23,0.99 17.1 0 1 71.51,71.25 L 43.98,71.25 Q 42.82,71.25 43.88,70.78 Q 57.49,64.80 71.81,69.44 Z"/>
</svg>
