<?xml version="1.0" encoding="UTF-8" standalone="no"?>
<!DOCTYPE svg PUBLIC "-//W3C//DTD SVG 1.1//EN" "http://www.w3.org/Graphics/SVG/1.1/DTD/svg11.dtd">
<svg xmlns="http://www.w3.org/2000/svg" version="1.1" viewBox="0 0 512 493">
<path fill="#060606" d="M 133.06,0.00 Q 151.94,0.00 170.81,0.00 Q 172.50,0.29 174.69,1.31 Q 208.39,17.07 229.62,46.52 Q 235.08,54.08 240.10,63.53 Q 258.94,99.02 262.53,139.80 Q 262.62,140.91 263.48,140.20 Q 270.73,134.15 278.90,128.69 Q 351.86,79.87 440.25,79.36 Q 449.30,79.31 449.25,88.75 Q 449.12,111.91 449.44,135.10 A 1.04,1.03 -82.0 0 0 450.17,136.08 Q 459.68,138.93 468.46,142.49 Q 473.96,144.72 474.50,145.04 Q 477.48,146.85 478.89,150.27 Q 479.07,150.71 479.16,151.90 Q 479.23,152.82 479.75,153.55 A 0.99,0.85 -16.0 0 0 480.56,153.92 Q 489.38,153.51 493.75,153.75 Q 509.47,154.62 512.00,170.06 Q 512.00,328.31 512.00,486.56 Q 511.50,489.33 510.43,491.95 A 1.27,1.27 -79.1 0 1 509.25,492.75 L 2.78,492.75 A 1.45,1.45 79.9 0 1 1.42,491.80 Q 0.53,489.38 0.00,486.44 Q 0.00,465.81 0.00,445.19 Q 1.25,439.54 6.94,439.20 A 0.46,0.30 -73.1 0 0 7.25,438.94 Q 7.31,438.80 7.46,438.75 Q 7.47,439.58 8.18,439.61 Q 8.69,439.64 9.15,439.77 L 12.50,440.71 Q 15.05,443.46 15.00,448.25 Q 14.81,467.00 15.23,484.79 Q 15.28,487.25 17.75,487.25 L 232.68,487.25 A 2.07,2.04 -65.1 0 0 234.02,486.75 Q 245.70,476.62 260.25,478.25 Q 270.17,479.36 278.33,486.97 A 1.26,1.24 -23.0 0 0 279.19,487.31 L 495.36,487.19 A 0.12,0.12 -79.0 0 0 495.47,487.11 L 495.50,487.04 Q 497.00,485.73 497.00,482.75 Q 497.00,327.50 497.00,171.93 Q 497.00,168.76 493.98,168.79 L 479.99,168.97 A 0.53,0.49 90.0 0 0 479.50,169.50 Q 478.94,295.37 479.46,421.25 Q 479.49,428.97 479.28,441.25 Q 479.06,453.69 479.25,462.75 Q 479.37,468.24 474.75,470.46 Q 473.39,470.48 472.25,471.21 L 451.25,471.29 Q 246.62,471.22 42.00,471.25 Q 36.56,471.25 34.10,467.82 Q 32.75,465.93 32.75,461.86 Q 32.75,333.56 32.89,205.25 Q 32.90,187.25 32.51,169.66 A 0.90,0.86 88.7 0 0 31.63,168.78 L 16.74,169.00 A 1.61,1.53 -87.7 0 0 15.23,170.46 Q 14.89,174.12 14.90,178.00 Q 15.00,287.31 15.00,396.62 Q 15.00,396.71 15.11,398.88 Q 15.33,403.30 12.21,406.50 L 7.89,407.72 A 0.54,0.41 -9.7 0 0 7.49,408.15 L 7.50,408.50 L 7.20,408.16 A 1.25,1.00 68.0 0 0 6.49,407.76 Q 1.00,407.02 0.00,401.44 Q 0.00,285.44 0.00,169.44 Q 3.33,153.44 20.00,153.59 Q 25.97,153.64 31.31,153.91 A 1.16,1.16 7.1 0 0 32.49,152.99 Q 33.92,146.20 39.17,144.06 Q 59.84,135.66 81.06,130.68 A 2.20,2.20 83.4 0 0 82.75,128.54 Q 82.75,77.75 82.75,27.75 Q 82.75,21.84 87.19,20.16 Q 89.76,19.19 94.81,20.32 Q 113.41,24.49 131.79,31.81 A 0.56,0.56 11.7 0 0 132.56,31.31 Q 132.93,16.37 132.69,1.67 Q 132.69,1.60 132.56,0.98 Q 132.44,0.42 133.06,0.00 ZM 248.46,261.50 Q 249.05,207.25 248.29,153.00 Q 247.69,128.92 243.56,111.44 Q 237.64,86.33 221.69,61.54 Q 195.64,21.04 148.74,7.69 A 1.16,1.16 -81.7 0 0 147.26,8.80 Q 146.71,85.70 146.08,161.76 Q 146.02,169.55 145.81,181.75 Q 144.87,237.00 146.25,292.25 Q 146.32,295.05 148.81,295.69 Q 168.36,300.67 185.90,310.63 Q 206.64,322.42 221.51,341.05 Q 221.74,341.35 221.92,341.92 Q 222.18,342.72 222.94,343.81 Q 236.12,362.80 247.76,382.94 Q 248.47,384.16 248.52,382.75 Q 249.03,368.57 248.65,354.02 Q 248.54,349.79 248.68,344.47 Q 248.81,339.69 248.74,334.91 Q 248.51,320.94 248.51,320.58 Q 248.52,291.04 248.46,261.50 ZM 132.38,48.33 Q 115.68,40.97 98.29,36.68 A 0.40,0.39 -83.2 0 0 97.81,37.07 L 97.75,323.79 A 0.91,0.91 6.9 0 0 98.44,324.67 Q 144.96,336.15 183.38,364.14 Q 218.85,390.00 244.27,426.23 Q 245.06,427.36 244.82,426.01 Q 240.72,402.99 230.44,381.25 Q 203.22,323.68 141.37,309.34 Q 137.60,308.46 136.30,307.66 Q 133.67,306.06 132.95,303.15 Q 132.75,302.31 132.75,295.82 Q 132.92,172.16 132.50,48.52 A 0.21,0.19 -79.6 0 0 132.38,48.33 ZM 437.25,211.46 Q 440.76,210.17 444.50,210.21 L 445.50,210.54 Q 445.41,211.98 447.00,212.21 Q 449.23,214.17 449.25,218.00 Q 449.78,302.97 449.27,387.94 Q 449.24,392.19 448.46,393.94 Q 446.94,397.30 443.00,397.75 Q 440.62,398.02 430.50,398.33 Q 422.72,398.56 418.00,398.96 Q 373.52,402.69 332.63,419.75 Q 330.17,420.78 332.80,420.32 Q 354.74,416.45 377.00,416.43 Q 421.47,416.39 463.76,430.00 A 0.37,0.37 9.1 0 0 464.25,429.65 Q 464.78,294.25 464.25,157.70 A 1.21,1.21 9.9 0 0 463.46,156.58 L 450.48,151.74 A 0.89,0.88 -81.0 0 0 449.29,152.61 Q 449.63,160.53 449.39,168.16 Q 449.24,173.22 448.16,175.16 Q 446.17,178.77 441.04,178.75 Q 434.50,177.38 434.50,170.75 Q 434.50,136.50 434.50,102.25 Q 434.50,97.61 434.09,95.00 A 0.58,0.57 -5.6 0 0 433.50,94.52 Q 387.45,96.57 348.31,108.56 Q 323.60,116.14 299.88,131.96 Q 291.64,137.45 283.48,143.40 Q 273.33,150.80 264.32,159.09 A 2.57,2.56 68.6 0 0 263.50,160.97 L 263.50,443.11 Q 263.50,443.69 263.96,443.32 Q 282.31,428.59 302.49,417.74 Q 356.35,388.76 417.51,384.35 Q 426.00,383.74 434.52,383.25 A 0.52,0.51 88.2 0 0 435.00,382.73 Q 434.80,300.50 434.75,218.25 Q 434.75,213.82 437.25,211.46 ZM 137.94,416.41 Q 187.61,416.91 233.65,438.19 Q 234.46,438.57 233.97,437.83 Q 218.60,415.00 198.23,395.77 Q 158.78,358.52 107.08,342.55 Q 103.80,341.53 98.34,340.19 Q 93.95,339.11 89.57,337.94 Q 86.19,337.04 84.84,335.72 Q 82.76,333.69 82.75,330.50 Q 82.64,304.77 82.60,224.00 Q 82.58,185.12 82.50,146.25 A 0.39,0.39 83.1 0 0 82.02,145.87 Q 64.87,150.25 48.40,156.75 A 0.76,0.76 79.4 0 0 47.93,157.44 Q 47.05,247.35 47.51,337.25 Q 47.75,383.13 47.75,429.60 A 0.41,0.41 81.2 0 0 48.28,429.99 Q 92.07,415.94 137.94,416.41 ZM 234.58,455.70 Q 193.89,434.09 147.76,431.60 Q 118.54,430.03 88.94,435.44 Q 67.57,439.34 48.29,445.66 A 0.71,0.67 -9.5 0 0 47.80,446.31 L 47.80,455.55 A 0.72,0.70 0.0 0 0 48.52,456.25 L 234.44,456.25 Q 235.62,456.25 234.58,455.70 ZM 463.49,445.67 Q 419.15,430.64 372.49,431.41 Q 361.95,431.58 352.54,432.61 Q 312.98,436.96 277.52,455.59 Q 276.37,456.19 277.67,456.19 L 463.69,456.25 A 0.56,0.56 0.0 0 0 464.25,455.69 L 464.25,446.72 A 1.11,1.11 9.1 0 0 463.49,445.67 Z"/>
<path fill="#fbfcfd" d="M 248.29,153.00 Q 248.22,175.00 248.25,197.00 Q 248.25,197.67 248.10,198.04 Q 247.80,198.82 247.83,197.93 Q 248.10,187.34 247.78,176.76 Q 247.73,175.23 247.78,177.50 Q 247.88,181.60 247.60,185.68 Q 247.59,185.88 247.58,185.68 Q 247.56,185.30 247.45,184.96 Q 247.24,184.32 247.25,185.00 L 247.93,233.19 Q 247.94,234.12 247.94,233.19 Q 247.91,222.74 248.17,212.30 Q 248.18,211.93 248.19,212.32 L 248.46,261.50 Q 248.52,291.04 248.51,320.58 Q 248.51,320.94 248.74,334.91 Q 248.81,339.69 248.68,344.47 Q 248.54,349.79 248.65,354.02 Q 249.03,368.57 248.52,382.75 Q 248.47,384.16 247.76,382.94 Q 236.12,362.80 222.94,343.81 Q 222.18,342.72 221.92,341.92 Q 221.74,341.35 221.51,341.05 Q 206.64,322.42 185.90,310.63 Q 168.36,300.67 148.81,295.69 Q 146.32,295.05 146.25,292.25 Q 144.87,237.00 145.81,181.75 Q 146.02,169.55 146.08,161.76 Q 146.71,85.70 147.26,8.80 A 1.16,1.16 -81.7 0 1 148.74,7.69 Q 195.64,21.04 221.69,61.54 Q 237.64,86.33 243.56,111.44 Q 247.69,128.92 248.29,153.00 ZM 182.21,168.75 Q 182.28,167.00 182.19,165.25 Q 181.93,159.97 185.52,156.28 Q 185.92,155.86 186.00,155.29 L 189.29,153.59 Q 190.91,152.76 189.11,152.48 Q 180.34,151.11 178.37,157.47 Q 177.14,161.46 178.76,167.37 Q 180.16,172.50 183.25,176.98 Q 184.79,179.23 186.29,181.52 Q 186.67,182.11 186.87,181.56 Q 187.02,181.16 186.69,180.56 Q 184.01,175.71 182.21,168.75 ZM 172.79,219.25 Q 172.23,220.57 170.96,221.25 L 166.74,214.95 Q 166.47,214.54 166.37,214.98 Q 165.98,216.62 166.75,218.00 Q 169.62,223.18 174.20,226.88 Q 175.88,228.23 183.74,233.16 Q 187.16,235.31 190.66,237.32 Q 195.09,239.88 197.44,241.71 Q 203.32,246.29 208.21,252.00 Q 211.06,255.75 214.71,258.75 Q 221.98,264.71 226.79,272.75 L 238.00,291.04 Q 238.20,292.39 240.12,293.04 A 0.47,0.47 8.5 0 0 240.75,292.58 L 240.46,287.00 Q 241.08,277.55 239.30,268.24 Q 236.85,255.44 233.00,243.00 Q 231.19,237.17 221.75,214.75 Q 218.32,206.60 217.16,203.23 A 1.60,1.34 -48.8 0 1 217.18,202.28 Q 218.13,199.59 217.12,196.92 Q 215.24,191.92 214.88,187.44 Q 214.74,185.63 215.93,187.05 L 220.29,192.25 Q 221.12,193.33 222.50,193.46 Q 222.79,193.51 223.81,194.19 Q 225.83,195.52 225.52,193.31 A 1.13,0.91 15.8 0 0 225.00,192.58 Q 223.71,191.77 221.81,189.44 Q 214.20,180.08 211.31,170.94 Q 210.92,169.70 211.04,167.25 Q 211.31,165.70 212.79,165.00 Q 214.76,165.45 216.16,166.88 Q 216.50,167.23 216.33,166.79 Q 214.26,161.49 208.49,160.25 Q 206.04,159.72 205.64,162.20 Q 204.95,166.46 206.86,171.09 Q 209.41,177.26 210.56,178.94 Q 212.87,182.29 211.70,185.30 Q 211.54,185.70 211.61,186.24 Q 211.69,186.90 211.29,187.13 Q 211.05,187.27 210.21,187.10 Q 207.55,186.56 208.70,191.27 A 1.36,1.36 -4.8 0 1 207.28,192.95 Q 199.25,192.34 190.48,189.63 Q 187.24,188.64 184.87,188.70 Q 181.98,188.78 179.16,189.39 Q 174.47,190.40 171.66,193.13 Q 167.71,196.96 166.81,203.06 Q 165.35,213.06 172.79,219.25 ZM 193.53,164.11 Q 194.50,163.68 195.52,163.38 A 0.30,0.29 -30.0 0 0 195.66,162.89 Q 193.08,160.36 190.25,162.25 Q 188.02,163.75 187.84,166.63 Q 187.75,168.11 188.29,171.36 Q 189.32,177.63 193.20,182.83 Q 195.26,185.60 193.78,182.48 Q 191.54,177.78 190.82,172.24 Q 190.35,168.58 192.02,165.47 Q 192.52,164.54 193.53,164.11 ZM 200.77,170.28 Q 197.73,168.96 196.44,170.82 Q 195.64,171.97 195.73,174.32 Q 195.94,179.61 199.19,184.56 Q 199.65,185.27 199.84,184.92 A 0.94,0.50 58.0 0 0 199.79,184.21 Q 197.90,179.66 198.56,174.76 Q 198.81,172.96 200.86,171.73 Q 202.23,170.91 200.77,170.28 ZM 230.00,220.94 Q 229.69,225.28 231.25,222.00 Q 232.52,219.33 231.75,214.50 Q 231.09,210.35 227.74,201.41 Q 227.49,200.74 227.30,201.37 Q 227.16,201.84 227.44,202.56 Q 230.70,211.00 230.00,220.94 ZM 234.30,228.43 Q 234.21,230.99 233.49,233.45 Q 232.89,235.52 234.48,234.90 A 1.34,1.18 -86.0 0 0 235.15,234.24 Q 236.97,230.31 236.71,226.18 Q 236.65,225.32 235.50,218.28 Q 234.24,210.58 230.79,203.52 Q 230.56,203.06 230.72,203.55 Q 234.75,215.66 234.30,228.43 ZM 226.7450,214.8665 A 4.36,0.70 87.7 0 0 227.2694,210.4819 A 4.36,0.70 87.7 0 0 226.3950,206.1535 A 4.36,0.70 87.7 0 0 225.8706,210.5381 A 4.36,0.70 87.7 0 0 226.7450,214.8665 Z"/>
<path fill="#f0f5fa" d="M 132.38,48.33 A 0.21,0.19 -79.6 0 1 132.50,48.52 Q 132.92,172.16 132.75,295.82 Q 132.75,302.31 132.95,303.15 Q 133.67,306.06 136.30,307.66 Q 137.60,308.46 141.37,309.34 Q 203.22,323.68 230.44,381.25 Q 240.72,402.99 244.82,426.01 Q 245.06,427.36 244.27,426.23 Q 218.85,390.00 183.38,364.14 Q 144.96,336.15 98.44,324.67 A 0.91,0.91 6.9 0 1 97.75,323.79 L 97.81,37.07 A 0.40,0.39 -83.2 0 1 98.29,36.68 Q 115.68,40.97 132.38,48.33 Z"/>
<path fill="#fbfcfd" d="M 441.04,178.75 Q 441.35,179.26 441.64,179.78 Q 441.94,180.30 441.92,180.91 Q 441.58,194.55 441.93,208.18 A 0.58,0.57 84.8 0 1 441.45,208.76 Q 439.16,209.11 440.75,209.54 Q 438.67,209.96 437.25,211.46 Q 434.75,213.82 434.75,218.25 Q 434.80,300.50 435.00,382.73 A 0.52,0.51 88.2 0 1 434.52,383.25 Q 426.00,383.74 417.51,384.35 Q 356.35,388.76 302.49,417.74 Q 282.31,428.59 263.96,443.32 Q 263.50,443.69 263.50,443.11 L 263.50,160.97 A 2.57,2.56 68.6 0 1 264.32,159.09 Q 273.33,150.80 283.48,143.40 Q 291.64,137.45 299.88,131.96 Q 323.60,116.14 348.31,108.56 Q 387.45,96.57 433.50,94.52 A 0.58,0.57 -5.6 0 1 434.09,95.00 Q 434.50,97.61 434.50,102.25 Q 434.50,136.50 434.50,170.75 Q 434.50,177.38 441.04,178.75 ZM 306.79,316.25 Q 306.00,320.84 306.29,325.50 Q 306.17,327.80 306.37,330.08 Q 306.39,330.21 306.50,332.42 Q 306.67,335.48 308.46,338.00 Q 311.01,341.34 315.25,341.45 Q 318.70,341.54 321.92,340.38 Q 329.69,337.58 337.75,335.75 Q 343.91,334.35 351.29,337.55 A 0.67,0.66 -58.5 0 0 352.07,337.36 Q 359.83,328.15 371.22,324.01 Q 374.87,322.69 382.81,319.31 Q 391.10,315.79 393.46,307.50 Q 396.66,288.44 387.50,272.00 Q 384.33,266.31 379.23,262.17 Q 377.95,261.13 370.77,257.06 Q 361.00,251.52 353.34,242.04 A 1.59,1.58 -53.3 0 1 353.11,240.44 Q 355.76,234.21 350.89,230.07 A 1.42,1.25 -76.9 0 1 350.45,229.25 L 349.11,220.29 A 0.94,0.89 77.7 0 1 349.73,219.26 Q 352.65,218.40 355.03,216.26 Q 362.53,209.54 363.70,199.50 Q 363.76,198.97 363.85,198.51 Q 364.83,193.54 363.16,197.62 Q 363.02,197.95 362.89,198.40 Q 361.25,203.85 357.15,207.35 Q 354.10,209.96 350.57,209.69 Q 344.88,209.27 343.50,202.75 Q 341.15,191.64 349.16,182.50 A 0.71,0.40 -46.3 0 0 349.34,181.78 Q 349.17,181.54 348.65,181.88 Q 343.67,185.14 340.88,190.41 Q 335.67,200.28 338.14,211.22 Q 339.42,216.88 345.38,219.25 A 1.01,0.92 13.5 0 1 346.02,220.20 L 345.20,231.61 A 3.70,2.42 -35.4 0 1 344.55,233.27 Q 341.16,238.11 343.55,244.02 A 1.69,1.68 -43.9 0 1 343.52,245.35 Q 337.49,258.63 328.97,269.95 Q 319.92,281.97 319.58,282.50 Q 309.80,297.90 306.79,316.25 ZM 379.36,238.57 Q 378.04,244.18 375.78,249.51 Q 375.22,250.83 376.12,249.44 Q 386.60,233.31 382.64,214.27 Q 380.66,204.80 373.69,199.31 Q 372.96,198.74 372.97,199.47 Q 372.98,199.72 373.15,199.97 Q 377.19,205.86 378.94,213.56 Q 380.52,220.54 380.63,227.19 Q 380.72,232.81 379.36,238.57 ZM 372.48,230.67 Q 371.95,237.24 369.61,243.65 Q 368.55,246.55 370.16,243.91 Q 375.88,234.48 375.00,223.25 Q 374.38,215.32 368.69,208.84 Q 368.42,208.54 368.07,208.43 Q 366.82,208.04 367.60,209.36 Q 373.39,219.21 372.48,230.67 ZM 365.37,232.43 Q 364.89,236.83 363.35,240.98 A 0.82,0.45 -58.3 0 0 363.32,241.52 Q 363.48,241.88 363.81,241.31 Q 369.27,231.95 366.40,221.78 Q 365.35,218.07 362.49,215.51 Q 362.00,215.07 361.83,215.37 A 0.83,0.44 52.4 0 0 361.95,216.08 Q 366.33,223.63 365.37,232.43 ZM 318.29,259.75 Q 316.67,251.95 316.21,244.00 Q 316.95,230.63 322.50,218.46 Q 322.69,218.06 322.66,217.72 Q 322.60,217.10 322.21,217.65 Q 309.17,236.09 314.50,258.00 Q 316.02,264.25 321.35,268.63 Q 321.52,268.77 321.69,268.77 Q 321.99,268.76 322.01,268.48 Q 322.03,268.31 321.88,268.05 Q 319.55,264.13 318.29,259.75 ZM 327.55,223.16 Q 322.15,231.93 321.46,242.25 Q 320.82,251.75 327.04,258.72 Q 327.94,259.73 327.86,258.95 Q 327.83,258.73 327.70,258.46 Q 322.81,248.29 324.56,237.01 Q 325.68,229.79 328.32,222.99 A 0.71,0.49 -58.6 0 0 328.29,222.39 Q 328.04,222.05 327.78,222.69 Q 327.66,222.99 327.55,223.16 ZM 333.58,225.62 Q 328.35,233.63 329.19,243.26 Q 329.60,248.01 332.60,251.66 Q 333.92,253.28 333.63,251.75 Q 333.58,251.49 333.44,251.14 Q 328.22,238.52 334.09,226.14 Q 334.19,225.92 334.19,225.71 Q 334.15,224.74 333.58,225.62 ZM 390.95,316.18 Q 385.06,322.35 378.50,323.75 Q 364.17,326.80 353.99,337.26 Q 352.33,338.97 354.37,337.73 Q 363.61,332.09 374.61,330.15 Q 381.66,328.90 383.67,327.98 Q 389.75,325.20 393.40,319.16 Q 395.96,314.92 395.04,310.55 Q 394.81,309.46 394.59,310.55 Q 392.34,321.81 381.87,325.23 Q 374.60,327.61 367.01,329.82 Q 365.75,330.18 366.63,329.21 Q 367.12,328.67 368.27,328.31 Q 374.77,326.32 381.25,324.25 Q 385.75,322.81 390.90,317.25 Q 391.19,316.94 391.30,316.52 Q 391.89,314.34 391.32,315.64 Q 391.18,315.95 390.95,316.18 ZM 337.00,339.46 Q 337.05,339.56 337.02,339.71 A 0.46,0.36 -3.9 0 1 336.70,340.00 Q 330.70,341.72 324.99,344.23 Q 318.89,346.91 315.00,346.75 Q 308.19,346.46 306.93,339.79 Q 306.63,338.21 306.47,339.81 Q 305.74,346.82 310.93,348.90 Q 314.36,350.27 319.59,348.97 Q 324.23,347.81 329.00,345.25 Q 338.49,340.17 350.31,339.33 Q 350.65,339.31 350.72,339.13 A 0.42,0.28 15.6 0 0 350.37,338.73 Q 345.03,337.41 339.64,337.66 Q 335.94,337.83 329.60,339.97 Q 321.57,342.67 316.75,343.50 Q 313.84,344.00 310.01,342.05 Q 309.34,341.71 309.37,342.26 Q 309.39,342.58 309.81,342.94 Q 311.86,344.63 314.18,344.82 Q 315.18,344.91 317.81,344.79 Q 319.65,344.72 321.42,344.13 Q 327.37,342.18 335.92,339.01 A 0.86,0.86 67.6 0 1 337.00,339.46 Z"/>
<path fill="#e4ecf2" d="M 137.94,416.41 Q 92.07,415.94 48.28,429.99 A 0.41,0.41 81.2 0 1 47.75,429.60 Q 47.75,383.13 47.51,337.25 Q 47.05,247.35 47.93,157.44 A 0.76,0.76 79.4 0 1 48.40,156.75 Q 64.87,150.25 82.02,145.87 A 0.39,0.39 83.1 0 1 82.50,146.25 Q 82.58,185.12 82.60,224.00 Q 82.64,304.77 82.75,330.50 Q 82.76,333.69 84.84,335.72 Q 86.19,337.04 89.57,337.94 Q 93.95,339.11 98.34,340.19 Q 103.80,341.53 107.08,342.55 Q 158.78,358.52 198.23,395.77 Q 218.60,415.00 233.97,437.83 Q 234.46,438.57 233.65,438.19 Q 187.61,416.91 137.94,416.41 Z"/>
<path fill="#e4ecf2" d="M 447.00,212.21 Q 446.57,211.09 445.50,210.54 L 444.50,210.21 Q 442.74,209.29 440.75,209.54 Q 439.16,209.11 441.45,208.76 A 0.58,0.57 84.8 0 0 441.93,208.18 Q 441.58,194.55 441.92,180.91 Q 441.94,180.30 441.64,179.78 Q 441.35,179.26 441.04,178.75 Q 446.17,178.77 448.16,175.16 Q 449.24,173.22 449.39,168.16 Q 449.63,160.53 449.29,152.61 A 0.89,0.88 -81.0 0 1 450.48,151.74 L 463.46,156.58 A 1.21,1.21 9.9 0 1 464.25,157.70 Q 464.78,294.25 464.25,429.65 A 0.37,0.37 9.1 0 1 463.76,430.00 Q 421.47,416.39 377.00,416.43 Q 354.74,416.45 332.80,420.32 Q 330.17,420.78 332.63,419.75 Q 373.52,402.69 418.00,398.96 Q 422.72,398.56 430.50,398.33 Q 440.62,398.02 443.00,397.75 Q 446.94,397.30 448.46,393.94 Q 449.24,392.19 449.27,387.94 Q 449.78,302.97 449.25,218.00 Q 449.23,214.17 447.00,212.21 Z"/>
<path fill="#fbcf3c" d="M 186.00,155.29 Q 183.23,155.59 182.25,158.21 Q 180.27,163.50 182.21,168.75 Q 184.01,175.71 186.69,180.56 Q 187.02,181.16 186.87,181.56 Q 186.67,182.11 186.29,181.52 Q 184.79,179.23 183.25,176.98 Q 180.16,172.50 178.76,167.37 Q 177.14,161.46 178.37,157.47 Q 180.34,151.11 189.11,152.48 Q 190.91,152.76 189.29,153.59 L 186.00,155.29 Z"/>
<path fill="#c5d7e6" d="M 248.29,153.00 Q 249.05,207.25 248.46,261.50 L 248.19,212.32 Q 248.18,211.93 248.17,212.30 Q 247.91,222.74 247.94,233.19 Q 247.94,234.12 247.93,233.19 L 247.25,185.00 Q 247.24,184.32 247.45,184.96 Q 247.56,185.30 247.58,185.68 Q 247.59,185.88 247.60,185.68 Q 247.88,181.60 247.78,177.50 Q 247.73,175.23 247.78,176.76 Q 248.10,187.34 247.83,197.93 Q 247.80,198.82 248.10,198.04 Q 248.25,197.67 248.25,197.00 Q 248.22,175.00 248.29,153.00 Z"/>
<path fill="#fcdf6c" d="M 186.00,155.29 Q 185.92,155.86 185.52,156.28 Q 181.93,159.97 182.19,165.25 Q 182.28,167.00 182.21,168.75 Q 180.27,163.50 182.25,158.21 Q 183.23,155.59 186.00,155.29 Z"/>
<path fill="#1b75bb" d="M 212.79,165.00 Q 210.06,163.85 211.04,167.25 Q 210.92,169.70 211.31,170.94 Q 214.20,180.08 221.81,189.44 Q 223.71,191.77 225.00,192.58 A 1.13,0.91 15.8 0 1 225.52,193.31 Q 225.83,195.52 223.81,194.19 Q 222.79,193.51 222.50,193.46 Q 221.82,191.92 220.29,192.25 L 215.93,187.05 Q 214.74,185.63 214.88,187.44 Q 215.24,191.92 217.12,196.92 Q 218.13,199.59 217.18,202.28 A 1.60,1.34 -48.8 0 0 217.16,203.23 Q 218.32,206.60 221.75,214.75 Q 231.19,237.17 233.00,243.00 Q 236.85,255.44 239.30,268.24 Q 241.08,277.55 240.46,287.00 Q 236.43,284.02 234.50,279.75 Q 233.06,276.57 231.16,274.12 Q 230.03,272.67 229.13,271.17 Q 228.20,269.62 227.06,268.23 Q 223.73,264.16 223.67,264.09 Q 219.84,259.27 214.48,256.20 Q 212.48,255.06 211.27,253.44 Q 206.58,247.19 201.52,241.23 Q 196.62,235.46 192.69,233.06 Q 182.33,226.74 172.79,219.25 Q 165.35,213.06 166.81,203.06 Q 167.71,196.96 171.66,193.13 Q 174.47,190.40 179.16,189.39 Q 181.98,188.78 184.87,188.70 Q 187.24,188.64 190.48,189.63 Q 199.25,192.34 207.28,192.95 A 1.36,1.36 -4.8 0 0 208.70,191.27 Q 207.55,186.56 210.21,187.10 Q 211.05,187.27 211.29,187.13 Q 211.69,186.90 211.61,186.24 Q 211.54,185.70 211.70,185.30 Q 212.87,182.29 210.56,178.94 Q 209.41,177.26 206.86,171.09 Q 204.95,166.46 205.64,162.20 Q 206.04,159.72 208.49,160.25 Q 214.26,161.49 216.33,166.79 Q 216.50,167.23 216.16,166.88 Q 214.76,165.45 212.79,165.00 ZM 203.21,197.25 L 203.96,200.50 L 202.75,200.71 Q 202.66,199.14 200.98,198.48 Q 199.29,197.82 200.51,199.17 Q 201.22,199.95 202.50,200.79 Q 202.13,201.75 202.29,202.75 Q 202.76,207.15 207.06,209.44 Q 210.58,211.31 212.95,215.78 Q 214.23,218.21 215.89,220.42 A 1.40,1.05 35.5 0 1 216.17,221.31 Q 216.06,222.33 215.24,221.49 Q 214.89,221.14 214.42,220.96 Q 206.59,217.96 206.08,211.96 Q 205.84,209.09 203.02,208.50 Q 190.96,206.01 185.71,195.00 Q 187.50,193.14 185.75,192.05 A 0.42,0.42 -64.9 0 0 185.13,192.28 Q 184.68,193.61 185.25,194.96 Q 185.25,197.04 186.06,198.44 Q 192.29,209.12 204.51,210.69 A 0.62,0.61 -89.5 0 1 205.04,211.24 Q 205.86,219.34 213.25,222.79 Q 213.50,224.91 215.06,226.94 Q 216.50,228.79 218.68,228.62 A 0.55,0.51 -5.9 0 1 219.25,229.05 Q 219.84,233.05 222.77,235.47 Q 224.56,236.94 225.46,237.82 Q 226.84,239.17 228.38,239.96 Q 231.12,241.38 229.94,238.58 L 222.75,221.46 Q 222.88,220.35 222.25,219.46 L 220.00,214.21 Q 219.75,212.52 218.98,211.00 Q 218.92,210.89 218.76,210.35 Q 218.57,209.72 217.75,210.04 Q 217.22,209.82 217.25,209.29 Q 217.81,209.17 218.07,208.72 A 1.22,0.85 55.6 0 0 218.08,207.77 L 215.21,200.71 A 0.89,0.88 51.9 0 1 215.31,199.85 Q 216.81,197.70 215.62,195.16 Q 214.40,192.58 214.16,189.76 Q 213.94,187.30 213.22,189.49 Q 212.63,191.28 211.25,189.75 Q 209.89,188.24 210.00,190.00 Q 210.16,192.50 211.04,194.32 A 0.74,0.74 -15.9 0 1 210.45,195.38 Q 207.38,195.69 205.24,195.26 Q 204.02,195.01 203.60,195.04 Q 201.60,195.15 203.21,197.25 ZM 192.0837,196.8147 A 2.18,0.67 53.6 0 0 191.3293,194.6624 A 2.18,0.67 53.6 0 0 189.4963,193.3053 A 2.18,0.67 53.6 0 0 190.2507,195.4576 A 2.18,0.67 53.6 0 0 192.0837,196.8147 ZM 182.90,198.11 Q 180.86,197.68 179.34,196.16 Q 178.16,194.97 178.36,196.02 Q 178.42,196.29 178.62,196.55 Q 179.64,197.84 180.68,199.11 A 0.90,0.82 -22.6 0 0 181.49,199.40 Q 182.29,199.27 183.07,199.43 Q 185.56,199.94 183.65,198.44 Q 183.35,198.21 182.90,198.11 ZM 172.00,201.96 Q 171.10,206.14 174.48,208.18 Q 175.26,208.65 175.99,208.66 Q 177.34,208.66 177.26,207.30 A 0.76,0.63 7.2 0 0 176.70,206.70 Q 173.49,205.83 173.04,202.50 Q 175.23,202.90 175.47,201.00 A 1.04,0.97 26.5 0 0 175.15,200.15 Q 172.72,197.90 172.00,201.96 ZM 181.52,200.78 Q 180.37,200.22 180.12,201.19 A 0.83,0.75 -67.7 0 0 180.43,202.04 L 182.95,203.72 Q 183.75,204.26 183.50,203.26 Q 183.08,201.54 181.52,200.78 ZM 200.0540,203.2714 A 1.66,0.45 54.5 0 0 199.4564,201.6587 A 1.66,0.45 54.5 0 0 198.1260,200.5686 A 1.66,0.45 54.5 0 0 198.7236,202.1813 A 1.66,0.45 54.5 0 0 200.0540,203.2714 ZM 179.46,203.34 Q 179.56,205.77 181.60,207.44 Q 182.03,207.80 181.94,207.25 Q 181.62,205.21 179.75,203.22 Q 179.44,202.89 179.46,203.34 ZM 199.28,213.72 Q 199.69,214.07 200.39,214.29 Q 201.31,214.59 200.65,213.89 Q 197.70,210.83 193.49,209.57 Q 193.25,209.50 192.99,209.50 Q 189.07,209.58 193.00,210.21 Q 193.25,210.25 193.48,210.36 Q 196.05,211.56 198.48,213.03 Q 198.52,213.06 199.28,213.72 ZM 211.54,241.14 Q 208.76,239.01 207.38,234.54 A 1.91,1.89 -83.6 0 0 206.53,233.47 Q 198.77,228.84 191.44,224.56 Q 184.74,220.65 180.65,217.30 Q 177.60,214.80 177.18,214.38 Q 175.53,212.76 174.58,210.57 Q 173.85,208.87 173.56,210.39 Q 173.49,210.74 173.59,211.11 Q 174.60,215.08 178.19,218.06 Q 183.41,222.41 187.00,224.46 Q 195.92,229.55 204.78,234.67 A 2.91,2.88 3.2 0 1 205.97,235.99 Q 208.33,241.19 211.73,243.56 Q 213.50,244.79 213.55,242.64 Q 213.60,240.21 212.70,238.76 Q 211.28,236.49 211.77,239.15 Q 211.93,240.03 211.94,240.93 Q 211.95,241.46 211.54,241.14 ZM 187.3476,213.9244 A 2.13,0.59 57.4 0 0 186.6970,211.8121 A 2.13,0.59 57.4 0 0 185.0524,210.3356 A 2.13,0.59 57.4 0 0 185.7030,212.4479 A 2.13,0.59 57.4 0 0 187.3476,213.9244 ZM 193.45,216.82 Q 194.47,217.50 193.99,216.27 L 193.00,213.73 Q 192.56,212.63 192.27,213.71 Q 191.74,215.68 193.45,216.82 ZM 176.5912,219.9142 A 2.31,0.81 43.3 0 0 175.4655,217.7405 A 2.31,0.81 43.3 0 0 173.2288,216.7458 A 2.31,0.81 43.3 0 0 174.3545,218.9195 A 2.31,0.81 43.3 0 0 176.5912,219.9142 ZM 193.5726,221.9265 A 3.89,0.88 37.1 0 0 191.0008,218.8781 A 3.89,0.88 37.1 0 0 187.3674,217.2335 A 3.89,0.88 37.1 0 0 189.9392,220.2819 A 3.89,0.88 37.1 0 0 193.5726,221.9265 ZM 205.3249,220.0082 A 1.50,0.49 65.8 0 0 205.1569,218.4391 A 1.50,0.49 65.8 0 0 204.0951,217.2718 A 1.50,0.49 65.8 0 0 204.2631,218.8409 A 1.50,0.49 65.8 0 0 205.3249,220.0082 ZM 216.29,233.25 Q 216.14,235.18 216.81,236.44 Q 221.84,245.80 225.54,255.75 Q 225.29,256.54 224.50,256.79 Q 224.26,256.46 224.20,256.06 A 1.55,0.99 -83.3 0 0 223.80,255.23 Q 221.97,253.61 221.20,251.27 Q 220.04,247.74 218.25,247.00 Q 216.70,246.36 217.34,248.47 Q 218.47,252.22 221.09,254.96 Q 222.29,256.22 220.64,255.70 Q 212.87,253.28 209.96,246.25 Q 208.70,241.84 204.64,239.33 Q 202.46,237.99 203.80,240.17 Q 205.21,242.46 207.50,243.81 A 1.66,1.63 3.6 0 1 208.14,244.52 L 209.21,246.75 Q 211.59,255.88 220.56,257.69 Q 221.67,257.91 222.05,256.93 A 0.77,0.46 -71.2 0 1 222.68,256.40 Q 223.20,256.50 223.50,257.25 Q 224.40,259.50 225.75,257.71 L 226.46,257.75 Q 228.32,263.00 231.69,267.36 Q 232.03,267.79 232.08,267.25 Q 232.25,265.49 230.94,263.81 Q 229.38,261.82 227.97,258.05 Q 223.55,246.20 217.30,235.17 Q 216.53,233.81 217.87,234.63 Q 223.36,237.97 227.54,243.75 Q 227.31,244.83 227.59,245.87 Q 227.67,246.19 228.01,247.80 Q 228.30,249.21 229.76,249.64 A 0.79,0.73 4.6 0 1 230.32,250.25 L 232.21,262.75 Q 232.88,265.71 234.02,268.53 Q 234.62,270.00 234.33,268.28 Q 233.62,264.16 233.21,260.00 Q 233.12,259.04 233.96,259.00 Q 236.03,265.42 236.25,271.00 Q 236.29,271.94 235.50,273.04 Q 234.76,272.83 233.65,271.23 Q 233.25,270.66 233.31,271.35 Q 233.51,273.57 235.50,274.46 Q 237.48,275.21 237.39,273.75 Q 237.31,272.49 237.33,272.24 Q 237.51,269.67 236.69,266.06 Q 234.66,257.13 233.36,252.00 Q 232.10,246.96 229.80,243.64 Q 224.92,236.57 217.25,232.21 Q 216.66,231.35 216.19,230.43 Q 215.67,229.43 214.96,228.82 Q 210.97,225.45 206.51,222.74 Q 205.49,222.12 203.13,221.62 Q 200.39,221.04 198.51,218.70 Q 197.85,217.87 198.03,218.77 Q 198.06,218.93 198.18,219.06 Q 199.60,220.62 200.44,222.58 Q 201.35,224.67 199.37,223.54 Q 198.03,222.77 195.74,222.27 Q 195.11,222.14 195.31,222.69 Q 195.81,224.06 199.50,224.50 Q 201.90,224.79 201.45,222.79 A 0.38,0.36 85.1 0 1 201.82,222.33 Q 203.68,222.46 205.17,223.61 A 1.95,1.63 -18.7 0 0 206.07,223.96 Q 207.37,224.11 208.81,225.19 Q 214.27,229.26 215.19,230.06 Q 216.40,231.13 216.29,233.25 ZM 184.27,224.78 Q 183.11,225.33 183.92,225.83 Q 186.21,227.23 184.45,224.83 A 0.15,0.15 60.2 0 0 184.27,224.78 ZM 191.58,228.99 Q 191.38,228.72 191.05,228.62 Q 190.51,228.45 190.69,229.05 Q 191.42,231.44 193.50,232.25 Q 194.50,232.64 194.70,231.99 A 1.06,0.74 38.3 0 0 194.44,231.12 Q 193.56,230.11 192.29,229.61 A 1.82,0.73 63.0 0 1 191.58,228.99 ZM 209.96,230.16 Q 208.28,228.87 209.40,230.67 Q 210.24,232.03 211.00,233.20 Q 211.07,233.31 211.48,234.24 Q 211.97,235.33 213.57,235.63 Q 214.82,235.87 214.17,234.78 Q 212.67,232.25 209.96,230.16 ZM 199.00,234.44 Q 198.82,234.13 198.81,234.51 Q 198.77,236.60 200.50,237.69 Q 201.18,238.12 200.79,237.46 L 199.00,234.44 ZM 216.0274,240.4356 A 0.31 0.31 0.0 0 0 215.5897,240.4104 L 215.4404,240.5434 A 0.31 0.31 0.0 0 0 215.4152,240.9811 L 219.7126,245.8044 A 0.31 0.31 0.0 0 0 220.1503,245.8296 L 220.2996,245.6966 A 0.31 0.31 0.0 0 0 220.3248,245.2589 L 216.0274,240.4356 ZM 223.4990,240.8048 A 0.50 0.50 0.0 0 0 222.8243,240.5933 L 222.6648,240.6767 A 0.50 0.50 0.0 0 0 222.4533,241.3515 L 224.8810,245.9952 A 0.50 0.50 0.0 0 0 225.5557,246.2067 L 225.7152,246.1233 A 0.50 0.50 0.0 0 0 225.9267,245.4485 L 223.4990,240.8048 ZM 213.43,247.27 Q 213.71,249.69 215.53,251.22 Q 216.38,251.94 216.49,251.11 Q 216.53,250.79 216.33,250.43 Q 215.36,248.68 213.84,247.08 Q 213.35,246.57 213.43,247.27 ZM 228.7200,254.3417 A 2.06,0.76 80.5 0 0 229.1296,252.1846 A 2.06,0.76 80.5 0 0 228.0400,250.2783 A 2.06,0.76 80.5 0 0 227.6304,252.4354 A 2.06,0.76 80.5 0 0 228.7200,254.3417 ZM 226.83,263.72 Q 228.39,266.09 229.64,268.65 Q 231.18,271.78 230.50,268.50 Q 230.13,266.70 228.11,263.85 Q 227.84,263.47 227.36,263.24 Q 225.38,262.32 224.20,260.49 A 0.49,0.41 53.0 0 0 223.52,260.33 Q 223.09,260.73 223.45,261.35 A 1.64,0.60 17.2 0 0 224.21,261.93 Q 225.35,262.47 225.75,263.70 Q 225.84,263.99 225.95,264.15 Q 226.54,264.95 226.57,263.80 Q 226.58,263.34 226.83,263.72 Z"/>
<path fill="#fbcf3c" d="M 192.02,165.47 Q 190.35,168.58 190.82,172.24 Q 191.54,177.78 193.78,182.48 Q 195.26,185.60 193.20,182.83 Q 189.32,177.63 188.29,171.36 Q 187.75,168.11 187.84,166.63 Q 188.02,163.75 190.25,162.25 Q 193.08,160.36 195.66,162.89 A 0.30,0.29 -30.0 0 1 195.52,163.38 Q 194.50,163.68 193.53,164.11 Q 192.52,164.54 192.02,165.47 Z"/>
<path fill="#208dcc" d="M 212.79,165.00 Q 211.31,165.70 211.04,167.25 Q 210.06,163.85 212.79,165.00 Z"/>
<path fill="#6e9eff" d="M 451.25,471.29 L 463.68,471.56 A 0.58,0.55 -1.1 0 1 464.23,472.07 Q 464.85,479.03 464.25,486.01 A 0.75,0.74 -87.5 0 1 463.51,486.69 Q 383.72,486.80 303.75,486.81 Q 301.97,486.81 303.50,486.82 Q 377.38,486.99 451.26,487.00 Q 453.38,487.00 471.25,486.83 Q 483.37,486.71 495.50,487.04 L 495.47,487.11 A 0.12,0.12 -79.0 0 1 495.36,487.19 L 279.19,487.31 A 1.26,1.24 -23.0 0 1 278.33,486.97 Q 270.17,479.36 260.25,478.25 Q 245.70,476.62 234.02,486.75 A 2.07,2.04 -65.1 0 1 232.68,487.25 L 17.75,487.25 Q 15.28,487.25 15.23,484.79 Q 14.81,467.00 15.00,448.25 Q 15.05,443.46 12.50,440.71 Q 10.87,438.85 8.44,438.96 A 0.79,0.63 -13.9 0 1 7.75,438.64 L 7.54,438.25 L 7.50,408.50 Q 10.21,408.27 12.21,406.50 Q 15.33,403.30 15.11,398.88 Q 15.00,396.71 15.00,396.62 Q 15.00,287.31 14.90,178.00 Q 14.89,174.12 15.23,170.46 A 1.61,1.53 -87.7 0 1 16.74,169.00 L 31.63,168.78 A 0.90,0.86 88.7 0 1 32.51,169.66 Q 32.90,187.25 32.89,205.25 Q 32.75,333.56 32.75,461.86 Q 32.75,465.93 34.10,467.82 Q 36.56,471.25 42.00,471.25 Q 246.62,471.22 451.25,471.29 Z"/>
<path fill="#5990ff" d="M 495.50,487.04 Q 483.37,486.71 471.25,486.83 Q 453.38,487.00 451.26,487.00 Q 377.38,486.99 303.50,486.82 Q 301.97,486.81 303.75,486.81 Q 383.72,486.80 463.51,486.69 A 0.75,0.74 -87.5 0 0 464.25,486.01 Q 464.85,479.03 464.23,472.07 A 0.58,0.55 -1.1 0 0 463.68,471.56 L 451.25,471.29 L 472.25,471.21 Q 473.56,471.51 474.72,471.01 Q 475.67,470.59 474.75,470.46 Q 479.37,468.24 479.25,462.75 Q 479.06,453.69 479.28,441.25 Q 479.49,428.97 479.46,421.25 Q 478.94,295.37 479.50,169.50 A 0.53,0.49 -90.0 0 1 479.99,168.97 L 493.98,168.79 Q 497.00,168.76 497.00,171.93 Q 497.00,327.50 497.00,482.75 Q 497.00,485.73 495.50,487.04 Z"/>
<path fill="#fcdf6c" d="M 200.77,170.28 Q 202.23,170.91 200.86,171.73 Q 198.81,172.96 198.56,174.76 Q 197.90,179.66 199.79,184.21 A 0.94,0.50 58.0 0 1 199.84,184.92 Q 199.65,185.27 199.19,184.56 Q 195.94,179.61 195.73,174.32 Q 195.64,171.97 196.44,170.82 Q 197.73,168.96 200.77,170.28 Z"/>
<path fill="#0e618f" d="M 393.46,307.50 Q 393.03,307.58 393.01,307.25 Q 392.74,301.62 392.46,296.00 Q 392.27,287.75 389.25,280.33 Q 386.48,273.56 382.77,268.90 Q 378.58,263.63 372.30,260.47 Q 359.92,254.24 351.56,243.18 Q 350.54,241.84 351.33,240.35 Q 354.01,235.29 349.71,231.98 A 1.23,1.15 16.6 0 1 349.25,231.19 L 348.29,222.84 A 0.84,0.51 -85.9 0 0 348.00,222.27 Q 347.82,222.16 347.64,222.21 A 0.92,0.55 88.4 0 0 347.20,223.00 L 346.75,230.76 Q 346.65,232.47 345.99,233.63 Q 343.20,238.51 345.27,243.55 A 2.25,2.23 47.4 0 1 345.20,245.41 L 338.71,258.25 Q 334.13,266.31 328.19,273.42 Q 325.55,276.57 323.20,279.94 Q 321.67,282.12 321.29,284.75 L 320.71,286.00 L 319.51,286.37 A 1.43,1.04 -77.9 0 0 318.82,286.99 Q 312.45,298.40 309.34,311.08 Q 309.02,312.38 308.18,313.69 Q 307.41,314.92 306.79,316.25 Q 309.80,297.90 319.58,282.50 Q 319.92,281.97 328.97,269.95 Q 337.49,258.63 343.52,245.35 A 1.69,1.68 -43.9 0 0 343.55,244.02 Q 341.16,238.11 344.55,233.27 A 3.70,2.42 -35.4 0 0 345.20,231.61 L 346.02,220.20 A 1.01,0.92 13.5 0 0 345.38,219.25 Q 339.42,216.88 338.14,211.22 Q 335.67,200.28 340.88,190.41 Q 343.67,185.14 348.65,181.88 Q 349.17,181.54 349.34,181.78 A 0.71,0.40 -46.3 0 1 349.16,182.50 Q 341.15,191.64 343.50,202.75 Q 344.88,209.27 350.57,209.69 Q 354.10,209.96 357.15,207.35 Q 361.25,203.85 362.89,198.40 Q 363.02,197.95 363.16,197.62 Q 364.83,193.54 363.85,198.51 Q 363.76,198.97 363.70,199.50 Q 362.53,209.54 355.03,216.26 Q 352.65,218.40 349.73,219.26 A 0.94,0.89 77.7 0 0 349.11,220.29 L 350.45,229.25 A 1.42,1.25 -76.9 0 0 350.89,230.07 Q 355.76,234.21 353.11,240.44 A 1.59,1.58 -53.3 0 0 353.34,242.04 Q 361.00,251.52 370.77,257.06 Q 377.95,261.13 379.23,262.17 Q 384.33,266.31 387.50,272.00 Q 396.66,288.44 393.46,307.50 ZM 346.11,209.13 Q 343.16,206.62 342.62,203.01 Q 342.33,201.07 341.72,199.14 Q 340.69,195.85 342.19,192.69 Q 342.53,191.96 342.34,191.47 Q 342.13,190.90 341.87,191.52 Q 341.17,193.21 340.68,194.98 Q 340.49,195.66 339.54,198.43 Q 338.29,202.07 338.75,207.25 Q 339.24,212.70 342.40,215.70 Q 344.73,217.92 347.71,218.13 Q 350.83,218.36 353.69,216.19 Q 359.26,211.96 360.91,205.61 A 0.53,0.35 -74.4 0 0 360.72,205.02 Q 360.49,204.95 360.28,205.29 Q 358.49,208.12 355.67,209.90 Q 350.69,213.04 346.11,209.13 Z"/>
<path fill="#23a2dc" d="M 217.25,209.29 Q 212.92,205.93 209.77,201.48 Q 209.54,201.16 209.31,200.94 Q 207.51,199.21 208.81,201.94 Q 210.18,204.78 216.91,211.09 Q 218.59,212.68 217.75,210.04 Q 218.57,209.72 218.76,210.35 Q 218.92,210.89 218.98,211.00 Q 219.75,212.52 220.00,214.21 Q 218.91,214.70 219.50,216.25 Q 220.45,218.74 222.25,219.46 Q 222.88,220.35 222.75,221.46 Q 221.97,221.60 222.19,222.52 Q 222.70,224.65 223.84,226.50 Q 224.01,226.77 224.01,227.04 Q 224.04,228.32 223.30,227.24 Q 221.96,225.29 219.83,225.30 Q 219.78,225.30 217.60,225.78 Q 214.54,226.45 214.00,222.79 L 216.45,223.38 A 0.52,0.47 -78.8 0 0 217.03,222.94 Q 217.70,218.79 215.47,215.38 Q 215.20,214.97 213.65,213.51 Q 212.65,212.57 212.11,211.29 Q 211.98,210.95 211.51,210.57 L 208.57,208.13 Q 208.04,207.68 207.78,207.58 Q 204.45,206.30 203.06,202.87 A 0.49,0.34 70.6 0 0 202.61,202.55 Q 202.44,202.60 202.29,202.75 Q 202.13,201.75 202.50,200.79 L 202.75,200.71 L 203.96,200.50 L 205.36,201.59 Q 205.83,201.96 205.83,201.32 Q 205.81,198.48 203.21,197.25 Q 201.60,195.15 203.60,195.04 Q 204.02,195.01 205.24,195.26 Q 207.38,195.69 210.45,195.38 A 0.74,0.74 -15.9 0 0 211.04,194.32 Q 210.16,192.50 210.00,190.00 Q 209.89,188.24 211.25,189.75 Q 212.63,191.28 213.22,189.49 Q 213.94,187.30 214.16,189.76 Q 214.40,192.58 215.62,195.16 Q 216.81,197.70 215.31,199.85 A 0.89,0.88 51.9 0 0 215.21,200.71 L 218.08,207.77 A 1.22,0.85 55.6 0 1 218.07,208.72 Q 217.81,209.17 217.25,209.29 ZM 213.48,201.05 Q 214.69,198.41 213.10,196.08 A 1.20,0.89 70.2 0 0 212.33,195.57 Q 211.64,195.51 212.25,196.50 Q 213.78,198.97 213.00,200.00 Q 211.37,202.15 213.41,204.16 Q 214.51,205.24 214.01,203.77 L 213.39,201.98 A 1.35,1.02 -47.3 0 1 213.48,201.05 Z"/>
<path fill="#23a2dc" d="M 346.11,209.13 Q 350.69,213.04 355.67,209.90 Q 358.49,208.12 360.28,205.29 Q 360.49,204.95 360.72,205.02 A 0.53,0.35 -74.4 0 1 360.91,205.61 Q 359.26,211.96 353.69,216.19 Q 350.83,218.36 347.71,218.13 Q 344.73,217.92 342.40,215.70 Q 339.24,212.70 338.75,207.25 Q 338.29,202.07 339.54,198.43 Q 340.49,195.66 340.68,194.98 Q 341.17,193.21 341.87,191.52 Q 342.13,190.90 342.34,191.47 Q 342.53,191.96 342.19,192.69 Q 340.69,195.85 341.72,199.14 Q 342.33,201.07 342.62,203.01 Q 343.16,206.62 346.11,209.13 Z"/>
<path fill="#7ebde4" d="M 185.71,195.00 L 185.25,194.96 Q 184.68,193.61 185.13,192.28 A 0.42,0.42 -64.9 0 1 185.75,192.05 Q 187.50,193.14 185.71,195.00 Z"/>
<path fill="#208dcc" d="M 222.50,193.46 Q 221.12,193.33 220.29,192.25 Q 221.82,191.92 222.50,193.46 Z"/>
<ellipse fill="#7ebde4" cx="0.00" cy="0.00" transform="translate(190.79,195.06) rotate(53.6)" rx="2.18" ry="0.67"/>
<path fill="#fbfcfd" d="M 185.25,194.96 L 185.71,195.00 Q 190.96,206.01 203.02,208.50 Q 205.84,209.09 206.08,211.96 Q 206.59,217.96 214.42,220.96 Q 214.89,221.14 215.24,221.49 Q 216.06,222.33 216.17,221.31 A 1.40,1.05 35.5 0 0 215.89,220.42 Q 214.23,218.21 212.95,215.78 Q 210.58,211.31 207.06,209.44 Q 202.76,207.15 202.29,202.75 Q 202.44,202.60 202.61,202.55 A 0.49,0.34 70.6 0 1 203.06,202.87 Q 204.45,206.30 207.78,207.58 Q 208.04,207.68 208.57,208.13 L 211.51,210.57 Q 211.98,210.95 212.11,211.29 Q 212.65,212.57 213.65,213.51 Q 215.20,214.97 215.47,215.38 Q 217.70,218.79 217.03,222.94 A 0.52,0.47 -78.8 0 1 216.45,223.38 L 214.00,222.79 Q 213.62,222.70 213.25,222.79 Q 205.86,219.34 205.04,211.24 A 0.62,0.61 -89.5 0 0 204.51,210.69 Q 192.29,209.12 186.06,198.44 Q 185.25,197.04 185.25,194.96 Z"/>
<path fill="#e4ecf2" d="M 183.65,198.44 Q 185.56,199.94 183.07,199.43 Q 182.29,199.27 181.49,199.40 A 0.90,0.82 -22.6 0 1 180.68,199.11 Q 179.64,197.84 178.62,196.55 Q 178.42,196.29 178.36,196.02 Q 178.16,194.97 179.34,196.16 Q 180.86,197.68 182.90,198.11 Q 183.35,198.21 183.65,198.44 Z"/>
<path fill="#7ebde4" d="M 213.39,201.98 L 214.01,203.77 Q 214.51,205.24 213.41,204.16 Q 211.37,202.15 213.00,200.00 Q 213.78,198.97 212.25,196.50 Q 211.64,195.51 212.33,195.57 A 1.20,0.89 70.2 0 1 213.10,196.08 Q 214.69,198.41 213.48,201.05 A 1.35,1.02 -47.3 0 0 213.39,201.98 Z"/>
<path fill="#e4ecf2" d="M 203.96,200.50 L 203.21,197.25 Q 205.81,198.48 205.83,201.32 Q 205.83,201.96 205.36,201.59 L 203.96,200.50 Z"/>
<path fill="#b0d7ef" d="M 202.75,200.71 L 202.50,200.79 Q 201.22,199.95 200.51,199.17 Q 199.29,197.82 200.98,198.48 Q 202.66,199.14 202.75,200.71 Z"/>
<path fill="#7ebde4" d="M 173.04,202.50 Q 172.74,201.88 172.00,201.96 Q 172.72,197.90 175.15,200.15 A 1.04,0.97 26.5 0 1 175.47,201.00 Q 175.23,202.90 173.04,202.50 Z"/>
<path fill="#fbcb28" d="M 380.63,227.19 Q 380.52,220.54 378.94,213.56 Q 377.19,205.86 373.15,199.97 Q 372.98,199.72 372.97,199.47 Q 372.96,198.74 373.69,199.31 Q 380.66,204.80 382.64,214.27 Q 386.60,233.31 376.12,249.44 Q 375.22,250.83 375.78,249.51 Q 378.04,244.18 379.36,238.57 Q 380.72,232.81 380.63,227.19 Z"/>
<path fill="#b0d7ef" d="M 217.25,209.29 Q 217.22,209.82 217.75,210.04 Q 218.59,212.68 216.91,211.09 Q 210.18,204.78 208.81,201.94 Q 207.51,199.21 209.31,200.94 Q 209.54,201.16 209.77,201.48 Q 212.92,205.93 217.25,209.29 Z"/>
<path fill="#f0f5fa" d="M 181.52,200.78 Q 183.08,201.54 183.50,203.26 Q 183.75,204.26 182.95,203.72 L 180.43,202.04 A 0.83,0.75 -67.7 0 1 180.12,201.19 Q 180.37,200.22 181.52,200.78 Z"/>
<ellipse fill="#7ebde4" cx="0.00" cy="0.00" transform="translate(199.09,201.92) rotate(54.5)" rx="1.66" ry="0.45"/>
<path fill="#fcdf6c" d="M 230.00,220.94 Q 230.70,211.00 227.44,202.56 Q 227.16,201.84 227.30,201.37 Q 227.49,200.74 227.74,201.41 Q 231.09,210.35 231.75,214.50 Q 232.52,219.33 231.25,222.00 Q 229.69,225.28 230.00,220.94 Z"/>
<path fill="#fbfcfd" d="M 172.00,201.96 Q 172.74,201.88 173.04,202.50 Q 173.49,205.83 176.70,206.70 A 0.76,0.63 7.2 0 1 177.26,207.30 Q 177.34,208.66 175.99,208.66 Q 175.26,208.65 174.48,208.18 Q 171.10,206.14 172.00,201.96 Z"/>
<path fill="#7ebde4" d="M 179.46,203.34 Q 179.44,202.89 179.75,203.22 Q 181.62,205.21 181.94,207.25 Q 182.03,207.80 181.60,207.44 Q 179.56,205.77 179.46,203.34 Z"/>
<path fill="#fcdf6c" d="M 234.30,228.43 Q 234.75,215.66 230.72,203.55 Q 230.56,203.06 230.79,203.52 Q 234.24,210.58 235.50,218.28 Q 236.65,225.32 236.71,226.18 Q 236.97,230.31 235.15,234.24 A 1.34,1.18 -86.0 0 1 234.48,234.90 Q 232.89,235.52 233.49,233.45 Q 234.21,230.99 234.30,228.43 Z"/>
<ellipse fill="#fcdf6c" cx="0.00" cy="0.00" transform="translate(226.57,210.51) rotate(87.7)" rx="4.36" ry="0.70"/>
<path fill="#fbcb28" d="M 372.48,230.67 Q 373.39,219.21 367.60,209.36 Q 366.82,208.04 368.07,208.43 Q 368.42,208.54 368.69,208.84 Q 374.38,215.32 375.00,223.25 Q 375.88,234.48 370.16,243.91 Q 368.55,246.55 369.61,243.65 Q 371.95,237.24 372.48,230.67 Z"/>
<path fill="#e4ecf2" d="M 198.48,213.03 Q 196.05,211.56 193.48,210.36 Q 193.25,210.25 193.00,210.21 Q 189.07,209.58 192.99,209.50 Q 193.25,209.50 193.49,209.57 Q 197.70,210.83 200.65,213.89 Q 201.31,214.59 200.39,214.29 Q 199.69,214.07 199.28,213.72 Q 198.52,213.06 198.48,213.03 Z"/>
<path fill="#0e618f" d="M 440.75,209.54 Q 442.74,209.29 444.50,210.21 Q 440.76,210.17 437.25,211.46 Q 438.67,209.96 440.75,209.54 Z"/>
<path fill="#fbfcfd" d="M 211.94,240.93 Q 211.93,240.03 211.77,239.15 Q 211.28,236.49 212.70,238.76 Q 213.60,240.21 213.55,242.64 Q 213.50,244.79 211.73,243.56 Q 208.33,241.19 205.97,235.99 A 2.91,2.88 3.2 0 0 204.78,234.67 Q 195.92,229.55 187.00,224.46 Q 183.41,222.41 178.19,218.06 Q 174.60,215.08 173.59,211.11 Q 173.49,210.74 173.56,210.39 Q 173.85,208.87 174.58,210.57 Q 175.53,212.76 177.18,214.38 Q 177.60,214.80 180.65,217.30 Q 184.74,220.65 191.44,224.56 Q 198.77,228.84 206.53,233.47 A 1.91,1.89 -83.6 0 1 207.38,234.54 Q 208.76,239.01 211.54,241.14 Q 211.95,241.46 211.94,240.93 Z"/>
<ellipse fill="#b0d7ef" cx="0.00" cy="0.00" transform="translate(186.20,212.13) rotate(57.4)" rx="2.13" ry="0.59"/>
<path fill="#0e618f" d="M 445.50,210.54 Q 446.57,211.09 447.00,212.21 Q 445.41,211.98 445.50,210.54 Z"/>
<path fill="#7ebde4" d="M 193.45,216.82 Q 191.74,215.68 192.27,213.71 Q 192.56,212.63 193.00,213.73 L 193.99,216.27 Q 194.47,217.50 193.45,216.82 Z"/>
<path fill="#b0d7ef" d="M 220.00,214.21 L 222.25,219.46 Q 220.45,218.74 219.50,216.25 Q 218.91,214.70 220.00,214.21 Z"/>
<path fill="#208dcc" d="M 170.96,221.25 Q 173.14,224.27 176.25,226.29 Q 185.24,232.77 195.00,238.04 Q 198.61,240.17 203.69,245.31 Q 207.18,248.85 208.21,252.00 Q 203.32,246.29 197.44,241.71 Q 195.09,239.88 190.66,237.32 Q 187.16,235.31 183.74,233.16 Q 175.88,228.23 174.20,226.88 Q 169.62,223.18 166.75,218.00 Q 165.98,216.62 166.37,214.98 Q 166.47,214.54 166.74,214.95 L 170.96,221.25 Z"/>
<path fill="#fbcb28" d="M 365.37,232.43 Q 366.33,223.63 361.95,216.08 A 0.83,0.44 52.4 0 1 361.83,215.37 Q 362.00,215.07 362.49,215.51 Q 365.35,218.07 366.40,221.78 Q 369.27,231.95 363.81,241.31 Q 363.48,241.88 363.32,241.52 A 0.82,0.45 -58.3 0 1 363.35,240.98 Q 364.89,236.83 365.37,232.43 Z"/>
<ellipse fill="#208dcc" cx="0.00" cy="0.00" transform="translate(174.91,218.33) rotate(43.3)" rx="2.31" ry="0.81"/>
<ellipse fill="#f0f5fa" cx="0.00" cy="0.00" transform="translate(190.47,219.58) rotate(37.1)" rx="3.89" ry="0.88"/>
<ellipse fill="#b0d7ef" cx="0.00" cy="0.00" transform="translate(204.71,218.64) rotate(65.8)" rx="1.50" ry="0.49"/>
<path fill="#fbcf3c" d="M 316.21,244.00 Q 314.28,250.74 315.94,255.06 Q 316.85,257.45 317.43,259.94 Q 317.52,260.32 317.71,260.48 Q 318.17,260.87 318.29,259.75 Q 319.55,264.13 321.88,268.05 Q 322.03,268.31 322.01,268.48 Q 321.99,268.76 321.69,268.77 Q 321.52,268.77 321.35,268.63 Q 316.02,264.25 314.50,258.00 Q 309.17,236.09 322.21,217.65 Q 322.60,217.10 322.66,217.72 Q 322.69,218.06 322.50,218.46 Q 316.95,230.63 316.21,244.00 Z"/>
<path fill="#b0d7ef" d="M 217.25,232.21 Q 216.51,232.49 216.29,233.25 Q 216.40,231.13 215.19,230.06 Q 214.27,229.26 208.81,225.19 Q 207.37,224.11 206.07,223.96 A 1.95,1.63 -18.7 0 1 205.17,223.61 Q 203.68,222.46 201.82,222.33 A 0.38,0.36 85.1 0 0 201.45,222.79 Q 201.90,224.79 199.50,224.50 Q 195.81,224.06 195.31,222.69 Q 195.11,222.14 195.74,222.27 Q 198.03,222.77 199.37,223.54 Q 201.35,224.67 200.44,222.58 Q 199.60,220.62 198.18,219.06 Q 198.06,218.93 198.03,218.77 Q 197.85,217.87 198.51,218.70 Q 200.39,221.04 203.13,221.62 Q 205.49,222.12 206.51,222.74 Q 210.97,225.45 214.96,228.82 Q 215.67,229.43 216.19,230.43 Q 216.66,231.35 217.25,232.21 Z"/>
<path fill="#b0d7ef" d="M 172.79,219.25 Q 182.33,226.74 192.69,233.06 Q 196.62,235.46 201.52,241.23 Q 206.58,247.19 211.27,253.44 Q 212.48,255.06 214.48,256.20 Q 219.84,259.27 223.67,264.09 Q 223.73,264.16 227.06,268.23 Q 228.20,269.62 229.13,271.17 Q 230.03,272.67 231.16,274.12 Q 233.06,276.57 234.50,279.75 Q 236.43,284.02 240.46,287.00 L 240.75,292.58 A 0.47,0.47 8.5 0 1 240.12,293.04 Q 238.20,292.39 238.00,291.04 Q 239.83,291.60 239.16,290.02 A 1.99,0.99 22.8 0 0 238.52,289.28 Q 237.70,288.67 237.24,287.75 Q 233.21,279.55 227.75,272.21 Q 223.05,263.49 215.69,258.31 Q 215.07,257.88 214.71,258.75 Q 211.06,255.75 208.21,252.00 Q 207.18,248.85 203.69,245.31 Q 198.61,240.17 195.00,238.04 Q 196.00,237.68 194.94,236.94 Q 193.05,235.61 191.72,234.85 Q 189.83,233.76 188.66,232.64 Q 184.22,228.43 178.47,226.18 A 1.85,1.64 -36.1 0 0 177.51,226.09 L 176.25,226.29 Q 173.14,224.27 170.96,221.25 Q 172.23,220.57 172.79,219.25 Z"/>
<path fill="#e4ecf2" d="M 222.75,221.46 L 229.94,238.58 Q 231.12,241.38 228.38,239.96 Q 226.84,239.17 225.46,237.82 Q 224.56,236.94 222.77,235.47 Q 219.84,233.05 219.25,229.05 A 0.55,0.51 -5.9 0 0 218.68,228.62 Q 216.50,228.79 215.06,226.94 Q 213.50,224.91 213.25,222.79 Q 213.62,222.70 214.00,222.79 Q 214.54,226.45 217.60,225.78 Q 219.78,225.30 219.83,225.30 Q 221.96,225.29 223.30,227.24 Q 224.04,228.32 224.01,227.04 Q 224.01,226.77 223.84,226.50 Q 222.70,224.65 222.19,222.52 Q 221.97,221.60 222.75,221.46 ZM 225.96,235.62 Q 226.77,236.39 227.71,237.02 Q 228.62,237.63 228.42,238.54 A 0.85,0.58 -69.0 0 0 228.61,239.33 Q 229.26,239.84 229.22,238.91 Q 229.21,238.60 229.01,238.27 Q 227.76,236.23 226.81,234.05 Q 225.78,231.66 224.44,230.45 Q 222.81,228.97 220.92,227.80 Q 219.59,226.98 220.00,228.49 Q 221.03,232.28 224.21,234.27 Q 225.19,234.88 225.96,235.62 Z"/>
<path fill="#fbcb28" d="M 327.78,222.69 Q 328.04,222.05 328.29,222.39 A 0.71,0.49 -58.6 0 1 328.32,222.99 Q 325.68,229.79 324.56,237.01 Q 322.81,248.29 327.70,258.46 Q 327.83,258.73 327.86,258.95 Q 327.94,259.73 327.04,258.72 Q 320.82,251.75 321.46,242.25 Q 322.15,231.93 327.55,223.16 Q 327.66,222.99 327.78,222.69 Z"/>
<path fill="#24a8e0" d="M 392.46,296.00 L 388.25,295.04 Q 387.34,288.10 383.40,282.33 Q 380.78,278.50 378.57,274.41 Q 378.36,274.03 378.21,273.43 Q 377.86,272.04 377.13,272.88 Q 376.69,273.37 376.33,273.58 Q 369.70,277.19 364.25,282.46 L 363.50,281.46 Q 367.29,277.40 370.37,272.80 Q 372.57,269.53 372.69,267.31 Q 372.93,263.04 367.25,262.52 Q 365.42,262.36 364.83,260.79 A 1.62,0.98 84.8 0 0 364.28,260.04 Q 361.54,258.30 361.88,260.98 Q 362.00,261.92 362.72,262.66 Q 365.76,265.75 370.26,266.25 Q 373.06,266.56 371.35,268.80 Q 367.66,273.63 363.56,278.31 Q 362.41,279.63 361.00,279.75 A 1.41,0.54 43.8 0 1 360.15,279.39 Q 359.65,279.01 359.00,279.29 L 358.25,279.21 Q 359.99,274.45 361.56,271.81 Q 363.01,269.38 365.93,269.41 A 0.68,0.61 7.0 0 0 366.59,268.95 Q 367.27,266.48 364.75,266.27 A 1.41,1.29 -58.9 0 0 363.84,266.54 Q 361.09,268.54 359.44,271.94 Q 356.31,278.38 354.69,282.44 Q 353.70,284.92 350.50,285.54 L 350.00,285.21 Q 354.29,279.30 355.00,276.25 Q 356.01,271.89 353.26,268.06 A 1.48,1.47 52.1 0 0 351.12,267.79 Q 349.03,269.52 348.96,272.00 Q 348.83,271.30 348.21,271.25 Q 348.32,269.56 348.21,267.88 Q 348.19,267.52 348.01,267.29 Q 347.50,266.61 347.26,267.85 Q 347.07,268.87 346.99,269.90 Q 346.91,270.90 346.48,271.32 Q 345.53,272.25 344.77,269.75 Q 344.35,268.35 344.11,269.79 Q 343.59,272.88 341.44,274.69 Q 339.74,276.11 338.56,273.94 Q 338.24,273.34 337.79,273.75 L 336.25,272.21 L 340.42,267.13 A 0.88,0.86 55.0 0 0 340.56,266.28 Q 340.05,264.82 340.29,263.25 Q 341.44,260.73 339.00,259.25 Q 338.57,258.99 338.71,258.25 L 345.20,245.41 A 2.25,2.23 47.4 0 0 345.27,243.55 Q 343.20,238.51 345.99,233.63 Q 346.65,232.47 346.75,230.76 L 347.20,223.00 A 0.92,0.55 88.4 0 1 347.64,222.21 Q 347.82,222.16 348.00,222.27 A 0.84,0.51 -85.9 0 1 348.29,222.84 L 349.25,231.19 A 1.23,1.15 16.6 0 0 349.71,231.98 Q 354.01,235.29 351.33,240.35 Q 350.54,241.84 351.56,243.18 Q 359.92,254.24 372.30,260.47 Q 378.58,263.63 382.77,268.90 Q 386.48,273.56 389.25,280.33 Q 392.27,287.75 392.46,296.00 ZM 347.03,242.67 L 348.17,245.64 Q 348.43,246.30 348.42,246.55 L 348.09,253.45 A 0.64,0.55 -84.8 0 0 348.55,254.09 Q 349.42,254.23 349.67,253.24 A 1.49,1.00 46.3 0 0 349.51,252.32 Q 348.67,250.75 349.00,249.75 Q 350.33,245.68 349.25,242.50 Q 348.50,240.30 347.24,241.79 A 0.98,0.75 -39.3 0 0 347.03,242.67 ZM 358.72,253.83 Q 357.26,255.64 358.01,257.31 A 1.14,0.90 50.4 0 1 358.03,258.20 Q 356.66,260.97 354.34,263.05 Q 354.18,263.19 354.12,263.36 Q 353.74,264.33 354.46,263.71 Q 357.69,260.97 359.99,257.41 A 1.51,0.98 67.6 0 0 360.16,256.51 L 359.91,254.27 Q 359.73,252.59 358.72,253.83 ZM 345.00,257.81 Q 344.70,257.53 344.30,257.51 A 0.60,0.50 -86.3 0 0 343.76,258.07 Q 343.68,259.46 344.23,260.74 A 0.33,0.30 -35.8 0 0 344.76,260.80 Q 345.41,260.10 346.30,259.84 Q 347.93,259.35 348.02,259.31 Q 350.70,258.06 353.15,256.41 Q 353.36,256.27 354.43,255.70 Q 355.51,255.12 355.24,254.39 A 1.15,1.15 -33.1 0 0 353.33,253.99 Q 349.68,257.82 345.81,258.16 A 1.28,0.73 53.2 0 1 345.00,257.81 Z"/>
<path fill="#208dcc" d="M 184.27,224.78 A 0.15,0.15 60.2 0 1 184.45,224.83 Q 186.21,227.23 183.92,225.83 Q 183.11,225.33 184.27,224.78 Z"/>
<path fill="#fbcb28" d="M 333.58,225.62 Q 334.15,224.74 334.19,225.71 Q 334.19,225.92 334.09,226.14 Q 328.22,238.52 333.44,251.14 Q 333.58,251.49 333.63,251.75 Q 333.92,253.28 332.60,251.66 Q 329.60,248.01 329.19,243.26 Q 328.35,233.63 333.58,225.62 Z"/>
<path fill="#7ebde4" d="M 195.00,238.04 Q 185.24,232.77 176.25,226.29 L 177.51,226.09 A 1.85,1.64 -36.1 0 1 178.47,226.18 Q 184.22,228.43 188.66,232.64 Q 189.83,233.76 191.72,234.85 Q 193.05,235.61 194.94,236.94 Q 196.00,237.68 195.00,238.04 Z"/>
<path fill="#23a2dc" d="M 224.21,234.27 Q 221.03,232.28 220.00,228.49 Q 219.59,226.98 220.92,227.80 Q 222.81,228.97 224.44,230.45 Q 225.78,231.66 226.81,234.05 Q 227.76,236.23 229.01,238.27 Q 229.21,238.60 229.22,238.91 Q 229.26,239.84 228.61,239.33 A 0.85,0.58 -69.0 0 1 228.42,238.54 Q 228.62,237.63 227.71,237.02 Q 226.77,236.39 225.96,235.62 Q 225.19,234.88 224.21,234.27 Z"/>
<path fill="#b0d7ef" d="M 192.29,229.61 Q 193.56,230.11 194.44,231.12 A 1.06,0.74 38.3 0 1 194.70,231.99 Q 194.50,232.64 193.50,232.25 Q 191.42,231.44 190.69,229.05 Q 190.51,228.45 191.05,228.62 Q 191.38,228.72 191.58,228.99 A 1.82,0.73 63.0 0 0 192.29,229.61 Z"/>
<path fill="#fbfcfd" d="M 209.96,230.16 Q 212.67,232.25 214.17,234.78 Q 214.82,235.87 213.57,235.63 Q 211.97,235.33 211.48,234.24 Q 211.07,233.31 211.00,233.20 Q 210.24,232.03 209.40,230.67 Q 208.28,228.87 209.96,230.16 Z"/>
<path fill="#e4ecf2" d="M 217.25,232.21 Q 224.92,236.57 229.80,243.64 Q 232.10,246.96 233.36,252.00 Q 234.66,257.13 236.69,266.06 Q 237.51,269.67 237.33,272.24 Q 237.31,272.49 237.39,273.75 Q 237.48,275.21 235.50,274.46 Q 235.21,273.79 235.50,273.04 Q 236.29,271.94 236.25,271.00 Q 236.03,265.42 233.96,259.00 Q 232.93,255.30 231.72,251.64 Q 231.71,251.60 230.98,248.79 Q 230.18,245.68 227.54,243.75 Q 223.36,237.97 217.87,234.63 Q 216.53,233.81 217.30,235.17 Q 223.55,246.20 227.97,258.05 Q 229.38,261.82 230.94,263.81 Q 232.25,265.49 232.08,267.25 Q 232.03,267.79 231.69,267.36 Q 228.32,263.00 226.46,257.75 Q 226.44,256.59 225.54,255.75 Q 221.84,245.80 216.81,236.44 Q 216.14,235.18 216.29,233.25 Q 216.51,232.49 217.25,232.21 Z"/>
<path fill="#b0d7ef" d="M 199.00,234.44 L 200.79,237.46 Q 201.18,238.12 200.50,237.69 Q 198.77,236.60 198.81,234.51 Q 198.82,234.13 199.00,234.44 Z"/>
<path fill="#c5d7e6" d="M 209.96,246.25 Q 209.18,246.07 209.21,246.75 L 208.14,244.52 A 1.66,1.63 3.6 0 0 207.50,243.81 Q 205.21,242.46 203.80,240.17 Q 202.46,237.99 204.64,239.33 Q 208.70,241.84 209.96,246.25 Z"/>
<rect fill="#7ebde4" x="-0.41" y="-3.54" transform="translate(217.87,243.12) rotate(-41.7)" width="0.82" height="7.08" rx="0.31"/>
<rect fill="#7ebde4" x="-0.59" y="-3.12" transform="translate(224.19,243.40) rotate(-27.6)" width="1.18" height="6.24" rx="0.50"/>
<path fill="#b0d7ef" d="M 347.24,241.79 Q 348.50,240.30 349.25,242.50 Q 350.33,245.68 349.00,249.75 Q 348.67,250.75 349.51,252.32 A 1.49,1.00 46.3 0 1 349.67,253.24 Q 349.42,254.23 348.55,254.09 A 0.64,0.55 -84.8 0 1 348.09,253.45 L 348.42,246.55 Q 348.43,246.30 348.17,245.64 L 347.03,242.67 A 0.98,0.75 -39.3 0 1 347.24,241.79 Z"/>
<path fill="#6e9eff" d="M 227.54,243.75 Q 230.18,245.68 230.98,248.79 Q 231.71,251.60 231.72,251.64 Q 232.93,255.30 233.96,259.00 Q 233.12,259.04 233.21,260.00 Q 233.22,258.76 232.87,258.71 A 0.72,0.42 -85.9 0 0 232.37,259.44 L 232.21,262.75 L 230.32,250.25 A 0.79,0.73 4.6 0 0 229.76,249.64 Q 228.30,249.21 228.01,247.80 Q 227.67,246.19 227.59,245.87 Q 227.31,244.83 227.54,243.75 Z"/>
<path fill="#fcdf6c" d="M 316.21,244.00 Q 316.67,251.95 318.29,259.75 Q 318.17,260.87 317.71,260.48 Q 317.52,260.32 317.43,259.94 Q 316.85,257.45 315.94,255.06 Q 314.28,250.74 316.21,244.00 Z"/>
<path fill="#e4ecf2" d="M 209.96,246.25 Q 212.87,253.28 220.64,255.70 Q 222.29,256.22 221.09,254.96 Q 218.47,252.22 217.34,248.47 Q 216.70,246.36 218.25,247.00 Q 220.04,247.74 221.20,251.27 Q 221.97,253.61 223.80,255.23 A 1.55,0.99 -83.3 0 1 224.20,256.06 Q 224.26,256.46 224.50,256.79 Q 225.73,256.76 225.75,257.71 Q 224.40,259.50 223.50,257.25 Q 223.20,256.50 222.68,256.40 A 0.77,0.46 -71.2 0 0 222.05,256.93 Q 221.67,257.91 220.56,257.69 Q 211.59,255.88 209.21,246.75 Q 209.18,246.07 209.96,246.25 Z"/>
<path fill="#7ebde4" d="M 213.43,247.27 Q 213.35,246.57 213.84,247.08 Q 215.36,248.68 216.33,250.43 Q 216.53,250.79 216.49,251.11 Q 216.38,251.94 215.53,251.22 Q 213.71,249.69 213.43,247.27 Z"/>
<ellipse fill="#7ebde4" cx="0.00" cy="0.00" transform="translate(228.38,252.31) rotate(80.5)" rx="2.06" ry="0.76"/>
<path fill="#e4ecf2" d="M 358.72,253.83 Q 359.73,252.59 359.91,254.27 L 360.16,256.51 A 1.51,0.98 67.6 0 1 359.99,257.41 Q 357.69,260.97 354.46,263.71 Q 353.74,264.33 354.12,263.36 Q 354.18,263.19 354.34,263.05 Q 356.66,260.97 358.03,258.20 A 1.14,0.90 50.4 0 0 358.01,257.31 Q 357.26,255.64 358.72,253.83 Z"/>
<path fill="#f0f5fa" d="M 345.81,258.16 Q 349.68,257.82 353.33,253.99 A 1.15,1.15 -33.1 0 1 355.24,254.39 Q 355.51,255.12 354.43,255.70 Q 353.36,256.27 353.15,256.41 Q 350.70,258.06 348.02,259.31 Q 347.93,259.35 346.30,259.84 Q 345.41,260.10 344.76,260.80 A 0.33,0.30 -35.8 0 1 344.23,260.74 Q 343.68,259.46 343.76,258.07 A 0.60,0.50 -86.3 0 1 344.30,257.51 Q 344.70,257.53 345.00,257.81 A 1.28,0.73 53.2 0 0 345.81,258.16 Z"/>
<path fill="#208dcc" d="M 225.54,255.75 Q 226.44,256.59 226.46,257.75 L 225.75,257.71 Q 225.73,256.76 224.50,256.79 Q 225.29,256.54 225.54,255.75 Z"/>
<path fill="#1b75bb" d="M 227.75,272.21 Q 227.28,272.84 226.79,272.75 Q 221.98,264.71 214.71,258.75 Q 215.07,257.88 215.69,258.31 Q 223.05,263.49 227.75,272.21 Z"/>
<path fill="#1b75bb" d="M 338.71,258.25 Q 338.57,258.99 339.00,259.25 Q 341.44,260.73 340.29,263.25 Q 339.82,262.16 339.13,263.17 Q 338.18,264.55 338.32,267.95 A 1.70,1.22 -34.3 0 1 337.96,268.94 L 334.58,273.28 Q 333.87,274.19 334.75,273.46 L 336.25,272.21 L 337.79,273.75 Q 337.11,275.55 338.07,277.18 Q 339.09,278.92 339.07,280.78 Q 339.05,282.29 337.93,284.13 Q 334.28,290.14 328.05,293.32 Q 325.81,294.47 324.17,293.89 Q 321.95,293.10 321.46,290.25 Q 321.97,287.44 321.29,284.75 Q 321.67,282.12 323.20,279.94 Q 325.55,276.57 328.19,273.42 Q 334.13,266.31 338.71,258.25 ZM 333.64,278.55 Q 332.29,282.04 334.27,280.95 A 0.99,0.84 -15.9 0 0 334.77,280.20 Q 334.79,279.33 334.00,278.48 A 0.22,0.22 -55.5 0 0 333.64,278.55 ZM 325.25,282.42 Q 325.45,284.54 324.69,285.94 Q 324.44,286.39 324.65,286.45 A 0.43,0.31 -67.6 0 0 325.08,286.19 L 326.84,282.22 A 0.98,0.98 41.3 0 0 326.78,281.31 Q 326.16,280.33 325.43,281.50 A 1.56,1.16 64.6 0 0 325.25,282.42 Z"/>
<path fill="#b0d7ef" d="M 233.21,260.00 Q 233.62,264.16 234.33,268.28 Q 234.62,270.00 234.02,268.53 Q 232.88,265.71 232.21,262.75 L 232.37,259.44 A 0.72,0.42 -85.9 0 1 232.87,258.71 Q 233.22,258.76 233.21,260.00 Z"/>
<path fill="#fbfcfd" d="M 363.50,281.46 Q 359.00,285.43 359.00,279.29 Q 359.65,279.01 360.15,279.39 A 1.41,0.54 43.8 0 0 361.00,279.75 Q 362.41,279.63 363.56,278.31 Q 367.66,273.63 371.35,268.80 Q 373.06,266.56 370.26,266.25 Q 365.76,265.75 362.72,262.66 Q 362.00,261.92 361.88,260.98 Q 361.54,258.30 364.28,260.04 A 1.62,0.98 84.8 0 1 364.83,260.79 Q 365.42,262.36 367.25,262.52 Q 372.93,263.04 372.69,267.31 Q 372.57,269.53 370.37,272.80 Q 367.29,277.40 363.50,281.46 Z"/>
<path fill="#7ebde4" d="M 226.57,263.80 Q 226.54,264.95 225.95,264.15 Q 225.84,263.99 225.75,263.70 Q 225.35,262.47 224.21,261.93 A 1.64,0.60 17.2 0 1 223.45,261.35 Q 223.09,260.73 223.52,260.33 A 0.49,0.41 53.0 0 1 224.20,260.49 Q 225.38,262.32 227.36,263.24 Q 227.84,263.47 228.11,263.85 Q 230.13,266.70 230.50,268.50 Q 231.18,271.78 229.64,268.65 Q 228.39,266.09 226.83,263.72 Q 226.58,263.34 226.57,263.80 Z"/>
<path fill="#e4ecf2" d="M 340.29,263.25 Q 340.05,264.82 340.56,266.28 A 0.88,0.86 55.0 0 1 340.42,267.13 L 336.25,272.21 L 334.75,273.46 Q 333.87,274.19 334.58,273.28 L 337.96,268.94 A 1.70,1.22 -34.3 0 0 338.32,267.95 Q 338.18,264.55 339.13,263.17 Q 339.82,262.16 340.29,263.25 Z"/>
<path fill="#fbfcfd" d="M 358.25,279.21 Q 356.94,281.80 355.62,284.37 Q 354.72,286.12 353.90,286.73 Q 352.01,288.15 350.50,285.54 Q 353.70,284.92 354.69,282.44 Q 356.31,278.38 359.44,271.94 Q 361.09,268.54 363.84,266.54 A 1.41,1.29 -58.9 0 1 364.75,266.27 Q 367.27,266.48 366.59,268.95 A 0.68,0.61 7.0 0 1 365.93,269.41 Q 363.01,269.38 361.56,271.81 Q 359.99,274.45 358.25,279.21 Z"/>
<path fill="#fbfcfd" d="M 348.21,271.25 Q 347.79,274.75 344.67,274.50 A 0.97,0.69 14.8 0 0 343.85,274.81 L 342.21,277.25 Q 339.73,278.10 339.76,282.12 Q 339.77,283.71 339.05,285.13 Q 335.59,291.96 328.18,296.39 Q 324.60,298.54 322.31,295.44 Q 321.03,293.69 320.96,291.25 Q 321.04,290.66 321.46,290.25 Q 321.95,293.10 324.17,293.89 Q 325.81,294.47 328.05,293.32 Q 334.28,290.14 337.93,284.13 Q 339.05,282.29 339.07,280.78 Q 339.09,278.92 338.07,277.18 Q 337.11,275.55 337.79,273.75 Q 338.24,273.34 338.56,273.94 Q 339.74,276.11 341.44,274.69 Q 343.59,272.88 344.11,269.79 Q 344.35,268.35 344.77,269.75 Q 345.53,272.25 346.48,271.32 Q 346.91,270.90 346.99,269.90 Q 347.07,268.87 347.26,267.85 Q 347.50,266.61 348.01,267.29 Q 348.19,267.52 348.21,267.88 Q 348.32,269.56 348.21,271.25 Z"/>
<path fill="#fbfcfd" d="M 350.00,285.21 L 345.68,288.94 Q 343.60,290.74 342.19,288.07 Q 340.41,284.70 341.54,281.00 L 341.96,281.75 L 342.36,285.10 Q 342.65,287.48 345.14,286.21 Q 348.66,284.41 350.24,280.90 Q 350.45,280.45 350.83,280.12 Q 353.12,278.16 354.07,275.02 Q 354.78,272.67 352.64,273.88 Q 348.80,276.05 348.96,272.00 Q 349.03,269.52 351.12,267.79 A 1.48,1.47 52.1 0 1 353.26,268.06 Q 356.01,271.89 355.00,276.25 Q 354.29,279.30 350.00,285.21 ZM 352.4568,270.5805 A 1.28,0.75 -22.0 0 0 350.9890,270.3646 A 1.28,0.75 -22.0 0 0 350.0832,271.5395 A 1.28,0.75 -22.0 0 0 351.5510,271.7554 A 1.28,0.75 -22.0 0 0 352.4568,270.5805 Z"/>
<ellipse fill="#6e9eff" cx="0.00" cy="0.00" transform="translate(351.27,271.06) rotate(-22.0)" rx="1.28" ry="0.75"/>
<path fill="#208dcc" d="M 235.50,273.04 Q 235.21,273.79 235.50,274.46 Q 233.51,273.57 233.31,271.35 Q 233.25,270.66 233.65,271.23 Q 234.76,272.83 235.50,273.04 Z"/>
<path fill="#208dcc" d="M 348.21,271.25 Q 348.83,271.30 348.96,272.00 Q 348.80,276.05 352.64,273.88 Q 354.78,272.67 354.07,275.02 Q 353.12,278.16 350.83,280.12 Q 350.45,280.45 350.24,280.90 Q 348.66,284.41 345.14,286.21 Q 342.65,287.48 342.36,285.10 L 341.96,281.75 L 342.46,279.00 L 342.21,277.25 L 343.85,274.81 A 0.97,0.69 14.8 0 1 344.67,274.50 Q 347.79,274.75 348.21,271.25 ZM 349.8466,280.2123 A 2.02,0.53 99.5 0 0 350.7027,278.3075 A 2.02,0.53 99.5 0 0 350.5134,276.2277 A 2.02,0.53 99.5 0 0 349.6573,278.1325 A 2.02,0.53 99.5 0 0 349.8466,280.2123 Z"/>
<path fill="#6e9eff" d="M 227.75,272.21 Q 233.21,279.55 237.24,287.75 Q 237.70,288.67 238.52,289.28 A 1.99,0.99 22.8 0 1 239.16,290.02 Q 239.83,291.60 238.00,291.04 L 226.79,272.75 Q 227.28,272.84 227.75,272.21 Z"/>
<path fill="#fbfcfd" d="M 388.25,295.04 Q 387.45,304.34 380.68,310.60 Q 380.31,310.95 380.60,310.53 Q 383.96,305.57 386.00,299.98 Q 386.91,297.47 386.69,295.40 Q 386.43,293.04 385.38,290.84 Q 383.22,286.31 379.54,281.46 Q 378.79,280.47 378.89,281.71 Q 379.50,289.53 380.00,296.75 Q 380.37,302.20 378.38,306.08 Q 377.27,308.22 375.46,308.64 Q 373.18,309.16 371.28,306.98 Q 368.63,303.94 369.35,307.34 Q 369.51,308.11 369.42,308.69 Q 368.86,312.47 365.37,315.15 A 2.58,2.55 79.9 0 0 364.48,316.44 Q 361.79,325.21 356.26,330.66 Q 354.09,332.80 352.39,333.33 Q 349.12,334.35 347.75,330.00 Q 347.28,328.50 347.94,323.00 A 0.48,0.46 5.8 0 0 347.50,322.48 Q 344.08,322.23 343.95,319.02 Q 343.91,317.98 343.17,318.71 Q 334.97,326.72 324.90,331.36 Q 319.78,333.72 317.22,333.45 Q 312.18,332.90 312.59,324.47 A 1.43,1.43 -83.9 0 0 311.40,322.99 Q 311.29,322.97 310.81,322.39 A 1.69,1.62 23.4 0 1 310.44,321.51 Q 309.89,316.00 312.37,310.74 Q 313.19,309.00 312.77,310.88 Q 312.03,314.18 311.63,316.84 Q 311.48,317.86 311.75,318.63 Q 312.62,321.11 314.22,318.23 Q 315.36,316.17 314.90,318.23 Q 314.30,320.97 313.71,323.72 Q 312.31,330.18 318.69,329.69 Q 323.22,329.33 329.25,325.75 Q 337.52,320.84 344.76,314.61 Q 345.59,313.90 345.50,314.98 Q 345.09,320.19 349.49,317.66 Q 351.39,316.56 350.45,314.58 Q 349.47,312.54 350.88,311.09 A 0.34,0.33 57.7 0 1 351.43,311.22 Q 353.67,317.16 349.30,321.59 A 1.49,1.42 -20.1 0 0 348.88,322.44 Q 348.72,323.89 348.51,325.32 Q 348.21,327.39 348.74,328.63 Q 350.18,331.99 354.06,329.31 Q 359.84,325.33 363.00,317.77 Q 363.25,317.17 362.69,317.35 L 360.19,318.19 Q 357.74,319.00 357.50,316.00 Q 357.28,313.19 359.09,311.40 Q 360.07,310.43 361.04,310.60 Q 362.19,310.80 362.81,312.38 A 1.02,1.02 63.9 0 0 364.27,312.88 Q 371.57,308.61 365.29,304.20 Q 361.25,301.36 357.25,298.45 Q 355.36,297.08 355.08,295.47 Q 354.70,293.36 356.00,291.50 Q 359.00,287.20 364.25,282.46 Q 369.70,277.19 376.33,273.58 Q 376.69,273.37 377.13,272.88 Q 377.86,272.04 378.21,273.43 Q 378.36,274.03 378.57,274.41 Q 380.78,278.50 383.40,282.33 Q 387.34,288.10 388.25,295.04 ZM 362.75,286.96 Q 359.03,290.07 356.50,293.78 A 1.10,1.09 -61.4 0 0 356.97,295.40 Q 365.26,298.98 372.32,304.43 Q 375.80,307.11 377.94,303.94 Q 379.36,301.82 378.46,298.25 L 376.76,277.88 A 0.75,0.74 -2.0 0 0 376.01,277.19 Q 374.36,277.17 373.08,278.09 Q 367.53,282.08 362.75,286.96 ZM 360.85,313.77 Q 358.97,313.24 359.01,314.70 A 0.52,0.49 86.0 0 0 359.56,315.21 Q 360.28,315.12 361.01,314.34 A 0.35,0.34 29.9 0 0 360.85,313.77 Z"/>
<ellipse fill="#b0d7ef" cx="0.00" cy="0.00" transform="translate(350.18,278.22) rotate(99.5)" rx="2.02" ry="0.53"/>
<path fill="#23a2dc" d="M 378.46,298.25 L 373.99,298.20 Q 373.63,298.20 373.11,297.95 L 371.00,296.96 L 373.46,293.66 A 1.33,1.28 61.4 0 0 373.71,292.75 Q 373.36,288.56 371.93,292.04 A 1.50,0.98 56.2 0 0 371.94,292.96 Q 372.29,294.06 371.54,295.00 Q 371.62,293.18 370.00,293.01 Q 369.43,292.96 369.08,292.73 L 368.25,292.21 Q 368.65,290.48 367.03,289.84 A 0.31,0.31 -57.3 0 1 366.92,289.33 Q 369.57,286.57 365.79,288.75 Q 364.64,287.11 362.75,286.96 Q 367.53,282.08 373.08,278.09 Q 374.36,277.17 376.01,277.19 A 0.75,0.74 -2.0 0 1 376.76,277.88 L 378.46,298.25 ZM 375.51,277.68 Q 372.99,281.67 371.85,285.66 A 0.97,0.64 -59.1 0 0 371.88,286.33 Q 372.14,286.80 372.46,285.94 Q 373.49,283.13 375.17,280.64 Q 376.11,279.23 375.96,277.79 Q 375.89,277.08 375.51,277.68 Z"/>
<path fill="#1b75bb" d="M 342.21,277.25 L 342.46,279.00 Q 341.10,279.47 341.54,281.00 Q 340.41,284.70 342.19,288.07 Q 343.60,290.74 345.68,288.94 L 350.00,285.21 L 350.50,285.54 Q 352.01,288.15 353.90,286.73 Q 354.72,286.12 355.62,284.37 Q 356.94,281.80 358.25,279.21 L 359.00,279.29 Q 359.00,285.43 363.50,281.46 L 364.25,282.46 Q 359.00,287.20 356.00,291.50 Q 354.70,293.36 355.08,295.47 Q 355.36,297.08 357.25,298.45 Q 361.25,301.36 365.29,304.20 Q 371.57,308.61 364.27,312.88 A 1.02,1.02 63.9 0 1 362.81,312.38 Q 362.19,310.80 361.04,310.60 Q 360.07,310.43 359.09,311.40 Q 357.28,313.19 357.50,316.00 Q 357.74,319.00 360.19,318.19 L 362.69,317.35 Q 363.25,317.17 363.00,317.77 Q 359.84,325.33 354.06,329.31 Q 350.18,331.99 348.74,328.63 Q 348.21,327.39 348.51,325.32 Q 348.72,323.89 348.88,322.44 A 1.49,1.42 -20.1 0 1 349.30,321.59 Q 353.67,317.16 351.43,311.22 A 0.34,0.33 57.7 0 0 350.88,311.09 Q 349.47,312.54 350.45,314.58 Q 351.39,316.56 349.49,317.66 Q 345.09,320.19 345.50,314.98 Q 345.59,313.90 344.76,314.61 Q 337.52,320.84 329.25,325.75 Q 323.22,329.33 318.69,329.69 Q 312.31,330.18 313.71,323.72 Q 314.30,320.97 314.90,318.23 Q 315.36,316.17 314.22,318.23 Q 312.62,321.11 311.75,318.63 Q 311.48,317.86 311.63,316.84 Q 312.03,314.18 312.77,310.88 Q 313.19,309.00 312.37,310.74 Q 309.89,316.00 310.44,321.51 A 1.69,1.62 23.4 0 0 310.81,322.39 Q 311.29,322.97 311.40,322.99 A 1.43,1.43 -83.9 0 1 312.59,324.47 Q 312.18,332.90 317.22,333.45 Q 319.78,333.72 324.90,331.36 Q 334.97,326.72 343.17,318.71 Q 343.91,317.98 343.95,319.02 Q 344.08,322.23 347.50,322.48 A 0.48,0.46 5.8 0 1 347.94,323.00 Q 347.28,328.50 347.75,330.00 Q 349.12,334.35 352.39,333.33 Q 354.09,332.80 356.26,330.66 Q 361.79,325.21 364.48,316.44 A 2.58,2.55 79.9 0 1 365.37,315.15 Q 368.86,312.47 369.42,308.69 Q 369.51,308.11 369.35,307.34 Q 368.63,303.94 371.28,306.98 Q 373.18,309.16 375.46,308.64 Q 377.27,308.22 378.38,306.08 Q 380.37,302.20 380.00,296.75 Q 379.50,289.53 378.89,281.71 Q 378.79,280.47 379.54,281.46 Q 383.22,286.31 385.38,290.84 Q 386.43,293.04 386.69,295.40 Q 386.91,297.47 386.00,299.98 Q 383.96,305.57 380.60,310.53 Q 380.31,310.95 380.68,310.60 Q 387.45,304.34 388.25,295.04 L 392.46,296.00 Q 392.74,301.62 393.01,307.25 Q 393.03,307.58 393.46,307.50 Q 391.10,315.79 382.81,319.31 Q 374.87,322.69 371.22,324.01 Q 359.83,328.15 352.07,337.36 A 0.67,0.66 -58.5 0 1 351.29,337.55 Q 343.91,334.35 337.75,335.75 Q 329.69,337.58 321.92,340.38 Q 318.70,341.54 315.25,341.45 Q 311.01,341.34 308.46,338.00 Q 309.00,337.45 308.81,336.44 Q 308.08,332.43 307.95,326.04 A 0.54,0.46 86.8 0 0 307.45,325.51 Q 306.97,325.56 307.18,326.17 Q 307.31,326.53 307.27,326.90 Q 306.85,330.91 306.82,329.50 Q 306.77,327.47 306.29,325.50 Q 306.00,320.84 306.79,316.25 Q 307.41,314.92 308.18,313.69 Q 309.02,312.38 309.34,311.08 Q 312.45,298.40 318.82,286.99 A 1.43,1.04 -77.9 0 1 319.51,286.37 L 320.71,286.00 L 320.96,291.25 Q 321.03,293.69 322.31,295.44 Q 324.60,298.54 328.18,296.39 Q 335.59,291.96 339.05,285.13 Q 339.77,283.71 339.76,282.12 Q 339.73,278.10 342.21,277.25 ZM 349.70,294.55 Q 351.99,292.79 354.27,291.01 Q 355.02,290.42 354.88,289.76 A 0.37,0.31 -28.5 0 0 354.30,289.64 Q 349.06,294.13 343.53,298.27 Q 341.09,300.09 340.57,303.00 A 0.95,0.81 -68.4 0 0 340.86,303.85 Q 341.52,304.34 342.01,303.68 A 1.31,0.73 67.7 0 0 342.12,302.76 Q 341.78,301.05 343.44,299.94 Q 344.92,298.95 346.62,297.29 Q 348.43,295.53 349.70,294.55 ZM 340.27,295.89 Q 339.78,297.37 340.69,297.47 A 0.64,0.56 -81.4 0 0 341.31,296.95 Q 341.57,295.66 340.99,294.44 Q 340.73,293.89 340.54,294.45 Q 340.46,294.69 340.43,294.96 Q 340.38,295.55 340.27,295.89 ZM 331.27,300.11 Q 333.79,298.96 335.78,297.03 Q 336.43,296.40 336.21,295.69 A 0.45,0.40 -25.2 0 0 335.56,295.50 Q 334.95,295.90 334.43,296.41 Q 333.89,296.93 333.28,297.24 Q 330.69,298.54 329.36,301.15 Q 328.53,302.76 327.50,304.23 Q 326.45,305.74 327.63,304.94 Q 327.81,304.82 327.93,304.64 Q 329.21,302.67 330.53,300.73 A 1.92,1.67 1.0 0 1 331.27,300.11 ZM 382.29,298.25 Q 381.63,299.42 382.19,300.35 A 0.58,0.55 -30.5 0 0 382.96,300.53 Q 384.54,299.65 383.00,298.21 Q 382.75,297.15 383.10,296.16 Q 383.19,295.90 383.16,295.70 Q 383.01,294.86 382.50,295.75 Q 382.04,296.56 382.29,298.25 ZM 318.73,298.39 Q 317.99,300.10 318.92,299.58 Q 319.28,299.37 319.59,298.94 Q 320.62,297.50 319.42,297.79 A 1.05,0.96 -83.2 0 0 318.73,298.39 ZM 317.56,300.94 Q 316.19,298.16 315.39,300.51 A 0.60,0.56 22.6 0 0 315.70,301.20 Q 317.85,302.32 317.25,305.00 Q 316.22,309.61 317.61,314.52 Q 317.76,315.04 317.87,314.51 Q 318.34,312.35 317.52,310.08 Q 316.85,308.18 318.42,306.92 Q 320.25,305.47 318.87,304.08 A 1.59,1.54 -73.5 0 1 318.44,303.26 Q 318.26,302.35 317.56,300.94 ZM 349.66,305.57 Q 349.60,306.99 347.84,308.37 Q 346.76,309.22 347.58,309.11 Q 347.80,309.08 348.00,308.94 Q 350.96,306.93 352.28,302.90 A 0.83,0.83 3.5 0 0 351.33,301.83 Q 348.74,302.35 347.37,303.70 Q 346.89,304.18 346.68,304.79 Q 346.12,306.45 348.71,304.99 Q 349.70,304.44 349.66,305.57 ZM 361.5723,303.4404 A 4.30,0.51 -37.7 0 0 357.8581,305.6665 A 4.30,0.51 -37.7 0 0 354.7677,308.6996 A 4.30,0.51 -37.7 0 0 358.4819,306.4735 A 4.30,0.51 -37.7 0 0 361.5723,303.4404 ZM 337.6697,306.5071 A 1.41,0.57 127.6 0 0 338.9816,305.7378 A 1.41,0.57 127.6 0 0 339.3903,304.2729 A 1.41,0.57 127.6 0 0 338.0784,305.0422 A 1.41,0.57 127.6 0 0 337.6697,306.5071 ZM 333.91,315.63 Q 336.88,313.03 337.60,310.02 Q 338.35,306.85 335.50,306.32 A 1.00,0.87 23.9 0 0 334.62,306.59 Q 333.96,307.35 335.00,308.00 Q 337.95,309.83 336.44,311.69 L 331.83,317.37 A 0.37,0.32 -62.4 0 0 331.96,317.94 Q 332.47,318.06 332.67,317.48 Q 333.04,316.39 333.91,315.63 ZM 329.41,308.32 Q 329.88,307.11 329.26,307.46 A 0.99,0.76 86.0 0 0 328.85,308.08 Q 328.48,310.03 328.93,311.95 A 0.40,0.33 64.5 0 0 329.50,312.22 Q 330.26,311.53 329.39,308.94 A 0.94,0.91 -44.1 0 1 329.41,308.32 ZM 375.2637,313.9103 A 1.52,0.49 126.6 0 0 376.5634,312.9822 A 1.52,0.49 126.6 0 0 377.0763,311.4697 A 1.52,0.49 126.6 0 0 375.7766,312.3978 A 1.52,0.49 126.6 0 0 375.2637,313.9103 ZM 322.81,316.31 A 3.07,0.68 80.8 0 0 322.94,314.06 Q 322.46,309.47 322.14,313.94 Q 322.09,314.74 321.89,315.52 A 1.23,0.82 -62.5 0 0 321.99,316.44 Q 322.40,317.01 322.81,316.31 ZM 370.45,317.96 Q 371.28,317.36 371.85,316.30 Q 373.10,313.96 374.24,316.89 Q 374.84,318.42 375.23,316.83 Q 375.67,315.07 374.51,314.39 A 1.74,1.46 6.8 0 1 373.88,313.72 Q 373.30,312.50 372.50,313.75 Q 369.77,318.00 367.31,320.34 Q 366.25,321.35 367.13,320.97 Q 367.62,320.75 369.25,319.02 Q 369.80,318.44 370.45,317.96 ZM 324.52,320.65 Q 324.31,321.50 324.82,322.10 A 0.66,0.53 -35.4 0 0 325.60,322.15 Q 326.65,321.48 328.25,321.00 Q 330.20,320.42 329.40,318.51 A 0.54,0.48 66.1 0 0 328.72,318.20 L 325.10,319.91 A 1.19,1.02 87.5 0 0 324.52,320.65 ZM 355.22,322.26 Q 355.33,322.98 355.84,321.89 Q 356.65,320.12 355.39,321.68 A 0.81,0.66 -34.7 0 0 355.22,322.26 ZM 353.79,322.24 Q 353.31,321.98 353.04,322.25 A 0.80,0.58 52.1 0 0 353.07,323.13 L 354.20,324.85 Q 354.51,325.31 354.76,324.81 Q 355.57,323.20 353.79,322.24 ZM 342.60,327.28 Q 341.40,327.27 341.84,329.46 A 0.94,0.79 -20.9 0 0 343.15,329.92 L 345.71,328.59 Q 346.33,328.26 346.48,328.04 Q 347.58,326.36 345.57,326.10 A 0.93,0.72 -65.8 0 0 344.81,326.51 Q 344.49,326.98 344.03,327.22 Q 343.86,327.31 342.60,327.28 ZM 337.34,332.30 Q 338.39,331.16 337.62,330.05 A 1.48,1.39 28.7 0 1 337.35,329.22 Q 337.36,328.86 337.26,328.74 Q 336.80,328.19 336.78,329.32 L 336.75,332.08 Q 336.73,332.97 337.34,332.30 ZM 330.88,332.93 L 331.70,331.74 Q 332.10,331.16 331.48,331.52 L 328.66,333.20 A 0.52,0.49 57.9 0 0 328.52,333.92 Q 330.36,336.66 330.54,333.81 A 1.98,1.25 -36.5 0 1 330.88,332.93 ZM 313.57,335.90 Q 312.52,338.08 313.46,338.56 A 0.48,0.43 -70.9 0 0 314.08,338.21 Q 314.38,336.96 313.91,335.91 Q 313.74,335.53 313.57,335.90 ZM 321.3021,339.0187 A 1.40,0.50 97.3 0 0 321.9759,337.6935 A 1.40,0.50 97.3 0 0 321.6579,336.2413 A 1.40,0.50 97.3 0 0 320.9841,337.5665 A 1.40,0.50 97.3 0 0 321.3021,339.0187 Z"/>
<path fill="#208dcc" d="M 333.64,278.55 A 0.22,0.22 -55.5 0 1 334.00,278.48 Q 334.79,279.33 334.77,280.20 A 0.99,0.84 -15.9 0 1 334.27,280.95 Q 332.29,282.04 333.64,278.55 Z"/>
<path fill="#e4ecf2" d="M 375.51,277.68 Q 375.89,277.08 375.96,277.79 Q 376.11,279.23 375.17,280.64 Q 373.49,283.13 372.46,285.94 Q 372.14,286.80 371.88,286.33 A 0.97,0.64 -59.1 0 1 371.85,285.66 Q 372.99,281.67 375.51,277.68 Z"/>
<path fill="#7ebde4" d="M 342.46,279.00 L 341.96,281.75 L 341.54,281.00 Q 341.10,279.47 342.46,279.00 Z"/>
<path fill="#b0d7ef" d="M 325.43,281.50 Q 326.16,280.33 326.78,281.31 A 0.98,0.98 41.3 0 1 326.84,282.22 L 325.08,286.19 A 0.43,0.31 -67.6 0 1 324.65,286.45 Q 324.44,286.39 324.69,285.94 Q 325.45,284.54 325.25,282.42 A 1.56,1.16 64.6 0 1 325.43,281.50 Z"/>
<path fill="#7ebde4" d="M 321.29,284.75 Q 321.97,287.44 321.46,290.25 Q 321.04,290.66 320.96,291.25 L 320.71,286.00 L 321.29,284.75 Z"/>
<path fill="#208dcc" d="M 362.75,286.96 Q 364.64,287.11 365.79,288.75 L 364.08,291.39 A 1.11,1.05 24.9 0 0 364.72,292.99 Q 366.58,293.56 368.25,292.21 L 369.08,292.73 Q 369.43,292.96 370.00,293.01 Q 371.62,293.18 371.54,295.00 Q 370.46,296.55 369.02,297.77 Q 368.43,298.28 368.64,298.43 A 0.66,0.34 -41.3 0 0 369.27,298.27 L 371.00,296.96 L 373.11,297.95 Q 373.63,298.20 373.99,298.20 L 378.46,298.25 Q 379.36,301.82 377.94,303.94 Q 375.80,307.11 372.32,304.43 Q 365.26,298.98 356.97,295.40 A 1.10,1.09 -61.4 0 1 356.50,293.78 Q 359.03,290.07 362.75,286.96 Z"/>
<path fill="#b0d7ef" d="M 368.25,292.21 Q 366.58,293.56 364.72,292.99 A 1.11,1.05 24.9 0 1 364.08,291.39 L 365.79,288.75 Q 369.57,286.57 366.92,289.33 A 0.31,0.31 -57.3 0 0 367.03,289.84 Q 368.65,290.48 368.25,292.21 Z"/>
<path fill="#e4ecf2" d="M 346.62,297.29 Q 344.92,298.95 343.44,299.94 Q 341.78,301.05 342.12,302.76 A 1.31,0.73 67.7 0 1 342.01,303.68 Q 341.52,304.34 340.86,303.85 A 0.95,0.81 -68.4 0 1 340.57,303.00 Q 341.09,300.09 343.53,298.27 Q 349.06,294.13 354.30,289.64 A 0.37,0.31 -28.5 0 1 354.88,289.76 Q 355.02,290.42 354.27,291.01 Q 351.99,292.79 349.70,294.55 Q 348.43,295.53 346.62,297.29 Z"/>
<path fill="#e4ecf2" d="M 371.00,296.96 L 369.27,298.27 A 0.66,0.34 -41.3 0 1 368.64,298.43 Q 368.43,298.28 369.02,297.77 Q 370.46,296.55 371.54,295.00 Q 372.29,294.06 371.94,292.96 A 1.50,0.98 56.2 0 1 371.93,292.04 Q 373.36,288.56 373.71,292.75 A 1.33,1.28 61.4 0 1 373.46,293.66 L 371.00,296.96 Z"/>
<path fill="#7ebde4" d="M 340.43,294.96 Q 340.46,294.69 340.54,294.45 Q 340.73,293.89 340.99,294.44 Q 341.57,295.66 341.31,296.95 A 0.64,0.56 -81.4 0 1 340.69,297.47 Q 339.78,297.37 340.27,295.89 Q 340.38,295.55 340.43,294.96 Z"/>
<path fill="#f0f5fa" d="M 330.53,300.73 Q 329.21,302.67 327.93,304.64 Q 327.81,304.82 327.63,304.94 Q 326.45,305.74 327.50,304.23 Q 328.53,302.76 329.36,301.15 Q 330.69,298.54 333.28,297.24 Q 333.89,296.93 334.43,296.41 Q 334.95,295.90 335.56,295.50 A 0.45,0.40 -25.2 0 1 336.21,295.69 Q 336.43,296.40 335.78,297.03 Q 333.79,298.96 331.27,300.11 A 1.92,1.67 1.0 0 0 330.53,300.73 Z"/>
<path fill="#7ebde4" d="M 383.00,298.21 L 382.29,298.25 Q 382.04,296.56 382.50,295.75 Q 383.01,294.86 383.16,295.70 Q 383.19,295.90 383.10,296.16 Q 382.75,297.15 383.00,298.21 Z"/>
<path fill="#f0f5fa" d="M 319.42,297.79 Q 320.62,297.50 319.59,298.94 Q 319.28,299.37 318.92,299.58 Q 317.99,300.10 318.73,298.39 A 1.05,0.96 -83.2 0 1 319.42,297.79 Z"/>
<path fill="#e4ecf2" d="M 382.29,298.25 L 383.00,298.21 Q 384.54,299.65 382.96,300.53 A 0.58,0.55 -30.5 0 1 382.19,300.35 Q 381.63,299.42 382.29,298.25 Z"/>
<path fill="#f0f5fa" d="M 317.56,300.94 Q 318.26,302.35 318.44,303.26 A 1.59,1.54 -73.5 0 0 318.87,304.08 Q 320.25,305.47 318.42,306.92 Q 316.85,308.18 317.52,310.08 Q 318.34,312.35 317.87,314.51 Q 317.76,315.04 317.61,314.52 Q 316.22,309.61 317.25,305.00 Q 317.85,302.32 315.70,301.20 A 0.60,0.56 22.6 0 1 315.39,300.51 Q 316.19,298.16 317.56,300.94 Z"/>
<path fill="#fbfcfd" d="M 349.66,305.57 Q 349.70,304.44 348.71,304.99 Q 346.12,306.45 346.68,304.79 Q 346.89,304.18 347.37,303.70 Q 348.74,302.35 351.33,301.83 A 0.83,0.83 3.5 0 1 352.28,302.90 Q 350.96,306.93 348.00,308.94 Q 347.80,309.08 347.58,309.11 Q 346.76,309.22 347.84,308.37 Q 349.60,306.99 349.66,305.57 Z"/>
<ellipse fill="#e4ecf2" cx="0.00" cy="0.00" transform="translate(358.17,306.07) rotate(-37.7)" rx="4.30" ry="0.51"/>
<ellipse fill="#e4ecf2" cx="0.00" cy="0.00" transform="translate(338.53,305.39) rotate(127.6)" rx="1.41" ry="0.57"/>
<path fill="#e4ecf2" d="M 333.91,315.63 Q 333.04,316.39 332.67,317.48 Q 332.47,318.06 331.96,317.94 A 0.37,0.32 -62.4 0 1 331.83,317.37 L 336.44,311.69 Q 337.95,309.83 335.00,308.00 Q 333.96,307.35 334.62,306.59 A 1.00,0.87 23.9 0 1 335.50,306.32 Q 338.35,306.85 337.60,310.02 Q 336.88,313.03 333.91,315.63 Z"/>
<path fill="#c5d7e6" d="M 329.41,308.32 A 0.94,0.91 -44.1 0 0 329.39,308.94 Q 330.26,311.53 329.50,312.22 A 0.40,0.33 64.5 0 1 328.93,311.95 Q 328.48,310.03 328.85,308.08 A 0.99,0.76 86.0 0 1 329.26,307.46 Q 329.88,307.11 329.41,308.32 Z"/>
<path fill="#208dcc" d="M 391.32,315.64 Q 391.89,314.34 391.30,316.52 Q 391.19,316.94 390.90,317.25 Q 385.75,322.81 381.25,324.25 Q 374.77,326.32 368.27,328.31 Q 367.12,328.67 366.63,329.21 Q 365.75,330.18 367.01,329.82 Q 374.60,327.61 381.87,325.23 Q 392.34,321.81 394.59,310.55 Q 394.81,309.46 395.04,310.55 Q 395.96,314.92 393.40,319.16 Q 389.75,325.20 383.67,327.98 Q 381.66,328.90 374.61,330.15 Q 363.61,332.09 354.37,337.73 Q 352.33,338.97 353.99,337.26 Q 364.17,326.80 378.50,323.75 Q 385.06,322.35 390.95,316.18 Q 391.18,315.95 391.32,315.64 Z"/>
<ellipse fill="#fbfcfd" cx="0.00" cy="0.00" transform="translate(376.17,312.69) rotate(126.6)" rx="1.52" ry="0.49"/>
<path fill="#c5d7e6" d="M 322.81,316.31 Q 322.40,317.01 321.99,316.44 A 1.23,0.82 -62.5 0 1 321.89,315.52 Q 322.09,314.74 322.14,313.94 Q 322.46,309.47 322.94,314.06 A 3.07,0.68 80.8 0 1 322.81,316.31 Z"/>
<path fill="#fbfcfd" d="M 370.45,317.96 Q 369.80,318.44 369.25,319.02 Q 367.62,320.75 367.13,320.97 Q 366.25,321.35 367.31,320.34 Q 369.77,318.00 372.50,313.75 Q 373.30,312.50 373.88,313.72 A 1.74,1.46 6.8 0 0 374.51,314.39 Q 375.67,315.07 375.23,316.83 Q 374.84,318.42 374.24,316.89 Q 373.10,313.96 371.85,316.30 Q 371.28,317.36 370.45,317.96 Z"/>
<path fill="#1b75bb" d="M 360.85,313.77 A 0.35,0.34 29.9 0 1 361.01,314.34 Q 360.28,315.12 359.56,315.21 A 0.52,0.49 86.0 0 1 359.01,314.70 Q 358.97,313.24 360.85,313.77 Z"/>
<path fill="#fbfcfd" d="M 325.10,319.91 L 328.72,318.20 A 0.54,0.48 66.1 0 1 329.40,318.51 Q 330.20,320.42 328.25,321.00 Q 326.65,321.48 325.60,322.15 A 0.66,0.53 -35.4 0 1 324.82,322.10 Q 324.31,321.50 324.52,320.65 A 1.19,1.02 87.5 0 1 325.10,319.91 Z"/>
<path fill="#f0f5fa" d="M 355.39,321.68 Q 356.65,320.12 355.84,321.89 Q 355.33,322.98 355.22,322.26 A 0.81,0.66 -34.7 0 1 355.39,321.68 Z"/>
<path fill="#fbfcfd" d="M 353.79,322.24 Q 355.57,323.20 354.76,324.81 Q 354.51,325.31 354.20,324.85 L 353.07,323.13 A 0.80,0.58 52.1 0 1 353.04,322.25 Q 353.31,321.98 353.79,322.24 Z"/>
<path fill="#0e618f" d="M 306.29,325.50 Q 306.77,327.47 306.82,329.50 Q 306.85,330.91 307.27,326.90 Q 307.31,326.53 307.18,326.17 Q 306.97,325.56 307.45,325.51 A 0.54,0.46 86.8 0 1 307.95,326.04 Q 308.08,332.43 308.81,336.44 Q 309.00,337.45 308.46,338.00 Q 306.67,335.48 306.50,332.42 Q 306.39,330.21 306.37,330.08 Q 306.17,327.80 306.29,325.50 Z"/>
<path fill="#fbfcfd" d="M 344.03,327.22 Q 344.49,326.98 344.81,326.51 A 0.93,0.72 -65.8 0 1 345.57,326.10 Q 347.58,326.36 346.48,328.04 Q 346.33,328.26 345.71,328.59 L 343.15,329.92 A 0.94,0.79 -20.9 0 1 341.84,329.46 Q 341.40,327.27 342.60,327.28 Q 343.86,327.31 344.03,327.22 Z"/>
<path fill="#c5d7e6" d="M 337.34,332.30 Q 336.73,332.97 336.75,332.08 L 336.78,329.32 Q 336.80,328.19 337.26,328.74 Q 337.36,328.86 337.35,329.22 A 1.48,1.39 28.7 0 0 337.62,330.05 Q 338.39,331.16 337.34,332.30 Z"/>
<path fill="#e4ecf2" d="M 330.54,333.81 Q 330.36,336.66 328.52,333.92 A 0.52,0.49 57.9 0 1 328.66,333.20 L 331.48,331.52 Q 332.10,331.16 331.70,331.74 L 330.88,332.93 A 1.98,1.25 -36.5 0 0 330.54,333.81 Z"/>
<path fill="#b0d7ef" d="M 313.57,335.90 Q 313.74,335.53 313.91,335.91 Q 314.38,336.96 314.08,338.21 A 0.48,0.43 -70.9 0 1 313.46,338.56 Q 312.52,338.08 313.57,335.90 Z"/>
<ellipse fill="#e4ecf2" cx="0.00" cy="0.00" transform="translate(321.48,337.63) rotate(97.3)" rx="1.40" ry="0.50"/>
<path fill="#208dcc" d="M 337.00,339.46 A 0.86,0.86 67.6 0 0 335.92,339.01 Q 327.37,342.18 321.42,344.13 Q 319.65,344.72 317.81,344.79 Q 315.18,344.91 314.18,344.82 Q 311.86,344.63 309.81,342.94 Q 309.39,342.58 309.37,342.26 Q 309.34,341.71 310.01,342.05 Q 313.84,344.00 316.75,343.50 Q 321.57,342.67 329.60,339.97 Q 335.94,337.83 339.64,337.66 Q 345.03,337.41 350.37,338.73 A 0.42,0.28 15.6 0 1 350.72,339.13 Q 350.65,339.31 350.31,339.33 Q 338.49,340.17 329.00,345.25 Q 324.23,347.81 319.59,348.97 Q 314.36,350.27 310.93,348.90 Q 305.74,346.82 306.47,339.81 Q 306.63,338.21 306.93,339.79 Q 308.19,346.46 315.00,346.75 Q 318.89,346.91 324.99,344.23 Q 330.70,341.72 336.70,340.00 A 0.46,0.36 -3.9 0 0 337.02,339.71 Q 337.05,339.56 337.00,339.46 Z"/>
<path fill="#0e618f" d="M 12.21,406.50 Q 10.21,408.27 7.50,408.50 L 7.49,408.15 A 0.54,0.41 -9.7 0 1 7.89,407.72 L 12.21,406.50 Z"/>
<path fill="#c5d7e6" d="M 234.58,455.70 Q 235.62,456.25 234.44,456.25 L 48.52,456.25 A 0.72,0.70 0.0 0 1 47.80,455.55 L 47.80,446.31 A 0.71,0.67 -9.5 0 1 48.29,445.66 Q 67.57,439.34 88.94,435.44 Q 118.54,430.03 147.76,431.60 Q 193.89,434.09 234.58,455.70 Z"/>
<path fill="#c5d7e6" d="M 463.49,445.67 A 1.11,1.11 9.1 0 1 464.25,446.72 L 464.25,455.69 A 0.56,0.56 -0.0 0 1 463.69,456.25 L 277.67,456.19 Q 276.37,456.19 277.52,455.59 Q 312.98,436.96 352.54,432.61 Q 361.95,431.58 372.49,431.41 Q 419.15,430.64 463.49,445.67 Z"/>
<path fill="#0e618f" d="M 7.54,438.25 L 7.75,438.64 A 0.79,0.63 -13.9 0 0 8.44,438.96 Q 10.87,438.85 12.50,440.71 L 9.15,439.77 Q 8.69,439.64 8.18,439.61 Q 7.47,439.58 7.46,438.75 L 7.54,438.25 Z"/>
<path fill="#0e618f" d="M 474.75,470.46 Q 475.67,470.59 474.72,471.01 Q 473.56,471.51 472.25,471.21 Q 473.39,470.48 474.75,470.46 Z"/>
</svg>
