<?xml version="1.0" encoding="UTF-8" standalone="no"?>
<!DOCTYPE svg PUBLIC "-//W3C//DTD SVG 1.1//EN" "http://www.w3.org/Graphics/SVG/1.1/DTD/svg11.dtd">
<svg xmlns="http://www.w3.org/2000/svg" version="1.1" viewBox="0 0 820 820">
<path fill="#555454" d="M 699.79,409.55 A 287.94 287.94 0.0 0 1 411.85,697.49 A 287.94 287.94 0.0 0 1 123.91,409.55 A 287.94 287.94 0.0 0 1 411.85,121.61 A 287.94 287.94 0.0 0 1 699.79,409.55 ZM 416.25,123.83 A 0.80 0.80 0.0 0 0 415.45,123.03 L 405.55,123.03 A 0.80 0.80 0.0 0 0 404.75,123.83 L 404.75,179.71 A 0.80 0.80 0.0 0 0 405.55,180.51 L 415.45,180.51 A 0.80 0.80 0.0 0 0 416.25,179.71 L 416.25,123.83 ZM 414.84,199.00 Q 412.01,193.53 409.02,188.14 Q 407.73,185.84 406.39,185.46 Q 404.78,185.02 402.24,185.59 A 1.28,1.28 83.5 0 0 401.25,186.84 L 401.25,206.19 A 0.87,0.85 5.3 0 0 401.96,207.03 Q 404.74,207.51 405.36,206.33 Q 405.49,206.08 405.52,203.64 Q 405.58,197.65 405.33,191.67 A 0.61,0.36 84.2 0 1 405.60,191.08 Q 405.83,191.03 406.04,191.45 Q 409.28,198.00 412.74,204.42 Q 413.87,206.52 414.93,206.94 Q 416.35,207.50 418.59,207.02 A 1.47,1.47 83.9 0 0 419.75,205.58 L 419.75,186.01 A 0.68,0.63 -83.5 0 0 419.27,185.36 Q 417.77,184.97 416.28,185.41 A 0.77,0.70 85.9 0 0 415.76,186.07 Q 415.23,191.48 415.75,198.50 Q 415.79,199.00 415.51,199.24 A 0.50,0.39 57.7 0 1 414.84,199.00 ZM 216.2170,200.5994 A 0.54 0.54 0.0 0 0 215.4533,200.5994 L 208.0994,207.9533 A 0.54 0.54 0.0 0 0 208.0994,208.7170 L 248.2630,248.8806 A 0.54 0.54 0.0 0 0 249.0267,248.8806 L 256.3806,241.5267 A 0.54 0.54 0.0 0 0 256.3806,240.7630 L 216.2170,200.5994 ZM 609.9026,202.2577 A 0.56 0.56 0.0 0 0 609.1106,202.2577 L 569.0177,242.3506 A 0.56 0.56 0.0 0 0 569.0177,243.1426 L 576.3574,250.4823 A 0.56 0.56 0.0 0 0 577.1494,250.4823 L 617.2423,210.3894 A 0.56 0.56 0.0 0 0 617.2423,209.5974 L 609.9026,202.2577 ZM 582.37,409.54 A 173.17 173.17 0.0 0 0 409.20,236.37 A 173.17 173.17 0.0 0 0 236.03,409.54 A 173.17 173.17 0.0 0 0 409.20,582.71 A 173.17 173.17 0.0 0 0 582.37,409.54 ZM 200.81,408.80 L 204.43,422.46 A 0.71,0.60 80.1 0 0 205.06,422.99 L 209.94,422.78 A 0.79,0.67 -82.3 0 0 210.59,422.20 L 215.89,402.23 A 0.60,0.58 19.9 0 0 215.55,401.53 Q 213.96,400.84 212.28,401.38 A 0.96,0.88 88.4 0 0 211.70,402.05 L 208.15,417.24 Q 207.68,419.27 207.20,417.24 L 203.62,402.23 A 1.01,0.97 -86.1 0 0 203.05,401.55 Q 198.52,399.70 197.80,403.78 Q 197.49,405.51 197.47,405.58 Q 196.01,411.67 194.50,417.77 Q 194.21,418.90 193.94,417.77 Q 192.47,411.56 191.04,405.14 Q 190.36,402.12 190.29,402.02 Q 189.36,400.78 186.26,401.56 A 0.84,0.84 -14.6 0 0 185.65,402.59 L 190.93,422.21 A 0.84,0.83 88.8 0 0 191.55,422.81 Q 194.02,423.35 196.59,422.73 A 0.85,0.83 -0.1 0 0 197.22,422.11 L 200.57,408.79 Q 200.69,408.33 200.81,408.80 ZM 626.53,419.18 L 626.53,414.70 Q 626.54,412.14 629.31,412.71 Q 634.65,413.80 633.66,410.46 A 0.71,0.67 -7.2 0 0 633.00,409.98 L 627.57,409.93 A 0.78,0.72 -9.9 0 1 626.86,409.47 Q 626.02,407.30 626.66,405.04 A 0.69,0.67 7.8 0 1 627.32,404.56 L 633.94,404.44 A 0.93,0.82 13.1 0 0 634.72,404.02 Q 635.34,402.93 634.93,401.70 A 0.74,0.65 -8.2 0 0 634.25,401.25 L 622.99,401.25 A 0.99,0.99 -45.0 0 0 622.00,402.24 L 622.00,421.98 A 1.00,0.93 89.4 0 0 622.95,422.98 L 634.45,422.73 A 0.74,0.70 -81.2 0 0 635.11,422.22 Q 636.06,419.26 632.50,419.75 Q 630.88,419.97 627.06,419.72 A 0.56,0.53 2.2 0 1 626.53,419.18 ZM 182.76,405.02 A 0.52 0.52 0.0 0 0 182.24,404.50 L 126.02,404.50 A 0.52 0.52 0.0 0 0 125.50,405.02 L 125.50,415.98 A 0.52 0.52 0.0 0 0 126.02,416.50 L 182.24,416.50 A 0.52 0.52 0.0 0 0 182.76,415.98 L 182.76,405.02 ZM 697.51,404.76 A 0.26 0.26 0.0 0 0 697.25,404.50 L 640.51,404.50 A 0.26 0.26 0.0 0 0 640.25,404.76 L 640.25,416.24 A 0.26 0.26 0.0 0 0 640.51,416.50 L 697.25,416.50 A 0.26 0.26 0.0 0 0 697.51,416.24 L 697.51,404.76 ZM 246.4780,566.4197 A 0.27 0.27 0.0 0 0 246.0962,566.4197 L 205.6497,606.8662 A 0.27 0.27 0.0 0 0 205.6497,607.2480 L 213.4420,615.0403 A 0.27 0.27 0.0 0 0 213.8238,615.0403 L 254.2703,574.5938 A 0.27 0.27 0.0 0 0 254.2703,574.2120 L 246.4780,566.4197 ZM 572.3975,571.9532 A 0.50 0.50 0.0 0 0 571.6903,571.9520 L 564.2103,579.4060 A 0.50 0.50 0.0 0 0 564.2090,580.1131 L 604.3025,620.3468 A 0.50 0.50 0.0 0 0 605.0097,620.3480 L 612.4897,612.8940 A 0.50 0.50 0.0 0 0 612.4910,612.1869 L 572.3975,571.9532 ZM 411.50,614.70 Q 413.83,614.37 415.98,615.64 A 0.80,0.80 19.1 0 0 417.18,615.06 Q 417.46,612.92 416.08,612.29 Q 413.88,611.27 411.53,611.27 Q 409.18,611.27 407.18,612.50 Q 403.11,615.03 404.75,619.81 Q 405.38,621.67 407.20,622.93 Q 408.89,624.10 410.76,624.96 Q 412.54,625.78 413.16,626.75 Q 414.40,628.71 412.79,630.17 Q 411.39,631.43 409.29,631.11 Q 407.20,630.80 405.19,629.44 A 0.62,0.62 -68.0 0 0 404.23,629.85 Q 404.03,631.07 404.05,631.82 Q 404.08,632.70 405.09,633.22 Q 410.06,635.79 414.69,633.44 Q 419.47,631.01 418.39,626.36 Q 417.80,623.84 415.25,622.20 Q 413.42,621.03 410.50,619.50 Q 408.03,618.21 409.15,616.23 Q 409.88,614.94 411.50,614.70 ZM 416.25,638.64 A 0.65 0.65 0.0 0 0 415.60,637.99 L 405.40,637.99 A 0.65 0.65 0.0 0 0 404.75,638.64 L 404.75,694.60 A 0.65 0.65 0.0 0 0 405.40,695.25 L 415.60,695.25 A 0.65 0.65 0.0 0 0 416.25,694.60 L 416.25,638.64 Z"/>
<rect fill="#ffffff" x="404.75" y="123.03" width="11.50" height="57.48" rx="0.80"/>
<path fill="#1e85c6" d="M 415.51,199.24 Q 415.79,199.00 415.75,198.50 Q 415.23,191.48 415.76,186.07 A 0.77,0.70 85.9 0 1 416.28,185.41 Q 417.77,184.97 419.27,185.36 A 0.68,0.63 -83.5 0 1 419.75,186.01 L 419.75,205.58 A 1.47,1.47 83.9 0 1 418.59,207.02 Q 416.35,207.50 414.93,206.94 Q 413.87,206.52 412.74,204.42 Q 409.28,198.00 406.04,191.45 Q 405.83,191.03 405.60,191.08 A 0.61,0.36 84.2 0 0 405.33,191.67 Q 405.58,197.65 405.52,203.64 Q 405.49,206.08 405.36,206.33 Q 404.74,207.51 401.96,207.03 A 0.87,0.85 5.3 0 1 401.25,206.19 L 401.25,186.84 A 1.28,1.28 83.5 0 1 402.24,185.59 Q 404.78,185.02 406.39,185.46 Q 407.73,185.84 409.02,188.14 Q 412.01,193.53 414.84,199.00 A 0.50,0.39 57.7 0 0 415.51,199.24 Z"/>
<rect fill="#ffffff" x="-5.74" y="-28.94" transform="translate(232.24,224.74) rotate(-45.0)" width="11.48" height="57.88" rx="0.54"/>
<rect fill="#ffffff" x="-28.91" y="-5.75" transform="translate(593.13,226.37) rotate(-45.0)" width="57.82" height="11.50" rx="0.56"/>
<path fill="#1e85c6" d="M 582.37,409.54 A 173.17 173.17 0.0 0 1 409.20,582.71 A 173.17 173.17 0.0 0 1 236.03,409.54 A 173.17 173.17 0.0 0 1 409.20,236.37 A 173.17 173.17 0.0 0 1 582.37,409.54 ZM 421.31,409.20 A 12.09 12.09 0.0 0 0 409.22,397.11 A 12.09 12.09 0.0 0 0 397.13,409.20 A 12.09 12.09 0.0 0 0 409.22,421.29 A 12.09 12.09 0.0 0 0 421.31,409.20 Z"/>
<path fill="#be8901" d="M 421.31,409.20 A 12.09 12.09 0.0 0 1 409.22,421.29 A 12.09 12.09 0.0 0 1 397.13,409.20 A 12.09 12.09 0.0 0 1 409.22,397.11 A 12.09 12.09 0.0 0 1 421.31,409.20 ZM 420.2051,409.5726 A 11.21,10.78 1.7 0 0 409.3198,398.4647 A 11.21,10.78 1.7 0 0 397.7949,408.9074 A 11.21,10.78 1.7 0 0 408.6802,420.0153 A 11.21,10.78 1.7 0 0 420.2051,409.5726 Z"/>
<ellipse fill="#ffc000" cx="0.00" cy="0.00" transform="translate(409.00,409.24) rotate(1.7)" rx="11.21" ry="10.78"/>
<path fill="#1e85c6" d="M 200.57,408.79 L 197.22,422.11 A 0.85,0.83 -0.1 0 1 196.59,422.73 Q 194.02,423.35 191.55,422.81 A 0.84,0.83 88.8 0 1 190.93,422.21 L 185.65,402.59 A 0.84,0.84 -14.6 0 1 186.26,401.56 Q 189.36,400.78 190.29,402.02 Q 190.36,402.12 191.04,405.14 Q 192.47,411.56 193.94,417.77 Q 194.21,418.90 194.50,417.77 Q 196.01,411.67 197.47,405.58 Q 197.49,405.51 197.80,403.78 Q 198.52,399.70 203.05,401.55 A 1.01,0.97 -86.1 0 1 203.62,402.23 L 207.20,417.24 Q 207.68,419.27 208.15,417.24 L 211.70,402.05 A 0.96,0.88 88.4 0 1 212.28,401.38 Q 213.96,400.84 215.55,401.53 A 0.60,0.58 19.9 0 1 215.89,402.23 L 210.59,422.20 A 0.79,0.67 -82.3 0 1 209.94,422.78 L 205.06,422.99 A 0.71,0.60 80.1 0 1 204.43,422.46 L 200.81,408.80 Q 200.69,408.33 200.57,408.79 Z"/>
<path fill="#1e85c6" d="M 627.06,419.72 Q 630.88,419.97 632.50,419.75 Q 636.06,419.26 635.11,422.22 A 0.74,0.70 -81.2 0 1 634.45,422.73 L 622.95,422.98 A 1.00,0.93 89.4 0 1 622.00,421.98 L 622.00,402.24 A 0.99,0.99 -45.0 0 1 622.99,401.25 L 634.25,401.25 A 0.74,0.65 -8.2 0 1 634.93,401.70 Q 635.34,402.93 634.72,404.02 A 0.93,0.82 13.1 0 1 633.94,404.44 L 627.32,404.56 A 0.69,0.67 7.8 0 0 626.66,405.04 Q 626.02,407.30 626.86,409.47 A 0.78,0.72 -9.9 0 0 627.57,409.93 L 633.00,409.98 A 0.71,0.67 -7.2 0 1 633.66,410.46 Q 634.65,413.80 629.31,412.71 Q 626.54,412.14 626.53,414.70 L 626.53,419.18 A 0.56,0.53 2.2 0 0 627.06,419.72 Z"/>
<rect fill="#ffffff" x="125.50" y="404.50" width="57.26" height="12.00" rx="0.52"/>
<rect fill="#ffffff" x="640.25" y="404.50" width="57.26" height="12.00" rx="0.26"/>
<rect fill="#ffffff" x="-28.87" y="-5.78" transform="translate(229.96,590.73) rotate(-45.0)" width="57.74" height="11.56" rx="0.27"/>
<rect fill="#ffffff" x="-5.78" y="-28.90" transform="translate(588.35,596.15) rotate(-44.9)" width="11.56" height="57.80" rx="0.50"/>
<path fill="#1e85c6" d="M 409.15,616.23 Q 408.03,618.21 410.50,619.50 Q 413.42,621.03 415.25,622.20 Q 417.80,623.84 418.39,626.36 Q 419.47,631.01 414.69,633.44 Q 410.06,635.79 405.09,633.22 Q 404.08,632.70 404.05,631.82 Q 404.03,631.07 404.23,629.85 A 0.62,0.62 -68.0 0 1 405.19,629.44 Q 407.20,630.80 409.29,631.11 Q 411.39,631.43 412.79,630.17 Q 414.40,628.71 413.16,626.75 Q 412.54,625.78 410.76,624.96 Q 408.89,624.10 407.20,622.93 Q 405.38,621.67 404.75,619.81 Q 403.11,615.03 407.18,612.50 Q 409.18,611.27 411.53,611.27 Q 413.88,611.27 416.08,612.29 Q 417.46,612.92 417.18,615.06 A 0.80,0.80 19.1 0 1 415.98,615.64 Q 413.83,614.37 411.50,614.70 Q 409.88,614.94 409.15,616.23 Z"/>
<rect fill="#ffffff" x="404.75" y="637.99" width="11.50" height="57.26" rx="0.65"/>
</svg>
