<?xml version="1.0" encoding="UTF-8" standalone="no"?>
<!DOCTYPE svg PUBLIC "-//W3C//DTD SVG 1.1//EN" "http://www.w3.org/Graphics/SVG/1.1/DTD/svg11.dtd">
<svg xmlns="http://www.w3.org/2000/svg" version="1.1" viewBox="0 0 104 96">
<path fill="#eab059" d="M 51.06,0.00 Q 51.81,0.00 52.56,0.00 Q 54.51,1.40 54.34,3.79 Q 54.25,5.09 54.25,5.21 Q 54.25,8.06 54.25,10.90 Q 54.25,12.74 53.81,13.52 Q 52.96,15.01 50.91,14.52 Q 49.00,14.07 49.00,12.10 Q 49.00,7.87 49.00,3.75 Q 49.00,0.79 51.06,0.00 Z"/>
<rect fill="#eab059" x="-7.27" y="-2.53" transform="translate(20.20,18.80) rotate(42.5)" width="14.54" height="5.06" rx="2.44"/>
<rect fill="#eab059" x="-7.21" y="-2.52" transform="translate(83.08,18.73) rotate(-42.5)" width="14.42" height="5.04" rx="2.43"/>
<path fill="#eab059" d="M 78.66,48.01 A 27.06,25.16 0.0 0 1 51.60,73.17 A 27.06,25.16 0.0 0 1 24.54,48.01 A 27.06,25.16 0.0 0 1 51.60,22.85 A 27.06,25.16 0.0 0 1 78.66,48.01 ZM 73.4297,47.8757 A 21.83,20.29 -0.3 0 0 51.4938,27.7003 A 21.83,20.29 -0.3 0 0 29.7703,48.1043 A 21.83,20.29 -0.3 0 0 51.7062,68.2797 A 21.83,20.29 -0.3 0 0 73.4297,47.8757 Z"/>
<path fill="#eab059" d="M 0.00,48.69 Q 0.00,48.19 0.00,47.69 Q 0.39,45.69 2.31,45.56 Q 7.44,45.23 13.75,45.71 A 1.60,1.36 -18.4 0 1 14.64,46.07 Q 16.63,47.80 15.11,49.38 Q 14.29,50.24 12.60,50.37 Q 6.73,50.84 2.19,50.31 Q 0.87,50.16 0.00,48.69 Z"/>
<rect fill="#eab059" x="-7.80" y="-2.46" transform="translate(95.35,48.00) rotate(0.1)" width="15.60" height="4.92" rx="2.37"/>
<rect fill="#eab059" x="-7.24" y="-2.53" transform="translate(20.13,77.27) rotate(-43.0)" width="14.48" height="5.06" rx="2.24"/>
<rect fill="#eab059" x="-7.07" y="-2.51" transform="translate(83.08,77.28) rotate(42.6)" width="14.14" height="5.02" rx="2.32"/>
<path fill="#eab059" d="M 52.19,96.00 Q 51.56,96.00 50.94,96.00 Q 48.70,94.78 48.89,92.28 Q 49.00,90.79 49.00,90.71 Q 49.00,87.89 49.00,85.07 Q 49.00,83.26 49.44,82.52 Q 50.25,81.15 52.26,81.53 Q 54.23,81.90 54.25,83.90 Q 54.29,88.48 54.21,92.98 Q 54.19,94.14 53.73,94.77 Q 53.16,95.57 52.19,96.00 Z"/>
</svg>
