<?xml version="1.0" encoding="UTF-8" standalone="no"?>
<!DOCTYPE svg PUBLIC "-//W3C//DTD SVG 1.1//EN" "http://www.w3.org/Graphics/SVG/1.1/DTD/svg11.dtd">
<svg xmlns="http://www.w3.org/2000/svg" version="1.1" viewBox="0 0 90 96">
<path fill="#eab059" d="M 31.81,0.00 Q 32.69,0.00 33.56,0.00 Q 36.18,1.02 36.82,3.35 Q 37.24,4.90 36.08,7.45 Q 25.23,31.36 38.44,51.27 Q 44.21,59.95 52.66,65.07 Q 66.43,73.42 83.25,70.50 Q 88.51,69.59 90.00,74.06 Q 90.00,74.94 90.00,75.81 Q 86.68,80.93 81.31,85.06 Q 68.42,94.99 52.44,96.00 Q 49.81,96.00 47.19,96.00 Q 24.74,94.07 11.06,77.44 Q 1.06,65.27 0.00,48.44 Q 0.00,45.94 0.00,43.44 Q 3.24,12.23 31.81,0.00 ZM 70.83,76.99 Q 56.50,75.62 45.53,67.58 Q 37.50,61.71 32.18,52.86 Q 20.50,33.41 28.52,9.20 Q 28.95,7.88 27.78,8.63 Q 8.53,20.87 6.53,42.01 Q 5.56,52.19 9.09,61.63 Q 14.42,75.87 27.45,83.54 Q 36.16,88.67 46.31,89.60 Q 65.14,91.32 80.32,78.06 Q 81.65,76.89 79.89,77.06 Q 75.67,77.46 70.83,76.99 Z"/>
<path fill="#eab059" d="M 80.81,0.00 Q 81.19,0.00 81.56,0.00 Q 82.55,2.85 83.56,5.69 Q 84.89,9.42 90.00,10.56 Q 90.00,11.94 90.00,13.31 Q 89.65,13.90 89.01,14.04 Q 84.08,15.10 82.89,20.50 Q 82.57,21.95 81.86,23.25 Q 81.06,24.72 80.30,23.56 Q 80.06,23.19 79.86,22.40 Q 79.19,19.75 77.88,17.34 Q 76.52,14.87 73.80,14.07 Q 71.66,13.45 70.00,12.85 Q 67.45,11.92 70.03,11.07 Q 72.39,10.30 74.68,9.41 Q 77.95,8.15 78.75,5.25 Q 79.73,1.72 80.81,0.00 Z"/>
<path fill="#eab059" d="M 68.96,30.42 L 80.58,35.31 A 0.73,0.73 -47.0 0 1 80.58,36.65 L 68.97,41.57 A 0.73,0.73 -89.4 0 0 68.58,41.96 L 63.69,53.58 A 0.73,0.73 -13.4 0 1 62.35,53.58 L 57.43,41.97 A 0.73,0.73 -0.1 0 0 57.04,41.58 L 45.42,36.69 A 0.73,0.73 42.5 0 1 45.42,35.35 L 57.03,30.43 A 0.73,0.73 -0.5 0 0 57.42,30.05 L 62.31,18.42 A 0.73,0.73 37.6 0 1 63.65,18.42 L 68.57,30.03 A 0.73,0.73 -89.6 0 0 68.96,30.42 Z"/>
</svg>
