<svg width="48" height="48" viewBox="0 0 48 48" fill="none" xmlns="http://www.w3.org/2000/svg">
<path d="M46.1767 7.82883L26.53 0.461954C24.888 -0.153985 23.1128 -0.153985 21.4708 0.461954L1.82333 7.82883C1.29239 8.02804 0.830608 8.4101 0.503372 8.92092C0.176137 9.43174 3.4144e-05 10.0454 0 10.6751L0 15.2698L22.085 7.8157C23.3375 7.39383 24.6617 7.39383 25.9167 7.8157L48 15.2698V10.6751C48 9.38414 47.2658 8.23758 46.1767 7.82883ZM22.8517 10.6901L0 18.4029V39.8135C0 41.2198 0.868333 42.4366 2.08833 42.7423L22.265 47.786C23.408 48.072 24.5928 48.072 25.7358 47.786L45.9125 42.7423C47.1325 42.4376 48.0008 41.2198 48.0008 39.8135V18.402L25.1508 10.6901C24.3975 10.4351 23.6017 10.4351 22.8517 10.6901ZM10.6667 21.5726C10.6667 21.911 10.4658 22.2073 10.1758 22.2963L3.50917 24.342C3.085 24.4713 2.66667 24.1123 2.66667 23.6182V22.0638C2.66667 21.7254 2.8675 21.4291 3.1575 21.3401L9.82417 19.2945C10.2483 19.1641 10.6667 19.5232 10.6667 20.0182V21.5726ZM22.6667 17.8901C22.6667 18.2285 22.4658 18.5248 22.1758 18.6138L14.1758 21.0682C13.7517 21.1985 13.3333 20.8395 13.3333 20.3445V18.7901C13.3333 18.4516 13.5342 18.1554 13.8242 18.0663L21.8242 15.612C22.2483 15.4816 22.6667 15.8407 22.6667 16.3357V17.8901ZM37.3333 20.0182C37.3333 19.5232 37.7517 19.1641 38.1758 19.2945L44.8425 21.3401C45.1325 21.4291 45.3333 21.7254 45.3333 22.0638V23.6182C45.3333 24.1132 44.915 24.4723 44.4908 24.342L37.8242 22.2963C37.6831 22.253 37.5586 22.1586 37.4699 22.0279C37.3812 21.8971 37.3332 21.7371 37.3333 21.5726V20.0182ZM25.3333 16.3366C25.3333 15.8416 25.7517 15.4826 26.1758 15.6129L34.1758 18.0673C34.4658 18.1563 34.6667 18.4526 34.6667 18.791V20.3454C34.6667 20.8404 34.2483 21.1995 33.8242 21.0691L25.8242 18.6148C25.6831 18.5714 25.5586 18.4771 25.4699 18.3463C25.3812 18.2155 25.3332 18.0555 25.3333 17.891V16.3366Z" fill="#555454"/>
</svg>
