<?xml version="1.0" encoding="UTF-8" standalone="no"?>
<!DOCTYPE svg PUBLIC "-//W3C//DTD SVG 1.1//EN" "http://www.w3.org/Graphics/SVG/1.1/DTD/svg11.dtd">
<svg xmlns="http://www.w3.org/2000/svg" version="1.1" viewBox="0 0 800 800">
<path fill="#005889" d="M 655.54,698.00 Q 657.77,683.72 660.23,669.48 Q 661.57,661.73 661.99,654.93 Q 662.43,647.59 662.71,640.25 Q 663.77,611.96 658.25,584.21 Q 649.49,537.80 625.04,497.45 Q 593.50,445.41 542.55,412.17 Q 535.23,407.39 527.92,402.59 Q 484.76,374.23 449.70,336.32 Q 430.43,315.48 413.69,292.56 A 0.71,0.69 -43.6 0 1 413.72,291.69 Q 415.66,289.41 417.46,287.47 Q 423.01,281.51 424.26,274.02 Q 425.49,266.68 422.50,259.75 Q 419.20,252.12 411.51,247.54 Q 409.12,246.12 406.74,244.69 A 0.93,0.93 -76.8 0 1 406.28,243.94 L 401.48,180.24 A 0.92,0.92 -87.3 0 1 402.55,179.26 Q 441.80,186.11 470.82,159.81 Q 484.56,147.36 490.94,129.92 Q 491.19,129.26 490.72,129.79 Q 470.19,152.84 438.99,154.11 Q 429.73,154.49 420.77,152.19 Q 389.22,144.11 374.46,115.25 Q 361.81,89.01 370.56,62.56 Q 377.13,42.72 393.32,29.55 Q 394.38,28.69 393.09,29.14 Q 370.77,36.91 356.39,56.12 Q 339.88,78.19 340.75,106.00 Q 341.53,130.93 358.25,151.54 Q 370.22,166.29 387.74,173.69 Q 391.85,175.43 395.98,177.12 A 0.69,0.68 -76.6 0 1 396.40,177.81 L 390.88,243.87 A 1.53,1.53 -9.1 0 1 389.96,245.14 Q 384.54,247.48 380.09,252.09 Q 374.09,258.29 372.91,266.28 Q 371.90,273.19 374.60,279.46 Q 377.17,285.41 382.79,290.55 Q 384.14,291.78 383.06,293.26 Q 370.78,310.09 356.21,327.00 Q 333.34,353.19 306.50,375.29 Q 289.35,389.25 279.06,396.06 Q 266.55,404.35 254.07,412.69 Q 243.50,419.75 237.70,424.19 Q 213.48,442.74 194.56,465.81 Q 148.82,521.59 137.41,592.86 Q 135.82,602.77 135.08,612.72 Q 132.11,652.66 140.52,692.00 Q 140.80,693.31 140.21,694.50 Q 130.72,683.22 127.50,670.00 Q 125.47,661.67 124.81,652.05 Q 124.36,645.46 124.33,633.95 Q 124.20,581.61 143.25,533.50 Q 172.89,458.64 238.56,411.06 Q 244.90,406.47 259.29,397.11 Q 270.81,389.62 275.91,386.01 Q 330.66,347.28 370.53,293.11 A 0.54,0.54 44.6 0 0 370.52,292.47 Q 366.23,286.71 364.20,280.17 Q 362.22,273.78 362.90,266.66 Q 364.64,248.48 381.01,238.44 A 1.07,1.02 -12.3 0 0 381.51,237.70 L 389.96,182.08 A 0.91,0.91 15.4 0 0 389.40,181.10 Q 364.69,171.38 350.22,150.33 Q 333.18,125.55 335.59,96.35 Q 336.41,86.30 339.51,76.77 Q 347.00,53.72 365.75,38.75 Q 383.39,24.66 405.75,21.00 Q 412.77,19.85 419.75,18.50 Q 421.16,18.23 419.94,18.94 Q 414.29,22.22 408.61,25.46 Q 401.10,29.75 397.61,32.45 Q 382.41,44.25 376.01,62.20 Q 372.62,71.71 372.23,81.75 Q 371.49,100.26 380.81,116.19 Q 392.85,136.75 415.27,144.96 Q 423.45,147.95 431.99,148.64 Q 440.13,149.29 448.92,147.61 Q 473.33,142.95 488.48,123.31 Q 491.22,119.77 495.75,111.65 Q 499.22,105.40 502.65,99.75 Q 503.68,98.04 503.34,100.01 Q 502.11,107.01 500.91,113.79 Q 499.34,122.68 497.86,127.44 Q 491.02,149.53 474.44,164.19 Q 445.80,189.49 407.38,185.01 A 0.36,0.35 -1.8 0 0 406.99,185.42 L 415.59,237.29 A 2.09,2.05 11.7 0 0 416.54,238.71 Q 425.31,244.15 429.92,252.26 Q 434.52,260.33 434.56,270.00 Q 434.61,282.04 426.78,292.21 A 0.94,0.94 45.6 0 0 426.77,293.34 Q 473.54,355.96 538.94,397.93 Q 550.37,405.27 550.39,405.29 Q 606.23,442.64 638.31,500.19 Q 663.13,544.71 670.31,596.19 Q 673.38,618.20 672.76,639.27 Q 672.37,652.26 671.42,659.21 Q 669.30,674.80 662.00,688.75 Q 659.55,693.44 655.54,698.00 Z"/>
<path fill="#208dcc" d="M 374.46,115.25 L 372.97,116.78 Q 372.43,117.33 372.35,117.51 Q 365.79,131.25 359.00,148.75 Q 358.31,150.52 358.25,151.54 Q 341.53,130.93 340.75,106.00 Q 339.88,78.19 356.39,56.12 Q 370.77,36.91 393.09,29.14 Q 394.38,28.69 393.32,29.55 Q 377.13,42.72 370.56,62.56 Q 361.81,89.01 374.46,115.25 Z"/>
<path fill="#25a9e0" d="M 374.46,115.25 Q 389.22,144.11 420.77,152.19 Q 429.73,154.49 438.99,154.11 Q 470.19,152.84 490.72,129.79 Q 491.19,129.26 490.94,129.92 Q 484.56,147.36 470.82,159.81 Q 441.80,186.11 402.55,179.26 A 0.92,0.92 -87.3 0 0 401.48,180.24 L 406.28,243.94 A 0.93,0.93 -76.8 0 0 406.74,244.69 Q 409.12,246.12 411.51,247.54 Q 419.20,252.12 422.50,259.75 Q 425.49,266.68 424.26,274.02 Q 423.01,281.51 417.46,287.47 Q 415.66,289.41 413.72,291.69 A 0.71,0.69 -43.6 0 0 413.69,292.56 Q 430.43,315.48 449.70,336.32 Q 484.76,374.23 527.92,402.59 Q 535.23,407.39 542.55,412.17 Q 593.50,445.41 625.04,497.45 Q 649.49,537.80 658.25,584.21 Q 654.39,584.08 650.53,583.91 Q 648.95,583.85 645.90,583.33 Q 643.58,582.95 641.23,582.93 Q 638.50,582.91 636.81,582.58 Q 634.62,582.15 632.43,581.67 A 1.03,0.68 -53.9 0 0 631.65,581.96 Q 631.24,582.34 630.54,582.25 Q 623.88,562.26 612.38,544.60 Q 596.29,519.88 580.73,494.83 Q 578.48,491.21 576.61,486.69 Q 574.86,482.46 572.94,478.31 Q 572.11,476.53 571.31,478.56 L 567.19,489.03 Q 567.01,489.48 566.87,489.02 Q 565.51,484.29 560.44,484.31 Q 553.29,484.34 545.70,486.57 Q 533.73,490.10 522.19,494.85 Q 501.57,503.34 481.50,513.04 Q 479.52,511.88 477.50,510.80 Q 474.59,509.23 475.75,506.29 Q 479.76,505.17 481.69,504.19 Q 490.53,499.66 501.31,492.06 Q 520.11,478.82 534.46,466.64 Q 536.62,464.81 538.02,463.33 Q 540.45,460.75 540.94,459.44 Q 544.90,448.78 542.94,438.56 Q 541.09,428.95 531.44,424.56 Q 523.13,420.79 514.77,417.15 Q 507.34,413.92 503.62,411.70 Q 498.21,408.47 493.45,404.53 Q 492.48,403.73 493.74,403.75 Q 496.69,403.79 499.35,403.16 Q 500.14,402.98 500.55,402.60 Q 501.29,401.91 500.76,401.14 Q 500.44,400.69 499.46,400.19 Q 489.49,395.18 479.53,391.45 A 1.33,1.33 -80.6 0 0 477.73,392.74 L 478.03,402.50 Q 478.10,405.08 480.23,406.52 Q 481.20,407.17 482.64,408.27 Q 483.73,409.11 484.76,410.34 Q 495.48,423.22 510.83,430.15 Q 519.19,433.93 527.57,437.68 Q 532.33,439.81 537.69,443.81 Q 539.51,445.18 539.65,446.98 Q 539.76,448.42 538.30,449.97 Q 536.64,451.73 534.70,453.21 Q 516.56,467.11 497.65,479.94 Q 487.90,486.55 478.56,490.06 Q 466.95,494.42 462.58,485.05 Q 461.12,481.91 461.22,477.22 Q 461.31,473.18 461.87,469.17 Q 462.21,466.73 463.66,464.74 Q 470.80,454.93 481.03,448.41 Q 482.91,447.21 484.72,446.50 Q 486.67,445.74 488.69,445.20 Q 498.51,442.58 504.62,450.51 Q 505.90,452.18 506.45,450.15 Q 507.72,445.44 507.04,440.79 Q 506.32,435.77 503.12,432.68 Q 499.29,428.98 493.69,429.06 Q 486.31,429.16 478.51,434.01 Q 468.82,440.03 461.69,448.94 Q 453.05,459.72 448.31,467.36 Q 442.21,477.20 436.14,487.06 Q 431.02,495.41 423.56,500.31 Q 412.77,507.41 406.12,496.36 A 1.62,1.62 54.4 0 1 406.46,494.28 Q 418.21,484.44 427.98,472.71 Q 430.97,469.12 432.47,466.35 Q 434.54,462.53 435.25,459.00 Q 439.41,438.22 425.88,421.35 Q 422.53,417.17 418.50,415.50 Q 415.16,414.11 411.78,415.05 Q 409.18,415.77 406.21,418.26 Q 397.71,425.39 397.51,437.25 Q 397.39,444.48 403.06,447.44 Q 408.04,450.04 415.00,449.50 Q 421.17,449.02 427.04,450.76 Q 429.90,451.60 430.85,454.27 A 1.18,1.06 -41.9 0 1 430.75,455.19 Q 428.46,459.17 424.06,463.81 Q 414.35,474.08 404.98,480.89 Q 404.56,481.19 404.60,480.69 Q 405.12,474.03 406.35,467.47 Q 407.34,462.15 407.76,456.75 Q 408.05,453.06 406.59,454.88 Q 406.22,455.35 405.98,456.08 Q 402.12,467.82 400.86,480.12 Q 400.85,480.20 400.88,482.38 Q 400.92,484.80 398.50,485.71 Q 398.87,483.81 397.56,482.19 Q 382.63,463.64 370.05,442.20 Q 367.95,438.62 365.54,435.25 L 366.91,433.12 A 0.37,0.33 47.6 0 1 367.50,433.18 Q 369.59,436.68 372.85,438.80 Q 376.15,440.93 380.05,440.47 Q 386.20,439.73 389.81,434.31 Q 395.40,425.94 394.42,415.23 Q 393.90,409.58 390.19,405.31 Q 388.70,403.60 388.00,406.25 L 387.00,410.04 Q 384.77,408.84 384.31,407.94 Q 376.73,393.06 370.85,377.43 Q 370.62,376.82 370.53,375.50 Q 370.46,374.45 369.93,373.58 Q 368.52,371.29 368.47,371.18 Q 367.40,368.40 366.58,365.53 Q 366.49,365.23 366.56,364.97 Q 366.64,364.70 366.76,364.44 A 0.76,0.70 -55.0 0 0 366.65,363.65 Q 365.03,361.96 365.19,359.74 Q 365.23,359.21 365.05,358.79 Q 360.82,348.73 358.70,338.01 Q 358.07,334.86 356.30,328.16 A 0.11,0.10 -20.8 0 1 356.36,328.04 Q 357.59,327.40 356.21,327.00 Q 370.78,310.09 383.06,293.26 Q 384.14,291.78 382.79,290.55 Q 377.17,285.41 374.60,279.46 Q 371.90,273.19 372.91,266.28 Q 374.09,258.29 380.09,252.09 Q 384.54,247.48 389.96,245.14 A 1.53,1.53 -9.1 0 0 390.88,243.87 L 396.40,177.81 A 0.69,0.68 -76.6 0 0 395.98,177.12 Q 391.85,175.43 387.74,173.69 Q 370.22,166.29 358.25,151.54 Q 358.31,150.52 359.00,148.75 Q 365.79,131.25 372.35,117.51 Q 372.43,117.33 372.97,116.78 L 374.46,115.25 ZM 399.65,346.97 Q 401.67,347.05 403.01,345.03 Q 405.66,341.04 406.25,336.23 Q 406.50,334.17 405.34,335.89 Q 404.39,337.29 403.18,338.97 Q 401.78,340.91 400.19,340.23 Q 399.07,339.75 398.56,338.16 Q 397.44,334.70 398.69,330.69 Q 400.02,326.41 401.46,322.18 Q 403.44,316.38 403.86,313.55 Q 405.13,305.12 402.44,296.81 Q 400.14,289.66 394.15,285.29 A 0.54,0.53 -51.4 0 0 393.42,285.38 Q 391.71,287.41 390.95,289.96 A 0.88,0.85 32.2 0 0 391.16,290.80 Q 395.71,295.58 397.94,299.56 Q 402.04,306.90 400.80,315.21 Q 400.55,316.89 397.86,324.43 Q 395.41,331.32 394.83,338.69 Q 394.53,342.58 396.71,345.30 Q 398.00,346.89 399.65,346.97 ZM 375.03,367.25 Q 384.45,370.87 390.75,370.75 Q 410.82,370.38 429.00,360.83 Q 430.61,359.99 432.40,360.33 Q 433.52,360.54 433.71,361.75 A 1.29,1.00 -35.0 0 1 433.43,362.65 Q 431.63,364.85 429.71,366.96 Q 425.69,371.36 423.84,377.03 Q 423.68,377.54 423.83,377.67 A 0.58,0.27 -50.0 0 0 424.42,377.40 Q 429.77,370.76 435.19,364.19 Q 437.12,361.85 437.40,358.49 Q 437.60,356.15 436.65,354.80 Q 435.32,352.91 432.50,353.50 Q 428.93,354.24 424.03,356.74 Q 411.44,363.17 397.60,364.13 Q 389.16,364.72 382.57,362.70 Q 375.08,360.40 369.01,355.33 A 1.11,1.10 33.5 0 0 367.32,355.67 Q 366.29,357.70 366.30,359.70 A 1.76,1.36 33.9 0 0 366.60,360.60 Q 368.21,362.94 369.71,365.36 Q 371.36,368.03 371.82,370.59 Q 372.36,373.59 372.25,376.61 Q 372.19,378.41 373.06,376.82 Q 375.45,372.42 374.65,367.56 Q 374.57,367.07 375.03,367.25 ZM 459.39,379.35 Q 454.01,384.49 450.44,386.69 Q 438.15,394.25 425.81,401.71 Q 425.38,401.97 425.13,402.24 Q 424.13,403.29 425.50,403.23 Q 425.87,403.21 426.36,403.03 Q 431.78,401.00 437.17,398.89 Q 452.19,393.04 462.68,380.88 A 0.55,0.55 -52.8 0 1 463.41,380.78 L 466.84,383.20 A 0.53,0.51 36.2 0 0 467.56,383.10 Q 469.32,380.77 470.12,377.98 A 1.13,1.10 -53.9 0 0 469.99,377.07 Q 468.73,375.16 466.77,374.28 A 1.17,1.17 21.7 0 1 466.14,372.82 Q 467.64,368.55 467.43,364.34 Q 467.31,362.00 466.55,360.78 Q 465.23,358.67 462.44,359.69 Q 455.20,362.32 453.25,369.76 Q 452.55,372.42 454.31,374.53 Q 456.22,376.81 459.33,378.74 A 0.39,0.39 -51.1 0 1 459.39,379.35 Z"/>
<path fill="#e4af2f" fill-opacity="0.906" d="M 566.71,365.25 Q 567.91,365.69 569.06,364.31 Q 581.27,349.77 589.47,334.63 Q 594.32,325.68 597.44,316.32 Q 600.71,306.54 602.75,295.75 Q 612.84,242.39 596.33,191.93 Q 593.11,182.10 588.57,173.53 Q 577.34,152.31 560.60,134.86 A 0.32,0.28 -55.3 0 0 560.12,134.98 Q 559.75,135.74 558.50,134.54 L 553.05,126.00 Q 552.74,125.52 553.23,125.82 Q 581.65,143.08 599.00,172.00 Q 616.82,201.70 620.52,235.75 Q 624.34,270.88 612.97,304.24 Q 604.57,328.93 588.16,349.16 Q 577.26,362.61 563.19,372.69 Q 562.04,373.51 562.75,372.25 L 566.71,365.25 Z"/>
<path fill="#e4af2f" fill-opacity="0.906" d="M 241.04,132.00 Q 240.58,131.67 240.05,131.70 A 1.24,0.80 -66.9 0 0 239.27,132.23 Q 237.98,134.07 236.43,135.68 Q 229.62,142.78 223.77,150.65 Q 217.44,159.18 212.87,166.90 Q 204.33,181.32 199.50,198.50 Q 195.00,214.49 193.35,227.63 Q 193.32,227.89 193.29,227.63 Q 193.23,227.17 193.09,227.34 Q 193.00,227.45 193.00,227.68 Q 192.89,232.25 192.26,236.76 Q 191.49,242.25 191.49,245.81 Q 191.47,256.63 191.56,267.44 Q 191.56,267.45 191.92,268.27 Q 192.03,268.54 192.00,269.00 Q 191.54,275.26 192.97,282.85 Q 193.00,283.00 193.00,283.14 Q 193.05,286.61 193.41,282.87 Q 193.43,282.65 193.41,282.88 Q 193.24,285.72 193.84,288.43 Q 194.85,293.03 194.87,293.14 Q 197.64,310.27 203.50,324.25 Q 212.42,345.53 228.94,364.31 Q 229.56,365.02 230.00,365.34 A 1.03,0.84 20.3 0 1 230.42,366.05 Q 230.49,367.65 232.25,367.46 L 235.07,371.95 Q 236.16,373.69 234.49,372.49 Q 219.32,361.64 207.97,346.82 Q 186.50,318.78 179.51,284.55 Q 177.56,275.01 176.86,264.73 Q 173.35,213.44 200.07,170.16 Q 205.64,161.14 211.70,153.93 Q 225.78,137.18 244.75,125.75 Q 246.06,124.96 245.19,126.19 L 241.04,132.00 Z"/>
<path fill="#b1a518" fill-opacity="0.702" d="M 241.04,132.00 Q 235.73,140.71 230.62,149.54 Q 211.95,181.78 204.93,218.14 Q 203.03,227.95 202.20,237.94 Q 198.24,285.29 214.69,329.31 Q 221.39,347.27 232.25,367.46 Q 230.49,367.65 230.42,366.05 A 1.03,0.84 20.3 0 0 230.00,365.34 Q 229.56,365.02 228.94,364.31 Q 212.42,345.53 203.50,324.25 Q 197.64,310.27 194.87,293.14 Q 194.85,293.03 193.84,288.43 Q 193.24,285.72 193.41,282.88 Q 193.43,282.65 193.41,282.87 Q 193.05,286.61 193.00,283.14 Q 193.00,283.00 192.97,282.85 Q 191.54,275.26 192.00,269.00 Q 192.03,268.54 191.92,268.27 Q 191.56,267.45 191.56,267.44 Q 191.47,256.63 191.49,245.81 Q 191.49,242.25 192.26,236.76 Q 192.89,232.25 193.00,227.68 Q 193.00,227.45 193.09,227.34 Q 193.23,227.17 193.29,227.63 Q 193.32,227.89 193.35,227.63 Q 195.00,214.49 199.50,198.50 Q 204.33,181.32 212.87,166.90 Q 217.44,159.18 223.77,150.65 Q 229.62,142.78 236.43,135.68 Q 237.98,134.07 239.27,132.23 A 1.24,0.80 -66.9 0 1 240.05,131.70 Q 240.58,131.67 241.04,132.00 Z"/>
<path fill="#b1a518" fill-opacity="0.702" d="M 558.50,134.54 Q 559.75,135.74 560.12,134.98 A 0.32,0.28 -55.3 0 1 560.60,134.86 Q 577.34,152.31 588.57,173.53 Q 593.11,182.10 596.33,191.93 Q 612.84,242.39 602.75,295.75 Q 600.71,306.54 597.44,316.32 Q 594.32,325.68 589.47,334.63 Q 581.27,349.77 569.06,364.31 Q 567.91,365.69 566.71,365.25 Q 568.21,362.13 569.84,359.08 Q 589.83,321.75 595.00,280.75 Q 598.44,253.46 593.95,224.85 Q 587.36,182.95 565.64,146.59 Q 562.05,140.58 558.50,134.54 Z"/>
<path fill="#f9b739" fill-opacity="0.992" d="M 528.79,330.00 Q 530.52,330.78 531.88,328.22 Q 532.15,327.72 532.59,327.35 Q 534.69,325.60 536.31,323.11 Q 538.70,319.45 538.74,319.39 Q 545.31,310.03 549.44,298.19 Q 550.69,294.58 550.96,292.00 A 1.74,1.30 -29.3 0 1 551.34,291.14 Q 552.26,290.02 552.08,288.49 A 1.93,1.62 57.8 0 1 552.21,287.55 Q 553.18,285.38 553.04,283.00 A 1.52,1.40 -31.8 0 1 553.29,282.10 Q 553.97,281.07 554.07,279.86 Q 554.28,277.20 554.29,277.15 Q 555.10,273.12 555.24,269.00 A 1.63,1.02 -35.3 0 1 555.60,268.14 Q 556.07,267.55 556.06,266.75 Q 556.02,259.58 556.01,252.41 Q 555.99,243.99 555.22,238.13 Q 553.96,228.49 551.44,217.56 Q 547.82,201.88 540.00,189.25 Q 535.18,181.46 532.61,177.95 Q 532.52,177.83 530.54,174.93 Q 528.67,172.18 525.62,169.88 Q 524.30,168.89 523.69,167.35 Q 523.15,165.98 521.54,166.75 L 517.23,160.37 Q 516.43,159.20 517.64,159.93 Q 528.58,166.58 537.16,175.50 Q 543.60,182.20 549.35,191.30 Q 572.03,227.20 565.50,270.25 Q 560.68,301.99 538.90,326.14 Q 535.92,329.44 532.33,332.58 Q 528.84,335.65 525.24,338.43 Q 523.50,339.77 524.55,337.83 L 528.79,330.00 Z"/>
<path fill="#f9b739" fill-opacity="0.992" d="M 275.46,168.25 Q 274.74,167.87 274.02,167.92 Q 273.41,167.96 272.84,168.60 Q 268.95,173.09 265.09,177.61 Q 264.07,178.81 261.44,182.94 Q 250.17,200.61 245.78,219.36 Q 244.06,226.74 242.92,235.18 Q 241.84,243.16 241.79,251.25 Q 241.71,266.19 243.68,281.00 Q 243.74,281.45 244.06,281.90 Q 244.88,283.07 245.01,284.47 Q 245.25,286.93 245.27,287.01 Q 249.67,306.94 261.61,323.48 Q 261.66,323.55 263.27,325.14 Q 264.19,326.05 264.30,327.43 A 0.51,0.50 -3.0 0 0 264.82,327.89 Q 266.15,327.87 266.23,329.25 Q 266.29,330.33 266.97,330.23 A 0.87,0.44 -81.6 0 0 267.44,329.57 Q 267.57,328.96 268.46,329.00 Q 270.82,333.64 273.60,338.02 Q 273.77,338.29 273.77,338.52 Q 273.78,339.20 273.06,338.69 Q 256.13,326.61 245.46,307.55 Q 234.53,288.01 231.95,265.73 Q 228.06,232.23 242.55,201.99 Q 255.29,175.37 279.57,160.27 Q 281.54,159.05 280.26,160.99 L 275.46,168.25 Z"/>
<path fill="#e3d31e" fill-opacity="0.898" d="M 528.79,330.00 Q 541.60,306.12 546.00,282.50 Q 554.06,239.20 538.25,199.00 Q 531.94,182.95 521.54,166.75 Q 523.15,165.98 523.69,167.35 Q 524.30,168.89 525.62,169.88 Q 528.67,172.18 530.54,174.93 Q 532.52,177.83 532.61,177.95 Q 535.18,181.46 540.00,189.25 Q 547.82,201.88 551.44,217.56 Q 553.96,228.49 555.22,238.13 Q 555.99,243.99 556.01,252.41 Q 556.02,259.58 556.06,266.75 Q 556.07,267.55 555.60,268.14 A 1.63,1.02 -35.3 0 0 555.24,269.00 Q 555.10,273.12 554.29,277.15 Q 554.28,277.20 554.07,279.86 Q 553.97,281.07 553.29,282.10 A 1.52,1.40 -31.8 0 0 553.04,283.00 Q 553.18,285.38 552.21,287.55 A 1.93,1.62 57.8 0 0 552.08,288.49 Q 552.26,290.02 551.34,291.14 A 1.74,1.30 -29.3 0 0 550.96,292.00 Q 550.69,294.58 549.44,298.19 Q 545.31,310.03 538.74,319.39 Q 538.70,319.45 536.31,323.11 Q 534.69,325.60 532.59,327.35 Q 532.15,327.72 531.88,328.22 Q 530.52,330.78 528.79,330.00 Z"/>
<path fill="#e3d31e" fill-opacity="0.898" d="M 275.46,168.25 Q 269.48,177.80 265.44,185.94 Q 242.56,232.00 251.75,281.75 Q 256.12,305.40 268.46,329.00 Q 267.57,328.96 267.44,329.57 A 0.87,0.44 -81.6 0 1 266.97,330.23 Q 266.29,330.33 266.23,329.25 Q 266.15,327.87 264.82,327.89 A 0.51,0.50 -3.0 0 1 264.30,327.43 Q 264.19,326.05 263.27,325.14 Q 261.66,323.55 261.61,323.48 Q 249.67,306.94 245.27,287.01 Q 245.25,286.93 245.01,284.47 Q 244.88,283.07 244.06,281.90 Q 243.74,281.45 243.68,281.00 Q 241.71,266.19 241.79,251.25 Q 241.84,243.16 242.92,235.18 Q 244.06,226.74 245.78,219.36 Q 250.17,200.61 261.44,182.94 Q 264.07,178.81 265.09,177.61 Q 268.95,173.09 272.84,168.60 Q 273.41,167.96 274.02,167.92 Q 274.74,167.87 275.46,168.25 Z"/>
<path fill="#fbb13b" d="M 311.50,189.54 Q 310.69,189.05 310.50,189.69 A 1.61,0.63 -82.3 0 1 310.05,190.50 Q 309.03,191.33 308.01,192.17 Q 306.96,193.03 306.16,194.01 Q 296.40,205.82 292.06,219.56 Q 283.13,247.90 289.81,277.74 Q 293.32,293.43 303.94,307.31 Q 305.63,309.53 307.50,309.96 L 310.44,315.06 Q 311.54,316.98 309.81,315.69 Q 293.75,303.66 285.82,285.18 Q 278.86,268.96 278.91,251.25 Q 279.00,223.88 294.75,201.75 Q 303.20,189.89 315.62,182.58 Q 316.75,181.91 316.01,182.99 L 311.50,189.54 Z"/>
<path fill="#fcec22" d="M 488.50,186.79 L 489.41,188.39 Q 489.74,188.97 489.75,189.25 Q 489.82,192.18 491.69,194.21 Q 493.87,196.57 493.93,196.65 Q 504.25,210.82 508.09,227.64 Q 510.16,236.75 510.73,247.45 Q 511.67,265.43 506.70,282.98 Q 504.22,291.70 499.32,299.32 Q 496.14,304.26 492.79,309.09 A 0.85,0.68 -46.3 0 0 492.71,309.95 L 493.54,311.25 L 488.06,315.74 A 0.97,0.52 -48.2 0 1 487.34,316.00 Q 486.96,315.91 487.31,315.31 Q 497.08,298.80 501.77,280.94 Q 504.36,271.10 505.09,261.25 Q 507.32,230.97 493.82,203.19 Q 488.69,192.64 482.05,183.22 Q 480.83,181.49 482.55,182.68 L 488.50,186.79 Z"/>
<path fill="#fbb13b" d="M 488.50,186.79 Q 508.70,202.72 515.50,226.75 Q 525.50,262.11 507.94,293.44 Q 502.58,302.99 493.54,311.25 L 492.71,309.95 A 0.85,0.68 -46.3 0 1 492.79,309.09 Q 496.14,304.26 499.32,299.32 Q 504.22,291.70 506.70,282.98 Q 511.67,265.43 510.73,247.45 Q 510.16,236.75 508.09,227.64 Q 504.25,210.82 493.93,196.65 Q 493.87,196.57 491.69,194.21 Q 489.82,192.18 489.75,189.25 Q 489.74,188.97 489.41,188.39 L 488.50,186.79 Z"/>
<path fill="#fcec22" d="M 311.50,189.54 Q 297.36,212.07 293.50,237.25 Q 292.49,243.87 292.43,251.70 Q 292.37,259.02 293.30,266.14 Q 296.30,289.27 307.50,309.96 Q 305.63,309.53 303.94,307.31 Q 293.32,293.43 289.81,277.74 Q 283.13,247.90 292.06,219.56 Q 296.40,205.82 306.16,194.01 Q 306.96,193.03 308.01,192.17 Q 309.03,191.33 310.05,190.50 A 1.61,0.63 -82.3 0 0 310.50,189.69 Q 310.69,189.05 311.50,189.54 Z"/>
<path fill="#ffffff" d="M 396.71,345.30 Q 394.53,342.58 394.83,338.69 Q 395.41,331.32 397.86,324.43 Q 400.55,316.89 400.80,315.21 Q 402.04,306.90 397.94,299.56 Q 395.71,295.58 391.16,290.80 A 0.88,0.85 32.2 0 1 390.95,289.96 Q 391.71,287.41 393.42,285.38 A 0.54,0.53 -51.4 0 1 394.15,285.29 Q 400.14,289.66 402.44,296.81 Q 405.13,305.12 403.86,313.55 Q 403.44,316.38 401.46,322.18 Q 400.02,326.41 398.69,330.69 Q 397.44,334.70 398.56,338.16 Q 399.07,339.75 400.19,340.23 Q 401.78,340.91 403.18,338.97 Q 404.39,337.29 405.34,335.89 Q 406.50,334.17 406.25,336.23 Q 405.66,341.04 403.01,345.03 Q 401.67,347.05 399.65,346.97 Q 398.00,346.89 396.71,345.30 Z"/>
<path fill="#2193d0" d="M 356.21,327.00 Q 357.59,327.40 356.36,328.04 A 0.11,0.10 -20.8 0 0 356.30,328.16 Q 358.07,334.86 358.70,338.01 Q 360.82,348.73 365.05,358.79 Q 365.23,359.21 365.19,359.74 Q 365.03,361.96 366.65,363.65 A 0.76,0.70 -55.0 0 1 366.76,364.44 Q 366.64,364.70 366.56,364.97 Q 366.49,365.23 366.58,365.53 Q 367.40,368.40 368.47,371.18 Q 368.52,371.29 369.93,373.58 Q 370.46,374.45 370.53,375.50 Q 370.62,376.82 370.85,377.43 Q 376.73,393.06 384.31,407.94 Q 384.77,408.84 387.00,410.04 L 385.59,417.27 A 1.27,1.00 38.3 0 0 385.80,418.15 L 388.42,422.02 Q 389.62,423.79 387.56,424.67 Q 380.86,427.54 375.58,423.66 Q 374.05,422.54 373.41,420.90 Q 372.93,419.68 373.42,417.59 Q 374.00,415.08 374.34,412.51 Q 374.69,409.85 372.72,410.36 A 2.81,2.79 -81.9 0 0 371.01,411.65 Q 367.51,417.52 364.58,422.58 Q 358.54,433.00 346.25,432.24 Q 341.53,431.95 337.86,429.38 Q 335.82,427.95 333.85,424.96 Q 332.19,422.42 330.75,419.75 Q 329.29,417.05 328.50,420.00 L 327.29,424.50 Q 326.51,425.12 326.65,424.20 A 1.19,1.03 -61.5 0 0 326.47,423.38 Q 324.62,420.95 323.69,418.02 Q 322.40,413.97 319.96,410.50 Q 332.20,404.40 341.17,394.13 A 0.56,0.54 -50.4 0 1 341.92,394.04 L 345.23,396.55 A 0.51,0.49 37.4 0 0 345.94,396.47 Q 347.87,393.94 348.58,391.05 A 0.95,0.70 -67.1 0 0 348.37,390.18 L 344.94,387.25 A 0.80,0.58 31.5 0 1 344.64,386.53 Q 345.89,382.10 345.93,377.50 Q 345.96,373.75 343.29,372.98 Q 341.42,372.45 339.01,373.73 Q 334.75,376.00 332.60,380.55 Q 330.75,384.45 332.31,387.19 Q 333.67,389.56 337.82,392.00 A 0.37,0.37 38.4 0 1 337.89,392.59 Q 328.77,400.97 317.79,406.75 Q 312.93,396.97 311.50,391.25 Q 309.81,384.53 306.56,377.44 Q 306.11,376.45 306.50,375.29 Q 333.34,353.19 356.21,327.00 Z"/>
<path fill="#ffffff" d="M 374.65,367.56 Q 375.45,372.42 373.06,376.82 Q 372.19,378.41 372.25,376.61 Q 372.36,373.59 371.82,370.59 Q 371.36,368.03 369.71,365.36 Q 368.21,362.94 366.60,360.60 A 1.76,1.36 33.9 0 1 366.30,359.70 Q 366.29,357.70 367.32,355.67 A 1.11,1.10 33.5 0 1 369.01,355.33 Q 375.08,360.40 382.57,362.70 Q 389.16,364.72 397.60,364.13 Q 411.44,363.17 424.03,356.74 Q 428.93,354.24 432.50,353.50 Q 435.32,352.91 436.65,354.80 Q 437.60,356.15 437.40,358.49 Q 437.12,361.85 435.19,364.19 Q 429.77,370.76 424.42,377.40 A 0.58,0.27 -50.0 0 1 423.83,377.67 Q 423.68,377.54 423.84,377.03 Q 425.69,371.36 429.71,366.96 Q 431.63,364.85 433.43,362.65 A 1.29,1.00 -35.0 0 0 433.71,361.75 Q 433.52,360.54 432.40,360.33 Q 430.61,359.99 429.00,360.83 Q 410.82,370.38 390.75,370.75 Q 384.45,370.87 375.03,367.25 Q 374.57,367.07 374.65,367.56 Z"/>
<path fill="#ffffff" d="M 459.33,378.74 Q 456.22,376.81 454.31,374.53 Q 452.55,372.42 453.25,369.76 Q 455.20,362.32 462.44,359.69 Q 465.23,358.67 466.55,360.78 Q 467.31,362.00 467.43,364.34 Q 467.64,368.55 466.14,372.82 A 1.17,1.17 21.7 0 0 466.77,374.28 Q 468.73,375.16 469.99,377.07 A 1.13,1.10 -53.9 0 1 470.12,377.98 Q 469.32,380.77 467.56,383.10 A 0.53,0.51 36.2 0 1 466.84,383.20 L 463.41,380.78 A 0.55,0.55 -52.8 0 0 462.68,380.88 Q 452.19,393.04 437.17,398.89 Q 431.78,401.00 426.36,403.03 Q 425.87,403.21 425.50,403.23 Q 424.13,403.29 425.13,402.24 Q 425.38,401.97 425.81,401.71 Q 438.15,394.25 450.44,386.69 Q 454.01,384.49 459.39,379.35 A 0.39,0.39 -51.1 0 0 459.33,378.74 ZM 458.59,369.47 Q 459.61,370.05 460.54,370.78 Q 463.32,372.95 463.33,370.50 Q 463.33,369.67 463.17,368.50 Q 462.70,365.12 459.61,366.42 Q 458.69,366.81 458.18,367.44 Q 457.17,368.67 458.59,369.47 Z"/>
<path fill="#25a9e0" d="M 458.59,369.47 Q 457.17,368.67 458.18,367.44 Q 458.69,366.81 459.61,366.42 Q 462.70,365.12 463.17,368.50 Q 463.33,369.67 463.33,370.50 Q 463.32,372.95 460.54,370.78 Q 459.61,370.05 458.59,369.47 Z"/>
<path fill="#ffffff" d="M 319.96,410.50 Q 312.50,413.43 304.93,416.05 Q 302.48,416.90 303.77,415.39 Q 304.03,415.08 304.44,414.84 Q 311.12,410.81 317.79,406.75 Q 328.77,400.97 337.89,392.59 A 0.37,0.37 38.4 0 0 337.82,392.00 Q 333.67,389.56 332.31,387.19 Q 330.75,384.45 332.60,380.55 Q 334.75,376.00 339.01,373.73 Q 341.42,372.45 343.29,372.98 Q 345.96,373.75 345.93,377.50 Q 345.89,382.10 344.64,386.53 A 0.80,0.58 31.5 0 0 344.94,387.25 L 348.37,390.18 A 0.95,0.70 -67.1 0 1 348.58,391.05 Q 347.87,393.94 345.94,396.47 A 0.51,0.49 37.4 0 1 345.23,396.55 L 341.92,394.04 A 0.56,0.54 -50.4 0 0 341.17,394.13 Q 332.20,404.40 319.96,410.50 ZM 338.62,383.91 Q 343.04,387.63 341.44,380.81 Q 340.79,378.05 337.69,379.94 Q 335.22,381.44 337.16,382.84 Q 338.49,383.81 338.62,383.91 Z"/>
<path fill="#1b75bb" d="M 306.50,375.29 Q 306.11,376.45 306.56,377.44 Q 309.81,384.53 311.50,391.25 Q 312.93,396.97 317.79,406.75 Q 311.12,410.81 304.44,414.84 Q 304.03,415.08 303.77,415.39 Q 302.48,416.90 304.93,416.05 Q 312.50,413.43 319.96,410.50 Q 322.40,413.97 323.69,418.02 Q 324.62,420.95 326.47,423.38 A 1.19,1.03 -61.5 0 1 326.65,424.20 Q 326.51,425.12 327.29,424.50 Q 326.68,427.09 326.15,429.70 Q 325.71,431.88 326.44,433.71 Q 327.22,435.65 328.31,437.44 Q 333.30,445.67 335.75,454.92 Q 336.74,458.63 336.82,459.46 Q 337.07,462.06 335.69,464.19 Q 333.90,466.94 330.09,470.34 Q 314.70,484.05 295.87,492.44 Q 280.04,499.48 262.74,500.64 Q 249.59,501.53 239.81,495.44 Q 227.63,487.85 224.71,473.67 Q 223.89,469.68 224.52,463.81 Q 225.97,450.33 226.50,447.50 Q 226.86,445.57 225.79,445.69 A 0.92,0.72 -79.6 0 0 225.14,446.27 Q 218.57,464.17 222.09,483.03 Q 223.54,490.78 227.37,497.66 Q 232.50,506.87 241.16,511.47 Q 248.47,515.35 259.40,515.65 Q 274.17,516.06 288.56,510.06 Q 311.79,500.39 329.31,484.06 Q 333.40,480.26 336.13,476.18 Q 338.80,472.19 339.95,466.67 Q 341.77,457.95 341.20,448.46 A 1.09,1.08 -87.2 0 1 342.45,447.32 Q 348.32,448.25 354.25,445.96 L 354.29,447.25 Q 353.21,448.48 352.81,449.56 Q 347.29,464.66 347.26,480.75 Q 347.25,488.42 349.99,495.25 Q 352.94,502.58 358.56,506.69 Q 367.88,513.48 380.71,509.75 Q 380.03,510.39 380.56,510.94 Q 384.57,515.08 387.69,518.66 Q 391.96,523.56 394.79,526.39 Q 399.56,531.16 404.25,536.00 Q 404.88,536.65 404.54,537.25 Q 382.36,545.46 360.10,553.41 Q 350.68,556.78 349.06,557.81 Q 342.68,561.90 340.73,569.25 Q 339.79,572.79 342.56,574.69 Q 346.07,577.09 350.69,577.41 A 0.60,0.58 8.0 0 0 351.31,576.96 Q 351.91,574.42 351.21,571.93 A 1.15,0.91 8.4 0 0 350.59,571.27 L 344.55,568.68 A 1.26,1.21 -54.4 0 1 344.26,566.63 Q 345.61,565.36 347.29,564.34 Q 348.51,563.60 350.70,562.76 Q 380.63,551.29 410.75,540.29 Q 410.98,543.35 413.29,545.01 Q 415.83,546.84 415.88,546.89 Q 422.47,552.84 429.36,558.44 A 0.55,0.55 -48.6 0 0 430.10,558.39 L 430.96,557.50 L 430.98,565.95 A 3.55,2.90 22.9 0 0 432.31,568.46 Q 452.91,584.91 473.24,601.47 Q 473.31,601.54 479.96,606.83 Q 492.43,616.76 503.06,628.70 Q 508.87,635.23 511.96,643.40 Q 513.26,646.84 509.69,648.94 Q 496.28,656.82 481.37,662.74 A 0.53,0.53 66.9 0 1 480.69,662.46 Q 476.87,654.02 470.64,647.67 Q 466.02,642.97 461.73,642.13 Q 455.92,640.99 450.69,645.44 Q 440.70,653.94 440.50,667.50 Q 440.42,673.37 444.45,676.81 Q 447.31,679.26 453.11,680.31 Q 463.41,682.19 473.77,679.62 A 0.58,0.56 -17.5 0 1 474.44,679.96 Q 475.88,683.46 475.00,686.00 Q 473.99,688.93 469.85,693.35 Q 454.20,710.08 434.50,721.79 Q 423.07,728.59 412.94,730.44 Q 404.44,731.98 396.81,729.44 Q 386.30,725.93 383.49,714.89 Q 382.00,709.09 382.56,704.06 Q 383.78,693.05 387.12,681.83 A 0.83,0.81 2.7 0 1 387.77,681.25 Q 391.47,680.54 394.68,678.73 Q 397.58,677.08 400.25,674.10 Q 407.22,666.30 408.61,655.51 Q 410.49,640.95 402.30,628.92 Q 400.39,626.11 399.14,629.28 Q 396.92,634.92 395.06,640.92 Q 394.39,643.07 394.71,644.65 Q 395.11,646.70 396.31,648.19 Q 399.19,651.75 400.70,656.10 A 2.06,2.05 62.1 0 1 399.99,658.43 Q 396.66,660.92 392.85,661.79 Q 389.86,662.47 385.14,662.57 Q 380.93,662.65 376.87,661.60 Q 372.63,660.49 370.21,658.34 Q 367.13,655.61 366.50,651.50 Q 365.53,645.18 367.25,638.99 Q 367.96,636.45 365.39,637.02 Q 362.35,637.70 359.33,638.86 Q 335.90,647.83 311.81,654.81 Q 282.64,663.27 257.31,666.56 Q 239.82,668.84 223.97,668.20 Q 211.65,667.71 204.08,666.24 Q 191.60,663.81 180.44,657.23 Q 175.13,654.10 171.69,649.81 Q 167.48,644.57 167.82,637.50 Q 168.04,632.98 169.08,628.62 Q 169.77,625.70 172.22,620.26 Q 177.88,607.71 180.83,594.21 Q 181.33,591.92 180.28,592.48 Q 179.89,592.69 179.51,593.30 Q 176.65,597.92 172.81,601.68 Q 170.92,603.52 169.15,604.00 Q 166.73,604.65 164.57,603.69 Q 162.04,602.55 160.66,599.22 Q 159.30,595.95 159.31,592.25 Q 159.32,586.29 160.87,580.53 Q 164.95,565.34 170.51,550.62 Q 171.40,548.27 169.82,549.81 Q 169.58,550.04 169.35,550.36 Q 161.20,562.07 156.19,575.44 Q 151.24,588.63 151.43,602.75 Q 151.49,606.96 152.88,610.78 Q 154.47,615.15 157.56,617.10 Q 161.77,619.75 167.57,618.16 Q 168.56,617.89 168.12,618.82 Q 161.34,632.95 162.35,648.24 Q 163.09,659.36 169.26,667.79 Q 173.41,673.48 180.44,677.91 Q 187.14,682.12 194.50,684.00 Q 212.12,688.49 231.75,687.00 Q 258.70,684.95 279.73,679.92 Q 319.16,670.50 356.73,655.25 A 0.39,0.38 -15.3 0 1 357.26,655.55 Q 357.72,658.62 358.21,661.68 Q 358.88,665.85 359.86,668.17 Q 364.13,678.31 375.66,680.68 Q 379.79,681.52 383.93,681.50 A 0.30,0.29 10.2 0 1 384.21,681.89 Q 380.01,692.90 378.62,704.46 Q 377.48,713.95 378.06,720.06 Q 378.84,728.33 382.81,735.19 Q 390.06,747.69 405.50,747.84 Q 412.20,747.90 419.00,745.50 Q 429.20,741.90 437.59,736.11 Q 452.43,725.88 464.84,712.94 Q 473.20,704.24 476.71,697.42 Q 481.27,688.58 482.27,678.31 A 0.82,0.81 81.2 0 1 482.77,677.62 Q 493.81,673.08 504.21,667.22 Q 513.10,662.21 515.89,652.96 Q 517.22,648.57 517.40,644.61 Q 517.60,640.29 516.11,636.09 Q 514.65,632.01 513.11,627.96 Q 512.92,627.47 513.27,627.52 Q 513.41,627.54 513.56,627.68 Q 532.25,645.09 536.19,648.56 Q 544.80,656.17 556.62,657.28 Q 559.16,657.52 561.25,657.16 Q 563.88,656.71 565.69,655.69 Q 573.59,651.22 578.00,642.21 Q 578.64,643.20 579.25,642.00 A 0.93,0.92 21.0 0 1 580.31,641.53 Q 594.75,645.37 609.44,647.25 A 0.30,0.28 -70.2 0 1 609.63,647.70 Q 609.17,648.45 610.29,648.75 Q 599.02,660.76 586.53,671.50 Q 583.56,674.05 582.42,676.23 Q 580.96,679.00 583.67,677.45 Q 596.33,670.18 607.19,660.44 Q 618.85,649.98 625.75,639.46 Q 626.90,639.99 629.25,640.25 Q 645.24,642.00 661.66,642.45 A 0.54,0.54 87.2 0 0 662.20,641.85 Q 662.12,641.15 662.71,640.25 Q 662.43,647.59 661.99,654.93 Q 661.57,661.73 660.23,669.48 Q 657.77,683.72 655.54,698.00 Q 645.85,709.06 632.08,714.36 Q 619.75,719.10 606.68,721.15 Q 591.79,723.49 576.75,724.46 Q 560.50,725.51 544.24,726.38 Q 520.25,727.66 496.48,731.12 Q 464.85,735.72 439.06,747.56 Q 417.89,757.29 400.40,772.25 A 1.06,1.05 44.5 0 1 399.03,772.26 Q 372.48,750.21 340.82,739.65 Q 332.12,736.75 321.50,734.51 Q 297.47,729.44 271.75,728.50 Q 247.07,727.60 242.00,727.58 Q 214.96,727.48 191.25,723.25 Q 183.18,721.81 172.84,717.88 Q 153.41,710.50 140.21,694.50 Q 140.80,693.31 140.52,692.00 Q 132.11,652.66 135.08,612.72 Q 135.82,602.77 137.41,592.86 Q 148.82,521.59 194.56,465.81 Q 213.48,442.74 237.70,424.19 Q 243.50,419.75 254.07,412.69 Q 266.55,404.35 279.06,396.06 Q 289.35,389.25 306.50,375.29 ZM 302.23,450.35 Q 303.92,451.63 305.19,449.93 Q 306.83,447.74 307.43,445.04 Q 307.94,442.70 306.76,443.95 Q 306.54,444.19 306.32,444.60 Q 304.67,447.71 303.13,445.60 Q 302.47,444.68 302.54,443.23 Q 302.84,437.77 304.95,432.69 Q 305.17,432.18 305.00,431.97 A 0.52,0.34 -52.9 0 0 304.32,432.22 Q 300.22,439.27 300.71,447.49 Q 300.82,449.27 302.23,450.35 ZM 254.45,436.12 Q 252.34,435.83 250.50,437.25 Q 248.27,438.97 247.82,441.93 Q 247.74,442.44 247.60,443.04 Q 247.15,444.98 248.76,443.87 Q 249.34,443.47 249.84,443.37 Q 256.34,442.05 253.19,448.44 Q 251.46,451.94 244.32,459.30 A 0.53,0.38 -42.5 0 0 244.20,459.90 Q 244.38,460.11 244.69,459.94 Q 254.05,454.66 257.87,444.34 Q 259.16,440.86 257.53,438.20 Q 256.43,436.39 254.45,436.12 ZM 200.97,532.96 Q 202.93,526.97 203.97,520.74 Q 204.74,516.12 207.06,512.06 Q 208.29,509.92 210.00,511.75 L 211.95,513.82 A 1.09,1.03 40.6 0 0 213.61,513.74 Q 216.52,509.28 212.72,505.53 Q 209.49,502.36 206.58,505.80 Q 204.36,508.43 203.69,510.69 Q 201.75,517.26 200.50,524.01 Q 200.05,526.43 199.67,524.00 Q 198.76,518.19 195.72,512.60 Q 193.41,508.37 188.79,507.10 Q 186.82,506.56 186.47,507.75 Q 186.19,508.69 185.63,509.51 Q 182.68,513.72 185.30,516.25 Q 186.74,517.64 187.89,518.00 Q 189.32,518.46 191.28,517.54 A 0.71,0.70 -27.1 0 1 192.20,517.83 Q 195.93,524.43 198.00,531.75 Q 198.35,532.98 196.94,535.19 Q 194.38,539.19 194.24,544.38 Q 194.22,545.25 194.94,544.77 Q 195.88,544.15 196.60,542.89 Q 197.99,540.46 200.73,541.87 Q 202.26,542.66 200.63,543.21 Q 190.68,546.54 192.74,557.10 Q 193.72,562.15 194.85,567.18 Q 197.80,580.27 197.81,593.69 A 0.51,0.37 83.6 0 0 198.29,594.22 Q 198.57,594.13 198.66,593.68 Q 199.10,591.46 199.44,589.23 Q 199.78,587.01 199.80,584.74 Q 199.98,569.13 195.14,554.66 A 1.82,1.82 -22.7 0 1 196.05,552.45 Q 201.74,549.58 207.70,548.29 A 1.54,1.36 11.0 0 0 208.52,547.81 Q 210.46,545.50 210.93,542.50 A 1.42,1.36 35.3 0 0 210.75,541.57 Q 207.40,535.98 201.29,533.62 A 0.55,0.53 19.9 0 1 200.97,532.96 ZM 307.02,527.68 A 0.97,0.76 -82.7 0 1 306.36,526.58 Q 306.82,523.84 306.25,523.23 A 0.67,0.44 -44.9 0 0 305.45,523.40 Q 304.24,524.64 302.44,527.69 Q 300.08,531.66 295.64,530.48 Q 292.87,529.74 292.82,529.73 Q 284.88,528.49 278.94,533.69 Q 273.89,538.10 268.15,544.63 Q 263.79,549.59 260.56,552.06 Q 256.33,555.30 251.70,557.98 Q 251.55,558.07 251.47,558.19 Q 251.37,558.35 251.35,558.47 A 0.43,0.24 -4.6 0 0 251.85,558.70 Q 260.51,557.34 266.44,550.93 Q 269.84,547.25 275.69,541.94 Q 281.64,536.54 289.27,536.64 Q 289.32,536.64 293.18,537.20 Q 298.38,537.97 303.07,533.61 A 1.27,1.27 40.3 0 1 304.59,533.45 Q 307.54,535.21 311.28,533.92 A 1.55,1.52 -81.3 0 0 312.04,533.35 Q 315.69,528.12 314.38,521.51 Q 314.05,519.85 312.84,521.04 Q 310.08,523.77 311.12,526.55 Q 311.87,528.56 309.97,527.93 Q 309.73,527.85 309.01,527.80 L 307.02,527.68 ZM 342.78,543.39 Q 345.17,544.72 346.80,541.81 Q 348.16,539.37 348.53,536.61 Q 348.56,536.34 348.66,536.03 Q 349.02,534.86 348.17,535.50 Q 347.96,535.66 347.81,535.95 Q 347.22,537.12 346.31,538.06 Q 344.38,540.09 343.56,538.19 Q 343.09,537.08 342.88,535.91 Q 342.71,534.92 342.92,533.59 Q 343.84,527.74 345.98,522.20 Q 346.18,521.69 346.01,521.47 A 0.55,0.35 -53.0 0 0 345.31,521.73 Q 340.55,529.69 340.50,539.48 Q 340.48,542.11 342.78,543.39 ZM 267.19,596.31 Q 270.13,598.60 272.81,595.56 Q 275.30,592.75 276.00,587.56 Q 276.06,587.13 276.17,586.58 Q 276.60,584.54 275.54,585.67 Q 275.29,585.93 275.07,586.42 Q 273.85,589.11 271.19,590.44 Q 268.92,591.57 268.31,587.69 Q 267.48,582.34 268.96,577.12 Q 270.45,571.90 272.17,566.75 Q 272.26,566.48 272.23,566.24 Q 272.13,565.19 271.47,566.26 Q 264.64,577.50 264.79,590.69 Q 264.83,594.48 267.19,596.31 ZM 317.22,593.06 Q 316.34,587.34 313.31,581.69 Q 310.56,576.54 305.50,575.58 A 0.94,0.94 -63.1 0 0 304.65,575.86 Q 302.31,578.32 301.16,581.54 A 1.10,1.08 -50.0 0 0 301.23,582.44 Q 302.67,585.00 305.31,586.38 Q 307.18,587.36 308.19,585.98 A 0.74,0.74 48.1 0 1 309.43,586.05 Q 313.68,593.30 315.51,601.53 Q 315.88,603.21 314.77,604.51 Q 311.24,608.64 307.49,611.20 Q 293.42,620.81 278.69,629.34 Q 278.25,629.60 278.04,629.91 Q 277.43,630.84 278.75,630.79 Q 279.18,630.78 279.72,630.58 Q 285.47,628.42 291.17,626.15 Q 300.13,622.58 307.51,616.61 Q 312.69,612.43 315.75,607.30 Q 319.32,601.34 320.19,595.44 Q 321.22,588.40 323.75,581.75 Q 325.19,577.97 327.19,580.06 L 329.67,582.66 A 0.73,0.72 40.7 0 0 330.80,582.58 Q 334.06,577.84 330.11,573.89 Q 328.25,572.02 326.18,572.68 Q 324.80,573.12 323.33,574.95 Q 321.82,576.84 321.31,578.56 Q 319.28,585.49 317.71,593.07 Q 317.43,594.42 317.22,593.06 ZM 225.72,605.45 Q 229.52,607.38 231.71,603.48 Q 234.03,599.36 234.49,594.65 Q 234.50,594.47 234.42,594.37 Q 234.31,594.22 234.15,594.22 A 0.70,0.38 -68.7 0 0 233.65,594.64 Q 232.78,596.32 231.57,597.74 Q 230.27,599.26 228.82,599.11 Q 226.77,598.91 226.44,596.06 Q 225.95,591.98 226.78,588.51 Q 228.42,581.62 230.58,574.88 A 0.42,0.33 -72.0 0 0 230.40,574.38 Q 230.12,574.29 230.00,574.67 Q 229.88,575.02 229.79,575.18 Q 222.14,587.33 223.25,601.76 Q 223.45,604.30 225.72,605.45 ZM 401.36,598.32 A 1.57,1.57 65.1 0 1 400.65,600.26 Q 389.24,606.61 379.05,612.30 Q 377.08,613.40 375.42,614.95 Q 374.25,616.05 375.81,615.67 Q 385.22,613.41 394.68,610.17 Q 400.15,608.30 404.05,604.04 Q 409.64,597.92 413.83,590.77 Q 416.42,586.34 411.75,585.00 Q 403.48,582.63 392.21,583.14 Q 392.06,583.15 388.31,583.11 Q 383.56,583.06 380.19,586.07 Q 378.89,587.24 377.41,589.90 Q 375.53,593.30 375.00,594.00 Q 372.33,597.52 377.00,597.00 Q 386.91,595.90 399.98,597.88 Q 401.26,598.07 401.36,598.32 ZM 467.53,610.99 L 469.27,607.50 Q 470.14,605.74 468.22,606.44 Q 448.24,613.64 427.94,621.00 Q 427.86,621.03 426.52,621.37 Q 424.88,621.78 425.95,623.35 Q 426.23,623.76 426.35,624.23 Q 426.59,625.15 427.16,625.87 A 0.72,0.69 -28.9 0 0 427.96,626.08 L 466.42,611.90 A 2.17,1.46 -5.3 0 0 467.53,610.99 ZM 253.51,630.17 L 243.08,623.23 A 1.13,1.10 32.3 0 0 241.51,623.56 Q 238.64,628.26 236.36,634.15 A 0.67,0.63 28.5 0 0 236.61,634.91 L 247.63,642.69 A 0.96,0.86 32.1 0 0 248.97,642.46 L 252.91,635.40 A 1.04,0.96 -58.3 0 1 254.34,635.00 L 264.28,641.79 A 0.87,0.87 34.5 0 0 265.48,641.57 Q 268.77,636.91 270.59,631.69 A 1.50,1.50 29.5 0 0 270.13,630.03 Q 264.46,625.41 259.24,622.45 A 1.19,1.15 27.9 0 0 257.60,622.93 L 254.14,629.98 A 0.45,0.42 -59.9 0 1 253.51,630.17 ZM 549.28,692.30 Q 548.52,684.16 543.62,677.64 Q 541.95,675.42 538.57,674.58 Q 536.74,674.13 535.94,675.83 Q 531.52,685.15 522.67,690.98 Q 509.28,699.79 495.42,707.86 Q 495.03,708.08 494.76,708.36 Q 493.28,709.88 495.74,709.10 Q 501.66,707.22 507.41,704.87 Q 516.32,701.23 523.82,695.31 Q 527.23,692.63 529.36,689.88 Q 531.66,686.92 533.54,683.25 A 0.58,0.58 -54.2 0 1 534.46,683.10 Q 536.72,685.31 538.94,685.64 A 1.33,0.97 -53.8 0 0 539.82,685.36 Q 541.52,684.01 542.35,685.87 Q 542.81,686.88 542.86,686.99 Q 546.66,694.09 547.94,702.08 Q 548.25,704.00 549.41,702.43 Q 551.02,700.25 551.62,697.42 Q 552.99,690.97 554.59,684.57 Q 555.15,682.32 556.27,680.33 Q 557.28,678.55 558.48,678.74 Q 559.74,678.95 561.17,680.81 Q 562.42,682.43 563.59,680.75 Q 566.29,676.85 562.29,672.72 Q 559.86,670.22 557.31,672.06 Q 554.95,673.77 553.78,676.75 Q 553.58,677.27 552.22,682.25 Q 550.88,687.17 549.90,692.18 Q 549.84,692.51 549.68,692.63 Q 549.34,692.91 549.28,692.30 ZM 165.65,699.55 Q 167.02,700.82 168.37,700.58 Q 169.41,700.39 170.39,699.06 Q 172.42,696.29 172.50,692.76 Q 172.51,692.21 172.11,692.57 Q 171.43,693.17 170.96,693.93 Q 170.10,695.29 169.50,695.57 Q 168.29,696.14 167.47,695.06 Q 166.99,694.44 166.96,693.30 Q 166.80,686.38 169.57,679.97 Q 169.70,679.67 169.71,679.38 Q 169.78,677.67 168.91,679.17 Q 163.70,688.02 164.68,697.60 A 3.11,3.08 -71.7 0 0 165.65,699.55 ZM 312.69,714.81 Q 316.27,715.99 317.94,712.12 Q 319.26,709.06 319.77,705.75 Q 319.96,704.48 319.32,704.87 Q 319.10,705.00 318.92,705.35 Q 317.72,707.62 315.78,709.11 A 1.28,1.28 53.9 0 1 313.94,708.82 Q 312.08,706.09 312.61,702.77 Q 313.80,695.37 316.42,688.36 Q 316.79,687.37 316.19,687.57 Q 315.96,687.65 315.79,687.92 Q 309.34,698.10 309.84,710.25 Q 309.99,713.92 312.69,714.81 ZM 421.75,703.69 Q 420.94,697.82 418.25,694.50 Q 412.53,687.44 410.13,695.77 A 1.27,1.18 -53.3 0 0 410.23,696.70 Q 411.42,698.79 413.70,699.54 A 0.92,0.78 -54.3 0 0 414.54,699.33 Q 415.67,698.33 416.31,699.44 Q 419.32,704.62 420.60,711.02 Q 421.11,713.55 422.18,711.20 Q 424.24,706.69 424.99,701.79 Q 425.57,697.95 426.75,695.75 Q 428.33,692.80 430.54,696.02 A 0.92,0.91 45.6 0 0 432.04,696.04 Q 434.04,693.28 431.94,690.59 Q 430.06,688.18 427.97,689.23 Q 426.74,689.85 425.71,691.90 Q 423.04,697.23 422.48,703.25 Q 422.44,703.70 422.24,703.94 Q 421.85,704.42 421.75,703.69 ZM 178.18,692.31 Q 185.65,698.27 193.34,699.21 Q 196.85,699.64 193.42,698.78 Q 183.98,696.41 178.44,691.54 Q 178.16,691.29 177.86,691.24 Q 176.57,691.02 178.18,692.31 ZM 214.70,716.57 Q 216.06,717.07 217.20,716.58 Q 218.07,716.21 218.81,714.92 Q 220.41,712.14 220.60,709.67 Q 220.69,708.55 219.98,709.42 Q 216.66,713.47 215.24,710.78 Q 214.45,709.27 214.73,707.57 Q 215.75,701.41 217.67,695.99 Q 217.76,695.73 217.77,695.49 Q 217.84,694.21 217.22,695.21 Q 211.86,703.84 212.75,714.01 Q 212.92,715.91 214.70,716.57 ZM 357.10,707.85 L 367.45,714.82 A 1.00,0.99 -56.9 0 0 368.84,714.52 Q 371.27,710.74 373.26,706.66 Q 374.72,703.65 372.39,702.13 Q 370.92,701.17 370.83,701.10 Q 366.80,697.90 362.23,695.49 A 1.10,1.10 27.1 0 0 360.73,695.97 L 357.29,702.99 A 0.77,0.73 30.3 0 1 356.18,703.25 L 346.00,696.25 A 1.01,0.98 -60.0 0 0 344.55,696.66 L 339.45,707.05 A 0.60,0.58 30.5 0 0 339.65,707.78 L 351.01,715.79 A 0.89,0.87 32.3 0 0 352.29,715.52 L 356.45,708.01 A 0.47,0.45 -58.0 0 1 357.10,707.85 ZM 269.22,711.20 Q 267.99,705.25 264.15,700.52 Q 261.65,697.44 258.87,700.27 Q 254.56,704.64 260.78,707.07 A 1.44,0.99 -36.5 0 0 261.70,707.04 L 262.71,706.68 A 0.67,0.60 64.1 0 1 263.45,706.98 Q 266.99,712.62 267.96,718.98 Q 268.34,721.50 269.43,719.20 Q 271.23,715.41 271.86,711.27 Q 272.36,707.93 273.34,704.70 Q 274.81,699.87 277.95,703.87 A 0.89,0.89 40.0 0 0 279.43,703.74 Q 281.86,699.20 277.20,696.73 A 1.27,1.16 49.1 0 0 276.27,696.62 Q 273.51,697.43 272.53,700.30 Q 270.72,705.67 269.43,711.19 Q 269.32,711.68 269.22,711.20 Z"/>
<path fill="#2090ce" d="M 337.16,382.84 Q 335.22,381.44 337.69,379.94 Q 340.79,378.05 341.44,380.81 Q 343.04,387.63 338.62,383.91 Q 338.49,383.81 337.16,382.84 Z"/>
<path fill="#ffffff" d="M 475.75,506.29 Q 461.73,507.81 458.76,494.29 Q 456.60,484.45 457.97,474.19 Q 458.26,472.03 457.11,473.88 Q 451.10,483.60 444.87,493.48 Q 439.16,502.53 438.72,503.13 Q 435.07,508.05 430.44,511.19 Q 427.92,512.89 423.25,513.96 Q 416.70,514.55 410.94,510.31 Q 404.90,505.88 402.45,498.62 A 0.71,0.71 61.5 0 0 401.34,498.29 Q 391.96,505.74 380.71,509.75 Q 367.88,513.48 358.56,506.69 Q 352.94,502.58 349.99,495.25 Q 347.25,488.42 347.26,480.75 Q 347.29,464.66 352.81,449.56 Q 353.21,448.48 354.29,447.25 Q 355.37,447.78 355.00,449.25 Q 352.50,459.18 351.29,470.35 Q 350.93,473.66 351.12,476.16 Q 351.36,479.35 352.06,481.94 Q 353.54,487.38 357.58,490.88 Q 361.19,494.03 366.66,495.21 Q 373.51,496.69 380.54,494.50 Q 390.20,491.51 398.50,485.71 Q 400.92,484.80 400.88,482.38 Q 400.85,480.20 400.86,480.12 Q 402.12,467.82 405.98,456.08 Q 406.22,455.35 406.59,454.88 Q 408.05,453.06 407.76,456.75 Q 407.34,462.15 406.35,467.47 Q 405.12,474.03 404.60,480.69 Q 404.56,481.19 404.98,480.89 Q 414.35,474.08 424.06,463.81 Q 428.46,459.17 430.75,455.19 A 1.18,1.06 -41.9 0 0 430.85,454.27 Q 429.90,451.60 427.04,450.76 Q 421.17,449.02 415.00,449.50 Q 408.04,450.04 403.06,447.44 Q 397.39,444.48 397.51,437.25 Q 397.71,425.39 406.21,418.26 Q 409.18,415.77 411.78,415.05 Q 415.16,414.11 418.50,415.50 Q 422.53,417.17 425.88,421.35 Q 439.41,438.22 435.25,459.00 Q 434.54,462.53 432.47,466.35 Q 430.97,469.12 427.98,472.71 Q 418.21,484.44 406.46,494.28 A 1.62,1.62 54.4 0 0 406.12,496.36 Q 412.77,507.41 423.56,500.31 Q 431.02,495.41 436.14,487.06 Q 442.21,477.20 448.31,467.36 Q 453.05,459.72 461.69,448.94 Q 468.82,440.03 478.51,434.01 Q 486.31,429.16 493.69,429.06 Q 499.29,428.98 503.12,432.68 Q 506.32,435.77 507.04,440.79 Q 507.72,445.44 506.45,450.15 Q 505.90,452.18 504.62,450.51 Q 498.51,442.58 488.69,445.20 Q 486.67,445.74 484.72,446.50 Q 482.91,447.21 481.03,448.41 Q 470.80,454.93 463.66,464.74 Q 462.21,466.73 461.87,469.17 Q 461.31,473.18 461.22,477.22 Q 461.12,481.91 462.58,485.05 Q 466.95,494.42 478.56,490.06 Q 487.90,486.55 497.65,479.94 Q 516.56,467.11 534.70,453.21 Q 536.64,451.73 538.30,449.97 Q 539.76,448.42 539.65,446.98 Q 539.51,445.18 537.69,443.81 Q 532.33,439.81 527.57,437.68 Q 519.19,433.93 510.83,430.15 Q 495.48,423.22 484.76,410.34 Q 483.73,409.11 482.64,408.27 Q 481.20,407.17 480.23,406.52 Q 478.10,405.08 478.03,402.50 L 477.73,392.74 A 1.33,1.33 -80.6 0 1 479.53,391.45 Q 489.49,395.18 499.46,400.19 Q 500.44,400.69 500.76,401.14 Q 501.29,401.91 500.55,402.60 Q 500.14,402.98 499.35,403.16 Q 496.69,403.79 493.74,403.75 Q 492.48,403.73 493.45,404.53 Q 498.21,408.47 503.62,411.70 Q 507.34,413.92 514.77,417.15 Q 523.13,420.79 531.44,424.56 Q 541.09,428.95 542.94,438.56 Q 544.90,448.78 540.94,459.44 Q 540.45,460.75 538.02,463.33 Q 536.62,464.81 534.46,466.64 Q 520.11,478.82 501.31,492.06 Q 490.53,499.66 481.69,504.19 Q 479.76,505.17 475.75,506.29 ZM 408.67,435.19 Q 411.12,435.89 413.74,435.65 Q 417.11,435.35 420.62,435.51 Q 421.67,435.55 421.05,434.71 Q 418.38,431.13 414.58,429.27 Q 412.95,428.47 411.15,428.44 Q 408.90,428.40 407.56,429.06 Q 404.00,430.83 405.67,433.23 Q 406.62,434.60 408.67,435.19 Z"/>
<path fill="#ffffff" d="M 365.54,435.25 Q 361.50,442.31 354.25,445.96 Q 348.32,448.25 342.45,447.32 A 1.09,1.08 -87.2 0 0 341.20,448.46 Q 341.77,457.95 339.95,466.67 Q 338.80,472.19 336.13,476.18 Q 333.40,480.26 329.31,484.06 Q 311.79,500.39 288.56,510.06 Q 274.17,516.06 259.40,515.65 Q 248.47,515.35 241.16,511.47 Q 232.50,506.87 227.37,497.66 Q 223.54,490.78 222.09,483.03 Q 218.57,464.17 225.14,446.27 A 0.92,0.72 -79.6 0 1 225.79,445.69 Q 226.86,445.57 226.50,447.50 Q 225.97,450.33 224.52,463.81 Q 223.89,469.68 224.71,473.67 Q 227.63,487.85 239.81,495.44 Q 249.59,501.53 262.74,500.64 Q 280.04,499.48 295.87,492.44 Q 314.70,484.05 330.09,470.34 Q 333.90,466.94 335.69,464.19 Q 337.07,462.06 336.82,459.46 Q 336.74,458.63 335.75,454.92 Q 333.30,445.67 328.31,437.44 Q 327.22,435.65 326.44,433.71 Q 325.71,431.88 326.15,429.70 Q 326.68,427.09 327.29,424.50 L 328.50,420.00 Q 329.29,417.05 330.75,419.75 Q 332.19,422.42 333.85,424.96 Q 335.82,427.95 337.86,429.38 Q 341.53,431.95 346.25,432.24 Q 358.54,433.00 364.58,422.58 Q 367.51,417.52 371.01,411.65 A 2.81,2.79 -81.9 0 1 372.72,410.36 Q 374.69,409.85 374.34,412.51 Q 374.00,415.08 373.42,417.59 Q 372.93,419.68 373.41,420.90 Q 374.05,422.54 375.58,423.66 Q 380.86,427.54 387.56,424.67 Q 389.62,423.79 388.42,422.02 L 385.80,418.15 A 1.27,1.00 38.3 0 1 385.59,417.27 L 387.00,410.04 L 388.00,406.25 Q 388.70,403.60 390.19,405.31 Q 393.90,409.58 394.42,415.23 Q 395.40,425.94 389.81,434.31 Q 386.20,439.73 380.05,440.47 Q 376.15,440.93 372.85,438.80 Q 369.59,436.68 367.50,433.18 A 0.37,0.33 47.6 0 0 366.91,433.12 L 365.54,435.25 Z"/>
<path fill="#25a8df" d="M 405.67,433.23 Q 404.00,430.83 407.56,429.06 Q 408.90,428.40 411.15,428.44 Q 412.95,428.47 414.58,429.27 Q 418.38,431.13 421.05,434.71 Q 421.67,435.55 420.62,435.51 Q 417.11,435.35 413.74,435.65 Q 411.12,435.89 408.67,435.19 Q 406.62,434.60 405.67,433.23 Z"/>
<path fill="#ffffff" d="M 302.23,450.35 Q 300.82,449.27 300.71,447.49 Q 300.22,439.27 304.32,432.22 A 0.52,0.34 -52.9 0 1 305.00,431.97 Q 305.17,432.18 304.95,432.69 Q 302.84,437.77 302.54,443.23 Q 302.47,444.68 303.13,445.60 Q 304.67,447.71 306.32,444.60 Q 306.54,444.19 306.76,443.95 Q 307.94,442.70 307.43,445.04 Q 306.83,447.74 305.19,449.93 Q 303.92,451.63 302.23,450.35 Z"/>
<path fill="#1f88c8" d="M 365.54,435.25 Q 367.95,438.62 370.05,442.20 Q 382.63,463.64 397.56,482.19 Q 398.87,483.81 398.50,485.71 Q 390.20,491.51 380.54,494.50 Q 373.51,496.69 366.66,495.21 Q 361.19,494.03 357.58,490.88 Q 353.54,487.38 352.06,481.94 Q 351.36,479.35 351.12,476.16 Q 350.93,473.66 351.29,470.35 Q 352.50,459.18 355.00,449.25 Q 355.37,447.78 354.29,447.25 L 354.25,445.96 Q 361.50,442.31 365.54,435.25 Z"/>
<path fill="#ffffff" d="M 257.53,438.20 Q 259.16,440.86 257.87,444.34 Q 254.05,454.66 244.69,459.94 Q 244.38,460.11 244.20,459.90 A 0.53,0.38 -42.5 0 1 244.32,459.30 Q 251.46,451.94 253.19,448.44 Q 256.34,442.05 249.84,443.37 Q 249.34,443.47 248.76,443.87 Q 247.15,444.98 247.60,443.04 Q 247.74,442.44 247.82,441.93 Q 248.27,438.97 250.50,437.25 Q 252.34,435.83 254.45,436.12 Q 256.43,436.39 257.53,438.20 Z"/>
<path fill="#239cd7" d="M 475.75,506.29 Q 474.59,509.23 477.50,510.80 Q 479.52,511.88 481.50,513.04 Q 462.07,522.21 444.00,533.79 Q 438.32,529.70 436.31,527.69 Q 428.38,519.74 424.44,516.81 Q 422.57,515.43 423.51,514.36 A 0.28,0.19 -51.1 0 0 423.54,513.99 Q 423.43,513.92 423.25,513.96 Q 427.92,512.89 430.44,511.19 Q 435.07,508.05 438.72,503.13 Q 439.16,502.53 444.87,493.48 Q 451.10,483.60 457.11,473.88 Q 458.26,472.03 457.97,474.19 Q 456.60,484.45 458.76,494.29 Q 461.73,507.81 475.75,506.29 Z"/>
<path fill="#ffffff" d="M 630.54,582.25 Q 634.11,594.63 634.75,605.50 Q 635.82,623.65 625.75,639.46 Q 618.85,649.98 607.19,660.44 Q 596.33,670.18 583.67,677.45 Q 580.96,679.00 582.42,676.23 Q 583.56,674.05 586.53,671.50 Q 599.02,660.76 610.29,648.75 Q 620.00,638.28 625.21,625.00 Q 628.35,617.03 627.40,608.51 Q 626.50,600.34 624.44,594.56 Q 616.72,572.90 602.48,552.82 Q 590.87,536.44 579.58,519.33 Q 578.90,518.30 578.98,519.53 L 584.25,593.54 Q 585.36,608.67 584.00,621.00 Q 582.87,631.29 578.00,642.21 Q 573.59,651.22 565.69,655.69 Q 563.88,656.71 561.25,657.16 Q 559.16,657.52 556.62,657.28 Q 544.80,656.17 536.19,648.56 Q 532.25,645.09 513.56,627.68 Q 513.41,627.54 513.27,627.52 Q 512.92,627.47 513.11,627.96 Q 514.65,632.01 516.11,636.09 Q 517.60,640.29 517.40,644.61 Q 517.22,648.57 515.89,652.96 Q 513.10,662.21 504.21,667.22 Q 493.81,673.08 482.77,677.62 A 0.82,0.81 81.2 0 0 482.27,678.31 Q 481.27,688.58 476.71,697.42 Q 473.20,704.24 464.84,712.94 Q 452.43,725.88 437.59,736.11 Q 429.20,741.90 419.00,745.50 Q 412.20,747.90 405.50,747.84 Q 390.06,747.69 382.81,735.19 Q 378.84,728.33 378.06,720.06 Q 377.48,713.95 378.62,704.46 Q 380.01,692.90 384.21,681.89 A 0.30,0.29 10.2 0 0 383.93,681.50 Q 379.79,681.52 375.66,680.68 Q 364.13,678.31 359.86,668.17 Q 358.88,665.85 358.21,661.68 Q 357.72,658.62 357.26,655.55 A 0.39,0.38 -15.3 0 0 356.73,655.25 Q 319.16,670.50 279.73,679.92 Q 258.70,684.95 231.75,687.00 Q 212.12,688.49 194.50,684.00 Q 187.14,682.12 180.44,677.91 Q 173.41,673.48 169.26,667.79 Q 163.09,659.36 162.35,648.24 Q 161.34,632.95 168.12,618.82 Q 168.56,617.89 167.57,618.16 Q 161.77,619.75 157.56,617.10 Q 154.47,615.15 152.88,610.78 Q 151.49,606.96 151.43,602.75 Q 151.24,588.63 156.19,575.44 Q 161.20,562.07 169.35,550.36 Q 169.58,550.04 169.82,549.81 Q 171.40,548.27 170.51,550.62 Q 164.95,565.34 160.87,580.53 Q 159.32,586.29 159.31,592.25 Q 159.30,595.95 160.66,599.22 Q 162.04,602.55 164.57,603.69 Q 166.73,604.65 169.15,604.00 Q 170.92,603.52 172.81,601.68 Q 176.65,597.92 179.51,593.30 Q 179.89,592.69 180.28,592.48 Q 181.33,591.92 180.83,594.21 Q 177.88,607.71 172.22,620.26 Q 169.77,625.70 169.08,628.62 Q 168.04,632.98 167.82,637.50 Q 167.48,644.57 171.69,649.81 Q 175.13,654.10 180.44,657.23 Q 191.60,663.81 204.08,666.24 Q 211.65,667.71 223.97,668.20 Q 239.82,668.84 257.31,666.56 Q 282.64,663.27 311.81,654.81 Q 335.90,647.83 359.33,638.86 Q 362.35,637.70 365.39,637.02 Q 367.96,636.45 367.25,638.99 Q 365.53,645.18 366.50,651.50 Q 367.13,655.61 370.21,658.34 Q 372.63,660.49 376.87,661.60 Q 380.93,662.65 385.14,662.57 Q 389.86,662.47 392.85,661.79 Q 396.66,660.92 399.99,658.43 A 2.06,2.05 62.1 0 0 400.70,656.10 Q 399.19,651.75 396.31,648.19 Q 395.11,646.70 394.71,644.65 Q 394.39,643.07 395.06,640.92 Q 396.92,634.92 399.14,629.28 Q 400.39,626.11 402.30,628.92 Q 410.49,640.95 408.61,655.51 Q 407.22,666.30 400.25,674.10 Q 397.58,677.08 394.68,678.73 Q 391.47,680.54 387.77,681.25 A 0.83,0.81 2.7 0 0 387.12,681.83 Q 383.78,693.05 382.56,704.06 Q 382.00,709.09 383.49,714.89 Q 386.30,725.93 396.81,729.44 Q 404.44,731.98 412.94,730.44 Q 423.07,728.59 434.50,721.79 Q 454.20,710.08 469.85,693.35 Q 473.99,688.93 475.00,686.00 Q 475.88,683.46 474.44,679.96 A 0.58,0.56 -17.5 0 0 473.77,679.62 Q 463.41,682.19 453.11,680.31 Q 447.31,679.26 444.45,676.81 Q 440.42,673.37 440.50,667.50 Q 440.70,653.94 450.69,645.44 Q 455.92,640.99 461.73,642.13 Q 466.02,642.97 470.64,647.67 Q 476.87,654.02 480.69,662.46 A 0.53,0.53 66.9 0 0 481.37,662.74 Q 496.28,656.82 509.69,648.94 Q 513.26,646.84 511.96,643.40 Q 508.87,635.23 503.06,628.70 Q 492.43,616.76 479.96,606.83 Q 473.31,601.54 473.24,601.47 Q 452.91,584.91 432.31,568.46 A 3.55,2.90 22.9 0 1 430.98,565.95 L 430.96,557.50 Q 431.54,551.42 433.00,545.50 Q 433.87,542.00 435.69,540.19 Q 438.43,537.47 444.00,533.79 Q 462.07,522.21 481.50,513.04 Q 501.57,503.34 522.19,494.85 Q 533.73,490.10 545.70,486.57 Q 553.29,484.34 560.44,484.31 Q 565.51,484.29 566.87,489.02 Q 567.01,489.48 567.19,489.03 L 571.31,478.56 Q 572.11,476.53 572.94,478.31 Q 574.86,482.46 576.61,486.69 Q 578.48,491.21 580.73,494.83 Q 596.29,519.88 612.38,544.60 Q 623.88,562.26 630.54,582.25 ZM 566.54,496.75 Q 562.57,509.83 554.19,518.44 Q 542.89,530.03 534.91,543.73 Q 534.12,545.08 534.25,543.52 Q 534.65,538.56 536.84,534.14 Q 538.77,530.23 541.00,526.50 Q 542.86,523.39 546.25,519.61 Q 553.26,511.76 558.99,503.57 Q 561.15,500.49 557.45,499.81 Q 552.63,498.94 547.95,499.79 Q 546.02,500.14 539.43,502.16 Q 535.20,503.45 531.06,505.05 Q 506.74,514.42 483.50,526.21 Q 461.65,536.31 441.50,549.46 L 434.85,554.45 A 0.66,0.62 41.8 0 0 434.94,555.51 Q 489.80,588.89 537.44,631.06 Q 543.79,636.68 550.87,638.96 Q 557.01,640.93 562.75,639.80 Q 569.04,638.57 573.76,634.09 Q 575.30,632.63 575.50,630.52 Q 575.77,627.59 576.01,624.68 Q 576.25,621.78 576.10,618.82 Q 575.59,609.15 574.96,599.50 L 572.96,570.50 Q 569.69,528.44 569.00,507.50 Q 568.76,500.15 567.46,496.25 Q 566.81,494.02 566.54,496.75 ZM 451.19,663.81 Q 458.03,667.09 466.03,664.41 A 0.36,0.36 61.9 0 0 466.20,663.85 Q 463.08,659.75 459.69,658.06 Q 455.97,656.21 451.91,657.80 Q 450.02,658.55 449.39,660.08 Q 448.40,662.47 451.19,663.81 Z"/>
<path fill="#25a9e0" d="M 567.46,496.25 Q 567.08,496.67 566.54,496.75 Q 566.81,494.02 567.46,496.25 Z"/>
<path fill="#25a8df" d="M 567.46,496.25 Q 568.76,500.15 569.00,507.50 Q 569.69,528.44 572.96,570.50 L 572.50,570.39 A 0.36,0.34 -70.4 0 1 572.28,569.90 Q 572.77,568.81 571.75,568.75 Q 569.28,568.60 566.65,567.52 Q 562.32,565.75 562.24,565.72 Q 540.48,558.08 518.44,546.31 Q 516.25,545.14 515.05,543.65 A 0.37,0.37 -45.5 0 0 514.47,543.66 Q 513.74,544.57 512.54,544.75 Q 514.28,542.46 511.94,541.31 Q 509.16,539.95 504.79,540.50 Q 504.28,539.58 504.20,538.56 A 1.03,0.88 -79.1 0 0 503.77,537.80 Q 496.23,532.97 488.81,527.94 Q 488.45,527.70 487.57,526.68 Q 486.93,525.93 485.93,525.74 A 1.34,0.70 -44.8 0 0 485.06,526.01 Q 484.36,526.49 483.50,526.21 Q 506.74,514.42 531.06,505.05 Q 535.20,503.45 539.43,502.16 Q 546.02,500.14 547.95,499.79 Q 552.63,498.94 557.45,499.81 Q 561.15,500.49 558.99,503.57 Q 553.26,511.76 546.25,519.61 Q 542.86,523.39 541.00,526.50 Q 538.77,530.23 536.84,534.14 Q 534.65,538.56 534.25,543.52 Q 534.12,545.08 534.91,543.73 Q 542.89,530.03 554.19,518.44 Q 562.57,509.83 566.54,496.75 Q 567.08,496.67 567.46,496.25 Z"/>
<path fill="#1e85c6" d="M 423.25,513.96 Q 423.43,513.92 423.54,513.99 A 0.28,0.19 -51.1 0 1 423.51,514.36 Q 422.57,515.43 424.44,516.81 Q 428.38,519.74 436.31,527.69 Q 438.32,529.70 444.00,533.79 Q 438.43,537.47 435.69,540.19 Q 433.87,542.00 433.00,545.50 Q 431.54,551.42 430.96,557.50 L 430.10,558.39 A 0.55,0.55 -48.6 0 1 429.36,558.44 Q 422.47,552.84 415.88,546.89 Q 415.83,546.84 413.29,545.01 Q 410.98,543.35 410.75,540.29 Q 419.25,536.91 427.86,533.83 Q 430.24,532.99 431.15,531.95 Q 432.43,530.49 432.78,528.29 A 0.74,0.74 -5.3 0 0 431.80,527.48 L 404.54,537.25 Q 404.88,536.65 404.25,536.00 Q 399.56,531.16 394.79,526.39 Q 391.96,523.56 387.69,518.66 Q 384.57,515.08 380.56,510.94 Q 380.03,510.39 380.71,509.75 Q 391.96,505.74 401.34,498.29 A 0.71,0.71 61.5 0 1 402.45,498.62 Q 404.90,505.88 410.94,510.31 Q 416.70,514.55 423.25,513.96 Z"/>
<path fill="#ffffff" d="M 201.29,533.62 Q 207.40,535.98 210.75,541.57 A 1.42,1.36 35.3 0 1 210.93,542.50 Q 210.46,545.50 208.52,547.81 A 1.54,1.36 11.0 0 1 207.70,548.29 Q 201.74,549.58 196.05,552.45 A 1.82,1.82 -22.7 0 0 195.14,554.66 Q 199.98,569.13 199.80,584.74 Q 199.78,587.01 199.44,589.23 Q 199.10,591.46 198.66,593.68 Q 198.57,594.13 198.29,594.22 A 0.51,0.37 83.6 0 1 197.81,593.69 Q 197.80,580.27 194.85,567.18 Q 193.72,562.15 192.74,557.10 Q 190.68,546.54 200.63,543.21 Q 202.26,542.66 200.73,541.87 Q 197.99,540.46 196.60,542.89 Q 195.88,544.15 194.94,544.77 Q 194.22,545.25 194.24,544.38 Q 194.38,539.19 196.94,535.19 Q 198.35,532.98 198.00,531.75 Q 195.93,524.43 192.20,517.83 A 0.71,0.70 -27.1 0 0 191.28,517.54 Q 189.32,518.46 187.89,518.00 Q 186.74,517.64 185.30,516.25 Q 182.68,513.72 185.63,509.51 Q 186.19,508.69 186.47,507.75 Q 186.82,506.56 188.79,507.10 Q 193.41,508.37 195.72,512.60 Q 198.76,518.19 199.67,524.00 Q 200.05,526.43 200.50,524.01 Q 201.75,517.26 203.69,510.69 Q 204.36,508.43 206.58,505.80 Q 209.49,502.36 212.72,505.53 Q 216.52,509.28 213.61,513.74 A 1.09,1.03 40.6 0 1 211.95,513.82 L 210.00,511.75 Q 208.29,509.92 207.06,512.06 Q 204.74,516.12 203.97,520.74 Q 202.93,526.97 200.97,532.96 A 0.55,0.53 19.9 0 0 201.29,533.62 Z"/>
<path fill="#239ed8" d="M 625.21,625.00 Q 617.13,624.07 609.12,622.68 Q 609.01,622.66 607.84,622.22 Q 606.94,621.88 606.21,622.75 L 607.70,616.72 A 0.74,0.62 -70.3 0 0 607.41,615.94 Q 607.03,615.74 606.81,616.31 Q 605.65,619.31 603.22,620.77 Q 601.10,622.04 600.32,619.70 Q 599.16,616.27 599.54,612.82 Q 599.68,611.50 601.03,606.18 Q 602.11,601.92 603.58,597.76 Q 603.70,597.41 603.69,597.10 Q 603.64,595.37 602.71,597.25 Q 600.25,597.79 597.75,597.24 Q 591.87,595.95 586.05,594.44 A 0.87,0.60 -57.5 0 0 585.31,594.75 Q 584.81,595.31 584.25,593.54 L 578.98,519.53 Q 578.90,518.30 579.58,519.33 Q 590.87,536.44 602.48,552.82 Q 616.72,572.90 624.44,594.56 Q 626.50,600.34 627.40,608.51 Q 628.35,617.03 625.21,625.00 Z"/>
<path fill="#ffffff" d="M 307.02,527.68 L 309.01,527.80 Q 309.73,527.85 309.97,527.93 Q 311.87,528.56 311.12,526.55 Q 310.08,523.77 312.84,521.04 Q 314.05,519.85 314.38,521.51 Q 315.69,528.12 312.04,533.35 A 1.55,1.52 -81.3 0 1 311.28,533.92 Q 307.54,535.21 304.59,533.45 A 1.27,1.27 39.4 0 0 303.07,533.61 Q 298.38,537.97 293.18,537.20 Q 289.32,536.64 289.27,536.64 Q 281.64,536.54 275.69,541.94 Q 269.84,547.25 266.44,550.93 Q 260.51,557.34 251.85,558.70 A 0.43,0.24 -4.6 0 1 251.35,558.47 Q 251.37,558.35 251.47,558.19 Q 251.55,558.07 251.70,557.98 Q 256.33,555.30 260.56,552.06 Q 263.79,549.59 268.15,544.63 Q 273.89,538.10 278.94,533.69 Q 284.88,528.49 292.82,529.73 Q 292.87,529.74 295.64,530.48 Q 300.08,531.66 302.44,527.69 Q 304.24,524.64 305.45,523.40 A 0.67,0.44 -44.9 0 1 306.25,523.23 Q 306.82,523.84 306.36,526.58 A 0.97,0.76 -82.7 0 0 307.02,527.68 Z"/>
<path fill="#ffffff" d="M 342.78,543.39 Q 340.48,542.11 340.50,539.48 Q 340.55,529.69 345.31,521.73 A 0.55,0.35 -53.0 0 1 346.01,521.47 Q 346.18,521.69 345.98,522.20 Q 343.84,527.74 342.92,533.59 Q 342.71,534.92 342.88,535.91 Q 343.09,537.08 343.56,538.19 Q 344.38,540.09 346.31,538.06 Q 347.22,537.12 347.81,535.95 Q 347.96,535.66 348.17,535.50 Q 349.02,534.86 348.66,536.03 Q 348.56,536.34 348.53,536.61 Q 348.16,539.37 346.80,541.81 Q 345.17,544.72 342.78,543.39 Z"/>
<path fill="#2195d2" d="M 504.79,540.50 Q 499.34,541.34 494.65,544.07 Q 492.57,545.28 491.85,546.48 Q 490.46,548.79 493.31,550.69 Q 496.68,552.93 503.70,555.53 Q 506.77,556.66 508.82,559.20 Q 510.76,561.59 507.84,560.61 Q 500.64,558.20 493.36,555.33 Q 489.17,553.68 485.37,550.02 Q 484.77,549.44 484.74,550.27 Q 484.46,557.00 490.91,559.48 Q 498.90,562.55 505.72,564.14 Q 507.57,564.58 509.07,563.39 Q 512.09,560.99 512.45,558.47 Q 512.73,556.48 510.88,554.48 Q 509.14,552.61 507.00,552.00 Q 501.40,550.41 496.55,547.18 Q 494.41,545.76 496.89,545.07 Q 500.57,544.06 504.85,544.00 Q 507.21,543.96 507.62,544.11 Q 508.81,544.54 509.82,546.17 A 0.62,0.54 54.3 0 0 510.68,546.37 L 512.54,544.75 Q 513.74,544.57 514.47,543.66 A 0.37,0.37 -45.5 0 1 515.05,543.65 Q 516.25,545.14 518.44,546.31 Q 540.48,558.08 562.24,565.72 Q 562.32,565.75 566.65,567.52 Q 569.28,568.60 571.75,568.75 Q 572.77,568.81 572.28,569.90 A 0.36,0.34 -70.4 0 0 572.50,570.39 L 572.96,570.50 L 574.96,599.50 Q 574.49,600.52 573.71,600.10 Q 572.86,599.64 572.69,599.59 Q 553.56,594.11 535.26,586.26 Q 535.00,586.14 534.34,586.20 Q 533.92,586.23 533.50,585.96 Q 537.80,582.66 541.41,578.63 A 0.71,0.66 -55.4 0 1 542.22,578.45 Q 543.32,578.99 544.18,580.08 A 0.77,0.76 -44.4 0 0 545.38,580.09 Q 546.26,579.00 546.94,577.68 Q 547.70,576.23 547.28,575.22 Q 546.77,574.02 545.14,573.35 A 1.36,1.35 -68.9 0 1 544.38,571.62 Q 545.44,568.82 545.38,565.77 Q 545.33,563.50 544.57,562.36 Q 543.29,560.43 540.44,561.69 Q 535.62,563.80 534.21,568.69 Q 533.48,571.23 534.76,573.12 Q 535.98,574.91 538.33,576.37 A 0.70,0.69 -50.5 0 1 538.43,577.48 Q 533.63,581.90 528.64,584.95 Q 520.42,589.98 512.04,594.75 Q 478.06,578.09 444.31,552.19 Q 441.96,550.39 441.50,549.46 Q 461.65,536.31 483.50,526.21 Q 484.36,526.49 485.06,526.01 A 1.34,0.70 -44.8 0 1 485.93,525.74 Q 486.93,525.93 487.57,526.68 Q 488.45,527.70 488.81,527.94 Q 496.23,532.97 503.77,537.80 A 1.03,0.88 -79.1 0 1 504.20,538.56 Q 504.28,539.58 504.79,540.50 Z"/>
<path fill="#ffffff" d="M 410.75,540.29 Q 380.63,551.29 350.70,562.76 Q 348.51,563.60 347.29,564.34 Q 345.61,565.36 344.26,566.63 A 1.26,1.21 -54.4 0 0 344.55,568.68 L 350.59,571.27 A 1.15,0.91 8.4 0 1 351.21,571.93 Q 351.91,574.42 351.31,576.96 A 0.60,0.58 8.0 0 1 350.69,577.41 Q 346.07,577.09 342.56,574.69 Q 339.79,572.79 340.73,569.25 Q 342.68,561.90 349.06,557.81 Q 350.68,556.78 360.10,553.41 Q 382.36,545.46 404.54,537.25 L 431.80,527.48 A 0.74,0.74 -5.3 0 1 432.78,528.29 Q 432.43,530.49 431.15,531.95 Q 430.24,532.99 427.86,533.83 Q 419.25,536.91 410.75,540.29 Z"/>
<path fill="#ffffff" d="M 504.79,540.50 Q 509.16,539.95 511.94,541.31 Q 514.28,542.46 512.54,544.75 L 510.68,546.37 A 0.62,0.54 54.3 0 1 509.82,546.17 Q 508.81,544.54 507.62,544.11 Q 507.21,543.96 504.85,544.00 Q 500.57,544.06 496.89,545.07 Q 494.41,545.76 496.55,547.18 Q 501.40,550.41 507.00,552.00 Q 509.14,552.61 510.88,554.48 Q 512.73,556.48 512.45,558.47 Q 512.09,560.99 509.07,563.39 Q 507.57,564.58 505.72,564.14 Q 498.90,562.55 490.91,559.48 Q 484.46,557.00 484.74,550.27 Q 484.77,549.44 485.37,550.02 Q 489.17,553.68 493.36,555.33 Q 500.64,558.20 507.84,560.61 Q 510.76,561.59 508.82,559.20 Q 506.77,556.66 503.70,555.53 Q 496.68,552.93 493.31,550.69 Q 490.46,548.79 491.85,546.48 Q 492.57,545.28 494.65,544.07 Q 499.34,541.34 504.79,540.50 Z"/>
<path fill="#1e84c6" d="M 441.50,549.46 Q 441.96,550.39 444.31,552.19 Q 478.06,578.09 512.04,594.75 L 511.34,595.78 Q 511.06,596.19 511.54,596.07 Q 523.50,593.12 533.50,585.96 Q 533.92,586.23 534.34,586.20 Q 535.00,586.14 535.26,586.26 Q 553.56,594.11 572.69,599.59 Q 572.86,599.64 573.71,600.10 Q 574.49,600.52 574.96,599.50 Q 575.59,609.15 576.10,618.82 Q 576.25,621.78 576.01,624.68 Q 575.77,627.59 575.50,630.52 Q 575.30,632.63 573.76,634.09 Q 569.04,638.57 562.75,639.80 Q 557.01,640.93 550.87,638.96 Q 543.79,636.68 537.44,631.06 Q 489.80,588.89 434.94,555.51 A 0.66,0.62 41.8 0 1 434.85,554.45 L 441.50,549.46 Z"/>
<path fill="#ffffff" d="M 533.50,585.96 Q 523.50,593.12 511.54,596.07 Q 511.06,596.19 511.34,595.78 L 512.04,594.75 Q 520.42,589.98 528.64,584.95 Q 533.63,581.90 538.43,577.48 A 0.70,0.69 -50.5 0 0 538.33,576.37 Q 535.98,574.91 534.76,573.12 Q 533.48,571.23 534.21,568.69 Q 535.62,563.80 540.44,561.69 Q 543.29,560.43 544.57,562.36 Q 545.33,563.50 545.38,565.77 Q 545.44,568.82 544.38,571.62 A 1.36,1.35 -68.9 0 0 545.14,573.35 Q 546.77,574.02 547.28,575.22 Q 547.70,576.23 546.94,577.68 Q 546.26,579.00 545.38,580.09 A 0.77,0.76 -44.4 0 1 544.18,580.08 Q 543.32,578.99 542.22,578.45 A 0.71,0.66 -55.4 0 0 541.41,578.63 Q 537.80,582.66 533.50,585.96 ZM 538.29,568.84 Q 541.66,572.50 541.94,569.79 Q 542.07,568.56 541.48,567.44 Q 540.31,565.25 538.37,567.06 A 1.26,1.26 45.4 0 0 538.29,568.84 Z"/>
<path fill="#ffffff" d="M 267.19,596.31 Q 264.83,594.48 264.79,590.69 Q 264.64,577.50 271.47,566.26 Q 272.13,565.19 272.23,566.24 Q 272.26,566.48 272.17,566.75 Q 270.45,571.90 268.96,577.12 Q 267.48,582.34 268.31,587.69 Q 268.92,591.57 271.19,590.44 Q 273.85,589.11 275.07,586.42 Q 275.29,585.93 275.54,585.67 Q 276.60,584.54 276.17,586.58 Q 276.06,587.13 276.00,587.56 Q 275.30,592.75 272.81,595.56 Q 270.13,598.60 267.19,596.31 Z"/>
<path fill="#239cd7" d="M 538.29,568.84 A 1.26,1.26 48.5 0 1 538.37,567.06 Q 540.31,565.25 541.48,567.44 Q 542.07,568.56 541.94,569.79 Q 541.66,572.50 538.29,568.84 Z"/>
<path fill="#ffffff" d="M 317.22,593.06 Q 317.43,594.42 317.71,593.07 Q 319.28,585.49 321.31,578.56 Q 321.82,576.84 323.33,574.95 Q 324.80,573.12 326.18,572.68 Q 328.25,572.02 330.11,573.89 Q 334.06,577.84 330.80,582.58 A 0.73,0.72 40.7 0 1 329.67,582.66 L 327.19,580.06 Q 325.19,577.97 323.75,581.75 Q 321.22,588.40 320.19,595.44 Q 319.32,601.34 315.75,607.30 Q 312.69,612.43 307.51,616.61 Q 300.13,622.58 291.17,626.15 Q 285.47,628.42 279.72,630.58 Q 279.18,630.78 278.75,630.79 Q 277.43,630.84 278.04,629.91 Q 278.25,629.60 278.69,629.34 Q 293.42,620.81 307.49,611.20 Q 311.24,608.64 314.77,604.51 Q 315.88,603.21 315.51,601.53 Q 313.68,593.30 309.43,586.05 A 0.74,0.74 48.1 0 0 308.19,585.98 Q 307.18,587.36 305.31,586.38 Q 302.67,585.00 301.23,582.44 A 1.10,1.08 -50.0 0 1 301.16,581.54 Q 302.31,578.32 304.65,575.86 A 0.94,0.94 -63.1 0 1 305.50,575.58 Q 310.56,576.54 313.31,581.69 Q 316.34,587.34 317.22,593.06 Z"/>
<path fill="#ffffff" d="M 225.72,605.45 Q 223.45,604.30 223.25,601.76 Q 222.14,587.33 229.79,575.18 Q 229.88,575.02 230.00,574.67 Q 230.12,574.29 230.40,574.38 A 0.42,0.33 -72.0 0 1 230.58,574.88 Q 228.42,581.62 226.78,588.51 Q 225.95,591.98 226.44,596.06 Q 226.77,598.91 228.82,599.11 Q 230.27,599.26 231.57,597.74 Q 232.78,596.32 233.65,594.64 A 0.70,0.38 -68.7 0 1 234.15,594.22 Q 234.31,594.22 234.42,594.37 Q 234.50,594.47 234.49,594.65 Q 234.03,599.36 231.71,603.48 Q 229.52,607.38 225.72,605.45 Z"/>
<path fill="#2090ce" d="M 658.25,584.21 Q 663.77,611.96 662.71,640.25 Q 662.12,641.15 662.20,641.85 A 0.54,0.54 87.2 0 1 661.66,642.45 Q 645.24,642.00 629.25,640.25 Q 626.90,639.99 625.75,639.46 Q 635.82,623.65 634.75,605.50 Q 634.11,594.63 630.54,582.25 Q 631.24,582.34 631.65,581.96 A 1.03,0.68 -53.9 0 1 632.43,581.67 Q 634.62,582.15 636.81,582.58 Q 638.50,582.91 641.23,582.93 Q 643.58,582.95 645.90,583.33 Q 648.95,583.85 650.53,583.91 Q 654.39,584.08 658.25,584.21 Z"/>
<path fill="#ffffff" d="M 401.36,598.32 Q 401.26,598.07 399.98,597.88 Q 386.91,595.90 377.00,597.00 Q 372.33,597.52 375.00,594.00 Q 375.53,593.30 377.41,589.90 Q 378.89,587.24 380.19,586.07 Q 383.56,583.06 388.31,583.11 Q 392.06,583.15 392.21,583.14 Q 403.48,582.63 411.75,585.00 Q 416.42,586.34 413.83,590.77 Q 409.64,597.92 404.05,604.04 Q 400.15,608.30 394.68,610.17 Q 385.22,613.41 375.81,615.67 Q 374.25,616.05 375.42,614.95 Q 377.08,613.40 379.05,612.30 Q 389.24,606.61 400.65,600.26 A 1.57,1.57 65.1 0 0 401.36,598.32 Z"/>
<path fill="#1e84c6" d="M 584.25,593.54 Q 584.81,595.31 585.31,594.75 A 0.87,0.60 -57.5 0 1 586.05,594.44 Q 591.87,595.95 597.75,597.24 Q 600.25,597.79 602.71,597.25 Q 597.37,606.56 596.30,617.26 Q 595.96,620.65 596.77,623.89 Q 597.32,626.09 598.58,627.09 Q 600.38,628.52 602.69,627.44 Q 605.13,626.29 606.21,622.75 Q 606.94,621.88 607.84,622.22 Q 609.01,622.66 609.12,622.68 Q 617.13,624.07 625.21,625.00 Q 620.00,638.28 610.29,648.75 Q 609.17,648.45 609.63,647.70 A 0.30,0.28 -70.2 0 0 609.44,647.25 Q 594.75,645.37 580.31,641.53 A 0.93,0.92 21.0 0 0 579.25,642.00 Q 578.64,643.20 578.00,642.21 Q 582.87,631.29 584.00,621.00 Q 585.36,608.67 584.25,593.54 Z"/>
<path fill="#ffffff" d="M 606.21,622.75 Q 605.13,626.29 602.69,627.44 Q 600.38,628.52 598.58,627.09 Q 597.32,626.09 596.77,623.89 Q 595.96,620.65 596.30,617.26 Q 597.37,606.56 602.71,597.25 Q 603.64,595.37 603.69,597.10 Q 603.70,597.41 603.58,597.76 Q 602.11,601.92 601.03,606.18 Q 599.68,611.50 599.54,612.82 Q 599.16,616.27 600.32,619.70 Q 601.10,622.04 603.22,620.77 Q 605.65,619.31 606.81,616.31 Q 607.03,615.74 607.41,615.94 A 0.74,0.62 -70.3 0 1 607.70,616.72 L 606.21,622.75 Z"/>
<path fill="#ffffff" d="M 467.53,610.99 A 2.17,1.46 -5.3 0 1 466.42,611.90 L 427.96,626.08 A 0.72,0.69 -28.9 0 1 427.16,625.87 Q 426.59,625.15 426.35,624.23 Q 426.23,623.76 425.95,623.35 Q 424.88,621.78 426.52,621.37 Q 427.86,621.03 427.94,621.00 Q 448.24,613.64 468.22,606.44 Q 470.14,605.74 469.27,607.50 L 467.53,610.99 Z"/>
<path fill="#ffffff" d="M 254.14,629.98 L 257.60,622.93 A 1.19,1.15 27.9 0 1 259.24,622.45 Q 264.46,625.41 270.13,630.03 A 1.50,1.50 29.5 0 1 270.59,631.69 Q 268.77,636.91 265.48,641.57 A 0.87,0.87 34.5 0 1 264.28,641.79 L 254.34,635.00 A 1.04,0.96 -58.3 0 0 252.91,635.40 L 248.97,642.46 A 0.96,0.86 32.1 0 1 247.63,642.69 L 236.61,634.91 A 0.67,0.63 28.5 0 1 236.36,634.15 Q 238.64,628.26 241.51,623.56 A 1.13,1.10 32.3 0 1 243.08,623.23 L 253.51,630.17 A 0.45,0.42 -59.9 0 0 254.14,629.98 Z"/>
<path fill="#1b75bb" d="M 451.19,663.81 Q 448.40,662.47 449.39,660.08 Q 450.02,658.55 451.91,657.80 Q 455.97,656.21 459.69,658.06 Q 463.08,659.75 466.20,663.85 A 0.36,0.36 61.9 0 1 466.03,664.41 Q 458.03,667.09 451.19,663.81 Z"/>
<path fill="#ffffff" d="M 549.68,692.63 Q 549.84,692.51 549.90,692.18 Q 550.88,687.17 552.22,682.25 Q 553.58,677.27 553.78,676.75 Q 554.95,673.77 557.31,672.06 Q 559.86,670.22 562.29,672.72 Q 566.29,676.85 563.59,680.75 Q 562.42,682.43 561.17,680.81 Q 559.74,678.95 558.48,678.74 Q 557.28,678.55 556.27,680.33 Q 555.15,682.32 554.59,684.57 Q 552.99,690.97 551.62,697.42 Q 551.02,700.25 549.41,702.43 Q 548.25,704.00 547.94,702.08 Q 546.66,694.09 542.86,686.99 Q 542.81,686.88 542.35,685.87 Q 541.52,684.01 539.82,685.36 A 1.33,0.97 -53.8 0 1 538.94,685.64 Q 536.72,685.31 534.46,683.10 A 0.58,0.58 -54.2 0 0 533.54,683.25 Q 531.66,686.92 529.36,689.88 Q 527.23,692.63 523.82,695.31 Q 516.32,701.23 507.41,704.87 Q 501.66,707.22 495.74,709.10 Q 493.28,709.88 494.76,708.36 Q 495.03,708.08 495.42,707.86 Q 509.28,699.79 522.67,690.98 Q 531.52,685.15 535.94,675.83 Q 536.74,674.13 538.57,674.58 Q 541.95,675.42 543.62,677.64 Q 548.52,684.16 549.28,692.30 Q 549.34,692.91 549.68,692.63 Z"/>
<path fill="#ffffff" d="M 165.65,699.55 A 3.11,3.08 -71.7 0 1 164.68,697.60 Q 163.70,688.02 168.91,679.17 Q 169.78,677.67 169.71,679.38 Q 169.70,679.67 169.57,679.97 Q 166.80,686.38 166.96,693.30 Q 166.99,694.44 167.47,695.06 Q 168.29,696.14 169.50,695.57 Q 170.10,695.29 170.96,693.93 Q 171.43,693.17 172.11,692.57 Q 172.51,692.21 172.50,692.76 Q 172.42,696.29 170.39,699.06 Q 169.41,700.39 168.37,700.58 Q 167.02,700.82 165.65,699.55 Z"/>
<path fill="#25a8df" d="M 196.25,749.79 L 193.52,750.84 A 0.80,0.65 81.9 0 0 193.09,751.56 L 193.03,764.88 A 1.27,1.09 -20.4 0 1 192.52,765.80 Q 191.63,766.46 190.97,766.14 Q 190.65,765.99 190.50,765.97 Q 187.13,765.52 190.50,766.46 Q 170.92,763.52 154.36,753.53 Q 145.05,747.91 138.71,741.17 Q 127.31,729.04 123.75,713.00 Q 120.57,698.68 124.25,684.48 Q 124.83,682.28 125.02,684.55 Q 128.89,729.43 172.00,744.25 Q 182.94,748.01 196.25,749.79 Z"/>
<path fill="#24a2db" d="M 575.71,768.75 Q 574.13,767.77 572.25,767.98 Q 569.14,768.33 569.93,766.73 Q 570.14,766.31 570.14,765.81 L 570.02,754.57 A 0.77,0.67 -10.9 0 1 570.54,753.91 Q 573.17,753.01 569.75,753.00 Q 569.49,753.00 569.26,752.94 Q 566.26,752.16 569.50,752.26 Q 574.01,752.41 578.50,752.04 Q 597.73,751.55 614.50,748.25 Q 622.31,746.71 630.35,743.65 Q 638.74,740.45 645.12,736.40 Q 671.59,719.60 674.80,685.94 Q 675.20,681.77 676.17,685.85 Q 683.61,717.24 660.69,741.94 Q 652.63,750.62 640.66,756.56 Q 621.08,766.27 597.75,768.25 Q 584.88,769.34 575.71,768.75 Z"/>
<path fill="#ffffff" d="M 312.69,714.81 Q 309.99,713.92 309.84,710.25 Q 309.34,698.10 315.79,687.92 Q 315.96,687.65 316.19,687.57 Q 316.79,687.37 316.42,688.36 Q 313.80,695.37 312.61,702.77 Q 312.08,706.09 313.94,708.82 A 1.28,1.28 53.9 0 0 315.78,709.11 Q 317.72,707.62 318.92,705.35 Q 319.10,705.00 319.32,704.87 Q 319.96,704.48 319.77,705.75 Q 319.26,709.06 317.94,712.12 Q 316.27,715.99 312.69,714.81 Z"/>
<path fill="#ffffff" d="M 422.24,703.94 Q 422.44,703.70 422.48,703.25 Q 423.04,697.23 425.71,691.90 Q 426.74,689.85 427.97,689.23 Q 430.06,688.18 431.94,690.59 Q 434.04,693.28 432.04,696.04 A 0.92,0.91 45.6 0 1 430.54,696.02 Q 428.33,692.80 426.75,695.75 Q 425.57,697.95 424.99,701.79 Q 424.24,706.69 422.18,711.20 Q 421.11,713.55 420.60,711.02 Q 419.32,704.62 416.31,699.44 Q 415.67,698.33 414.54,699.33 A 0.92,0.78 -54.3 0 1 413.70,699.54 Q 411.42,698.79 410.23,696.70 A 1.27,1.18 -53.3 0 1 410.13,695.77 Q 412.53,687.44 418.25,694.50 Q 420.94,697.82 421.75,703.69 Q 421.85,704.42 422.24,703.94 Z"/>
<path fill="#1b75bb" d="M 178.18,692.31 Q 176.57,691.02 177.86,691.24 Q 178.16,691.29 178.44,691.54 Q 183.98,696.41 193.42,698.78 Q 196.85,699.64 193.34,699.21 Q 185.65,698.27 178.18,692.31 Z"/>
<path fill="#ffffff" d="M 214.70,716.57 Q 212.92,715.91 212.75,714.01 Q 211.86,703.84 217.22,695.21 Q 217.84,694.21 217.77,695.49 Q 217.76,695.73 217.67,695.99 Q 215.75,701.41 214.73,707.57 Q 214.45,709.27 215.24,710.78 Q 216.66,713.47 219.98,709.42 Q 220.69,708.55 220.60,709.67 Q 220.41,712.14 218.81,714.92 Q 218.07,716.21 217.20,716.58 Q 216.06,717.07 214.70,716.57 Z"/>
<path fill="#ffffff" d="M 356.45,708.01 L 352.29,715.52 A 0.89,0.87 32.3 0 1 351.01,715.79 L 339.65,707.78 A 0.60,0.58 30.5 0 1 339.45,707.05 L 344.55,696.66 A 1.01,0.98 -60.0 0 1 346.00,696.25 L 356.18,703.25 A 0.77,0.73 30.3 0 0 357.29,702.99 L 360.73,695.97 A 1.10,1.10 27.1 0 1 362.23,695.49 Q 366.80,697.90 370.83,701.10 Q 370.92,701.17 372.39,702.13 Q 374.72,703.65 373.26,706.66 Q 371.27,710.74 368.84,714.52 A 1.00,0.99 -56.9 0 1 367.45,714.82 L 357.10,707.85 A 0.47,0.45 -58.0 0 0 356.45,708.01 Z"/>
<path fill="#ffffff" d="M 269.43,711.19 Q 270.72,705.67 272.53,700.30 Q 273.51,697.43 276.27,696.62 A 1.27,1.16 49.1 0 1 277.20,696.73 Q 281.86,699.20 279.43,703.74 A 0.89,0.89 40.0 0 1 277.95,703.87 Q 274.81,699.87 273.34,704.70 Q 272.36,707.93 271.86,711.27 Q 271.23,715.41 269.43,719.20 Q 268.34,721.50 267.96,718.98 Q 266.99,712.62 263.45,706.98 A 0.67,0.60 64.1 0 0 262.71,706.68 L 261.70,707.04 A 1.44,0.99 -36.5 0 1 260.78,707.07 Q 254.56,704.64 258.87,700.27 Q 261.65,697.44 264.15,700.52 Q 267.99,705.25 269.22,711.20 Q 269.32,711.68 269.43,711.19 Z"/>
<path fill="#24a2db" d="M 195.50,734.04 Q 196.01,734.66 195.45,735.04 A 0.87,0.69 -22.9 0 0 195.06,735.75 Q 195.33,738.27 194.59,740.71 A 0.81,0.68 -81.9 0 1 193.95,741.28 L 190.96,741.50 Q 178.86,739.06 167.64,733.90 Q 156.01,728.56 147.44,720.06 Q 139.73,712.42 136.58,701.53 A 0.37,0.20 79.2 0 1 136.73,701.07 Q 136.88,701.09 137.06,701.44 Q 141.45,709.96 149.63,716.35 Q 158.90,723.60 169.97,727.58 Q 182.42,732.05 195.50,734.04 Z"/>
<path fill="#2299d5" d="M 546.25,745.96 Q 546.29,745.27 547.00,745.50 A 1.49,1.22 10.6 0 0 548.94,744.44 L 548.87,739.07 A 0.53,0.46 88.3 0 1 549.31,738.53 L 559.50,738.04 Q 568.50,737.67 577.50,737.28 Q 599.09,736.34 620.00,731.00 Q 632.12,727.91 643.04,721.82 Q 655.65,714.78 662.48,702.08 Q 662.92,701.26 663.25,701.58 A 0.97,0.60 -64.9 0 1 663.35,702.47 Q 658.47,717.14 645.56,726.31 Q 636.26,732.92 626.37,736.50 Q 601.13,745.65 572.75,746.25 Q 556.61,746.59 546.25,745.96 Z"/>
<path fill="#2193d0" d="M 195.50,734.04 Q 216.11,737.38 237.00,737.54 Q 235.91,738.17 237.50,738.00 Q 240.73,737.65 239.23,738.68 A 0.88,0.82 72.4 0 0 238.88,739.42 L 239.02,743.24 A 2.04,1.36 -72.8 0 0 239.29,744.15 Q 240.56,746.06 237.50,745.80 Q 234.35,745.53 231.25,746.04 Q 210.83,746.13 190.96,741.50 L 193.95,741.28 A 0.81,0.68 -81.9 0 0 194.59,740.71 Q 195.33,738.27 195.06,735.75 A 0.87,0.69 -22.9 0 1 195.45,735.04 Q 196.01,734.66 195.50,734.04 Z"/>
<path fill="#1b75bb" d="M 237.00,737.54 Q 239.50,737.52 242.01,737.62 Q 244.78,737.73 247.00,737.65 Q 263.89,737.03 280.75,738.23 Q 309.71,740.28 337.36,749.03 Q 370.50,759.51 399.63,780.49 A 1.00,1.00 44.8 0 0 400.81,780.49 Q 413.38,771.44 426.88,764.29 Q 435.44,759.75 445.00,755.87 Q 490.78,737.27 540.75,737.75 Q 550.12,737.84 559.50,738.04 L 549.31,738.53 A 0.53,0.46 88.3 0 0 548.87,739.07 L 548.94,744.44 A 1.49,1.22 10.6 0 1 547.00,745.50 Q 546.29,745.27 546.25,745.96 Q 496.13,743.19 448.65,759.03 Q 448.07,759.23 448.61,759.45 Q 449.12,759.65 449.66,759.35 Q 450.28,759.01 450.55,758.95 Q 477.14,752.57 505.25,751.25 Q 524.90,750.33 542.75,750.96 L 534.80,751.02 A 1.62,1.36 0.1 0 0 533.19,752.36 L 532.99,762.75 Q 532.98,763.16 532.77,763.69 Q 532.38,764.68 533.25,765.46 Q 505.72,763.28 471.50,765.00 Q 442.41,766.46 417.00,774.25 Q 410.01,776.39 400.70,781.26 A 0.95,0.93 -44.4 0 1 399.81,781.26 Q 388.15,774.93 375.24,771.79 Q 344.34,764.29 310.25,764.00 Q 289.15,763.82 276.75,764.46 Q 277.17,763.29 276.39,762.77 A 0.85,0.84 16.5 0 1 276.00,762.06 L 276.12,753.95 A 1.53,0.51 47.8 0 0 275.73,753.07 Q 275.11,752.21 275.80,751.14 Q 276.00,750.83 275.61,750.81 L 270.00,750.54 Q 311.50,749.51 351.82,759.21 A 0.42,0.21 20.1 0 0 352.15,759.17 Q 352.29,759.04 351.90,758.91 Q 302.61,742.60 251.25,745.75 Q 240.20,746.43 231.25,746.04 Q 234.35,745.53 237.50,745.80 Q 240.56,746.06 239.29,744.15 A 2.04,1.36 -72.8 0 1 239.02,743.24 L 238.88,739.42 A 0.88,0.82 72.4 0 1 239.23,738.68 Q 240.73,737.65 237.50,738.00 Q 235.91,738.17 237.00,737.54 Z"/>
<path fill="#208dcc" d="M 196.25,749.79 Q 220.02,752.75 246.25,751.00 Q 255.18,750.41 270.00,750.54 L 275.61,750.81 Q 276.00,750.83 275.80,751.14 Q 275.11,752.21 275.73,753.07 A 1.53,0.51 47.8 0 1 276.12,753.95 L 276.00,762.06 A 0.85,0.84 16.5 0 0 276.39,762.77 Q 277.17,763.29 276.75,764.46 Q 248.12,766.41 241.75,767.25 Q 216.06,770.64 190.50,766.46 Q 187.13,765.52 190.50,765.97 Q 190.65,765.99 190.97,766.14 Q 191.63,766.46 192.52,765.80 A 1.27,1.09 -20.4 0 0 193.03,764.88 L 193.09,751.56 A 0.80,0.65 81.9 0 1 193.52,750.84 L 196.25,749.79 Z"/>
<path fill="#1e85c6" d="M 542.75,750.96 L 578.50,752.04 Q 574.01,752.41 569.50,752.26 Q 566.26,752.16 569.26,752.94 Q 569.49,753.00 569.75,753.00 Q 573.17,753.01 570.54,753.91 A 0.77,0.67 -10.9 0 0 570.02,754.57 L 570.14,765.81 Q 570.14,766.31 569.93,766.73 Q 569.14,768.33 572.25,767.98 Q 574.13,767.77 575.71,768.75 Q 569.08,768.75 562.50,768.03 Q 547.90,766.43 533.25,765.46 Q 532.38,764.68 532.77,763.69 Q 532.98,763.16 532.99,762.75 L 533.19,752.36 A 1.62,1.36 0.1 0 1 534.80,751.02 L 542.75,750.96 Z"/>
</svg>
