<?xml version="1.0" encoding="UTF-8" standalone="no"?>
<!DOCTYPE svg PUBLIC "-//W3C//DTD SVG 1.1//EN" "http://www.w3.org/Graphics/SVG/1.1/DTD/svg11.dtd">
<svg xmlns="http://www.w3.org/2000/svg" version="1.1" viewBox="0 0 931 1019">
<path fill="#005889" d="M 683.54,773.00 Q 685.55,759.17 688.12,745.42 Q 689.49,738.09 689.98,730.68 Q 690.21,727.28 690.77,715.84 Q 691.30,705.18 690.54,694.50 L 689.21,679.25 Q 686.27,651.09 677.50,625.25 Q 654.16,556.49 599.71,509.11 Q 592.69,503.00 584.00,496.77 Q 571.92,488.11 554.56,476.69 Q 488.59,433.27 441.79,367.40 A 0.66,0.65 -43.8 0 1 441.81,366.61 Q 442.93,365.23 444.94,363.19 Q 450.93,357.07 452.26,349.13 Q 453.53,341.52 450.18,334.23 Q 445.71,324.53 434.93,319.88 A 1.03,1.01 10.1 0 1 434.31,319.01 L 429.49,255.10 A 0.85,0.85 -86.6 0 1 430.50,254.20 Q 444.82,256.95 458.75,254.70 Q 468.41,253.14 477.82,248.89 Q 506.28,236.02 518.70,205.92 Q 519.55,203.84 518.06,205.53 Q 504.03,221.41 483.55,226.81 Q 473.77,229.39 463.77,229.21 Q 442.20,228.80 424.25,216.00 Q 413.46,208.31 406.00,196.71 Q 392.41,174.69 395.75,150.00 Q 399.45,122.64 421.30,104.38 Q 421.69,104.06 421.21,104.22 Q 407.21,108.94 396.44,118.19 Q 375.29,136.35 370.10,163.11 Q 368.18,172.99 368.91,182.99 Q 370.88,210.04 389.75,230.54 Q 404.07,245.70 423.77,251.93 A 1.05,1.04 11.1 0 1 424.50,253.01 L 418.94,319.00 A 1.25,1.24 -8.9 0 1 418.17,320.05 Q 407.44,324.47 403.02,334.27 Q 399.72,341.57 400.97,349.07 Q 402.28,356.91 408.23,363.02 Q 409.58,364.42 411.48,366.76 A 0.71,0.70 -46.5 0 1 411.50,367.62 Q 392.04,394.42 369.96,417.50 Q 350.44,437.68 328.50,455.21 Q 307.44,471.27 285.23,485.68 Q 273.80,493.10 268.70,496.92 Q 209.95,540.90 182.00,608.50 Q 159.17,663.73 162.74,724.28 Q 163.24,732.89 164.70,744.19 Q 166.42,757.54 168.25,766.75 Q 168.68,768.92 168.46,769.75 Q 157.82,757.23 154.75,741.75 Q 152.70,731.40 152.30,718.76 Q 150.37,657.21 174.23,601.20 Q 178.13,592.05 182.78,583.11 Q 217.78,515.85 283.19,474.94 Q 299.42,464.78 318.28,450.28 Q 364.24,414.93 398.40,368.09 A 0.68,0.67 44.6 0 0 398.39,367.29 Q 390.53,356.90 390.56,345.44 Q 390.63,324.58 409.01,313.44 A 1.06,1.04 -11.9 0 0 409.51,312.69 L 418.06,256.89 A 0.67,0.66 -75.5 0 0 417.65,256.18 Q 375.63,239.12 365.00,195.50 Q 361.19,179.85 365.21,161.04 Q 371.59,131.15 394.81,112.81 Q 411.63,99.53 434.00,96.00 Q 437.07,95.52 447.51,93.54 A 0.57,0.30 -17.3 0 1 447.95,93.62 Q 448.11,93.78 447.76,93.98 Q 442.40,97.15 436.90,100.06 Q 411.42,113.53 403.14,139.80 Q 400.14,149.32 400.26,159.49 Q 400.59,189.60 424.06,209.19 Q 439.01,221.66 458.51,223.50 Q 468.44,224.43 478.39,222.33 Q 501.01,217.55 515.55,199.47 Q 518.78,195.45 523.61,186.95 Q 527.29,180.47 531.01,173.99 Q 531.85,172.52 531.54,174.19 Q 529.94,182.77 528.28,191.46 Q 519.92,235.19 480.94,253.44 Q 460.33,263.08 435.55,260.12 A 0.37,0.37 -1.7 0 0 435.14,260.55 L 443.85,312.82 A 1.14,1.07 12.4 0 0 444.36,313.57 Q 458.12,321.91 461.59,336.67 Q 463.48,344.70 461.78,352.47 Q 460.03,360.51 454.89,367.17 A 0.99,0.99 45.6 0 0 454.88,368.36 Q 496.64,424.50 553.68,463.77 Q 563.33,470.41 573.20,476.73 Q 597.68,492.43 618.41,512.84 Q 682.32,575.74 697.25,664.59 Q 702.82,697.76 699.64,731.24 Q 698.01,748.36 690.06,763.56 Q 687.38,768.69 683.54,773.00 Z"/>
<path fill="#208ecd" d="M 406.00,196.71 L 405.06,196.85 A 1.01,0.59 -0.1 0 0 404.35,197.27 Q 397.27,212.40 391.57,228.09 Q 391.33,228.76 390.76,229.36 Q 390.23,229.91 389.75,230.54 Q 370.88,210.04 368.91,182.99 Q 368.18,172.99 370.10,163.11 Q 375.29,136.35 396.44,118.19 Q 407.21,108.94 421.21,104.22 Q 421.69,104.06 421.30,104.38 Q 399.45,122.64 395.75,150.00 Q 392.41,174.69 406.00,196.71 Z"/>
<path fill="#25a8e0" d="M 406.00,196.71 Q 413.46,208.31 424.25,216.00 Q 442.20,228.80 463.77,229.21 Q 473.77,229.39 483.55,226.81 Q 504.03,221.41 518.06,205.53 Q 519.55,203.84 518.70,205.92 Q 506.28,236.02 477.82,248.89 Q 468.41,253.14 458.75,254.70 Q 444.82,256.95 430.50,254.20 A 0.85,0.85 -86.6 0 0 429.49,255.10 L 434.31,319.01 A 1.03,1.01 10.1 0 0 434.93,319.88 Q 445.71,324.53 450.18,334.23 Q 453.53,341.52 452.26,349.13 Q 450.93,357.07 444.94,363.19 Q 442.93,365.23 441.81,366.61 A 0.66,0.65 -43.8 0 0 441.79,367.40 Q 488.59,433.27 554.56,476.69 Q 571.92,488.11 584.00,496.77 Q 592.69,503.00 599.71,509.11 Q 654.16,556.49 677.50,625.25 Q 686.27,651.09 689.21,679.25 Q 689.21,681.32 687.90,680.53 Q 687.43,680.25 687.01,680.24 Q 683.14,680.17 679.29,679.75 Q 676.28,679.42 671.67,679.25 Q 667.84,679.12 664.05,678.41 A 0.66,0.57 -70.6 0 0 663.40,678.78 Q 663.18,679.26 662.75,679.54 Q 660.24,654.58 648.05,632.70 Q 640.23,618.66 629.56,602.69 Q 621.44,590.52 610.72,573.16 Q 607.54,568.01 605.40,563.46 Q 603.05,558.44 600.94,553.31 Q 600.20,551.52 599.44,553.44 L 595.23,564.06 Q 594.85,565.01 594.72,564.00 Q 594.41,561.73 592.70,560.55 Q 591.50,559.73 589.13,559.54 Q 583.80,559.11 577.94,560.69 Q 565.55,564.01 554.69,568.15 Q 549.04,570.30 536.20,575.78 Q 504.36,589.36 474.54,607.00 Q 474.16,605.34 472.31,604.19 Q 470.28,602.92 468.08,600.78 Q 465.77,598.54 464.04,597.14 Q 460.05,593.93 456.47,590.24 Q 456.00,589.76 455.82,589.08 Q 455.64,588.42 455.46,587.75 Q 463.27,583.68 468.56,575.31 Q 477.19,561.67 485.67,547.97 Q 486.43,546.74 486.19,548.17 Q 484.77,556.76 485.95,565.23 Q 486.93,572.22 489.37,575.82 Q 493.02,581.19 500.03,581.47 Q 503.50,581.60 507.76,579.96 Q 511.70,578.44 514.94,576.44 Q 539.55,561.24 562.59,541.53 Q 564.81,539.63 566.14,538.20 Q 568.48,535.68 569.00,534.25 Q 572.95,523.48 570.75,512.75 Q 569.86,508.43 567.12,505.02 Q 565.07,502.47 560.47,500.14 Q 551.72,495.72 542.63,492.03 Q 531.28,487.42 521.44,479.61 Q 520.36,478.76 521.74,478.75 Q 524.89,478.74 527.37,478.16 Q 528.14,477.98 528.52,477.61 Q 529.19,476.96 528.71,476.18 Q 528.41,475.67 527.46,475.19 Q 517.50,470.15 507.52,466.44 A 1.31,1.28 9.2 0 0 505.75,467.68 L 506.25,478.77 Q 506.34,480.71 508.22,481.64 Q 510.43,482.72 512.27,484.95 Q 523.18,498.15 538.88,505.04 Q 550.18,509.99 561.14,515.66 Q 563.86,517.07 566.21,519.02 Q 568.97,521.32 567.19,523.94 Q 565.54,526.36 560.83,529.88 Q 542.37,543.67 523.15,556.37 Q 520.95,557.83 513.31,562.06 Q 508.81,564.56 504.30,565.70 Q 499.12,567.01 495.33,565.21 Q 489.96,562.67 489.25,556.00 Q 488.70,550.80 489.98,543.82 Q 490.45,541.24 492.06,539.16 Q 497.34,532.31 504.05,526.80 Q 508.87,522.85 514.62,520.84 Q 520.06,518.95 524.15,519.82 Q 529.20,520.89 532.62,525.51 Q 533.82,527.14 534.41,525.20 Q 536.32,518.98 534.18,512.02 Q 533.34,509.29 530.81,507.44 Q 524.67,502.93 517.33,504.66 Q 510.64,506.24 505.69,509.44 Q 496.55,515.34 489.07,524.57 Q 481.84,533.51 475.77,543.29 Q 469.51,553.36 463.15,563.37 Q 458.29,570.99 451.75,575.25 Q 440.46,582.60 433.98,571.21 A 1.48,1.47 55.2 0 1 434.31,569.35 Q 445.71,559.85 455.69,548.43 Q 462.09,541.11 463.50,532.75 Q 466.92,512.46 454.20,496.71 Q 451.19,492.99 448.64,491.50 Q 444.91,489.33 440.81,490.01 Q 435.95,490.81 431.88,495.40 Q 426.74,501.18 425.75,509.75 Q 424.63,519.44 431.93,522.87 Q 434.46,524.05 438.72,524.37 Q 442.22,524.64 445.75,524.45 Q 450.24,524.22 455.00,525.75 Q 457.76,526.64 458.82,529.04 A 1.18,1.07 -46.5 0 1 458.80,529.95 Q 457.58,532.55 456.19,534.19 Q 446.06,546.12 433.09,555.92 Q 432.29,556.52 432.45,555.53 Q 434.36,543.78 435.78,532.25 Q 436.30,527.96 434.68,529.81 Q 434.22,530.33 433.94,531.20 Q 429.82,543.82 428.65,558.23 A 2.25,2.24 -15.9 0 1 427.73,559.87 Q 419.95,565.53 410.93,568.76 Q 405.68,570.64 401.39,570.85 Q 396.03,571.11 391.56,569.44 Q 380.24,565.20 379.20,552.25 Q 378.83,547.74 379.46,543.24 Q 380.75,533.99 382.85,524.88 Q 383.03,524.13 383.04,523.62 Q 383.11,521.63 381.99,522.63 Q 381.59,522.98 381.33,523.64 Q 376.44,535.98 375.46,549.25 Q 371.83,545.86 369.08,541.72 A 0.94,0.74 -54.1 0 1 369.05,540.89 Q 369.37,540.15 368.29,540.50 Q 369.60,532.18 369.22,522.96 A 0.70,0.68 2.2 0 1 370.00,522.25 Q 384.02,524.03 391.73,512.55 Q 393.20,510.36 394.92,508.37 A 0.41,0.40 47.9 0 1 395.55,508.41 Q 398.91,512.87 401.06,514.19 Q 404.28,516.16 408.00,515.50 Q 415.60,514.14 419.07,507.32 Q 423.75,498.11 421.95,488.10 Q 421.54,485.81 420.64,484.03 Q 419.68,482.12 418.30,480.42 Q 416.77,478.54 416.22,480.85 L 413.59,492.01 A 1.28,1.01 39.8 0 0 413.78,492.92 L 416.18,496.66 Q 417.82,499.21 414.87,500.08 Q 405.63,502.80 401.26,495.69 A 1.42,1.37 -57.0 0 1 401.08,494.75 Q 401.61,491.37 402.25,488.00 Q 402.77,485.21 401.00,485.35 Q 400.15,485.41 399.40,486.26 Q 398.77,486.98 398.25,487.79 Q 395.29,486.80 394.27,484.00 Q 393.45,481.75 393.42,481.70 Q 379.84,452.21 371.75,420.75 Q 371.59,420.11 369.96,417.50 Q 392.04,394.42 411.50,367.62 A 0.71,0.70 -46.5 0 0 411.48,366.76 Q 409.58,364.42 408.23,363.02 Q 402.28,356.91 400.97,349.07 Q 399.72,341.57 403.02,334.27 Q 407.44,324.47 418.17,320.05 A 1.25,1.24 -8.9 0 0 418.94,319.00 L 424.50,253.01 A 1.05,1.04 11.1 0 0 423.77,251.93 Q 404.07,245.70 389.75,230.54 Q 390.23,229.91 390.76,229.36 Q 391.33,228.76 391.57,228.09 Q 397.27,212.40 404.35,197.27 A 1.01,0.59 -0.1 0 1 405.06,196.85 L 406.00,196.71 ZM 427.12,421.99 Q 429.28,422.46 430.81,420.56 Q 433.49,417.24 434.17,411.05 Q 434.33,409.62 433.39,410.69 Q 433.21,410.90 433.05,411.23 Q 431.94,413.56 430.03,415.11 Q 428.30,416.52 427.20,414.58 Q 425.66,411.86 426.00,408.75 Q 426.45,404.65 429.26,397.79 Q 432.79,389.20 432.19,379.93 Q 431.41,367.92 422.38,360.32 A 0.57,0.56 43.8 0 0 421.62,360.33 Q 420.20,361.68 419.10,364.51 A 1.72,1.70 33.3 0 0 419.49,366.36 Q 434.10,380.92 426.12,399.30 Q 423.94,404.33 423.00,412.00 Q 422.44,416.57 424.38,419.84 Q 425.43,421.61 427.12,421.99 ZM 402.64,442.45 Q 402.50,441.79 403.12,442.05 Q 409.25,444.59 415.27,445.39 Q 420.58,446.10 427.71,445.16 Q 442.94,443.15 457.04,435.82 Q 458.64,434.98 460.41,435.33 Q 461.86,435.61 461.66,437.07 A 1.67,1.17 -26.6 0 1 461.20,437.92 Q 455.20,443.85 451.92,451.61 Q 451.58,452.39 451.95,452.49 A 0.99,0.52 -57.0 0 0 452.75,452.04 Q 457.25,446.34 461.88,440.75 Q 463.47,438.84 464.23,437.43 Q 465.50,435.04 465.50,433.50 Q 465.50,426.97 459.06,428.81 Q 457.21,429.34 447.69,433.61 Q 437.32,438.26 426.20,439.11 Q 417.58,439.77 410.96,437.78 Q 403.60,435.56 397.17,430.40 A 1.20,1.03 30.5 0 0 395.37,430.72 L 394.15,434.19 A 1.21,0.77 46.9 0 0 394.32,435.11 Q 395.48,436.97 396.70,438.77 Q 398.25,441.06 398.87,442.52 Q 400.68,446.76 400.37,450.52 Q 400.09,453.96 401.55,450.83 Q 403.54,446.58 402.64,442.45 ZM 487.11,454.60 Q 479.37,461.80 469.40,467.47 Q 461.33,472.06 453.44,476.95 Q 452.52,477.52 452.84,478.07 A 0.73,0.54 -23.6 0 0 453.66,478.26 Q 459.80,475.96 465.88,473.53 Q 480.45,467.71 490.68,455.88 A 0.55,0.55 -52.8 0 1 491.41,455.78 L 494.84,458.20 A 0.53,0.51 36.2 0 0 495.56,458.10 Q 497.32,455.77 498.12,452.98 A 1.13,1.10 -53.9 0 0 497.99,452.07 Q 496.87,450.34 494.77,449.29 A 1.22,1.21 23.5 0 1 494.17,447.77 Q 496.00,442.93 495.01,437.54 Q 494.25,433.44 490.56,434.56 Q 484.92,436.28 482.39,441.59 Q 480.68,445.19 481.70,448.06 Q 482.85,451.30 486.87,453.12 A 0.90,0.90 66.2 0 1 487.11,454.60 Z"/>
<path fill="#e4af2e" fill-opacity="0.906" d="M 268.50,207.79 Q 267.72,208.53 266.72,208.87 Q 266.21,209.04 265.90,209.35 Q 243.79,231.74 231.50,260.75 Q 230.44,263.25 226.50,276.75 Q 224.79,282.62 224.69,285.95 Q 224.69,286.18 224.59,285.97 L 224.50,285.75 Q 224.31,285.31 224.21,285.77 Q 216.50,321.84 220.81,358.52 Q 221.11,361.11 221.39,358.06 Q 221.43,357.66 221.42,358.07 Q 221.31,363.02 222.80,367.73 Q 223.65,370.41 223.57,373.23 Q 223.57,373.41 223.66,373.25 Q 223.87,372.88 223.93,373.26 Q 225.53,383.11 229.05,392.44 Q 229.69,394.15 229.99,395.94 A 1.42,1.16 19.8 0 0 230.47,396.74 Q 231.61,397.72 231.55,399.26 A 1.73,1.45 -64.0 0 0 231.78,400.18 Q 233.15,402.33 234.10,404.68 Q 235.50,408.15 236.11,409.29 Q 245.12,426.03 257.84,440.19 Q 258.11,440.49 258.38,440.53 Q 258.79,440.59 259.04,440.25 L 263.31,447.47 Q 263.79,448.28 263.01,447.76 Q 252.05,440.35 243.15,430.59 Q 226.19,412.00 216.60,388.71 Q 198.86,345.62 207.12,299.52 Q 213.03,266.54 232.00,239.02 Q 248.12,215.63 272.04,201.18 Q 274.14,199.91 272.70,201.93 L 268.50,207.79 ZM 219.05,324.81 Q 218.96,330.53 219.08,336.25 Q 219.15,339.77 219.25,336.00 Q 219.39,330.40 219.09,324.82 Q 219.06,324.29 219.05,324.81 Z"/>
<path fill="#e4af2e" fill-opacity="0.906" d="M 595.46,438.50 Q 594.97,440.70 596.49,439.84 Q 596.93,439.58 597.38,439.03 Q 599.37,436.61 601.23,434.10 Q 603.12,431.55 605.02,429.13 Q 621.94,407.55 628.48,380.75 Q 642.65,322.77 624.28,266.98 Q 620.99,257.00 616.58,248.56 Q 607.37,230.93 594.03,215.97 Q 591.37,212.98 588.76,209.94 A 0.77,0.66 -27.6 0 0 587.98,209.76 Q 587.01,210.06 586.25,209.29 L 581.31,201.87 Q 580.18,200.17 581.91,201.24 Q 605.52,215.74 621.14,237.88 Q 630.79,251.56 637.16,267.04 Q 657.84,317.31 643.69,370.03 Q 634.95,402.55 612.91,427.92 Q 603.56,438.68 591.90,447.07 Q 590.18,448.31 591.20,446.42 L 595.46,438.50 Z"/>
<path fill="#b1a517" fill-opacity="0.702" d="M 268.50,207.79 Q 267.20,210.18 262.94,216.94 Q 255.19,229.22 248.28,244.73 Q 215.18,319.03 239.75,395.75 Q 246.47,416.74 259.04,440.25 Q 258.79,440.59 258.38,440.53 Q 258.11,440.49 257.84,440.19 Q 245.12,426.03 236.11,409.29 Q 235.50,408.15 234.10,404.68 Q 233.15,402.33 231.78,400.18 A 1.73,1.45 -64.0 0 1 231.55,399.26 Q 231.61,397.72 230.47,396.74 A 1.42,1.16 19.8 0 1 229.99,395.94 Q 229.69,394.15 229.05,392.44 Q 225.53,383.11 223.93,373.26 Q 223.87,372.88 223.66,373.25 Q 223.57,373.41 223.57,373.23 Q 223.65,370.41 222.80,367.73 Q 221.31,363.02 221.42,358.07 Q 221.43,357.66 221.39,358.06 Q 221.11,361.11 220.81,358.52 Q 216.50,321.84 224.21,285.77 Q 224.31,285.31 224.50,285.75 L 224.59,285.97 Q 224.69,286.18 224.69,285.95 Q 224.79,282.62 226.50,276.75 Q 230.44,263.25 231.50,260.75 Q 243.79,231.74 265.90,209.35 Q 266.21,209.04 266.72,208.87 Q 267.72,208.53 268.50,207.79 Z"/>
<path fill="#b1a517" fill-opacity="0.702" d="M 586.25,209.29 Q 587.01,210.06 587.98,209.76 A 0.77,0.66 -27.6 0 1 588.76,209.94 Q 591.37,212.98 594.03,215.97 Q 607.37,230.93 616.58,248.56 Q 620.99,257.00 624.28,266.98 Q 642.65,322.77 628.48,380.75 Q 621.94,407.55 605.02,429.13 Q 603.12,431.55 601.23,434.10 Q 599.37,436.61 597.38,439.03 Q 596.93,439.58 596.49,439.84 Q 594.97,440.70 595.46,438.50 Q 614.52,404.47 621.38,366.31 Q 623.17,356.32 623.90,346.49 Q 627.50,297.77 609.00,252.50 Q 599.90,230.23 586.25,209.29 Z"/>
<path fill="#f9b739" fill-opacity="0.992" d="M 303.71,242.75 Q 301.25,241.54 300.61,244.00 Q 300.47,244.53 300.15,244.86 Q 284.62,260.94 277.75,281.00 Q 270.42,302.39 269.75,320.50 Q 269.63,323.80 269.81,341.45 Q 269.81,341.79 269.86,341.44 L 270.15,339.49 Q 270.27,338.73 270.29,339.49 L 270.57,347.16 Q 270.57,347.30 270.58,347.17 Q 271.06,340.65 271.00,347.77 Q 271.00,348.00 271.02,348.23 Q 272.81,365.08 279.35,380.66 Q 280.01,382.24 281.44,384.68 Q 282.59,386.65 283.56,388.72 Q 285.99,393.95 289.79,398.21 Q 290.21,398.67 291.80,401.08 Q 292.81,402.61 294.50,403.50 A 3.82,1.38 78.0 0 1 295.94,405.81 Q 296.39,407.20 296.79,406.42 A 0.48,0.35 18.5 0 1 297.29,406.26 Q 297.48,406.30 297.71,406.25 Q 299.43,409.77 301.60,413.03 Q 301.77,413.28 301.77,413.51 Q 301.79,414.21 301.06,413.69 Q 282.56,400.42 271.74,379.29 Q 253.92,344.51 261.09,305.77 Q 267.15,273.04 290.21,249.20 Q 298.26,240.89 308.19,234.94 Q 309.61,234.09 308.69,235.44 L 303.71,242.75 Z"/>
<path fill="#f9b739" fill-opacity="0.992" d="M 558.29,402.25 L 559.07,402.61 A 1.10,0.48 31.6 0 0 559.91,402.73 Q 561.89,401.80 562.98,399.98 Q 564.85,396.85 564.92,396.76 Q 576.73,381.38 580.35,362.38 Q 580.38,362.21 581.96,354.68 Q 582.93,350.07 583.00,345.33 Q 583.01,344.19 583.22,343.18 Q 583.45,342.13 583.67,341.08 Q 584.00,339.50 584.01,337.89 Q 584.04,329.00 583.96,320.11 Q 583.94,318.38 583.50,316.06 Q 583.11,314.05 582.94,312.00 Q 582.56,307.37 582.30,305.91 Q 580.03,293.12 575.96,280.76 Q 574.12,275.19 571.38,270.06 Q 568.82,265.26 565.61,259.98 Q 560.82,252.11 553.94,245.19 Q 552.82,244.06 551.96,242.73 Q 550.85,241.02 549.54,241.75 L 545.27,235.49 Q 544.23,233.96 545.80,234.93 Q 564.61,246.55 576.52,265.17 Q 599.12,300.49 594.00,341.75 Q 590.31,371.47 571.92,395.27 Q 567.81,400.59 562.97,405.15 Q 558.11,409.74 552.75,413.75 Q 551.43,414.73 552.25,413.25 L 558.29,402.25 Z"/>
<path fill="#e3d31e" fill-opacity="0.898" d="M 558.29,402.25 Q 567.82,383.47 572.25,365.25 Q 583.74,317.98 565.72,273.01 Q 559.14,256.60 549.54,241.75 Q 550.85,241.02 551.96,242.73 Q 552.82,244.06 553.94,245.19 Q 560.82,252.11 565.61,259.98 Q 568.82,265.26 571.38,270.06 Q 574.12,275.19 575.96,280.76 Q 580.03,293.12 582.30,305.91 Q 582.56,307.37 582.94,312.00 Q 583.11,314.05 583.50,316.06 Q 583.94,318.38 583.96,320.11 Q 584.04,329.00 584.01,337.89 Q 584.00,339.50 583.67,341.08 Q 583.45,342.13 583.22,343.18 Q 583.01,344.19 583.00,345.33 Q 582.93,350.07 581.96,354.68 Q 580.38,362.21 580.35,362.38 Q 576.73,381.38 564.92,396.76 Q 564.85,396.85 562.98,399.98 Q 561.89,401.80 559.91,402.73 A 1.10,0.48 31.6 0 1 559.07,402.61 L 558.29,402.25 Z"/>
<path fill="#e3d31e" fill-opacity="0.898" d="M 303.71,242.75 Q 300.19,248.51 296.91,254.42 Q 269.17,304.33 280.25,359.50 Q 284.89,382.62 297.71,406.25 Q 297.48,406.30 297.29,406.26 A 0.48,0.35 18.5 0 0 296.79,406.42 Q 296.39,407.20 295.94,405.81 A 3.82,1.38 78.0 0 0 294.50,403.50 Q 292.81,402.61 291.80,401.08 Q 290.21,398.67 289.79,398.21 Q 285.99,393.95 283.56,388.72 Q 282.59,386.65 281.44,384.68 Q 280.01,382.24 279.35,380.66 Q 272.81,365.08 271.02,348.23 Q 271.00,348.00 271.00,347.77 Q 271.06,340.65 270.58,347.17 Q 270.57,347.30 270.57,347.16 L 270.29,339.49 Q 270.27,338.73 270.15,339.49 L 269.86,341.44 Q 269.81,341.79 269.81,341.45 Q 269.63,323.80 269.75,320.50 Q 270.42,302.39 277.75,281.00 Q 284.62,260.94 300.15,244.86 Q 300.47,244.53 300.61,244.00 Q 301.25,241.54 303.71,242.75 Z"/>
<path fill="#fbb13b" d="M 338.04,267.00 Q 338.62,265.20 337.50,265.54 Q 337.07,265.67 336.63,266.16 Q 324.95,279.00 320.06,294.56 Q 311.20,322.77 317.60,351.85 Q 319.26,359.39 321.73,365.31 Q 324.63,372.28 328.56,377.69 Q 331.87,382.23 333.23,384.33 A 1.20,0.85 69.8 0 0 333.99,384.85 L 335.50,384.96 L 338.47,390.15 Q 339.50,391.96 337.83,390.70 Q 334.51,388.20 331.45,385.42 Q 328.37,382.63 325.74,379.41 Q 310.25,360.51 307.39,336.48 Q 306.21,326.57 307.35,316.51 Q 310.46,289.14 329.44,268.69 Q 334.25,263.50 341.31,259.03 Q 341.73,258.76 342.15,258.43 Q 345.90,255.54 342.87,259.83 Q 340.38,263.36 338.04,267.00 Z"/>
<path fill="#fceb22" d="M 516.75,262.04 Q 517.68,263.33 516.98,264.53 A 1.22,1.21 -51.3 0 0 517.13,265.95 Q 529.34,279.62 534.31,296.60 Q 542.54,324.69 536.00,353.25 Q 532.19,369.87 520.81,383.81 Q 520.14,384.63 520.54,387.00 L 516.24,390.51 Q 514.35,392.04 515.60,389.91 Q 521.51,379.80 525.74,368.54 Q 541.99,325.31 524.19,283.31 Q 518.83,270.67 509.91,257.98 A 0.47,0.29 51.2 0 1 509.85,257.48 Q 509.97,257.35 510.25,257.50 Q 513.03,259.04 516.75,262.04 Z"/>
<path fill="#fbb13b" d="M 516.75,262.04 Q 518.61,263.40 520.29,264.97 Q 548.13,291.17 546.81,329.99 Q 546.13,350.00 536.49,367.46 Q 530.29,378.69 520.54,387.00 Q 520.14,384.63 520.81,383.81 Q 532.19,369.87 536.00,353.25 Q 542.54,324.69 534.31,296.60 Q 529.34,279.62 517.13,265.95 A 1.22,1.21 -51.3 0 1 516.98,264.53 Q 517.68,263.33 516.75,262.04 Z"/>
<path fill="#fceb22" d="M 338.04,267.00 Q 304.10,325.14 335.50,384.96 L 333.99,384.85 A 1.20,0.85 69.8 0 1 333.23,384.33 Q 331.87,382.23 328.56,377.69 Q 324.63,372.28 321.73,365.31 Q 319.26,359.39 317.60,351.85 Q 311.20,322.77 320.06,294.56 Q 324.95,279.00 336.63,266.16 Q 337.07,265.67 337.50,265.54 Q 338.62,265.20 338.04,267.00 Z"/>
<path fill="#e4af2e" fill-opacity="0.906" d="M 219.09,324.82 Q 219.39,330.40 219.25,336.00 Q 219.15,339.77 219.08,336.25 Q 218.96,330.53 219.05,324.81 Q 219.06,324.29 219.09,324.82 Z"/>
<path fill="#ffffff" d="M 424.38,419.84 Q 422.44,416.57 423.00,412.00 Q 423.94,404.33 426.12,399.30 Q 434.10,380.92 419.49,366.36 A 1.72,1.70 33.3 0 1 419.10,364.51 Q 420.20,361.68 421.62,360.33 A 0.57,0.56 43.8 0 1 422.38,360.32 Q 431.41,367.92 432.19,379.93 Q 432.79,389.20 429.26,397.79 Q 426.45,404.65 426.00,408.75 Q 425.66,411.86 427.20,414.58 Q 428.30,416.52 430.03,415.11 Q 431.94,413.56 433.05,411.23 Q 433.21,410.90 433.39,410.69 Q 434.33,409.62 434.17,411.05 Q 433.49,417.24 430.81,420.56 Q 429.28,422.46 427.12,421.99 Q 425.43,421.61 424.38,419.84 Z"/>
<path fill="#1f8aca" d="M 369.96,417.50 Q 371.59,420.11 371.75,420.75 Q 379.84,452.21 393.42,481.70 Q 393.45,481.75 394.27,484.00 Q 395.29,486.80 398.25,487.79 Q 395.39,492.87 392.44,497.89 Q 386.73,507.60 375.25,507.25 Q 368.94,507.06 364.72,503.40 Q 363.14,502.03 361.34,499.13 Q 359.90,496.82 358.56,494.44 Q 357.22,492.04 356.50,495.00 L 353.71,506.50 Q 352.44,507.29 352.11,506.15 Q 351.79,505.08 351.71,504.90 Q 349.13,499.64 345.31,490.94 Q 344.36,488.76 344.96,486.75 Q 359.12,480.72 369.17,469.13 A 0.57,0.54 -50.8 0 1 369.92,469.03 L 373.10,471.47 A 0.56,0.52 37.8 0 0 373.86,471.40 Q 375.94,468.71 376.58,466.05 A 0.98,0.67 -68.2 0 0 376.38,465.17 L 372.84,462.32 A 0.90,0.66 31.8 0 1 372.51,461.49 Q 374.01,456.82 373.91,452.50 Q 373.81,448.18 370.68,447.85 Q 368.67,447.64 366.20,449.18 Q 363.77,450.69 362.05,452.96 Q 360.23,455.37 359.91,458.00 Q 359.23,463.75 365.56,466.64 A 0.80,0.80 37.9 0 1 365.73,467.99 Q 353.21,478.21 339.54,485.50 Q 339.89,484.76 339.15,483.79 Q 338.48,482.91 338.07,481.88 Q 332.71,468.57 328.50,455.21 Q 350.44,437.68 369.96,417.50 Z"/>
<path fill="#ffffff" d="M 402.64,442.45 Q 403.54,446.58 401.55,450.83 Q 400.09,453.96 400.37,450.52 Q 400.68,446.76 398.87,442.52 Q 398.25,441.06 396.70,438.77 Q 395.48,436.97 394.32,435.11 A 1.21,0.77 46.9 0 1 394.15,434.19 L 395.37,430.72 A 1.20,1.03 30.5 0 1 397.17,430.40 Q 403.60,435.56 410.96,437.78 Q 417.58,439.77 426.20,439.11 Q 437.32,438.26 447.69,433.61 Q 457.21,429.34 459.06,428.81 Q 465.50,426.97 465.50,433.50 Q 465.50,435.04 464.23,437.43 Q 463.47,438.84 461.88,440.75 Q 457.25,446.34 452.75,452.04 A 0.99,0.52 -57.0 0 1 451.95,452.49 Q 451.58,452.39 451.92,451.61 Q 455.20,443.85 461.20,437.92 A 1.67,1.17 -26.6 0 0 461.66,437.07 Q 461.86,435.61 460.41,435.33 Q 458.64,434.98 457.04,435.82 Q 442.94,443.15 427.71,445.16 Q 420.58,446.10 415.27,445.39 Q 409.25,444.59 403.12,442.05 Q 402.50,441.79 402.64,442.45 Z"/>
<path fill="#ffffff" d="M 487.11,454.60 A 0.90,0.90 66.2 0 0 486.87,453.12 Q 482.85,451.30 481.70,448.06 Q 480.68,445.19 482.39,441.59 Q 484.92,436.28 490.56,434.56 Q 494.25,433.44 495.01,437.54 Q 496.00,442.93 494.17,447.77 A 1.22,1.21 23.5 0 0 494.77,449.29 Q 496.87,450.34 497.99,452.07 A 1.13,1.10 -53.9 0 1 498.12,452.98 Q 497.32,455.77 495.56,458.10 A 0.53,0.51 36.2 0 1 494.84,458.20 L 491.41,455.78 A 0.55,0.55 -52.8 0 0 490.68,455.88 Q 480.45,467.71 465.88,473.53 Q 459.80,475.96 453.66,478.26 A 0.73,0.54 -23.6 0 1 452.84,478.07 Q 452.52,477.52 453.44,476.95 Q 461.33,472.06 469.40,467.47 Q 479.37,461.80 487.11,454.60 ZM 487.50,444.98 Q 488.60,445.91 490.02,446.82 A 0.72,0.72 25.5 0 0 491.10,446.44 Q 492.19,443.13 489.67,441.28 A 1.20,1.12 -31.2 0 0 488.76,441.09 Q 483.97,442.01 487.50,444.98 Z"/>
<path fill="#25a8e0" d="M 487.50,444.98 Q 483.97,442.01 488.76,441.09 A 1.20,1.12 -31.2 0 1 489.67,441.28 Q 492.19,443.13 491.10,446.44 A 0.72,0.72 25.5 0 1 490.02,446.82 Q 488.60,445.91 487.50,444.98 Z"/>
<path fill="#ffffff" d="M 344.96,486.75 L 332.47,491.33 A 1.42,0.96 -36.0 0 1 331.51,491.36 Q 330.78,491.03 331.81,490.31 Q 333.21,489.35 339.54,485.50 Q 353.21,478.21 365.73,467.99 A 0.80,0.80 37.9 0 0 365.56,466.64 Q 359.23,463.75 359.91,458.00 Q 360.23,455.37 362.05,452.96 Q 363.77,450.69 366.20,449.18 Q 368.67,447.64 370.68,447.85 Q 373.81,448.18 373.91,452.50 Q 374.01,456.82 372.51,461.49 A 0.90,0.66 31.8 0 0 372.84,462.32 L 376.38,465.17 A 0.98,0.67 -68.2 0 1 376.58,466.05 Q 375.94,468.71 373.86,471.40 A 0.56,0.52 37.8 0 1 373.10,471.47 L 369.92,469.03 A 0.57,0.54 -50.8 0 0 369.17,469.13 Q 359.12,480.72 344.96,486.75 ZM 366.96,459.19 Q 370.96,462.33 369.37,455.54 Q 368.86,453.34 366.83,454.34 Q 363.51,455.98 364.85,457.49 Q 364.98,457.63 366.96,459.19 Z"/>
<path fill="#2092cf" d="M 364.85,457.49 Q 363.51,455.98 366.83,454.34 Q 368.86,453.34 369.37,455.54 Q 370.96,462.33 366.96,459.19 Q 364.98,457.63 364.85,457.49 Z"/>
<path fill="#1b75bb" d="M 328.50,455.21 Q 332.71,468.57 338.07,481.88 Q 338.48,482.91 339.15,483.79 Q 339.89,484.76 339.54,485.50 Q 333.21,489.35 331.81,490.31 Q 330.78,491.03 331.51,491.36 A 1.42,0.96 -36.0 0 0 332.47,491.33 L 344.96,486.75 Q 344.36,488.76 345.31,490.94 Q 349.13,499.64 351.71,504.90 Q 351.79,505.08 352.11,506.15 Q 352.44,507.29 353.71,506.50 Q 354.47,509.40 356.03,511.96 Q 362.38,522.33 364.75,534.26 Q 365.26,536.84 363.77,538.99 Q 360.59,543.55 355.93,547.45 Q 337.82,562.61 315.58,570.62 Q 301.84,575.57 288.00,575.75 Q 271.87,575.97 261.43,565.11 Q 257.09,560.60 254.62,555.12 Q 251.85,549.01 252.06,543.06 Q 252.18,539.75 254.62,521.93 A 1.65,1.19 -63.3 0 0 254.47,521.00 Q 253.56,519.44 252.81,521.56 Q 247.55,536.40 249.26,553.02 Q 250.53,565.35 256.31,574.44 Q 266.14,589.89 285.50,590.75 Q 301.45,591.46 316.80,585.15 Q 324.65,581.93 334.61,576.08 Q 344.20,570.46 352.78,563.30 Q 360.07,557.20 364.19,551.44 Q 367.26,547.13 368.29,540.50 Q 369.37,540.15 369.05,540.89 A 0.94,0.74 -54.1 0 0 369.08,541.72 Q 371.83,545.86 375.46,549.25 Q 374.13,561.55 378.56,571.69 Q 385.10,586.61 402.25,586.04 Q 403.60,588.95 407.25,593.00 Q 418.66,605.68 423.69,610.56 Q 425.87,612.68 426.75,614.46 Q 391.72,626.75 379.81,631.56 Q 370.96,635.14 368.71,644.49 Q 367.90,647.86 370.56,649.69 Q 374.07,652.09 378.69,652.41 A 0.60,0.58 8.0 0 0 379.31,651.96 Q 379.91,649.42 379.21,646.93 A 1.15,0.91 8.4 0 0 378.59,646.27 L 372.55,643.68 A 1.27,1.21 -54.8 0 1 372.25,641.63 Q 373.55,640.40 375.16,639.40 Q 376.37,638.65 378.45,637.85 Q 418.54,622.62 458.75,607.71 Q 459.54,607.63 459.86,608.18 Q 460.18,608.71 460.23,608.77 Q 461.58,610.30 464.06,612.44 Q 464.75,613.03 464.75,614.21 Q 462.29,616.35 461.50,619.00 Q 458.26,629.89 458.98,640.89 Q 459.08,642.51 460.35,643.52 Q 486.61,664.48 512.37,685.64 Q 520.93,692.67 528.58,700.67 Q 536.02,708.43 540.13,718.34 Q 541.51,721.66 538.47,723.50 Q 524.62,731.87 509.47,737.58 A 0.55,0.54 67.8 0 1 508.79,737.29 Q 504.28,727.79 496.62,720.76 Q 494.40,718.72 492.44,717.83 Q 489.73,716.61 487.31,716.81 Q 480.44,717.40 475.56,723.56 Q 469.60,731.10 468.74,739.00 Q 467.16,753.38 481.26,755.44 Q 491.22,756.90 501.54,754.71 A 0.94,0.93 -16.7 0 1 502.60,755.28 Q 503.53,757.64 503.12,759.99 Q 502.80,761.80 501.11,764.07 Q 498.33,767.81 493.94,772.19 Q 478.19,787.87 460.31,797.81 Q 450.61,803.21 441.22,805.25 Q 436.75,806.22 432.71,805.97 Q 428.08,805.68 424.25,804.25 Q 411.84,799.62 410.71,785.81 Q 410.13,778.84 412.00,770.00 Q 413.90,760.98 415.16,756.80 A 0.83,0.82 -86.4 0 1 415.80,756.23 Q 421.79,755.11 425.81,751.56 Q 434.39,744.01 436.39,732.02 Q 438.99,716.36 429.99,703.49 Q 428.47,701.31 427.41,703.75 Q 424.79,709.84 423.02,716.27 Q 422.41,718.50 422.93,720.26 Q 423.55,722.32 424.81,723.94 Q 427.70,727.62 428.81,731.70 A 0.96,0.95 -32.9 0 1 428.62,732.58 Q 425.96,735.65 421.56,736.56 Q 415.92,737.74 411.25,737.57 Q 390.85,736.82 394.74,716.50 Q 395.05,714.88 395.20,713.63 A 1.33,1.33 -89.7 0 0 393.73,712.14 Q 391.10,712.44 389.55,713.03 Q 368.96,720.85 347.94,727.46 Q 325.71,734.45 302.83,738.91 Q 286.22,742.14 264.50,743.25 Q 245.62,744.22 227.17,740.15 Q 215.92,737.67 205.44,730.31 Q 197.00,724.39 195.90,715.05 Q 195.55,712.04 196.21,707.46 Q 196.95,702.37 198.06,700.06 Q 205.03,685.66 208.85,670.13 Q 209.03,669.37 209.06,668.85 Q 209.20,666.45 207.38,668.40 Q 206.38,669.46 205.70,670.75 Q 204.00,673.97 201.06,676.53 Q 197.88,679.30 194.66,679.21 Q 190.13,679.09 188.50,674.00 Q 186.39,667.41 187.66,660.06 Q 188.11,657.49 191.27,646.83 Q 193.90,637.98 197.38,629.41 Q 198.26,627.25 198.87,624.99 A 0.51,0.39 -81.2 0 0 198.52,624.36 Q 198.08,624.38 197.69,624.94 Q 188.83,637.62 183.92,651.18 Q 179.26,664.04 179.47,677.75 Q 179.54,681.94 180.91,685.77 Q 182.48,690.18 185.58,692.08 Q 189.88,694.72 195.96,693.06 Q 196.55,692.89 196.28,693.44 Q 190.54,704.94 190.03,717.74 Q 189.40,733.31 198.36,744.20 Q 203.86,750.89 213.11,755.40 Q 221.59,759.53 231.17,760.93 Q 239.49,762.14 246.50,762.25 Q 265.13,762.53 284.68,759.37 Q 315.86,754.33 345.85,744.42 Q 365.51,737.92 384.99,730.15 A 0.38,0.37 77.6 0 1 385.50,730.48 Q 385.73,735.40 387.02,740.13 Q 390.42,752.56 403.02,755.41 Q 407.46,756.41 411.68,756.49 A 0.51,0.50 11.1 0 1 412.14,757.17 Q 404.85,776.32 406.48,796.23 Q 407.02,802.80 409.81,808.19 Q 416.45,821.01 429.47,822.70 Q 436.46,823.61 445.36,821.03 Q 453.15,818.76 460.19,814.43 Q 479.84,802.33 495.23,785.36 Q 502.41,777.44 505.52,770.81 Q 509.36,762.60 510.27,753.31 A 0.82,0.81 81.2 0 1 510.77,752.62 Q 521.82,748.10 532.21,742.22 Q 542.47,736.41 544.64,724.73 Q 545.81,718.43 545.50,716.75 Q 544.33,710.48 541.00,703.25 Q 540.64,702.46 541.17,702.51 Q 541.40,702.53 541.64,702.75 Q 550.79,711.27 559.99,719.73 Q 566.07,725.32 569.38,727.28 Q 574.69,730.43 580.75,731.71 Q 587.41,733.11 592.62,731.06 Q 598.58,728.73 602.31,723.06 Q 611.22,709.55 612.29,692.75 Q 612.99,692.27 613.21,691.56 A 0.56,0.48 -73.9 0 1 613.80,691.18 L 622.85,693.33 A 1.01,0.71 79.6 0 1 623.43,693.90 Q 623.67,694.49 624.21,693.75 Q 624.11,696.15 624.64,698.45 Q 625.24,701.04 627.12,702.16 Q 630.49,704.18 633.25,699.96 Q 634.08,700.81 635.05,700.47 Q 635.62,700.27 635.98,700.34 Q 641.85,701.37 647.73,702.31 Q 647.76,702.31 649.37,702.74 Q 650.75,703.10 652.21,702.50 Q 645.31,717.47 631.56,730.81 Q 618.01,743.97 614.56,746.81 Q 611.80,749.09 609.87,751.97 Q 608.88,753.46 610.55,752.82 Q 613.34,751.74 615.86,750.15 Q 634.12,738.57 648.19,722.19 Q 657.94,710.82 661.79,695.00 Q 684.10,696.39 688.56,696.94 Q 691.19,697.26 690.54,694.50 Q 691.30,705.18 690.77,715.84 Q 690.21,727.28 689.98,730.68 Q 689.49,738.09 688.12,745.42 Q 685.55,759.17 683.54,773.00 Q 676.22,781.55 667.25,786.00 Q 652.98,793.07 637.24,795.71 Q 629.78,796.97 622.26,797.90 Q 616.11,798.66 607.19,799.27 Q 583.73,800.85 560.25,802.25 Q 540.50,803.42 516.76,807.54 Q 491.93,811.85 468.84,821.88 Q 446.98,831.37 428.66,847.17 A 1.26,1.26 44.2 0 1 427.02,847.19 Q 388.67,815.79 340.99,807.84 Q 314.93,803.49 288.50,803.09 Q 263.97,802.71 239.49,801.14 Q 215.78,799.62 195.56,790.69 Q 180.01,783.82 168.46,769.75 Q 168.68,768.92 168.25,766.75 Q 166.42,757.54 164.70,744.19 Q 163.24,732.89 162.74,724.28 Q 159.17,663.73 182.00,608.50 Q 209.95,540.90 268.70,496.92 Q 273.80,493.10 285.23,485.68 Q 307.44,471.27 328.50,455.21 ZM 330.11,525.21 A 1.94,1.93 44.0 0 0 332.72,525.17 Q 335.20,522.83 335.42,519.07 Q 335.45,518.43 334.96,518.72 Q 334.51,518.99 334.19,519.69 Q 332.86,522.61 331.07,520.64 A 1.55,1.33 -70.9 0 1 330.72,519.75 Q 330.39,513.49 333.05,507.74 Q 333.39,506.99 333.05,506.83 A 0.74,0.46 -60.9 0 0 332.31,507.24 Q 328.25,514.29 328.71,522.49 Q 328.79,524.06 330.11,525.21 ZM 281.58,518.82 Q 283.08,520.22 281.75,522.50 Q 278.72,527.71 272.65,533.96 A 1.05,0.60 -38.9 0 0 272.32,534.81 Q 272.46,535.27 273.25,534.78 Q 279.37,530.96 283.09,524.95 Q 285.21,521.54 285.86,519.60 Q 286.94,516.38 285.74,513.33 Q 284.61,510.46 281.58,511.06 Q 276.34,512.10 275.57,518.38 Q 275.45,519.39 276.36,518.92 Q 277.81,518.18 279.06,518.03 Q 280.55,517.86 281.58,518.82 ZM 229.14,617.08 Q 229.97,617.72 228.96,618.02 Q 222.88,619.80 221.17,624.82 Q 220.15,627.79 221.30,634.18 Q 222.29,639.63 223.75,646.75 Q 225.88,657.09 225.76,668.52 A 0.75,0.49 -86.1 0 0 226.16,669.24 Q 226.53,669.31 226.66,668.68 Q 228.12,661.80 227.77,654.75 Q 227.13,642.07 223.10,629.52 A 1.69,1.68 67.1 0 1 223.91,627.51 Q 229.36,624.62 235.51,623.35 A 1.69,1.39 10.7 0 0 236.35,622.89 Q 237.91,621.14 238.75,618.11 A 3.07,3.04 33.2 0 0 238.16,615.36 Q 234.31,610.67 229.20,608.57 A 0.49,0.49 -68.7 0 1 228.93,607.95 Q 230.64,603.11 231.48,598.25 Q 232.27,593.68 233.89,589.34 Q 236.06,583.50 239.59,588.48 A 1.34,1.34 -46.5 0 0 241.81,588.42 Q 244.77,583.75 240.22,580.04 Q 237.35,577.69 234.94,580.19 Q 232.86,582.33 231.67,586.10 Q 229.67,592.45 228.50,599.01 Q 228.06,601.45 227.67,599.00 Q 227.23,596.26 226.28,593.12 Q 224.51,587.28 219.81,583.44 Q 218.34,582.23 215.82,582.08 A 0.94,0.82 15.7 0 0 215.01,582.46 L 212.12,587.06 Q 211.28,588.40 212.28,589.89 Q 214.01,592.46 216.95,593.31 A 1.35,1.34 30.7 0 0 218.27,592.98 Q 219.80,591.48 220.74,593.35 Q 224.18,600.15 226.24,607.47 A 1.65,1.65 -35.1 0 1 225.99,608.89 Q 222.25,614.00 222.25,619.42 Q 222.25,620.37 222.98,619.77 Q 223.76,619.13 224.26,618.28 Q 226.26,614.89 229.14,617.08 ZM 334.22,601.94 Q 334.12,601.10 334.41,600.29 Q 334.72,599.42 334.72,599.02 Q 334.68,597.10 332.94,598.69 Q 332.39,599.19 330.87,601.81 Q 329.66,603.88 328.51,604.64 Q 326.12,606.23 323.27,605.42 Q 320.05,604.52 320.02,604.51 Q 314.81,603.85 310.18,606.67 Q 306.44,608.95 303.29,611.94 Q 302.74,612.45 297.59,618.42 Q 290.13,627.06 280.24,632.71 Q 277.87,634.07 280.55,633.57 Q 288.59,632.07 294.15,626.14 Q 297.23,622.86 303.56,617.06 Q 310.37,610.84 318.92,611.77 Q 323.94,612.32 324.97,612.10 Q 328.27,611.38 331.12,608.50 A 1.09,1.09 36.2 0 1 332.41,608.30 Q 335.52,609.92 338.83,609.18 A 1.47,1.46 -76.5 0 0 339.64,608.68 Q 342.24,605.52 342.75,600.50 Q 343.05,597.60 341.59,595.86 A 0.51,0.49 -41.5 0 0 340.87,595.83 Q 338.00,598.43 339.26,602.21 A 0.42,0.35 80.2 0 1 338.94,602.76 L 334.79,602.56 A 0.71,0.58 87.0 0 1 334.22,601.94 ZM 370.62,618.34 Q 372.73,619.66 374.40,617.18 Q 376.20,614.52 376.58,611.13 Q 376.78,609.41 375.84,610.86 Q 372.22,616.46 371.05,611.46 Q 370.69,609.96 371.01,608.03 Q 371.89,602.77 373.69,597.73 Q 373.84,597.30 373.74,596.94 Q 373.58,596.37 373.24,596.92 Q 368.51,604.78 368.50,614.49 Q 368.50,617.00 370.62,618.34 ZM 296.94,672.11 Q 299.25,672.69 300.94,670.44 Q 303.77,666.67 304.22,661.00 A 0.73,0.51 -83.3 0 0 303.82,660.26 Q 303.43,660.17 303.21,660.78 Q 302.11,663.76 300.10,665.02 Q 297.97,666.36 296.94,664.07 Q 295.64,661.19 296.12,658.02 Q 297.37,649.68 300.20,641.73 Q 300.78,640.11 300.22,640.46 Q 299.99,640.60 299.75,640.99 Q 292.95,651.85 292.75,665.00 Q 292.71,667.75 293.98,669.80 Q 295.12,671.65 296.94,672.11 ZM 345.23,668.19 Q 344.21,662.12 341.42,656.63 Q 338.97,651.81 333.85,650.52 A 1.52,1.35 21.8 0 0 332.25,651.10 L 329.72,655.20 Q 328.80,656.69 330.09,658.38 Q 333.40,662.70 336.51,661.06 A 0.56,0.54 -31.0 0 1 337.22,661.22 Q 342.50,668.79 343.45,678.00 A 1.29,1.28 60.7 0 1 343.20,678.90 Q 339.45,683.82 332.81,688.06 Q 313.47,700.42 306.57,704.47 Q 306.14,704.72 305.93,705.06 Q 305.20,706.24 307.00,705.75 Q 310.62,704.77 321.31,700.31 Q 328.58,697.28 335.23,691.88 Q 340.90,687.27 343.88,681.88 Q 347.13,675.99 348.31,669.16 Q 349.72,661.03 351.50,657.25 Q 353.75,652.47 357.25,657.24 A 1.18,1.17 41.1 0 0 359.23,657.11 Q 361.81,652.39 357.93,648.82 Q 355.02,646.15 352.32,649.06 Q 349.63,651.95 349.00,654.50 Q 347.30,661.37 345.44,668.20 Q 345.32,668.68 345.23,668.19 ZM 256.31,674.19 Q 253.39,671.43 254.09,667.22 Q 255.58,658.25 258.68,649.68 Q 258.83,649.27 258.57,649.26 A 0.56,0.34 -66.3 0 0 258.17,649.54 Q 252.72,658.28 251.20,668.49 Q 250.30,674.55 251.56,677.69 Q 253.12,681.55 256.28,680.95 Q 258.46,680.54 259.94,678.03 Q 262.14,674.28 262.41,669.81 Q 262.44,669.29 262.05,669.63 Q 260.56,670.89 259.69,672.69 Q 258.13,675.91 256.31,674.19 ZM 428.85,674.72 Q 418.55,681.26 406.91,687.49 Q 405.02,688.50 403.43,689.94 Q 402.10,691.15 403.84,690.73 Q 414.67,688.12 425.19,684.19 Q 428.37,683.00 431.41,679.73 Q 433.00,678.04 436.27,673.93 Q 439.81,669.49 442.24,664.59 Q 443.81,661.42 440.45,660.31 Q 434.15,658.25 427.50,658.25 Q 421.75,658.25 416.00,658.25 Q 412.65,658.25 409.87,659.74 Q 407.82,660.83 406.09,663.71 Q 404.65,666.11 403.28,668.56 Q 403.23,668.66 402.54,669.78 Q 400.82,672.54 404.50,672.11 Q 405.92,671.94 406.02,671.94 Q 417.33,671.06 428.51,673.00 Q 430.90,673.42 428.85,674.72 ZM 455.90,701.15 Q 474.56,694.42 493.10,687.38 Q 495.02,686.65 495.92,685.44 Q 497.09,683.89 497.35,682.15 A 0.73,0.73 -5.6 0 0 496.38,681.36 L 454.04,696.64 A 0.56,0.48 -21.2 0 0 453.69,697.30 L 455.18,700.88 A 0.59,0.52 -20.9 0 0 455.90,701.15 ZM 281.29,705.37 L 270.88,698.28 A 1.01,1.00 -59.5 0 0 269.42,698.67 L 264.29,708.86 A 0.86,0.79 31.4 0 0 264.59,709.90 L 275.84,717.76 A 0.91,0.87 32.1 0 0 277.13,717.49 L 281.27,709.94 A 0.46,0.44 31.3 0 1 281.92,709.80 L 292.58,716.75 A 0.57,0.53 -54.5 0 0 293.31,716.60 Q 296.76,712.12 298.63,706.36 A 0.95,0.94 30.9 0 0 298.38,705.39 Q 293.28,700.46 286.70,697.45 A 0.57,0.54 26.5 0 0 285.98,697.67 L 281.90,705.22 A 0.43,0.42 -58.2 0 1 281.29,705.37 ZM 577.60,767.20 Q 576.34,760.66 573.15,754.83 Q 570.93,750.76 566.49,749.50 A 2.02,2.01 21.0 0 0 564.13,750.55 Q 560.73,757.54 555.05,762.50 Q 552.89,764.40 542.88,770.86 Q 533.21,777.10 523.31,782.97 Q 522.89,783.22 522.63,783.49 Q 521.63,784.54 523.00,784.48 Q 523.37,784.46 523.86,784.29 Q 529.51,782.30 535.06,780.06 Q 544.17,776.40 551.79,770.35 Q 555.23,767.63 557.40,764.84 Q 559.79,761.78 561.59,758.12 A 0.49,0.49 -52.0 0 1 562.40,758.02 Q 563.05,758.79 563.85,759.32 Q 565.35,760.34 565.45,760.41 Q 567.08,761.42 568.46,760.04 A 0.84,0.84 52.3 0 1 569.78,760.21 Q 574.25,767.85 575.88,776.72 Q 576.32,779.11 577.67,777.09 Q 578.26,776.20 578.80,775.05 Q 579.22,774.15 579.47,772.86 Q 581.01,764.90 583.51,757.21 Q 584.28,754.86 585.08,754.18 Q 586.79,752.73 589.24,755.74 Q 591.01,757.92 591.84,755.24 Q 593.71,749.24 589.11,746.82 Q 586.59,745.49 584.70,747.62 Q 581.93,750.72 581.08,754.02 Q 579.40,760.60 577.80,767.21 Q 577.69,767.68 577.60,767.20 ZM 194.37,775.19 Q 195.89,776.28 197.35,775.11 Q 200.08,772.91 200.47,768.90 Q 200.50,768.54 200.65,768.12 Q 201.05,767.01 200.26,767.33 A 1.49,0.99 -79.0 0 0 199.59,768.01 Q 198.68,769.81 198.31,770.06 Q 195.65,771.89 194.96,768.57 Q 194.54,766.57 194.93,764.56 Q 195.85,759.77 197.66,754.22 Q 197.82,753.71 197.67,753.58 A 0.52,0.27 -57.0 0 0 197.12,753.89 Q 192.28,761.99 192.40,771.50 Q 192.43,773.80 194.37,775.19 ZM 340.92,789.87 Q 344.08,790.64 345.61,787.59 Q 347.21,784.38 347.71,780.82 Q 347.76,780.47 347.71,780.19 Q 347.49,778.98 346.81,780.31 Q 345.46,782.96 343.69,784.02 A 0.98,0.97 42.0 0 1 342.78,784.06 Q 340.30,782.94 340.50,780.00 Q 341.06,771.73 344.35,763.40 Q 344.45,763.17 344.44,762.96 Q 344.40,761.95 343.76,762.98 Q 338.61,771.27 337.75,781.00 Q 337.47,784.06 338.34,787.34 Q 338.88,789.37 340.92,789.87 ZM 450.08,778.71 Q 448.41,771.83 445.44,768.56 Q 440.81,763.48 438.19,770.33 A 1.50,1.48 38.4 0 0 438.36,771.71 Q 440.02,774.15 442.01,774.46 A 1.29,0.81 -50.9 0 0 442.86,774.17 Q 443.76,773.49 444.31,774.44 Q 447.57,779.98 448.72,786.49 Q 449.00,788.07 449.83,786.70 Q 451.31,784.26 451.86,781.17 Q 452.70,776.37 454.33,771.78 Q 455.98,767.10 458.63,771.08 A 0.85,0.85 44.5 0 0 460.05,771.07 Q 462.06,768.04 459.86,765.41 Q 457.97,763.15 455.93,764.22 Q 454.74,764.86 453.76,766.89 Q 451.08,772.47 450.25,778.68 Q 450.19,779.17 450.08,778.71 ZM 207.19,768.06 Q 214.69,773.35 222.30,774.23 Q 222.50,774.25 222.68,774.30 Q 224.48,774.77 223.09,774.13 Q 222.94,774.06 222.79,774.03 Q 213.54,772.31 206.15,766.56 Q 205.59,766.13 205.88,766.73 Q 206.19,767.36 207.19,768.06 ZM 242.70,791.57 Q 244.85,792.96 246.27,790.82 Q 248.27,787.79 248.64,784.06 Q 248.70,783.52 248.26,783.82 Q 247.58,784.30 247.14,785.00 Q 246.23,786.43 245.94,786.65 Q 244.46,787.78 243.42,786.03 Q 242.44,784.39 242.75,782.51 Q 243.73,776.49 245.68,770.73 Q 245.81,770.36 245.75,770.02 Q 245.64,769.43 245.30,769.98 Q 240.44,778.02 240.52,787.50 Q 240.55,790.18 242.70,791.57 ZM 385.10,782.85 L 395.45,789.82 A 1.00,0.99 -57.1 0 0 396.85,789.51 Q 399.13,785.78 401.20,781.85 Q 402.86,778.72 400.42,777.14 Q 398.89,776.15 398.81,776.09 Q 394.78,772.92 390.23,770.49 A 1.09,1.09 27.2 0 0 388.73,770.97 L 385.29,777.99 A 0.77,0.73 30.5 0 1 384.18,778.24 L 374.10,771.36 A 1.19,1.14 -60.1 0 0 372.41,771.85 L 367.46,782.05 A 0.59,0.57 31.0 0 0 367.65,782.78 L 379.01,790.79 A 0.89,0.87 32.1 0 0 380.29,790.51 L 384.45,783.01 A 0.45,0.45 -58.6 0 1 385.10,782.85 ZM 297.53,786.46 Q 295.56,780.64 293.69,777.31 Q 292.11,774.51 288.74,774.05 A 1.14,1.13 -61.4 0 0 287.87,774.31 Q 282.76,778.69 288.25,781.96 Q 288.79,782.29 289.32,782.24 Q 290.05,782.17 290.43,781.81 A 0.75,0.74 -36.5 0 1 291.60,781.98 Q 294.84,787.78 296.00,794.02 Q 296.37,795.97 297.31,794.22 Q 299.31,790.48 299.97,786.03 Q 300.45,782.72 301.44,779.53 Q 302.83,775.04 305.81,778.71 A 1.10,1.09 -51.7 0 0 307.65,778.49 Q 309.67,774.24 306.07,772.21 Q 303.03,770.50 301.47,773.62 Q 298.42,779.72 297.74,786.45 Q 297.69,786.93 297.53,786.46 Z"/>
<path fill="#ffffff" d="M 455.46,587.75 Q 448.35,590.60 442.31,587.44 Q 433.49,582.82 430.43,573.30 A 0.54,0.54 -28.7 0 0 429.57,573.05 Q 417.63,583.19 402.25,586.04 Q 385.10,586.61 378.56,571.69 Q 374.13,561.55 375.46,549.25 Q 376.44,535.98 381.33,523.64 Q 381.59,522.98 381.99,522.63 Q 383.11,521.63 383.04,523.62 Q 383.03,524.13 382.85,524.88 Q 380.75,533.99 379.46,543.24 Q 378.83,547.74 379.20,552.25 Q 380.24,565.20 391.56,569.44 Q 396.03,571.11 401.39,570.85 Q 405.68,570.64 410.93,568.76 Q 419.95,565.53 427.73,559.87 A 2.25,2.24 -15.9 0 0 428.65,558.23 Q 429.82,543.82 433.94,531.20 Q 434.22,530.33 434.68,529.81 Q 436.30,527.96 435.78,532.25 Q 434.36,543.78 432.45,555.53 Q 432.29,556.52 433.09,555.92 Q 446.06,546.12 456.19,534.19 Q 457.58,532.55 458.80,529.95 A 1.18,1.07 -46.5 0 0 458.82,529.04 Q 457.76,526.64 455.00,525.75 Q 450.24,524.22 445.75,524.45 Q 442.22,524.64 438.72,524.37 Q 434.46,524.05 431.93,522.87 Q 424.63,519.44 425.75,509.75 Q 426.74,501.18 431.88,495.40 Q 435.95,490.81 440.81,490.01 Q 444.91,489.33 448.64,491.50 Q 451.19,492.99 454.20,496.71 Q 466.92,512.46 463.50,532.75 Q 462.09,541.11 455.69,548.43 Q 445.71,559.85 434.31,569.35 A 1.48,1.47 55.2 0 0 433.98,571.21 Q 440.46,582.60 451.75,575.25 Q 458.29,570.99 463.15,563.37 Q 469.51,553.36 475.77,543.29 Q 481.84,533.51 489.07,524.57 Q 496.55,515.34 505.69,509.44 Q 510.64,506.24 517.33,504.66 Q 524.67,502.93 530.81,507.44 Q 533.34,509.29 534.18,512.02 Q 536.32,518.98 534.41,525.20 Q 533.82,527.14 532.62,525.51 Q 529.20,520.89 524.15,519.82 Q 520.06,518.95 514.62,520.84 Q 508.87,522.85 504.05,526.80 Q 497.34,532.31 492.06,539.16 Q 490.45,541.24 489.98,543.82 Q 488.70,550.80 489.25,556.00 Q 489.96,562.67 495.33,565.21 Q 499.12,567.01 504.30,565.70 Q 508.81,564.56 513.31,562.06 Q 520.95,557.83 523.15,556.37 Q 542.37,543.67 560.83,529.88 Q 565.54,526.36 567.19,523.94 Q 568.97,521.32 566.21,519.02 Q 563.86,517.07 561.14,515.66 Q 550.18,509.99 538.88,505.04 Q 523.18,498.15 512.27,484.95 Q 510.43,482.72 508.22,481.64 Q 506.34,480.71 506.25,478.77 L 505.75,467.68 A 1.31,1.28 9.2 0 1 507.52,466.44 Q 517.50,470.15 527.46,475.19 Q 528.41,475.67 528.71,476.18 Q 529.19,476.96 528.52,477.61 Q 528.14,477.98 527.37,478.16 Q 524.89,478.74 521.74,478.75 Q 520.36,478.76 521.44,479.61 Q 531.28,487.42 542.63,492.03 Q 551.72,495.72 560.47,500.14 Q 565.07,502.47 567.12,505.02 Q 569.86,508.43 570.75,512.75 Q 572.95,523.48 569.00,534.25 Q 568.48,535.68 566.14,538.20 Q 564.81,539.63 562.59,541.53 Q 539.55,561.24 514.94,576.44 Q 511.70,578.44 507.76,579.96 Q 503.50,581.60 500.03,581.47 Q 493.02,581.19 489.37,575.82 Q 486.93,572.22 485.95,565.23 Q 484.77,556.76 486.19,548.17 Q 486.43,546.74 485.67,547.97 Q 477.19,561.67 468.56,575.31 Q 463.27,583.68 455.46,587.75 ZM 434.94,509.56 Q 437.86,511.11 442.00,510.74 Q 445.46,510.43 448.94,510.43 Q 449.44,510.43 449.17,510.01 Q 445.77,504.72 440.50,503.50 Q 438.20,502.97 435.50,504.11 Q 433.78,504.83 433.32,506.24 Q 432.63,508.33 434.94,509.56 Z"/>
<path fill="#ffffff" d="M 368.29,540.50 Q 367.26,547.13 364.19,551.44 Q 360.07,557.20 352.78,563.30 Q 344.20,570.46 334.61,576.08 Q 324.65,581.93 316.80,585.15 Q 301.45,591.46 285.50,590.75 Q 266.14,589.89 256.31,574.44 Q 250.53,565.35 249.26,553.02 Q 247.55,536.40 252.81,521.56 Q 253.56,519.44 254.47,521.00 A 1.65,1.19 -63.3 0 1 254.62,521.93 Q 252.18,539.75 252.06,543.06 Q 251.85,549.01 254.62,555.12 Q 257.09,560.60 261.43,565.11 Q 271.87,575.97 288.00,575.75 Q 301.84,575.57 315.58,570.62 Q 337.82,562.61 355.93,547.45 Q 360.59,543.55 363.77,538.99 Q 365.26,536.84 364.75,534.26 Q 362.38,522.33 356.03,511.96 Q 354.47,509.40 353.71,506.50 L 356.50,495.00 Q 357.22,492.04 358.56,494.44 Q 359.90,496.82 361.34,499.13 Q 363.14,502.03 364.72,503.40 Q 368.94,507.06 375.25,507.25 Q 386.73,507.60 392.44,497.89 Q 395.39,492.87 398.25,487.79 Q 398.77,486.98 399.40,486.26 Q 400.15,485.41 401.00,485.35 Q 402.77,485.21 402.25,488.00 Q 401.61,491.37 401.08,494.75 A 1.42,1.37 -57.0 0 0 401.26,495.69 Q 405.63,502.80 414.87,500.08 Q 417.82,499.21 416.18,496.66 L 413.78,492.92 A 1.28,1.01 39.8 0 1 413.59,492.01 L 416.22,480.85 Q 416.77,478.54 418.30,480.42 Q 419.68,482.12 420.64,484.03 Q 421.54,485.81 421.95,488.10 Q 423.75,498.11 419.07,507.32 Q 415.60,514.14 408.00,515.50 Q 404.28,516.16 401.06,514.19 Q 398.91,512.87 395.55,508.41 A 0.41,0.40 47.9 0 0 394.92,508.37 Q 393.20,510.36 391.73,512.55 Q 384.02,524.03 370.00,522.25 A 0.70,0.68 2.2 0 0 369.22,522.96 Q 369.60,532.18 368.29,540.50 Z"/>
<path fill="#25a8df" d="M 434.94,509.56 Q 432.63,508.33 433.32,506.24 Q 433.78,504.83 435.50,504.11 Q 438.20,502.97 440.50,503.50 Q 445.77,504.72 449.17,510.01 Q 449.44,510.43 448.94,510.43 Q 445.46,510.43 442.00,510.74 Q 437.86,511.11 434.94,509.56 Z"/>
<path fill="#ffffff" d="M 330.11,525.21 Q 328.79,524.06 328.71,522.49 Q 328.25,514.29 332.31,507.24 A 0.74,0.46 -60.9 0 1 333.05,506.83 Q 333.39,506.99 333.05,507.74 Q 330.39,513.49 330.72,519.75 A 1.55,1.33 -70.9 0 0 331.07,520.64 Q 332.86,522.61 334.19,519.69 Q 334.51,518.99 334.96,518.72 Q 335.45,518.43 335.42,519.07 Q 335.20,522.83 332.72,525.17 A 1.94,1.93 44.0 0 1 330.11,525.21 Z"/>
<path fill="#ffffff" d="M 279.06,518.03 Q 277.81,518.18 276.36,518.92 Q 275.45,519.39 275.57,518.38 Q 276.34,512.10 281.58,511.06 Q 284.61,510.46 285.74,513.33 Q 286.94,516.38 285.86,519.60 Q 285.21,521.54 283.09,524.95 Q 279.37,530.96 273.25,534.78 Q 272.46,535.27 272.32,534.81 A 1.05,0.60 -38.9 0 1 272.65,533.96 Q 278.72,527.71 281.75,522.50 Q 283.08,520.22 281.58,518.82 Q 280.55,517.86 279.06,518.03 Z"/>
<path fill="#ffffff" d="M 662.75,679.54 Q 663.12,687.33 661.79,695.00 Q 657.94,710.82 648.19,722.19 Q 634.12,738.57 615.86,750.15 Q 613.34,751.74 610.55,752.82 Q 608.88,753.46 609.87,751.97 Q 611.80,749.09 614.56,746.81 Q 618.01,743.97 631.56,730.81 Q 645.31,717.47 652.21,702.50 Q 657.03,692.14 655.10,680.83 Q 653.47,671.25 649.66,662.32 Q 644.97,651.35 638.94,641.06 Q 633.46,631.72 612.97,602.33 Q 610.44,598.69 607.90,594.67 Q 606.80,592.94 606.96,594.99 Q 608.89,619.74 610.68,643.99 Q 612.31,666.02 612.75,683.25 Q 612.84,686.86 612.29,692.75 Q 611.22,709.55 602.31,723.06 Q 598.58,728.73 592.62,731.06 Q 587.41,733.11 580.75,731.71 Q 574.69,730.43 569.38,727.28 Q 566.07,725.32 559.99,719.73 Q 550.79,711.27 541.64,702.75 Q 541.40,702.53 541.17,702.51 Q 540.64,702.46 541.00,703.25 Q 544.33,710.48 545.50,716.75 Q 545.81,718.43 544.64,724.73 Q 542.47,736.41 532.21,742.22 Q 521.82,748.10 510.77,752.62 A 0.82,0.81 81.2 0 0 510.27,753.31 Q 509.36,762.60 505.52,770.81 Q 502.41,777.44 495.23,785.36 Q 479.84,802.33 460.19,814.43 Q 453.15,818.76 445.36,821.03 Q 436.46,823.61 429.47,822.70 Q 416.45,821.01 409.81,808.19 Q 407.02,802.80 406.48,796.23 Q 404.85,776.32 412.14,757.17 A 0.51,0.50 11.1 0 0 411.68,756.49 Q 407.46,756.41 403.02,755.41 Q 390.42,752.56 387.02,740.13 Q 385.73,735.40 385.50,730.48 A 0.38,0.37 77.6 0 0 384.99,730.15 Q 365.51,737.92 345.85,744.42 Q 315.86,754.33 284.68,759.37 Q 265.13,762.53 246.50,762.25 Q 239.49,762.14 231.17,760.93 Q 221.59,759.53 213.11,755.40 Q 203.86,750.89 198.36,744.20 Q 189.40,733.31 190.03,717.74 Q 190.54,704.94 196.28,693.44 Q 196.55,692.89 195.96,693.06 Q 189.88,694.72 185.58,692.08 Q 182.48,690.18 180.91,685.77 Q 179.54,681.94 179.47,677.75 Q 179.26,664.04 183.92,651.18 Q 188.83,637.62 197.69,624.94 Q 198.08,624.38 198.52,624.36 A 0.51,0.39 -81.2 0 1 198.87,624.99 Q 198.26,627.25 197.38,629.41 Q 193.90,637.98 191.27,646.83 Q 188.11,657.49 187.66,660.06 Q 186.39,667.41 188.50,674.00 Q 190.13,679.09 194.66,679.21 Q 197.88,679.30 201.06,676.53 Q 204.00,673.97 205.70,670.75 Q 206.38,669.46 207.38,668.40 Q 209.20,666.45 209.06,668.85 Q 209.03,669.37 208.85,670.13 Q 205.03,685.66 198.06,700.06 Q 196.95,702.37 196.21,707.46 Q 195.55,712.04 195.90,715.05 Q 197.00,724.39 205.44,730.31 Q 215.92,737.67 227.17,740.15 Q 245.62,744.22 264.50,743.25 Q 286.22,742.14 302.83,738.91 Q 325.71,734.45 347.94,727.46 Q 368.96,720.85 389.55,713.03 Q 391.10,712.44 393.73,712.14 A 1.33,1.33 -89.7 0 1 395.20,713.63 Q 395.05,714.88 394.74,716.50 Q 390.85,736.82 411.25,737.57 Q 415.92,737.74 421.56,736.56 Q 425.96,735.65 428.62,732.58 A 0.96,0.95 -32.9 0 0 428.81,731.70 Q 427.70,727.62 424.81,723.94 Q 423.55,722.32 422.93,720.26 Q 422.41,718.50 423.02,716.27 Q 424.79,709.84 427.41,703.75 Q 428.47,701.31 429.99,703.49 Q 438.99,716.36 436.39,732.02 Q 434.39,744.01 425.81,751.56 Q 421.79,755.11 415.80,756.23 A 0.83,0.82 -86.4 0 0 415.16,756.80 Q 413.90,760.98 412.00,770.00 Q 410.13,778.84 410.71,785.81 Q 411.84,799.62 424.25,804.25 Q 428.08,805.68 432.71,805.97 Q 436.75,806.22 441.22,805.25 Q 450.61,803.21 460.31,797.81 Q 478.19,787.87 493.94,772.19 Q 498.33,767.81 501.11,764.07 Q 502.80,761.80 503.12,759.99 Q 503.53,757.64 502.60,755.28 A 0.94,0.93 -16.7 0 0 501.54,754.71 Q 491.22,756.90 481.26,755.44 Q 467.16,753.38 468.74,739.00 Q 469.60,731.10 475.56,723.56 Q 480.44,717.40 487.31,716.81 Q 489.73,716.61 492.44,717.83 Q 494.40,718.72 496.62,720.76 Q 504.28,727.79 508.79,737.29 A 0.55,0.54 67.8 0 0 509.47,737.58 Q 524.62,731.87 538.47,723.50 Q 541.51,721.66 540.13,718.34 Q 536.02,708.43 528.58,700.67 Q 520.93,692.67 512.37,685.64 Q 486.61,664.48 460.35,643.52 Q 459.08,642.51 458.98,640.89 Q 458.26,629.89 461.50,619.00 Q 462.29,616.35 464.75,614.21 L 474.54,607.00 Q 504.36,589.36 536.20,575.78 Q 549.04,570.30 554.69,568.15 Q 565.55,564.01 577.94,560.69 Q 583.80,559.11 589.13,559.54 Q 591.50,559.73 592.70,560.55 Q 594.41,561.73 594.72,564.00 Q 594.85,565.01 595.23,564.06 L 599.44,553.44 Q 600.20,551.52 600.94,553.31 Q 603.05,558.44 605.40,563.46 Q 607.54,568.01 610.72,573.16 Q 621.44,590.52 629.56,602.69 Q 640.23,618.66 648.05,632.70 Q 660.24,654.58 662.75,679.54 ZM 513.50,600.21 Q 490.20,610.92 468.75,624.96 L 462.93,629.19 A 0.82,0.82 42.6 0 0 462.99,630.55 Q 515.65,662.48 562.11,703.17 Q 562.16,703.22 565.19,706.03 Q 570.90,711.33 578.00,713.75 Q 591.18,718.25 601.19,709.57 Q 602.74,708.24 603.17,706.20 Q 604.43,700.30 604.00,693.00 Q 602.33,664.75 601.71,657.50 L 600.71,643.25 Q 598.53,613.49 597.08,583.69 Q 597.08,583.66 597.01,580.31 Q 596.91,575.36 595.24,570.48 Q 595.05,569.92 594.89,570.49 Q 591.37,583.21 582.96,592.69 Q 578.13,598.13 573.33,603.58 Q 567.43,610.26 563.72,617.80 Q 562.22,620.84 562.44,617.46 Q 562.64,614.29 563.86,611.40 Q 566.23,605.77 569.54,600.71 Q 571.32,597.98 577.07,591.31 Q 582.30,585.25 587.01,578.74 Q 589.26,575.63 585.49,574.90 Q 579.87,573.81 574.23,575.03 Q 572.26,575.46 563.71,578.52 Q 537.92,587.74 513.50,600.21 ZM 481.16,739.54 Q 487.51,741.56 494.03,739.41 A 0.37,0.36 62.1 0 0 494.20,738.84 Q 490.89,734.36 487.69,733.06 Q 483.36,731.30 480.31,732.56 Q 475.86,734.41 477.76,737.25 Q 478.78,738.79 481.16,739.54 Z"/>
<path fill="#25a8df" d="M 600.71,643.25 Q 599.15,643.88 597.25,643.25 Q 568.48,633.72 542.99,619.18 A 0.85,0.73 -44.8 0 0 542.17,619.24 Q 541.53,619.65 540.75,619.71 Q 542.11,616.79 539.06,615.94 Q 536.20,615.14 532.50,615.54 Q 531.87,615.59 532.43,614.03 A 1.02,0.98 26.6 0 0 532.01,612.86 L 515.58,602.12 A 1.89,1.80 -72.9 0 1 514.77,600.50 Q 514.80,599.88 513.50,600.21 Q 537.92,587.74 563.71,578.52 Q 572.26,575.46 574.23,575.03 Q 579.87,573.81 585.49,574.90 Q 589.26,575.63 587.01,578.74 Q 582.30,585.25 577.07,591.31 Q 571.32,597.98 569.54,600.71 Q 566.23,605.77 563.86,611.40 Q 562.64,614.29 562.44,617.46 Q 562.22,620.84 563.72,617.80 Q 567.43,610.26 573.33,603.58 Q 578.13,598.13 582.96,592.69 Q 591.37,583.21 594.89,570.49 Q 595.05,569.92 595.24,570.48 Q 596.91,575.36 597.01,580.31 Q 597.08,583.66 597.08,583.69 Q 598.53,613.49 600.71,643.25 Z"/>
<path fill="#1e86c7" d="M 455.46,587.75 Q 455.64,588.42 455.82,589.08 Q 456.00,589.76 456.47,590.24 Q 460.05,593.93 464.04,597.14 Q 465.77,598.54 468.08,600.78 Q 470.28,602.92 472.31,604.19 Q 474.16,605.34 474.54,607.00 L 464.75,614.21 Q 464.75,613.03 464.06,612.44 Q 461.58,610.30 460.23,608.77 Q 460.18,608.71 459.86,608.18 Q 459.54,607.63 458.75,607.71 L 460.78,603.71 Q 461.76,601.77 459.57,602.56 L 426.75,614.46 Q 425.87,612.68 423.69,610.56 Q 418.66,605.68 407.25,593.00 Q 403.60,588.95 402.25,586.04 Q 417.63,583.19 429.57,573.05 A 0.54,0.54 -28.7 0 1 430.43,573.30 Q 433.49,582.82 442.31,587.44 Q 448.35,590.60 455.46,587.75 Z"/>
<path fill="#ffffff" d="M 229.14,617.08 Q 226.26,614.89 224.26,618.28 Q 223.76,619.13 222.98,619.77 Q 222.25,620.37 222.25,619.42 Q 222.25,614.00 225.99,608.89 A 1.65,1.65 -35.1 0 0 226.24,607.47 Q 224.18,600.15 220.74,593.35 Q 219.80,591.48 218.27,592.98 A 1.35,1.34 30.7 0 1 216.95,593.31 Q 214.01,592.46 212.28,589.89 Q 211.28,588.40 212.12,587.06 L 215.01,582.46 A 0.94,0.82 15.7 0 1 215.82,582.08 Q 218.34,582.23 219.81,583.44 Q 224.51,587.28 226.28,593.12 Q 227.23,596.26 227.67,599.00 Q 228.06,601.45 228.50,599.01 Q 229.67,592.45 231.67,586.10 Q 232.86,582.33 234.94,580.19 Q 237.35,577.69 240.22,580.04 Q 244.77,583.75 241.81,588.42 A 1.34,1.34 -46.5 0 1 239.59,588.48 Q 236.06,583.50 233.89,589.34 Q 232.27,593.68 231.48,598.25 Q 230.64,603.11 228.93,607.95 A 0.49,0.49 -68.7 0 0 229.20,608.57 Q 234.31,610.67 238.16,615.36 A 3.07,3.04 33.2 0 1 238.75,618.11 Q 237.91,621.14 236.35,622.89 A 1.69,1.39 10.7 0 1 235.51,623.35 Q 229.36,624.62 223.91,627.51 A 1.69,1.68 67.1 0 0 223.10,629.52 Q 227.13,642.07 227.77,654.75 Q 228.12,661.80 226.66,668.68 Q 226.53,669.31 226.16,669.24 A 0.75,0.49 -86.1 0 1 225.76,668.52 Q 225.88,657.09 223.75,646.75 Q 222.29,639.63 221.30,634.18 Q 220.15,627.79 221.17,624.82 Q 222.88,619.80 228.96,618.02 Q 229.97,617.72 229.14,617.08 Z"/>
<path fill="#229cd7" d="M 652.21,702.50 Q 650.75,703.10 649.37,702.74 Q 647.76,702.31 647.73,702.31 Q 641.85,701.37 635.98,700.34 Q 635.62,700.27 635.05,700.47 Q 634.08,700.81 633.25,699.96 Q 635.00,696.14 635.75,692.00 Q 636.26,689.17 634.69,691.69 Q 633.73,693.22 632.66,694.67 Q 631.43,696.34 629.88,695.91 Q 628.71,695.59 628.16,694.08 Q 626.92,690.67 627.75,686.75 Q 629.47,678.62 631.83,671.97 Q 632.09,671.24 631.54,671.36 Q 631.23,671.43 630.94,671.94 Q 624.85,682.72 624.21,693.75 Q 623.67,694.49 623.43,693.90 A 1.01,0.71 79.6 0 0 622.85,693.33 L 613.80,691.18 A 0.56,0.48 -73.9 0 0 613.21,691.56 Q 612.99,692.27 612.29,692.75 Q 612.84,686.86 612.75,683.25 Q 612.31,666.02 610.68,643.99 Q 608.89,619.74 606.96,594.99 Q 606.80,592.94 607.90,594.67 Q 610.44,598.69 612.97,602.33 Q 633.46,631.72 638.94,641.06 Q 644.97,651.35 649.66,662.32 Q 653.47,671.25 655.10,680.83 Q 657.03,692.14 652.21,702.50 Z"/>
<path fill="#ffffff" d="M 334.79,602.56 L 338.94,602.76 A 0.42,0.35 80.2 0 0 339.26,602.21 Q 338.00,598.43 340.87,595.83 A 0.51,0.49 -41.5 0 1 341.59,595.86 Q 343.05,597.60 342.75,600.50 Q 342.24,605.52 339.64,608.68 A 1.47,1.46 -76.5 0 1 338.83,609.18 Q 335.52,609.92 332.41,608.30 A 1.09,1.09 36.2 0 0 331.12,608.50 Q 328.27,611.38 324.97,612.10 Q 323.94,612.32 318.92,611.77 Q 310.37,610.84 303.56,617.06 Q 297.23,622.86 294.15,626.14 Q 288.59,632.07 280.55,633.57 Q 277.87,634.07 280.24,632.71 Q 290.13,627.06 297.59,618.42 Q 302.74,612.45 303.29,611.94 Q 306.44,608.95 310.18,606.67 Q 314.81,603.85 320.02,604.51 Q 320.05,604.52 323.27,605.42 Q 326.12,606.23 328.51,604.64 Q 329.66,603.88 330.87,601.81 Q 332.39,599.19 332.94,598.69 Q 334.68,597.10 334.72,599.02 Q 334.72,599.42 334.41,600.29 Q 334.12,601.10 334.22,601.94 A 0.71,0.58 87.0 0 0 334.79,602.56 Z"/>
<path fill="#ffffff" d="M 370.62,618.34 Q 368.50,617.00 368.50,614.49 Q 368.51,604.78 373.24,596.92 Q 373.58,596.37 373.74,596.94 Q 373.84,597.30 373.69,597.73 Q 371.89,602.77 371.01,608.03 Q 370.69,609.96 371.05,611.46 Q 372.22,616.46 375.84,610.86 Q 376.78,609.41 376.58,611.13 Q 376.20,614.52 374.40,617.18 Q 372.73,619.66 370.62,618.34 Z"/>
<path fill="#2195d2" d="M 513.50,600.21 Q 514.80,599.88 514.77,600.50 A 1.89,1.80 -72.9 0 0 515.58,602.12 L 532.01,612.86 A 1.02,0.98 26.6 0 1 532.43,614.03 Q 531.87,615.59 532.50,615.54 Q 527.21,616.41 522.65,619.07 Q 520.57,620.28 519.85,621.48 Q 518.46,623.78 521.31,625.69 Q 525.03,628.17 532.36,631.01 Q 534.90,632.00 536.75,634.00 Q 539.11,636.54 535.75,635.50 Q 531.88,634.30 528.06,632.92 Q 521.26,630.47 520.45,630.09 Q 516.44,628.20 513.34,624.87 Q 512.99,624.50 512.94,624.99 Q 512.31,631.69 519.00,634.25 Q 528.52,637.89 534.77,639.39 A 1.40,1.32 36.4 0 0 535.69,639.28 Q 538.21,637.95 539.44,636.44 Q 541.08,634.41 540.45,632.06 Q 540.00,630.43 538.34,628.95 Q 536.69,627.48 535.00,627.00 Q 529.40,625.41 524.58,622.20 Q 522.22,620.63 524.99,620.00 Q 529.69,618.94 535.28,619.01 A 1.96,1.95 -8.2 0 1 537.12,620.38 Q 537.78,622.46 539.52,620.77 Q 540.11,620.21 540.75,619.71 Q 541.53,619.65 542.17,619.24 A 0.85,0.73 -44.8 0 1 542.99,619.18 Q 568.48,633.72 597.25,643.25 Q 599.15,643.88 600.71,643.25 L 601.71,657.50 Q 599.99,658.10 598.94,657.81 Q 590.02,655.32 577.96,650.44 A 0.78,0.64 -53.6 0 0 577.19,650.63 Q 576.39,651.40 575.54,650.25 L 572.79,648.06 A 1.29,1.08 30.8 0 1 572.33,646.74 Q 573.96,642.09 573.02,638.08 Q 572.39,635.39 569.76,636.25 Q 565.27,637.71 563.10,641.49 Q 561.52,644.25 562.12,646.72 Q 562.82,649.59 566.09,651.13 A 0.88,0.88 35.9 0 1 566.32,652.56 Q 562.14,656.49 557.25,659.50 Q 548.72,664.75 540.04,669.75 Q 539.68,669.41 537.94,668.56 Q 502.87,651.48 470.65,626.06 A 1.65,0.59 78.0 0 1 470.16,625.26 Q 469.87,624.51 468.75,624.96 Q 490.20,610.92 513.50,600.21 Z"/>
<path fill="#ffffff" d="M 458.75,607.71 Q 418.54,622.62 378.45,637.85 Q 376.37,638.65 375.16,639.40 Q 373.55,640.40 372.25,641.63 A 1.27,1.21 -54.8 0 0 372.55,643.68 L 378.59,646.27 A 1.15,0.91 8.4 0 1 379.21,646.93 Q 379.91,649.42 379.31,651.96 A 0.60,0.58 8.0 0 1 378.69,652.41 Q 374.07,652.09 370.56,649.69 Q 367.90,647.86 368.71,644.49 Q 370.96,635.14 379.81,631.56 Q 391.72,626.75 426.75,614.46 L 459.57,602.56 Q 461.76,601.77 460.78,603.71 L 458.75,607.71 Z"/>
<path fill="#ffffff" d="M 532.50,615.54 Q 536.20,615.14 539.06,615.94 Q 542.11,616.79 540.75,619.71 Q 540.11,620.21 539.52,620.77 Q 537.78,622.46 537.12,620.38 A 1.96,1.95 -8.2 0 0 535.28,619.01 Q 529.69,618.94 524.99,620.00 Q 522.22,620.63 524.58,622.20 Q 529.40,625.41 535.00,627.00 Q 536.69,627.48 538.34,628.95 Q 540.00,630.43 540.45,632.06 Q 541.08,634.41 539.44,636.44 Q 538.21,637.95 535.69,639.28 A 1.40,1.32 36.4 0 1 534.77,639.39 Q 528.52,637.89 519.00,634.25 Q 512.31,631.69 512.94,624.99 Q 512.99,624.50 513.34,624.87 Q 516.44,628.20 520.45,630.09 Q 521.26,630.47 528.06,632.92 Q 531.88,634.30 535.75,635.50 Q 539.11,636.54 536.75,634.00 Q 534.90,632.00 532.36,631.01 Q 525.03,628.17 521.31,625.69 Q 518.46,623.78 519.85,621.48 Q 520.57,620.28 522.65,619.07 Q 527.21,616.41 532.50,615.54 Z"/>
<path fill="#1e86c7" d="M 540.04,669.75 Q 537.80,672.06 540.58,670.93 Q 541.04,670.74 541.45,670.63 Q 557.88,666.07 569.41,653.62 A 0.64,0.54 -49.7 0 1 570.19,653.49 L 572.39,655.15 A 0.65,0.52 41.4 0 0 573.13,655.18 Q 575.29,653.24 575.54,650.25 Q 576.39,651.40 577.19,650.63 A 0.78,0.64 -53.6 0 1 577.96,650.44 Q 590.02,655.32 598.94,657.81 Q 599.99,658.10 601.71,657.50 Q 602.33,664.75 604.00,693.00 Q 604.43,700.30 603.17,706.20 Q 602.74,708.24 601.19,709.57 Q 591.18,718.25 578.00,713.75 Q 570.90,711.33 565.19,706.03 Q 562.16,703.22 562.11,703.17 Q 515.65,662.48 462.99,630.55 A 0.82,0.82 42.6 0 1 462.93,629.19 L 468.75,624.96 Q 469.87,624.51 470.16,625.26 A 1.65,0.59 78.0 0 0 470.65,626.06 Q 502.87,651.48 537.94,668.56 Q 539.68,669.41 540.04,669.75 Z"/>
<path fill="#ffffff" d="M 575.54,650.25 Q 575.29,653.24 573.13,655.18 A 0.65,0.52 41.4 0 1 572.39,655.15 L 570.19,653.49 A 0.64,0.54 -49.7 0 0 569.41,653.62 Q 557.88,666.07 541.45,670.63 Q 541.04,670.74 540.58,670.93 Q 537.80,672.06 540.04,669.75 Q 548.72,664.75 557.25,659.50 Q 562.14,656.49 566.32,652.56 A 0.88,0.88 35.9 0 0 566.09,651.13 Q 562.82,649.59 562.12,646.72 Q 561.52,644.25 563.10,641.49 Q 565.27,637.71 569.76,636.25 Q 572.39,635.39 573.02,638.08 Q 573.96,642.09 572.33,646.74 A 1.29,1.08 30.8 0 0 572.79,648.06 L 575.54,650.25 ZM 566.45,644.14 Q 570.56,647.87 569.92,643.90 Q 569.71,642.60 569.02,641.92 Q 567.83,640.73 566.41,642.10 A 1.40,1.40 43.9 0 0 566.45,644.14 Z"/>
<path fill="#ffffff" d="M 293.98,669.80 Q 292.71,667.75 292.75,665.00 Q 292.95,651.85 299.75,640.99 Q 299.99,640.60 300.22,640.46 Q 300.78,640.11 300.20,641.73 Q 297.37,649.68 296.12,658.02 Q 295.64,661.19 296.94,664.07 Q 297.97,666.36 300.10,665.02 Q 302.11,663.76 303.21,660.78 Q 303.43,660.17 303.82,660.26 A 0.73,0.51 -83.3 0 1 304.22,661.00 Q 303.77,666.67 300.94,670.44 Q 299.25,672.69 296.94,672.11 Q 295.12,671.65 293.98,669.80 Z"/>
<path fill="#229cd7" d="M 566.45,644.14 A 1.40,1.40 43.9 0 1 566.41,642.10 Q 567.83,640.73 569.02,641.92 Q 569.71,642.60 569.92,643.90 Q 570.56,647.87 566.45,644.14 Z"/>
<path fill="#ffffff" d="M 345.44,668.20 Q 347.30,661.37 349.00,654.50 Q 349.63,651.95 352.32,649.06 Q 355.02,646.15 357.93,648.82 Q 361.81,652.39 359.23,657.11 A 1.18,1.17 41.1 0 1 357.25,657.24 Q 353.75,652.47 351.50,657.25 Q 349.72,661.03 348.31,669.16 Q 347.13,675.99 343.88,681.88 Q 340.90,687.27 335.23,691.88 Q 328.58,697.28 321.31,700.31 Q 310.62,704.77 307.00,705.75 Q 305.20,706.24 305.93,705.06 Q 306.14,704.72 306.57,704.47 Q 313.47,700.42 332.81,688.06 Q 339.45,683.82 343.20,678.90 A 1.29,1.28 60.7 0 0 343.45,678.00 Q 342.50,668.79 337.22,661.22 A 0.56,0.54 -31.0 0 0 336.51,661.06 Q 333.40,662.70 330.09,658.38 Q 328.80,656.69 329.72,655.20 L 332.25,651.10 A 1.52,1.35 21.8 0 1 333.85,650.52 Q 338.97,651.81 341.42,656.63 Q 344.21,662.12 345.23,668.19 Q 345.32,668.68 345.44,668.20 Z"/>
<path fill="#ffffff" d="M 256.31,674.19 Q 258.13,675.91 259.69,672.69 Q 260.56,670.89 262.05,669.63 Q 262.44,669.29 262.41,669.81 Q 262.14,674.28 259.94,678.03 Q 258.46,680.54 256.28,680.95 Q 253.12,681.55 251.56,677.69 Q 250.30,674.55 251.20,668.49 Q 252.72,658.28 258.17,649.54 A 0.56,0.34 -66.3 0 1 258.57,649.26 Q 258.83,649.27 258.68,649.68 Q 255.58,658.25 254.09,667.22 Q 253.39,671.43 256.31,674.19 Z"/>
<path fill="#ffffff" d="M 428.85,674.72 Q 430.90,673.42 428.51,673.00 Q 417.33,671.06 406.02,671.94 Q 405.92,671.94 404.50,672.11 Q 400.82,672.54 402.54,669.78 Q 403.23,668.66 403.28,668.56 Q 404.65,666.11 406.09,663.71 Q 407.82,660.83 409.87,659.74 Q 412.65,658.25 416.00,658.25 Q 421.75,658.25 427.50,658.25 Q 434.15,658.25 440.45,660.31 Q 443.81,661.42 442.24,664.59 Q 439.81,669.49 436.27,673.93 Q 433.00,678.04 431.41,679.73 Q 428.37,683.00 425.19,684.19 Q 414.67,688.12 403.84,690.73 Q 402.10,691.15 403.43,689.94 Q 405.02,688.50 406.91,687.49 Q 418.55,681.26 428.85,674.72 Z"/>
<path fill="#ffffff" d="M 633.25,699.96 Q 630.49,704.18 627.12,702.16 Q 625.24,701.04 624.64,698.45 Q 624.11,696.15 624.21,693.75 Q 624.85,682.72 630.94,671.94 Q 631.23,671.43 631.54,671.36 Q 632.09,671.24 631.83,671.97 Q 629.47,678.62 627.75,686.75 Q 626.92,690.67 628.16,694.08 Q 628.71,695.59 629.88,695.91 Q 631.43,696.34 632.66,694.67 Q 633.73,693.22 634.69,691.69 Q 636.26,689.17 635.75,692.00 Q 635.00,696.14 633.25,699.96 Z"/>
<path fill="#2092cf" d="M 689.21,679.25 L 690.54,694.50 Q 691.19,697.26 688.56,696.94 Q 684.10,696.39 661.79,695.00 Q 663.12,687.33 662.75,679.54 Q 663.18,679.26 663.40,678.78 A 0.66,0.57 -70.6 0 1 664.05,678.41 Q 667.84,679.12 671.67,679.25 Q 676.28,679.42 679.29,679.75 Q 683.14,680.17 687.01,680.24 Q 687.43,680.25 687.90,680.53 Q 689.21,681.32 689.21,679.25 Z"/>
<path fill="#ffffff" d="M 455.18,700.88 L 453.69,697.30 A 0.56,0.48 -21.2 0 1 454.04,696.64 L 496.38,681.36 A 0.73,0.73 -5.6 0 1 497.35,682.15 Q 497.09,683.89 495.92,685.44 Q 495.02,686.65 493.10,687.38 Q 474.56,694.42 455.90,701.15 A 0.59,0.52 -20.9 0 1 455.18,700.88 Z"/>
<path fill="#ffffff" d="M 281.90,705.22 L 285.98,697.67 A 0.57,0.54 26.5 0 1 286.70,697.45 Q 293.28,700.46 298.38,705.39 A 0.95,0.94 30.9 0 1 298.63,706.36 Q 296.76,712.12 293.31,716.60 A 0.57,0.53 -54.5 0 1 292.58,716.75 L 281.92,709.80 A 0.46,0.44 31.3 0 0 281.27,709.94 L 277.13,717.49 A 0.91,0.87 32.1 0 1 275.84,717.76 L 264.59,709.90 A 0.86,0.79 31.4 0 1 264.29,708.86 L 269.42,698.67 A 1.01,1.00 -59.5 0 1 270.88,698.28 L 281.29,705.37 A 0.43,0.42 -58.2 0 0 281.90,705.22 Z"/>
<path fill="#1b75bb" d="M 477.76,737.25 Q 475.86,734.41 480.31,732.56 Q 483.36,731.30 487.69,733.06 Q 490.89,734.36 494.20,738.84 A 0.37,0.36 62.1 0 1 494.03,739.41 Q 487.51,741.56 481.16,739.54 Q 478.78,738.79 477.76,737.25 Z"/>
<path fill="#ffffff" d="M 577.80,767.21 Q 579.40,760.60 581.08,754.02 Q 581.93,750.72 584.70,747.62 Q 586.59,745.49 589.11,746.82 Q 593.71,749.24 591.84,755.24 Q 591.01,757.92 589.24,755.74 Q 586.79,752.73 585.08,754.18 Q 584.28,754.86 583.51,757.21 Q 581.01,764.90 579.47,772.86 Q 579.22,774.15 578.80,775.05 Q 578.26,776.20 577.67,777.09 Q 576.32,779.11 575.88,776.72 Q 574.25,767.85 569.78,760.21 A 0.84,0.84 52.3 0 0 568.46,760.04 Q 567.08,761.42 565.45,760.41 Q 565.35,760.34 563.85,759.32 Q 563.05,758.79 562.40,758.02 A 0.49,0.49 -52.0 0 0 561.59,758.12 Q 559.79,761.78 557.40,764.84 Q 555.23,767.63 551.79,770.35 Q 544.17,776.40 535.06,780.06 Q 529.51,782.30 523.86,784.29 Q 523.37,784.46 523.00,784.48 Q 521.63,784.54 522.63,783.49 Q 522.89,783.22 523.31,782.97 Q 533.21,777.10 542.88,770.86 Q 552.89,764.40 555.05,762.50 Q 560.73,757.54 564.13,750.55 A 2.02,2.01 21.0 0 1 566.49,749.50 Q 570.93,750.76 573.15,754.83 Q 576.34,760.66 577.60,767.20 Q 577.69,767.68 577.80,767.21 Z"/>
<path fill="#ffffff" d="M 194.37,775.19 Q 192.43,773.80 192.40,771.50 Q 192.28,761.99 197.12,753.89 A 0.52,0.27 -57.0 0 1 197.67,753.58 Q 197.82,753.71 197.66,754.22 Q 195.85,759.77 194.93,764.56 Q 194.54,766.57 194.96,768.57 Q 195.65,771.89 198.31,770.06 Q 198.68,769.81 199.59,768.01 A 1.49,0.99 -79.0 0 1 200.26,767.33 Q 201.05,767.01 200.65,768.12 Q 200.50,768.54 200.47,768.90 Q 200.08,772.91 197.35,775.11 Q 195.89,776.28 194.37,775.19 Z"/>
<path fill="#229ad5" d="M 297.96,825.50 L 302.48,826.32 Q 302.59,826.34 302.49,826.40 L 302.31,826.49 A 0.46,0.36 58.2 0 0 302.24,827.09 Q 303.57,829.15 303.25,832.25 Q 303.14,833.27 303.18,838.06 A 0.70,0.67 -10.9 0 1 302.72,838.71 Q 301.08,839.28 304.00,839.46 Q 281.97,841.05 259.98,843.00 Q 242.46,844.56 225.01,842.46 Q 208.03,840.41 193.06,834.19 Q 182.65,829.86 173.29,822.22 Q 155.04,807.33 151.12,783.98 Q 149.06,771.73 152.32,759.49 Q 152.87,757.43 153.05,759.55 Q 156.76,803.14 197.81,818.44 Q 203.35,820.50 209.87,822.12 Q 215.49,823.52 222.21,824.46 Q 245.46,827.72 269.50,826.25 Q 282.47,825.46 297.96,825.50 Z"/>
<path fill="#25a8df" d="M 638.75,841.46 Q 636.09,841.60 636.59,839.74 Q 637.03,838.08 637.05,837.68 Q 637.27,831.44 636.50,825.25 Q 635.58,824.88 637.00,824.29 Q 648.82,822.38 659.83,818.03 Q 669.85,814.06 677.33,808.50 Q 700.70,791.12 702.95,760.48 Q 703.20,757.03 703.98,760.40 Q 708.49,779.96 701.39,797.50 Q 697.71,806.59 690.93,814.42 Q 680.71,826.23 665.81,833.06 Q 652.34,839.25 638.75,841.46 Z"/>
<path fill="#ffffff" d="M 340.92,789.87 Q 338.88,789.37 338.34,787.34 Q 337.47,784.06 337.75,781.00 Q 338.61,771.27 343.76,762.98 Q 344.40,761.95 344.44,762.96 Q 344.45,763.17 344.35,763.40 Q 341.06,771.73 340.50,780.00 Q 340.30,782.94 342.78,784.06 A 0.98,0.97 42.0 0 0 343.69,784.02 Q 345.46,782.96 346.81,780.31 Q 347.49,778.98 347.71,780.19 Q 347.76,780.47 347.71,780.82 Q 347.21,784.38 345.61,787.59 Q 344.08,790.64 340.92,789.87 Z"/>
<path fill="#ffffff" d="M 450.25,778.68 Q 451.08,772.47 453.76,766.89 Q 454.74,764.86 455.93,764.22 Q 457.97,763.15 459.86,765.41 Q 462.06,768.04 460.05,771.07 A 0.85,0.85 44.5 0 1 458.63,771.08 Q 455.98,767.10 454.33,771.78 Q 452.70,776.37 451.86,781.17 Q 451.31,784.26 449.83,786.70 Q 449.00,788.07 448.72,786.49 Q 447.57,779.98 444.31,774.44 Q 443.76,773.49 442.86,774.17 A 1.29,0.81 -50.9 0 1 442.01,774.46 Q 440.02,774.15 438.36,771.71 A 1.50,1.48 38.4 0 1 438.19,770.33 Q 440.81,763.48 445.44,768.56 Q 448.41,771.83 450.08,778.71 Q 450.19,779.17 450.25,778.68 Z"/>
<path fill="#0873bb" d="M 207.19,768.06 Q 206.19,767.36 205.88,766.73 Q 205.59,766.13 206.15,766.56 Q 213.54,772.31 222.79,774.03 Q 222.94,774.06 223.09,774.13 Q 224.48,774.77 222.68,774.30 Q 222.50,774.25 222.30,774.23 Q 214.69,773.35 207.19,768.06 Z"/>
<path fill="#ffffff" d="M 242.70,791.57 Q 240.55,790.18 240.52,787.50 Q 240.44,778.02 245.30,769.98 Q 245.64,769.43 245.75,770.02 Q 245.81,770.36 245.68,770.73 Q 243.73,776.49 242.75,782.51 Q 242.44,784.39 243.42,786.03 Q 244.46,787.78 245.94,786.65 Q 246.23,786.43 247.14,785.00 Q 247.58,784.30 248.26,783.82 Q 248.70,783.52 248.64,784.06 Q 248.27,787.79 246.27,790.82 Q 244.85,792.96 242.70,791.57 Z"/>
<path fill="#ffffff" d="M 384.45,783.01 L 380.29,790.51 A 0.89,0.87 32.1 0 1 379.01,790.79 L 367.65,782.78 A 0.59,0.57 31.0 0 1 367.46,782.05 L 372.41,771.85 A 1.19,1.14 -60.1 0 1 374.10,771.36 L 384.18,778.24 A 0.77,0.73 30.5 0 0 385.29,777.99 L 388.73,770.97 A 1.09,1.09 27.2 0 1 390.23,770.49 Q 394.78,772.92 398.81,776.09 Q 398.89,776.15 400.42,777.14 Q 402.86,778.72 401.20,781.85 Q 399.13,785.78 396.85,789.51 A 1.00,0.99 -57.1 0 1 395.45,789.82 L 385.10,782.85 A 0.45,0.45 -58.6 0 0 384.45,783.01 Z"/>
<path fill="#ffffff" d="M 297.74,786.45 Q 298.42,779.72 301.47,773.62 Q 303.03,770.50 306.07,772.21 Q 309.67,774.24 307.65,778.49 A 1.10,1.09 -51.7 0 1 305.81,778.71 Q 302.83,775.04 301.44,779.53 Q 300.45,782.72 299.97,786.03 Q 299.31,790.48 297.31,794.22 Q 296.37,795.97 296.00,794.02 Q 294.84,787.78 291.60,781.98 A 0.75,0.74 -36.5 0 0 290.43,781.81 Q 290.05,782.17 289.32,782.24 Q 288.79,782.29 288.25,781.96 Q 282.76,778.69 287.87,774.31 A 1.14,1.13 -61.4 0 1 288.74,774.05 Q 292.11,774.51 293.69,777.31 Q 295.56,780.64 297.53,786.46 Q 297.69,786.93 297.74,786.45 Z"/>
<path fill="#229cd7" d="M 253.00,812.21 Q 252.78,812.20 252.67,812.25 Q 252.20,812.43 252.81,812.44 Q 256.56,812.53 252.84,812.91 Q 252.60,812.94 252.82,813.00 Q 253.59,813.24 253.94,813.84 Q 254.19,814.28 254.08,815.31 Q 253.91,816.90 254.11,819.38 A 0.83,0.81 -3.0 0 1 253.31,820.25 L 246.96,820.50 Q 231.74,819.79 213.75,815.25 Q 196.76,810.96 183.44,801.63 Q 176.05,796.46 171.89,790.97 Q 167.06,784.59 164.74,776.64 Q 164.40,775.45 164.97,776.49 Q 170.88,787.30 181.18,794.07 Q 191.35,800.74 203.03,804.15 Q 227.49,811.29 253.00,812.21 Z"/>
<path fill="#24a1da" d="M 621.75,819.46 Q 620.22,819.82 620.48,819.17 Q 620.80,818.37 620.79,818.25 L 620.32,812.68 A 1.31,0.48 33.6 0 0 619.76,811.92 L 619.00,811.29 Q 622.63,810.82 626.27,810.39 Q 646.39,808.00 664.94,799.94 Q 681.85,792.60 691.11,776.73 Q 691.33,776.36 691.47,776.63 Q 691.53,776.75 691.45,776.99 Q 686.89,791.50 674.44,800.69 Q 664.68,807.88 653.85,811.93 Q 638.29,817.74 621.75,819.46 Z"/>
<path fill="#1f89c9" d="M 619.00,811.29 L 619.76,811.92 A 1.31,0.48 33.6 0 1 620.32,812.68 L 620.79,818.25 Q 620.80,818.37 620.48,819.17 Q 620.22,819.82 621.75,819.46 Q 600.72,822.42 577.75,821.00 Q 569.38,820.48 555.00,820.46 Q 552.25,819.94 553.01,817.00 Q 553.49,815.16 551.82,814.78 Q 550.75,814.55 551.84,814.50 Q 553.27,814.43 552.25,813.29 Q 562.29,812.62 582.50,813.00 Q 595.66,813.25 619.00,811.29 Z"/>
<path fill="#1e86c7" d="M 253.00,812.21 Q 259.84,812.40 266.67,812.58 Q 271.34,812.70 280.34,812.50 Q 289.42,812.29 298.50,812.79 Q 297.15,813.50 295.71,813.33 Q 295.09,813.26 295.34,813.83 Q 296.40,816.29 295.93,818.70 A 0.57,0.54 -75.5 0 0 296.29,819.35 Q 298.40,820.02 300.69,819.81 Q 297.84,819.98 295.00,820.21 Q 282.60,820.45 278.25,820.75 Q 262.59,821.83 246.96,820.50 L 253.31,820.25 A 0.83,0.81 -3.0 0 0 254.11,819.38 Q 253.91,816.90 254.08,815.31 Q 254.19,814.28 253.94,813.84 Q 253.59,813.24 252.82,813.00 Q 252.60,812.94 252.84,812.91 Q 256.56,812.53 252.81,812.44 Q 252.20,812.43 252.67,812.25 Q 252.78,812.20 253.00,812.21 Z"/>
<path fill="#1b75bb" d="M 298.50,812.79 Q 360.28,814.44 413.11,845.94 Q 420.16,850.14 427.66,855.55 A 1.01,1.01 -45.2 0 0 428.84,855.54 Q 447.16,842.16 467.99,833.06 Q 508.27,815.46 552.25,813.29 Q 553.27,814.43 551.84,814.50 Q 550.75,814.55 551.82,814.78 Q 553.49,815.16 553.01,817.00 Q 552.25,819.94 555.00,820.46 Q 515.01,821.46 477.02,833.80 Q 475.55,834.28 476.50,834.46 Q 476.73,834.51 476.98,834.44 Q 485.98,831.98 495.19,830.42 Q 526.37,825.15 558.00,825.79 Q 556.03,829.90 556.81,833.44 Q 557.52,836.65 556.11,838.78 A 1.07,1.07 -76.2 0 1 555.32,839.26 L 550.50,839.71 Q 541.13,839.26 531.76,839.03 Q 494.35,838.11 457.78,845.90 Q 445.52,848.51 434.05,853.54 Q 431.35,854.73 428.99,856.51 A 1.00,0.99 -48.4 0 1 427.89,856.58 Q 416.89,850.14 405.02,847.15 Q 396.75,845.07 388.38,843.47 Q 380.47,841.96 371.54,841.04 Q 337.87,837.57 304.00,839.46 Q 301.08,839.28 302.72,838.71 A 0.70,0.67 -10.9 0 0 303.18,838.06 Q 303.14,833.27 303.25,832.25 Q 303.57,829.15 302.24,827.09 A 0.46,0.36 58.2 0 1 302.31,826.49 L 302.49,826.40 Q 302.59,826.34 302.48,826.32 L 297.96,825.50 Q 338.91,824.60 378.76,833.89 Q 379.74,834.11 379.28,833.53 Q 379.15,833.37 378.72,833.33 Q 378.37,833.29 378.16,833.22 Q 337.63,820.21 295.00,820.21 Q 297.84,819.98 300.69,819.81 Q 298.40,820.02 296.29,819.35 A 0.57,0.54 -75.5 0 1 295.93,818.70 Q 296.40,816.29 295.34,813.83 Q 295.09,813.26 295.71,813.33 Q 297.15,813.50 298.50,812.79 Z"/>
<path fill="#208ecd" d="M 637.00,824.29 Q 635.58,824.88 636.50,825.25 Q 637.27,831.44 637.05,837.68 Q 637.03,838.08 636.59,839.74 Q 636.09,841.60 638.75,841.46 Q 612.85,846.07 586.75,842.50 Q 580.91,841.70 550.50,839.71 L 555.32,839.26 A 1.07,1.07 -76.2 0 0 556.11,838.78 Q 557.52,836.65 556.81,833.44 Q 556.03,829.90 558.00,825.79 Q 571.03,825.71 590.50,826.75 Q 612.94,827.94 637.00,824.29 Z"/>
<path fill="#005889" d="M 495.04,892.18 L 504.83,894.12 A 0.61,0.56 7.1 0 1 505.32,894.70 Q 505.27,896.08 504.35,897.14 A 0.87,0.79 26.1 0 1 503.51,897.38 Q 496.93,895.72 490.32,894.20 Q 490.25,894.18 484.11,893.20 Q 476.11,891.92 472.63,885.53 Q 469.26,879.34 471.32,872.67 Q 473.55,865.48 481.75,862.75 Q 486.36,861.22 491.19,861.93 Q 495.96,862.63 499.71,865.36 Q 507.76,871.20 504.75,882.25 Q 502.79,889.43 495.04,891.92 Q 494.52,892.08 495.04,892.18 ZM 487.3206,890.3925 A 12.79,12.39 93.0 0 0 500.3630,878.2684 A 12.79,12.39 93.0 0 0 488.6594,864.8475 A 12.79,12.39 93.0 0 0 475.6170,876.9716 A 12.79,12.39 93.0 0 0 487.3206,890.3925 Z"/>
<path fill="#005889" d="M 338.67,893.28 Q 336.80,893.12 334.93,892.88 A 0.58,0.56 4.1 0 1 334.43,892.32 L 334.26,863.70 A 1.02,1.01 -3.9 0 1 335.14,862.70 Q 342.25,861.67 348.67,862.28 Q 356.13,862.98 360.23,865.99 Q 366.07,870.27 365.35,878.38 Q 365.00,882.35 363.12,885.27 Q 361.74,887.40 359.75,889.01 Q 358.02,890.40 355.34,891.31 Q 347.28,894.03 338.67,893.28 ZM 339.93,890.06 Q 344.62,890.65 349.25,889.77 Q 360.18,887.69 360.11,876.50 Q 360.07,869.17 354.19,866.81 Q 347.70,864.22 339.85,865.38 A 0.71,0.70 85.8 0 0 339.25,866.08 L 339.25,889.29 A 0.78,0.77 -86.7 0 0 339.93,890.06 Z"/>
<path fill="#005889" d="M 523.33,876.85 Q 518.62,875.18 518.71,870.57 Q 518.76,867.97 520.63,866.08 Q 522.52,864.17 525.12,863.45 Q 528.02,862.63 531.42,862.85 Q 534.75,863.07 537.56,864.94 Q 541.17,867.34 540.28,871.20 Q 539.86,873.02 538.56,874.40 Q 537.28,875.75 535.48,876.51 Q 533.98,877.14 535.55,877.57 Q 537.36,878.07 539.00,879.31 Q 540.54,880.47 541.26,882.29 Q 543.73,888.59 537.06,891.81 Q 529.44,895.50 522.04,891.86 Q 518.93,890.34 517.93,888.12 Q 516.62,885.23 518.52,881.93 Q 520.10,879.20 523.35,877.95 Q 524.84,877.38 523.33,876.85 ZM 526.92,874.85 Q 531.16,876.91 534.28,873.47 Q 535.77,871.83 535.76,870.04 Q 535.75,867.77 533.50,866.50 Q 531.09,865.14 528.42,865.59 Q 525.74,866.04 524.12,867.85 Q 522.32,869.87 523.88,872.27 Q 524.93,873.88 526.92,874.85 ZM 527.11,890.23 Q 530.46,891.21 533.62,889.70 Q 536.15,888.50 536.82,886.30 Q 537.67,883.49 534.81,881.19 Q 531.09,878.19 527.16,879.39 Q 524.88,880.08 523.36,881.86 Q 521.36,884.21 522.65,886.76 Q 523.92,889.29 527.11,890.23 Z"/>
<path fill="#005889" d="M 383.63,874.54 Q 386.58,870.91 391.26,870.53 A 0.93,0.84 -18.6 0 1 392.06,870.88 Q 392.97,872.17 392.43,873.78 A 0.72,0.65 8.8 0 1 391.75,874.23 Q 386.79,874.08 384.96,877.60 Q 384.01,879.43 384.01,884.56 Q 384.01,888.37 383.95,892.18 A 0.67,0.47 -89.0 0 1 383.47,892.84 L 379.82,892.77 A 1.00,0.85 -89.4 0 1 378.99,891.77 L 378.83,871.56 A 0.55,0.44 -89.2 0 1 379.30,871.00 L 382.70,871.19 A 0.65,0.50 89.7 0 1 383.18,871.81 L 383.27,874.45 Q 383.29,874.96 383.63,874.54 Z"/>
<path fill="#005889" d="M 429.1210,881.5104 A 13.36,11.56 -2.1 0 1 416.1936,893.5522 A 13.36,11.56 -2.1 0 1 402.4190,882.4896 A 13.36,11.56 -2.1 0 1 415.3464,870.4478 A 13.36,11.56 -2.1 0 1 429.1210,881.5104 ZM 424.18,881.96 A 8.43 8.43 0.0 0 0 415.75,873.53 A 8.43 8.43 0.0 0 0 407.32,881.96 A 8.43 8.43 0.0 0 0 415.75,890.39 A 8.43 8.43 0.0 0 0 424.18,881.96 Z"/>
<path fill="#005889" d="M 443.94,880.81 Q 440.74,877.98 442.22,874.95 Q 443.26,872.80 446.17,871.56 Q 451.45,869.31 457.12,871.74 A 0.71,0.70 14.0 0 1 457.55,872.44 Q 457.35,875.15 454.50,874.00 Q 452.02,873.00 449.35,873.74 Q 447.50,874.26 446.79,875.59 Q 445.96,877.17 447.46,878.45 Q 448.13,879.02 449.86,879.55 Q 452.43,880.35 454.79,881.61 Q 457.80,883.23 458.51,885.51 Q 459.21,887.79 457.82,889.87 Q 456.78,891.42 454.55,892.32 Q 448.35,894.83 441.90,892.25 A 0.81,0.74 11.5 0 1 441.39,891.56 Q 441.34,890.21 442.36,889.30 A 0.79,0.67 36.4 0 1 443.19,889.24 Q 446.91,891.17 450.86,890.25 Q 453.05,889.75 453.73,888.07 Q 454.48,886.21 452.76,884.86 Q 451.99,884.26 449.95,883.65 Q 445.75,882.42 443.94,880.81 Z"/>
<path fill="#005889" d="M 573.98,887.38 Q 571.94,883.83 573.25,879.25 Q 574.74,874.06 579.97,872.01 Q 586.64,869.40 593.47,871.42 A 0.68,0.66 8.1 0 1 593.96,872.06 Q 593.96,874.77 591.06,873.94 Q 583.17,871.67 579.43,877.25 Q 577.07,880.79 578.13,884.60 Q 579.36,889.04 584.50,890.25 Q 588.09,891.10 592.77,889.65 A 0.61,0.44 -14.5 0 1 593.50,889.94 L 593.83,891.80 A 0.68,0.56 -14.6 0 1 593.35,892.47 Q 586.10,894.77 579.81,892.13 Q 575.73,890.41 573.98,887.38 Z"/>
<path fill="#005889" d="M 631.8510,881.5004 A 13.36,11.57 -2.1 0 1 618.9240,893.5522 A 13.36,11.57 -2.1 0 1 605.1490,882.4796 A 13.36,11.57 -2.1 0 1 618.0760,870.4278 A 13.36,11.57 -2.1 0 1 631.8510,881.5004 ZM 618.0029,890.5050 A 8.55,8.29 93.4 0 0 626.7854,882.4616 A 8.55,8.29 93.4 0 0 619.0171,873.4350 A 8.55,8.29 93.4 0 0 610.2346,881.4784 A 8.55,8.29 93.4 0 0 618.0029,890.5050 Z"/>
<path fill="#005889" d="M 650.66,873.83 Q 655.02,869.47 661.00,870.75 Q 664.14,871.42 666.22,874.34 A 0.40,0.40 -40.9 0 0 666.84,874.38 Q 670.05,870.96 674.36,870.59 Q 678.61,870.22 681.60,872.56 Q 684.91,875.15 684.86,880.25 Q 684.80,886.22 684.70,892.19 A 0.68,0.65 83.2 0 1 684.22,892.83 Q 682.39,893.33 680.55,892.84 A 0.69,0.66 -82.9 0 1 680.06,892.18 Q 679.95,885.97 680.00,879.75 Q 680.03,875.27 676.42,874.14 Q 673.39,873.19 670.68,874.59 Q 667.29,876.33 667.50,881.25 Q 667.60,883.70 667.45,892.19 A 0.68,0.65 83.2 0 1 666.97,892.83 Q 665.14,893.33 663.30,892.84 A 0.68,0.66 -82.8 0 1 662.81,892.19 Q 662.73,886.89 662.74,881.59 Q 662.74,877.49 661.46,875.71 Q 659.20,872.58 654.50,874.25 Q 652.35,875.01 651.24,877.07 Q 650.50,878.45 650.50,881.06 Q 650.50,885.02 650.50,888.97 Q 650.50,891.95 650.48,892.00 Q 649.89,893.44 646.47,892.64 A 0.96,0.93 -84.0 0 1 645.74,891.71 L 645.58,871.81 A 0.72,0.67 80.5 0 1 646.03,871.13 Q 649.93,869.74 650.28,873.69 Q 650.33,874.16 650.66,873.83 Z"/>
<path fill="#005889" d="M 194.83,888.06 Q 196.67,880.24 200.14,871.68 A 0.88,0.72 -77.1 0 1 200.84,871.14 L 204.51,871.13 A 0.44,0.37 -78.1 0 1 204.83,871.72 Q 201.49,880.76 197.69,889.61 Q 196.51,892.36 196.39,892.46 Q 195.31,893.32 192.56,892.64 A 1.92,1.77 -2.0 0 1 191.24,891.51 L 185.57,876.21 Q 185.24,875.33 184.94,876.21 Q 182.46,883.43 179.63,889.84 Q 178.55,892.28 178.19,892.52 Q 177.09,893.24 174.58,892.68 A 2.09,1.98 85.0 0 1 173.12,891.39 L 165.63,871.67 A 0.46,0.42 78.6 0 1 166.01,871.05 L 170.08,871.11 A 0.77,0.67 81.1 0 1 170.73,871.66 L 175.94,888.43 Q 176.27,889.47 176.66,888.45 L 183.12,871.52 A 0.80,0.65 -76.0 0 1 183.81,871.00 L 187.21,871.19 A 0.93,0.67 78.1 0 1 187.87,871.79 L 193.89,888.12 Q 194.46,889.67 194.83,888.06 Z"/>
<path fill="#005889" d="M 243.50,888.46 Q 243.78,889.43 244.11,888.47 L 249.89,871.54 A 0.75,0.70 -80.4 0 1 250.55,871.03 L 254.19,871.03 A 0.54,0.53 -78.8 0 1 254.68,871.77 L 246.38,892.22 A 1.04,0.97 -85.7 0 1 245.72,892.83 Q 243.89,893.33 242.05,892.84 A 1.04,1.00 -2.0 0 1 241.37,892.23 L 235.33,876.26 Q 235.02,875.43 234.69,876.26 L 228.83,891.25 A 2.47,2.28 3.9 0 1 227.05,892.68 Q 224.57,893.19 223.53,892.46 Q 223.19,892.21 222.30,889.78 Q 219.02,880.73 215.49,871.78 A 0.45,0.44 73.3 0 1 215.80,871.19 Q 217.79,870.73 219.82,871.09 A 0.85,0.84 -3.4 0 1 220.48,871.67 L 225.89,888.66 Q 226.06,889.18 226.25,888.68 L 232.87,871.52 A 0.77,0.73 -78.8 0 1 233.56,871.03 L 236.69,871.03 A 0.81,0.72 77.1 0 1 237.38,871.52 Q 241.01,879.90 243.50,888.46 Z"/>
<path fill="#005889" d="M 285.01,875.79 Q 284.87,875.34 284.69,875.78 L 278.02,892.36 A 0.95,0.91 5.4 0 1 277.31,892.92 Q 275.54,893.25 273.79,892.82 A 0.97,0.95 86.3 0 1 273.12,892.22 L 265.41,871.72 A 0.43,0.38 78.2 0 1 265.74,871.14 L 269.57,871.09 A 0.81,0.65 79.3 0 1 270.23,871.66 L 275.50,888.40 Q 275.78,889.29 276.12,888.42 L 282.61,871.77 A 1.01,1.01 -85.3 0 1 283.29,871.17 Q 284.92,870.75 286.59,871.08 A 0.89,0.89 -4.2 0 1 287.25,871.65 L 293.28,888.07 Q 293.72,889.27 294.14,888.05 L 299.80,871.50 A 0.81,0.73 8.5 0 1 300.55,871.00 L 303.94,871.00 A 0.60,0.59 -79.0 0 1 304.49,871.82 L 296.41,891.73 A 1.66,1.27 -76.7 0 1 295.16,892.75 L 291.78,892.85 A 0.98,0.53 71.3 0 1 291.11,892.23 Q 287.54,884.08 285.01,875.79 Z"/>
<ellipse fill="#005889" cx="0.00" cy="0.00" transform="translate(317.12,890.61) rotate(-0.6)" rx="3.33" ry="2.85"/>
<ellipse fill="#005889" cx="0.00" cy="0.00" transform="translate(557.89,890.63) rotate(0.7)" rx="3.32" ry="2.84"/>
</svg>
