<?xml version="1.0" encoding="UTF-8" standalone="no"?>
<!DOCTYPE svg PUBLIC "-//W3C//DTD SVG 1.1//EN" "http://www.w3.org/Graphics/SVG/1.1/DTD/svg11.dtd">
<svg xmlns="http://www.w3.org/2000/svg" version="1.1" viewBox="0 0 104 96">
<path fill="#eab059" d="M 29.81,0.00 Q 30.31,0.00 30.81,0.00 Q 33.86,5.00 35.25,10.67 Q 35.56,11.91 35.13,12.80 Q 34.33,14.49 32.90,13.21 Q 32.32,12.68 31.90,11.61 Q 30.16,7.19 28.50,2.75 Q 27.95,1.28 29.81,0.00 Z"/>
<path fill="#eab059" d="M 72.56,0.00 Q 73.06,0.00 73.56,0.00 Q 75.28,1.58 74.25,4.25 Q 72.72,8.20 71.05,12.09 Q 70.59,13.17 70.00,13.53 Q 68.84,14.24 67.96,12.61 A 2.69,2.69 41.7 0 1 67.83,10.35 Q 69.60,5.85 71.00,2.25 Q 71.63,0.62 72.56,0.00 Z"/>
<path fill="#eab059" d="M 0.00,71.69 Q 0.00,70.81 0.00,69.94 Q 0.38,69.45 0.85,69.05 A 1.53,1.39 22.7 0 1 1.75,68.73 L 21.24,68.49 A 0.45,0.43 -3.4 0 0 21.69,68.01 Q 19.56,49.59 29.81,34.81 Q 33.08,30.10 38.54,26.77 Q 49.65,19.98 60.94,24.81 Q 71.37,29.28 76.88,40.59 Q 83.14,53.43 81.50,67.75 A 0.63,0.63 4.6 0 0 82.10,68.45 Q 87.62,68.75 92.25,68.53 Q 97.11,68.31 101.94,68.76 A 0.90,0.87 -9.2 0 1 102.66,69.26 Q 104.40,72.90 100.50,73.02 Q 98.64,73.08 98.50,73.09 Q 96.21,73.25 92.25,73.25 Q 47.78,73.22 3.31,73.06 Q 0.81,73.05 0.00,71.69 ZM 66.81,33.69 Q 54.03,22.91 40.76,30.57 Q 36.86,32.83 33.90,36.20 Q 30.94,39.58 29.00,43.72 Q 23.76,54.90 25.32,67.81 A 0.77,0.75 86.2 0 0 26.08,68.49 L 77.32,68.32 A 0.58,0.56 -85.9 0 0 77.88,67.82 Q 79.99,52.25 71.58,39.13 Q 69.61,36.04 66.81,33.69 Z"/>
<path fill="#eab059" d="M 13.74,40.18 A 1.66,1.66 -58.4 0 1 11.39,40.74 Q 8.27,38.69 5.18,36.74 Q 4.03,36.01 3.72,35.37 Q 3.23,34.36 3.76,33.17 Q 4.56,31.39 6.23,32.39 Q 9.59,34.40 12.82,36.49 Q 13.92,37.21 14.12,38.01 Q 14.39,39.06 13.74,40.18 Z"/>
<path fill="#eab059" d="M 90.02,40.78 Q 88.38,39.55 89.19,37.96 Q 89.60,37.16 91.00,36.24 Q 93.36,34.67 95.69,33.08 Q 97.13,32.10 98.16,32.17 Q 100.10,32.30 99.44,35.07 A 1.61,1.48 -16.0 0 1 98.94,35.89 Q 95.33,39.06 90.90,40.88 A 0.92,0.85 -36.1 0 1 90.02,40.78 Z"/>
<path fill="#eab059" d="M 87.69,96.00 Q 51.69,96.00 15.69,96.00 Q 13.14,94.19 14.98,91.94 A 1.22,1.08 14.5 0 1 15.81,91.52 Q 18.90,91.27 22.00,91.29 Q 53.48,91.47 84.96,91.50 Q 87.04,91.50 87.99,91.96 Q 90.35,93.10 87.69,96.00 Z"/>
</svg>
