<?xml version="1.0" encoding="UTF-8" standalone="no"?>
<!DOCTYPE svg PUBLIC "-//W3C//DTD SVG 1.1//EN" "http://www.w3.org/Graphics/SVG/1.1/DTD/svg11.dtd">
<svg xmlns="http://www.w3.org/2000/svg" version="1.1" viewBox="0 0 320 268">
<path fill="#435e88" d="M 287.00,2.79 Q 286.90,4.07 285.25,5.50 Q 274.25,15.00 263.21,24.45 Q 262.35,25.18 262.75,26.21 Q 259.75,26.28 256.75,26.23 Q 253.17,26.17 252.00,29.50 Q 251.57,30.72 251.71,35.25 Q 250.11,35.35 249.06,36.44 Q 247.99,37.56 247.96,37.58 Q 197.37,81.44 166.44,107.94 Q 165.39,108.83 165.75,110.21 Q 153.92,102.38 142.12,94.51 Q 138.13,91.86 135.84,91.52 Q 131.61,90.91 128.79,94.47 Q 127.64,95.92 127.29,97.80 Q 126.99,99.48 127.00,101.50 Q 127.07,111.22 126.96,143.50 Q 124.91,143.77 122.31,146.06 Q 112.29,154.91 62.19,197.69 Q 61.20,198.53 61.50,199.46 Q 50.50,199.52 39.50,199.50 Q 36.42,199.50 35.15,200.29 Q 33.00,201.63 33.01,204.75 Q 33.03,214.50 32.96,224.25 Q 31.62,224.06 31.06,224.56 Q 22.26,232.41 12.96,240.12 A 0.85,0.81 59.5 0 1 11.67,239.75 L 10.41,236.59 Q 10.27,236.25 10.12,236.60 Q 9.73,237.47 9.54,236.00 Q 9.47,136.89 9.50,37.78 Q 9.50,21.89 10.50,18.30 Q 13.37,7.97 24.29,4.02 Q 27.81,2.75 33.38,2.73 Q 160.19,2.27 287.00,2.79 ZM 68.2274,30.8892 A 4.69 4.69 0.0 0 0 63.5292,26.2074 L 37.6492,26.2526 A 4.69 4.69 0.0 0 0 32.9674,30.9508 L 33.0126,56.8308 A 4.69 4.69 0.0 0 0 37.7108,61.5126 L 63.5908,61.4674 A 4.69 4.69 0.0 0 0 68.2726,56.7692 L 68.2274,30.8892 ZM 68.2174,88.6592 A 4.71 4.71 0.0 0 0 63.4992,83.9575 L 37.6592,84.0026 A 4.71 4.71 0.0 0 0 32.9575,88.7208 L 33.0026,114.5608 A 4.71 4.71 0.0 0 0 37.7208,119.2625 L 63.5608,119.2174 A 4.71 4.71 0.0 0 0 68.2625,114.4992 L 68.2174,88.6592 ZM 68.2274,146.3892 A 4.69 4.69 0.0 0 0 63.5292,141.7074 L 37.6492,141.7526 A 4.69 4.69 0.0 0 0 32.9674,146.4508 L 33.0126,172.3308 A 4.69 4.69 0.0 0 0 37.7108,177.0126 L 63.5908,176.9674 A 4.69 4.69 0.0 0 0 68.2726,172.2692 L 68.2274,146.3892 Z"/>
<path fill="#33527d" d="M 287.00,2.79 Q 291.08,2.38 294.00,3.25 Q 305.40,6.65 309.16,16.87 Q 310.50,20.50 310.50,27.31 Q 310.50,135.94 310.50,245.97 Q 310.50,247.10 310.19,248.19 Q 306.72,260.24 296.32,263.97 Q 292.05,265.50 281.51,265.50 Q 161.47,265.50 41.44,265.50 Q 28.10,265.50 23.72,263.98 Q 14.13,260.66 10.49,250.18 Q 9.48,247.29 9.48,243.16 Q 9.47,239.58 9.54,236.00 Q 9.73,237.47 10.12,236.60 Q 10.27,236.25 10.41,236.59 L 11.67,239.75 A 0.85,0.81 59.5 0 0 12.96,240.12 Q 22.26,232.41 31.06,224.56 Q 31.62,224.06 32.96,224.25 Q 32.89,227.15 33.09,230.04 Q 33.25,232.49 34.49,233.51 Q 36.01,234.75 38.50,234.75 Q 50.50,234.75 62.50,234.73 Q 68.25,234.72 68.25,228.50 Q 68.25,217.25 68.25,206.00 Q 68.25,198.80 61.50,199.46 Q 61.20,198.53 62.19,197.69 Q 112.29,154.91 122.31,146.06 Q 124.91,143.77 126.96,143.50 Q 127.03,163.25 127.16,183.00 Q 127.22,191.62 134.99,191.97 Q 137.36,192.07 139.34,190.75 Q 171.38,169.39 202.56,148.56 Q 208.44,144.64 205.83,138.56 Q 205.07,136.78 203.45,135.52 Q 202.23,134.57 200.25,133.25 Q 183.01,121.71 165.75,110.21 Q 165.39,108.83 166.44,107.94 Q 197.37,81.44 247.96,37.58 Q 247.99,37.56 249.06,36.44 Q 250.11,35.35 251.71,35.25 Q 251.78,45.25 251.51,55.24 Q 251.34,61.46 257.50,61.47 Q 269.50,61.50 281.50,61.50 Q 286.15,61.50 286.92,57.82 Q 287.00,57.43 287.00,52.16 Q 287.00,41.58 287.00,31.00 Q 287.00,28.51 285.36,27.20 Q 284.25,26.31 281.76,26.30 Q 272.26,26.23 262.75,26.21 Q 262.35,25.18 263.21,24.45 Q 274.25,15.00 285.25,5.50 Q 286.90,4.07 287.00,2.79 ZM 287.0426,88.6808 A 4.67 4.67 0.0 0 0 282.3808,84.0026 L 256.4608,83.9574 A 4.67 4.67 0.0 0 0 251.7826,88.6192 L 251.7374,114.5392 A 4.67 4.67 0.0 0 0 256.3992,119.2174 L 282.3192,119.2626 A 4.67 4.67 0.0 0 0 286.9974,114.6008 L 287.0426,88.6808 ZM 286.9874,146.4092 A 4.70 4.70 0.0 0 0 282.2792,141.7175 L 256.4192,141.7626 A 4.70 4.70 0.0 0 0 251.7275,146.4708 L 251.7726,172.3308 A 4.70 4.70 0.0 0 0 256.4808,177.0225 L 282.3408,176.9774 A 4.70 4.70 0.0 0 0 287.0325,172.2692 L 286.9874,146.4092 ZM 286.9873,204.1093 A 4.64 4.64 0.0 0 0 282.3392,199.4774 L 256.3793,199.5227 A 4.64 4.64 0.0 0 0 251.7474,204.1708 L 251.7927,230.1307 A 4.64 4.64 0.0 0 0 256.4408,234.7626 L 282.4007,234.7173 A 4.64 4.64 0.0 0 0 287.0326,230.0692 L 286.9873,204.1093 Z"/>
<rect fill="#ffffff" x="-17.63" y="-17.63" transform="translate(50.62,43.86) rotate(-0.1)" width="35.26" height="35.26" rx="4.69"/>
<path fill="#ffffff" d="M 262.75,26.21 Q 272.26,26.23 281.76,26.30 Q 284.25,26.31 285.36,27.20 Q 287.00,28.51 287.00,31.00 Q 287.00,41.58 287.00,52.16 Q 287.00,57.43 286.92,57.82 Q 286.15,61.50 281.50,61.50 Q 269.50,61.50 257.50,61.47 Q 251.34,61.46 251.51,55.24 Q 251.78,45.25 251.71,35.25 Q 251.57,30.72 252.00,29.50 Q 253.17,26.17 256.75,26.23 Q 259.75,26.28 262.75,26.21 Z"/>
<rect fill="#ffffff" x="-17.63" y="-17.63" transform="translate(50.61,101.61) rotate(-0.1)" width="35.26" height="35.26" rx="4.71"/>
<rect fill="#ffffff" x="-17.63" y="-17.63" transform="translate(269.39,101.61) rotate(0.1)" width="35.26" height="35.26" rx="4.67"/>
<path fill="#ffffff" d="M 165.75,110.21 Q 183.01,121.71 200.25,133.25 Q 202.23,134.57 203.45,135.52 Q 205.07,136.78 205.83,138.56 Q 208.44,144.64 202.56,148.56 Q 171.38,169.39 139.34,190.75 Q 137.36,192.07 134.99,191.97 Q 127.22,191.62 127.16,183.00 Q 127.03,163.25 126.96,143.50 Q 127.07,111.22 127.00,101.50 Q 126.99,99.48 127.29,97.80 Q 127.64,95.92 128.79,94.47 Q 131.61,90.91 135.84,91.52 Q 138.13,91.86 142.12,94.51 Q 153.92,102.38 165.75,110.21 Z"/>
<rect fill="#ffffff" x="-17.63" y="-17.63" transform="translate(50.62,159.36) rotate(-0.1)" width="35.26" height="35.26" rx="4.69"/>
<rect fill="#ffffff" x="-17.63" y="-17.63" transform="translate(269.38,159.37) rotate(-0.1)" width="35.26" height="35.26" rx="4.70"/>
<path fill="#ffffff" d="M 61.50,199.46 Q 68.25,198.80 68.25,206.00 Q 68.25,217.25 68.25,228.50 Q 68.25,234.72 62.50,234.73 Q 50.50,234.75 38.50,234.75 Q 36.01,234.75 34.49,233.51 Q 33.25,232.49 33.09,230.04 Q 32.89,227.15 32.96,224.25 Q 33.03,214.50 33.01,204.75 Q 33.00,201.63 35.15,200.29 Q 36.42,199.50 39.50,199.50 Q 50.50,199.52 61.50,199.46 Z"/>
<rect fill="#ffffff" x="-17.62" y="-17.62" transform="translate(269.39,217.12) rotate(-0.1)" width="35.24" height="35.24" rx="4.64"/>
</svg>
